%TF.GenerationSoftware,KiCad,Pcbnew,8.0.5*%
%TF.CreationDate,2025-02-18T14:06:23-08:00*%
%TF.ProjectId,eegw:ads1299,65656777-3a61-4647-9331-3239392e6b69,rev?*%
%TF.SameCoordinates,Original*%
%TF.FileFunction,Legend,Top*%
%TF.FilePolarity,Positive*%
%FSLAX46Y46*%
G04 Gerber Fmt 4.6, Leading zero omitted, Abs format (unit mm)*
G04 Created by KiCad (PCBNEW 8.0.5) date 2025-02-18 14:06:23*
%MOMM*%
%LPD*%
G01*
G04 APERTURE LIST*
%ADD10C,0.100000*%
%ADD11C,0.150000*%
%ADD12C,0.098425*%
%ADD13C,0.120000*%
%ADD14C,0.152400*%
G04 APERTURE END LIST*
D10*
X181840193Y-121032538D02*
X181744955Y-120984919D01*
X181744955Y-120984919D02*
X181602098Y-120984919D01*
X181602098Y-120984919D02*
X181459241Y-121032538D01*
X181459241Y-121032538D02*
X181364003Y-121127776D01*
X181364003Y-121127776D02*
X181316384Y-121223014D01*
X181316384Y-121223014D02*
X181268765Y-121413490D01*
X181268765Y-121413490D02*
X181268765Y-121556347D01*
X181268765Y-121556347D02*
X181316384Y-121746823D01*
X181316384Y-121746823D02*
X181364003Y-121842061D01*
X181364003Y-121842061D02*
X181459241Y-121937300D01*
X181459241Y-121937300D02*
X181602098Y-121984919D01*
X181602098Y-121984919D02*
X181697336Y-121984919D01*
X181697336Y-121984919D02*
X181840193Y-121937300D01*
X181840193Y-121937300D02*
X181887812Y-121889680D01*
X181887812Y-121889680D02*
X181887812Y-121556347D01*
X181887812Y-121556347D02*
X181697336Y-121556347D01*
X182316384Y-121984919D02*
X182316384Y-120984919D01*
X182316384Y-120984919D02*
X182697336Y-120984919D01*
X182697336Y-120984919D02*
X182792574Y-121032538D01*
X182792574Y-121032538D02*
X182840193Y-121080157D01*
X182840193Y-121080157D02*
X182887812Y-121175395D01*
X182887812Y-121175395D02*
X182887812Y-121318252D01*
X182887812Y-121318252D02*
X182840193Y-121413490D01*
X182840193Y-121413490D02*
X182792574Y-121461109D01*
X182792574Y-121461109D02*
X182697336Y-121508728D01*
X182697336Y-121508728D02*
X182316384Y-121508728D01*
X183316384Y-121984919D02*
X183316384Y-120984919D01*
X183983050Y-120984919D02*
X184173526Y-120984919D01*
X184173526Y-120984919D02*
X184268764Y-121032538D01*
X184268764Y-121032538D02*
X184364002Y-121127776D01*
X184364002Y-121127776D02*
X184411621Y-121318252D01*
X184411621Y-121318252D02*
X184411621Y-121651585D01*
X184411621Y-121651585D02*
X184364002Y-121842061D01*
X184364002Y-121842061D02*
X184268764Y-121937300D01*
X184268764Y-121937300D02*
X184173526Y-121984919D01*
X184173526Y-121984919D02*
X183983050Y-121984919D01*
X183983050Y-121984919D02*
X183887812Y-121937300D01*
X183887812Y-121937300D02*
X183792574Y-121842061D01*
X183792574Y-121842061D02*
X183744955Y-121651585D01*
X183744955Y-121651585D02*
X183744955Y-121318252D01*
X183744955Y-121318252D02*
X183792574Y-121127776D01*
X183792574Y-121127776D02*
X183887812Y-121032538D01*
X183887812Y-121032538D02*
X183983050Y-120984919D01*
X184744955Y-120984919D02*
X185364002Y-120984919D01*
X185364002Y-120984919D02*
X185030669Y-121365871D01*
X185030669Y-121365871D02*
X185173526Y-121365871D01*
X185173526Y-121365871D02*
X185268764Y-121413490D01*
X185268764Y-121413490D02*
X185316383Y-121461109D01*
X185316383Y-121461109D02*
X185364002Y-121556347D01*
X185364002Y-121556347D02*
X185364002Y-121794442D01*
X185364002Y-121794442D02*
X185316383Y-121889680D01*
X185316383Y-121889680D02*
X185268764Y-121937300D01*
X185268764Y-121937300D02*
X185173526Y-121984919D01*
X185173526Y-121984919D02*
X184887812Y-121984919D01*
X184887812Y-121984919D02*
X184792574Y-121937300D01*
X184792574Y-121937300D02*
X184744955Y-121889680D01*
X137716384Y-74784919D02*
X137716384Y-74118252D01*
X137716384Y-73784919D02*
X137668765Y-73832538D01*
X137668765Y-73832538D02*
X137716384Y-73880157D01*
X137716384Y-73880157D02*
X137764003Y-73832538D01*
X137764003Y-73832538D02*
X137716384Y-73784919D01*
X137716384Y-73784919D02*
X137716384Y-73880157D01*
X138335431Y-74784919D02*
X138240193Y-74737300D01*
X138240193Y-74737300D02*
X138192574Y-74689680D01*
X138192574Y-74689680D02*
X138144955Y-74594442D01*
X138144955Y-74594442D02*
X138144955Y-74308728D01*
X138144955Y-74308728D02*
X138192574Y-74213490D01*
X138192574Y-74213490D02*
X138240193Y-74165871D01*
X138240193Y-74165871D02*
X138335431Y-74118252D01*
X138335431Y-74118252D02*
X138478288Y-74118252D01*
X138478288Y-74118252D02*
X138573526Y-74165871D01*
X138573526Y-74165871D02*
X138621145Y-74213490D01*
X138621145Y-74213490D02*
X138668764Y-74308728D01*
X138668764Y-74308728D02*
X138668764Y-74594442D01*
X138668764Y-74594442D02*
X138621145Y-74689680D01*
X138621145Y-74689680D02*
X138573526Y-74737300D01*
X138573526Y-74737300D02*
X138478288Y-74784919D01*
X138478288Y-74784919D02*
X138335431Y-74784919D01*
X139002098Y-73784919D02*
X139621145Y-73784919D01*
X139621145Y-73784919D02*
X139287812Y-74165871D01*
X139287812Y-74165871D02*
X139430669Y-74165871D01*
X139430669Y-74165871D02*
X139525907Y-74213490D01*
X139525907Y-74213490D02*
X139573526Y-74261109D01*
X139573526Y-74261109D02*
X139621145Y-74356347D01*
X139621145Y-74356347D02*
X139621145Y-74594442D01*
X139621145Y-74594442D02*
X139573526Y-74689680D01*
X139573526Y-74689680D02*
X139525907Y-74737300D01*
X139525907Y-74737300D02*
X139430669Y-74784919D01*
X139430669Y-74784919D02*
X139144955Y-74784919D01*
X139144955Y-74784919D02*
X139049717Y-74737300D01*
X139049717Y-74737300D02*
X139002098Y-74689680D01*
X139954479Y-73784919D02*
X140573526Y-73784919D01*
X140573526Y-73784919D02*
X140240193Y-74165871D01*
X140240193Y-74165871D02*
X140383050Y-74165871D01*
X140383050Y-74165871D02*
X140478288Y-74213490D01*
X140478288Y-74213490D02*
X140525907Y-74261109D01*
X140525907Y-74261109D02*
X140573526Y-74356347D01*
X140573526Y-74356347D02*
X140573526Y-74594442D01*
X140573526Y-74594442D02*
X140525907Y-74689680D01*
X140525907Y-74689680D02*
X140478288Y-74737300D01*
X140478288Y-74737300D02*
X140383050Y-74784919D01*
X140383050Y-74784919D02*
X140097336Y-74784919D01*
X140097336Y-74784919D02*
X140002098Y-74737300D01*
X140002098Y-74737300D02*
X139954479Y-74689680D01*
X139098527Y-63534919D02*
X139431860Y-64534919D01*
X139431860Y-64534919D02*
X139765193Y-63534919D01*
X140098527Y-64534919D02*
X140098527Y-63534919D01*
X140098527Y-63534919D02*
X140669955Y-64534919D01*
X140669955Y-64534919D02*
X140669955Y-63534919D01*
X90693765Y-132897300D02*
X90836622Y-132944919D01*
X90836622Y-132944919D02*
X91074717Y-132944919D01*
X91074717Y-132944919D02*
X91169955Y-132897300D01*
X91169955Y-132897300D02*
X91217574Y-132849680D01*
X91217574Y-132849680D02*
X91265193Y-132754442D01*
X91265193Y-132754442D02*
X91265193Y-132659204D01*
X91265193Y-132659204D02*
X91217574Y-132563966D01*
X91217574Y-132563966D02*
X91169955Y-132516347D01*
X91169955Y-132516347D02*
X91074717Y-132468728D01*
X91074717Y-132468728D02*
X90884241Y-132421109D01*
X90884241Y-132421109D02*
X90789003Y-132373490D01*
X90789003Y-132373490D02*
X90741384Y-132325871D01*
X90741384Y-132325871D02*
X90693765Y-132230633D01*
X90693765Y-132230633D02*
X90693765Y-132135395D01*
X90693765Y-132135395D02*
X90741384Y-132040157D01*
X90741384Y-132040157D02*
X90789003Y-131992538D01*
X90789003Y-131992538D02*
X90884241Y-131944919D01*
X90884241Y-131944919D02*
X91122336Y-131944919D01*
X91122336Y-131944919D02*
X91265193Y-131992538D01*
X92265193Y-132944919D02*
X91931860Y-132468728D01*
X91693765Y-132944919D02*
X91693765Y-131944919D01*
X91693765Y-131944919D02*
X92074717Y-131944919D01*
X92074717Y-131944919D02*
X92169955Y-131992538D01*
X92169955Y-131992538D02*
X92217574Y-132040157D01*
X92217574Y-132040157D02*
X92265193Y-132135395D01*
X92265193Y-132135395D02*
X92265193Y-132278252D01*
X92265193Y-132278252D02*
X92217574Y-132373490D01*
X92217574Y-132373490D02*
X92169955Y-132421109D01*
X92169955Y-132421109D02*
X92074717Y-132468728D01*
X92074717Y-132468728D02*
X91693765Y-132468728D01*
X93027098Y-132421109D02*
X93169955Y-132468728D01*
X93169955Y-132468728D02*
X93217574Y-132516347D01*
X93217574Y-132516347D02*
X93265193Y-132611585D01*
X93265193Y-132611585D02*
X93265193Y-132754442D01*
X93265193Y-132754442D02*
X93217574Y-132849680D01*
X93217574Y-132849680D02*
X93169955Y-132897300D01*
X93169955Y-132897300D02*
X93074717Y-132944919D01*
X93074717Y-132944919D02*
X92693765Y-132944919D01*
X92693765Y-132944919D02*
X92693765Y-131944919D01*
X92693765Y-131944919D02*
X93027098Y-131944919D01*
X93027098Y-131944919D02*
X93122336Y-131992538D01*
X93122336Y-131992538D02*
X93169955Y-132040157D01*
X93169955Y-132040157D02*
X93217574Y-132135395D01*
X93217574Y-132135395D02*
X93217574Y-132230633D01*
X93217574Y-132230633D02*
X93169955Y-132325871D01*
X93169955Y-132325871D02*
X93122336Y-132373490D01*
X93122336Y-132373490D02*
X93027098Y-132421109D01*
X93027098Y-132421109D02*
X92693765Y-132421109D01*
X94217574Y-132944919D02*
X93646146Y-132944919D01*
X93931860Y-132944919D02*
X93931860Y-131944919D01*
X93931860Y-131944919D02*
X93836622Y-132087776D01*
X93836622Y-132087776D02*
X93741384Y-132183014D01*
X93741384Y-132183014D02*
X93646146Y-132230633D01*
X183216384Y-82784919D02*
X183216384Y-82118252D01*
X183216384Y-82308728D02*
X183264003Y-82213490D01*
X183264003Y-82213490D02*
X183311622Y-82165871D01*
X183311622Y-82165871D02*
X183406860Y-82118252D01*
X183406860Y-82118252D02*
X183502098Y-82118252D01*
X183740194Y-82784919D02*
X184264003Y-82118252D01*
X183740194Y-82118252D02*
X184264003Y-82784919D01*
X184597337Y-81880157D02*
X184644956Y-81832538D01*
X184644956Y-81832538D02*
X184740194Y-81784919D01*
X184740194Y-81784919D02*
X184978289Y-81784919D01*
X184978289Y-81784919D02*
X185073527Y-81832538D01*
X185073527Y-81832538D02*
X185121146Y-81880157D01*
X185121146Y-81880157D02*
X185168765Y-81975395D01*
X185168765Y-81975395D02*
X185168765Y-82070633D01*
X185168765Y-82070633D02*
X185121146Y-82213490D01*
X185121146Y-82213490D02*
X184549718Y-82784919D01*
X184549718Y-82784919D02*
X185168765Y-82784919D01*
X93765193Y-127944919D02*
X93193765Y-127944919D01*
X93479479Y-127944919D02*
X93479479Y-126944919D01*
X93479479Y-126944919D02*
X93384241Y-127087776D01*
X93384241Y-127087776D02*
X93289003Y-127183014D01*
X93289003Y-127183014D02*
X93193765Y-127230633D01*
X183098527Y-63868252D02*
X183479479Y-63868252D01*
X183241384Y-63534919D02*
X183241384Y-64392061D01*
X183241384Y-64392061D02*
X183289003Y-64487300D01*
X183289003Y-64487300D02*
X183384241Y-64534919D01*
X183384241Y-64534919D02*
X183479479Y-64534919D01*
X183717575Y-64534919D02*
X184241384Y-63868252D01*
X183717575Y-63868252D02*
X184241384Y-64534919D01*
X184812813Y-63534919D02*
X184908051Y-63534919D01*
X184908051Y-63534919D02*
X185003289Y-63582538D01*
X185003289Y-63582538D02*
X185050908Y-63630157D01*
X185050908Y-63630157D02*
X185098527Y-63725395D01*
X185098527Y-63725395D02*
X185146146Y-63915871D01*
X185146146Y-63915871D02*
X185146146Y-64153966D01*
X185146146Y-64153966D02*
X185098527Y-64344442D01*
X185098527Y-64344442D02*
X185050908Y-64439680D01*
X185050908Y-64439680D02*
X185003289Y-64487300D01*
X185003289Y-64487300D02*
X184908051Y-64534919D01*
X184908051Y-64534919D02*
X184812813Y-64534919D01*
X184812813Y-64534919D02*
X184717575Y-64487300D01*
X184717575Y-64487300D02*
X184669956Y-64439680D01*
X184669956Y-64439680D02*
X184622337Y-64344442D01*
X184622337Y-64344442D02*
X184574718Y-64153966D01*
X184574718Y-64153966D02*
X184574718Y-63915871D01*
X184574718Y-63915871D02*
X184622337Y-63725395D01*
X184622337Y-63725395D02*
X184669956Y-63630157D01*
X184669956Y-63630157D02*
X184717575Y-63582538D01*
X184717575Y-63582538D02*
X184812813Y-63534919D01*
X183216384Y-67284919D02*
X183216384Y-66618252D01*
X183216384Y-66808728D02*
X183264003Y-66713490D01*
X183264003Y-66713490D02*
X183311622Y-66665871D01*
X183311622Y-66665871D02*
X183406860Y-66618252D01*
X183406860Y-66618252D02*
X183502098Y-66618252D01*
X183740194Y-67284919D02*
X184264003Y-66618252D01*
X183740194Y-66618252D02*
X184264003Y-67284919D01*
X184835432Y-66284919D02*
X184930670Y-66284919D01*
X184930670Y-66284919D02*
X185025908Y-66332538D01*
X185025908Y-66332538D02*
X185073527Y-66380157D01*
X185073527Y-66380157D02*
X185121146Y-66475395D01*
X185121146Y-66475395D02*
X185168765Y-66665871D01*
X185168765Y-66665871D02*
X185168765Y-66903966D01*
X185168765Y-66903966D02*
X185121146Y-67094442D01*
X185121146Y-67094442D02*
X185073527Y-67189680D01*
X185073527Y-67189680D02*
X185025908Y-67237300D01*
X185025908Y-67237300D02*
X184930670Y-67284919D01*
X184930670Y-67284919D02*
X184835432Y-67284919D01*
X184835432Y-67284919D02*
X184740194Y-67237300D01*
X184740194Y-67237300D02*
X184692575Y-67189680D01*
X184692575Y-67189680D02*
X184644956Y-67094442D01*
X184644956Y-67094442D02*
X184597337Y-66903966D01*
X184597337Y-66903966D02*
X184597337Y-66665871D01*
X184597337Y-66665871D02*
X184644956Y-66475395D01*
X184644956Y-66475395D02*
X184692575Y-66380157D01*
X184692575Y-66380157D02*
X184740194Y-66332538D01*
X184740194Y-66332538D02*
X184835432Y-66284919D01*
X93146146Y-121944919D02*
X93765193Y-121944919D01*
X93765193Y-121944919D02*
X93431860Y-122325871D01*
X93431860Y-122325871D02*
X93574717Y-122325871D01*
X93574717Y-122325871D02*
X93669955Y-122373490D01*
X93669955Y-122373490D02*
X93717574Y-122421109D01*
X93717574Y-122421109D02*
X93765193Y-122516347D01*
X93765193Y-122516347D02*
X93765193Y-122754442D01*
X93765193Y-122754442D02*
X93717574Y-122849680D01*
X93717574Y-122849680D02*
X93669955Y-122897300D01*
X93669955Y-122897300D02*
X93574717Y-122944919D01*
X93574717Y-122944919D02*
X93289003Y-122944919D01*
X93289003Y-122944919D02*
X93193765Y-122897300D01*
X93193765Y-122897300D02*
X93146146Y-122849680D01*
X139716384Y-150361109D02*
X140049717Y-150361109D01*
X140192574Y-150884919D02*
X139716384Y-150884919D01*
X139716384Y-150884919D02*
X139716384Y-149884919D01*
X139716384Y-149884919D02*
X140192574Y-149884919D01*
X140525908Y-149884919D02*
X141192574Y-150884919D01*
X141192574Y-149884919D02*
X140525908Y-150884919D01*
X141573527Y-150884919D02*
X141573527Y-149884919D01*
X141573527Y-149884919D02*
X141954479Y-149884919D01*
X141954479Y-149884919D02*
X142049717Y-149932538D01*
X142049717Y-149932538D02*
X142097336Y-149980157D01*
X142097336Y-149980157D02*
X142144955Y-150075395D01*
X142144955Y-150075395D02*
X142144955Y-150218252D01*
X142144955Y-150218252D02*
X142097336Y-150313490D01*
X142097336Y-150313490D02*
X142049717Y-150361109D01*
X142049717Y-150361109D02*
X141954479Y-150408728D01*
X141954479Y-150408728D02*
X141573527Y-150408728D01*
X142573527Y-150361109D02*
X142906860Y-150361109D01*
X143049717Y-150884919D02*
X142573527Y-150884919D01*
X142573527Y-150884919D02*
X142573527Y-149884919D01*
X142573527Y-149884919D02*
X143049717Y-149884919D01*
X144049717Y-150884919D02*
X143716384Y-150408728D01*
X143478289Y-150884919D02*
X143478289Y-149884919D01*
X143478289Y-149884919D02*
X143859241Y-149884919D01*
X143859241Y-149884919D02*
X143954479Y-149932538D01*
X143954479Y-149932538D02*
X144002098Y-149980157D01*
X144002098Y-149980157D02*
X144049717Y-150075395D01*
X144049717Y-150075395D02*
X144049717Y-150218252D01*
X144049717Y-150218252D02*
X144002098Y-150313490D01*
X144002098Y-150313490D02*
X143954479Y-150361109D01*
X143954479Y-150361109D02*
X143859241Y-150408728D01*
X143859241Y-150408728D02*
X143478289Y-150408728D01*
X144478289Y-150884919D02*
X144478289Y-149884919D01*
X144954479Y-150884919D02*
X144954479Y-149884919D01*
X144954479Y-149884919D02*
X145287812Y-150599204D01*
X145287812Y-150599204D02*
X145621145Y-149884919D01*
X145621145Y-149884919D02*
X145621145Y-150884919D01*
X146097336Y-150361109D02*
X146430669Y-150361109D01*
X146573526Y-150884919D02*
X146097336Y-150884919D01*
X146097336Y-150884919D02*
X146097336Y-149884919D01*
X146097336Y-149884919D02*
X146573526Y-149884919D01*
X147002098Y-150884919D02*
X147002098Y-149884919D01*
X147002098Y-149884919D02*
X147573526Y-150884919D01*
X147573526Y-150884919D02*
X147573526Y-149884919D01*
X147906860Y-149884919D02*
X148478288Y-149884919D01*
X148192574Y-150884919D02*
X148192574Y-149884919D01*
X148764003Y-150599204D02*
X149240193Y-150599204D01*
X148668765Y-150884919D02*
X149002098Y-149884919D01*
X149002098Y-149884919D02*
X149335431Y-150884919D01*
X150144955Y-150884919D02*
X149668765Y-150884919D01*
X149668765Y-150884919D02*
X149668765Y-149884919D01*
X151240194Y-150361109D02*
X151573527Y-150361109D01*
X151716384Y-150884919D02*
X151240194Y-150884919D01*
X151240194Y-150884919D02*
X151240194Y-149884919D01*
X151240194Y-149884919D02*
X151716384Y-149884919D01*
X152144956Y-150361109D02*
X152478289Y-150361109D01*
X152621146Y-150884919D02*
X152144956Y-150884919D01*
X152144956Y-150884919D02*
X152144956Y-149884919D01*
X152144956Y-149884919D02*
X152621146Y-149884919D01*
X153573527Y-149932538D02*
X153478289Y-149884919D01*
X153478289Y-149884919D02*
X153335432Y-149884919D01*
X153335432Y-149884919D02*
X153192575Y-149932538D01*
X153192575Y-149932538D02*
X153097337Y-150027776D01*
X153097337Y-150027776D02*
X153049718Y-150123014D01*
X153049718Y-150123014D02*
X153002099Y-150313490D01*
X153002099Y-150313490D02*
X153002099Y-150456347D01*
X153002099Y-150456347D02*
X153049718Y-150646823D01*
X153049718Y-150646823D02*
X153097337Y-150742061D01*
X153097337Y-150742061D02*
X153192575Y-150837300D01*
X153192575Y-150837300D02*
X153335432Y-150884919D01*
X153335432Y-150884919D02*
X153430670Y-150884919D01*
X153430670Y-150884919D02*
X153573527Y-150837300D01*
X153573527Y-150837300D02*
X153621146Y-150789680D01*
X153621146Y-150789680D02*
X153621146Y-150456347D01*
X153621146Y-150456347D02*
X153430670Y-150456347D01*
X154764003Y-149837300D02*
X153906861Y-151123014D01*
X155097337Y-150361109D02*
X155430670Y-150361109D01*
X155573527Y-150884919D02*
X155097337Y-150884919D01*
X155097337Y-150884919D02*
X155097337Y-149884919D01*
X155097337Y-149884919D02*
X155573527Y-149884919D01*
X156002099Y-150884919D02*
X156002099Y-149884919D01*
X156002099Y-149884919D02*
X156335432Y-150599204D01*
X156335432Y-150599204D02*
X156668765Y-149884919D01*
X156668765Y-149884919D02*
X156668765Y-150884919D01*
X157668765Y-149932538D02*
X157573527Y-149884919D01*
X157573527Y-149884919D02*
X157430670Y-149884919D01*
X157430670Y-149884919D02*
X157287813Y-149932538D01*
X157287813Y-149932538D02*
X157192575Y-150027776D01*
X157192575Y-150027776D02*
X157144956Y-150123014D01*
X157144956Y-150123014D02*
X157097337Y-150313490D01*
X157097337Y-150313490D02*
X157097337Y-150456347D01*
X157097337Y-150456347D02*
X157144956Y-150646823D01*
X157144956Y-150646823D02*
X157192575Y-150742061D01*
X157192575Y-150742061D02*
X157287813Y-150837300D01*
X157287813Y-150837300D02*
X157430670Y-150884919D01*
X157430670Y-150884919D02*
X157525908Y-150884919D01*
X157525908Y-150884919D02*
X157668765Y-150837300D01*
X157668765Y-150837300D02*
X157716384Y-150789680D01*
X157716384Y-150789680D02*
X157716384Y-150456347D01*
X157716384Y-150456347D02*
X157525908Y-150456347D01*
X158906861Y-150884919D02*
X158906861Y-149884919D01*
X158906861Y-149884919D02*
X159144956Y-149884919D01*
X159144956Y-149884919D02*
X159287813Y-149932538D01*
X159287813Y-149932538D02*
X159383051Y-150027776D01*
X159383051Y-150027776D02*
X159430670Y-150123014D01*
X159430670Y-150123014D02*
X159478289Y-150313490D01*
X159478289Y-150313490D02*
X159478289Y-150456347D01*
X159478289Y-150456347D02*
X159430670Y-150646823D01*
X159430670Y-150646823D02*
X159383051Y-150742061D01*
X159383051Y-150742061D02*
X159287813Y-150837300D01*
X159287813Y-150837300D02*
X159144956Y-150884919D01*
X159144956Y-150884919D02*
X158906861Y-150884919D01*
X159906861Y-150361109D02*
X160240194Y-150361109D01*
X160383051Y-150884919D02*
X159906861Y-150884919D01*
X159906861Y-150884919D02*
X159906861Y-149884919D01*
X159906861Y-149884919D02*
X160383051Y-149884919D01*
X160668766Y-149884919D02*
X161002099Y-150884919D01*
X161002099Y-150884919D02*
X161335432Y-149884919D01*
X137716384Y-67534919D02*
X137716384Y-66868252D01*
X137716384Y-66534919D02*
X137668765Y-66582538D01*
X137668765Y-66582538D02*
X137716384Y-66630157D01*
X137716384Y-66630157D02*
X137764003Y-66582538D01*
X137764003Y-66582538D02*
X137716384Y-66534919D01*
X137716384Y-66534919D02*
X137716384Y-66630157D01*
X138335431Y-67534919D02*
X138240193Y-67487300D01*
X138240193Y-67487300D02*
X138192574Y-67439680D01*
X138192574Y-67439680D02*
X138144955Y-67344442D01*
X138144955Y-67344442D02*
X138144955Y-67058728D01*
X138144955Y-67058728D02*
X138192574Y-66963490D01*
X138192574Y-66963490D02*
X138240193Y-66915871D01*
X138240193Y-66915871D02*
X138335431Y-66868252D01*
X138335431Y-66868252D02*
X138478288Y-66868252D01*
X138478288Y-66868252D02*
X138573526Y-66915871D01*
X138573526Y-66915871D02*
X138621145Y-66963490D01*
X138621145Y-66963490D02*
X138668764Y-67058728D01*
X138668764Y-67058728D02*
X138668764Y-67344442D01*
X138668764Y-67344442D02*
X138621145Y-67439680D01*
X138621145Y-67439680D02*
X138573526Y-67487300D01*
X138573526Y-67487300D02*
X138478288Y-67534919D01*
X138478288Y-67534919D02*
X138335431Y-67534919D01*
X139002098Y-66534919D02*
X139621145Y-66534919D01*
X139621145Y-66534919D02*
X139287812Y-66915871D01*
X139287812Y-66915871D02*
X139430669Y-66915871D01*
X139430669Y-66915871D02*
X139525907Y-66963490D01*
X139525907Y-66963490D02*
X139573526Y-67011109D01*
X139573526Y-67011109D02*
X139621145Y-67106347D01*
X139621145Y-67106347D02*
X139621145Y-67344442D01*
X139621145Y-67344442D02*
X139573526Y-67439680D01*
X139573526Y-67439680D02*
X139525907Y-67487300D01*
X139525907Y-67487300D02*
X139430669Y-67534919D01*
X139430669Y-67534919D02*
X139144955Y-67534919D01*
X139144955Y-67534919D02*
X139049717Y-67487300D01*
X139049717Y-67487300D02*
X139002098Y-67439680D01*
X140478288Y-66868252D02*
X140478288Y-67534919D01*
X140240193Y-66487300D02*
X140002098Y-67201585D01*
X140002098Y-67201585D02*
X140621145Y-67201585D01*
X137716384Y-72534919D02*
X137716384Y-71868252D01*
X137716384Y-71534919D02*
X137668765Y-71582538D01*
X137668765Y-71582538D02*
X137716384Y-71630157D01*
X137716384Y-71630157D02*
X137764003Y-71582538D01*
X137764003Y-71582538D02*
X137716384Y-71534919D01*
X137716384Y-71534919D02*
X137716384Y-71630157D01*
X138335431Y-72534919D02*
X138240193Y-72487300D01*
X138240193Y-72487300D02*
X138192574Y-72439680D01*
X138192574Y-72439680D02*
X138144955Y-72344442D01*
X138144955Y-72344442D02*
X138144955Y-72058728D01*
X138144955Y-72058728D02*
X138192574Y-71963490D01*
X138192574Y-71963490D02*
X138240193Y-71915871D01*
X138240193Y-71915871D02*
X138335431Y-71868252D01*
X138335431Y-71868252D02*
X138478288Y-71868252D01*
X138478288Y-71868252D02*
X138573526Y-71915871D01*
X138573526Y-71915871D02*
X138621145Y-71963490D01*
X138621145Y-71963490D02*
X138668764Y-72058728D01*
X138668764Y-72058728D02*
X138668764Y-72344442D01*
X138668764Y-72344442D02*
X138621145Y-72439680D01*
X138621145Y-72439680D02*
X138573526Y-72487300D01*
X138573526Y-72487300D02*
X138478288Y-72534919D01*
X138478288Y-72534919D02*
X138335431Y-72534919D01*
X139002098Y-71534919D02*
X139621145Y-71534919D01*
X139621145Y-71534919D02*
X139287812Y-71915871D01*
X139287812Y-71915871D02*
X139430669Y-71915871D01*
X139430669Y-71915871D02*
X139525907Y-71963490D01*
X139525907Y-71963490D02*
X139573526Y-72011109D01*
X139573526Y-72011109D02*
X139621145Y-72106347D01*
X139621145Y-72106347D02*
X139621145Y-72344442D01*
X139621145Y-72344442D02*
X139573526Y-72439680D01*
X139573526Y-72439680D02*
X139525907Y-72487300D01*
X139525907Y-72487300D02*
X139430669Y-72534919D01*
X139430669Y-72534919D02*
X139144955Y-72534919D01*
X139144955Y-72534919D02*
X139049717Y-72487300D01*
X139049717Y-72487300D02*
X139002098Y-72439680D01*
X140002098Y-71630157D02*
X140049717Y-71582538D01*
X140049717Y-71582538D02*
X140144955Y-71534919D01*
X140144955Y-71534919D02*
X140383050Y-71534919D01*
X140383050Y-71534919D02*
X140478288Y-71582538D01*
X140478288Y-71582538D02*
X140525907Y-71630157D01*
X140525907Y-71630157D02*
X140573526Y-71725395D01*
X140573526Y-71725395D02*
X140573526Y-71820633D01*
X140573526Y-71820633D02*
X140525907Y-71963490D01*
X140525907Y-71963490D02*
X139954479Y-72534919D01*
X139954479Y-72534919D02*
X140573526Y-72534919D01*
X181940193Y-128232538D02*
X181844955Y-128184919D01*
X181844955Y-128184919D02*
X181702098Y-128184919D01*
X181702098Y-128184919D02*
X181559241Y-128232538D01*
X181559241Y-128232538D02*
X181464003Y-128327776D01*
X181464003Y-128327776D02*
X181416384Y-128423014D01*
X181416384Y-128423014D02*
X181368765Y-128613490D01*
X181368765Y-128613490D02*
X181368765Y-128756347D01*
X181368765Y-128756347D02*
X181416384Y-128946823D01*
X181416384Y-128946823D02*
X181464003Y-129042061D01*
X181464003Y-129042061D02*
X181559241Y-129137300D01*
X181559241Y-129137300D02*
X181702098Y-129184919D01*
X181702098Y-129184919D02*
X181797336Y-129184919D01*
X181797336Y-129184919D02*
X181940193Y-129137300D01*
X181940193Y-129137300D02*
X181987812Y-129089680D01*
X181987812Y-129089680D02*
X181987812Y-128756347D01*
X181987812Y-128756347D02*
X181797336Y-128756347D01*
X182416384Y-129184919D02*
X182416384Y-128184919D01*
X182416384Y-128184919D02*
X182797336Y-128184919D01*
X182797336Y-128184919D02*
X182892574Y-128232538D01*
X182892574Y-128232538D02*
X182940193Y-128280157D01*
X182940193Y-128280157D02*
X182987812Y-128375395D01*
X182987812Y-128375395D02*
X182987812Y-128518252D01*
X182987812Y-128518252D02*
X182940193Y-128613490D01*
X182940193Y-128613490D02*
X182892574Y-128661109D01*
X182892574Y-128661109D02*
X182797336Y-128708728D01*
X182797336Y-128708728D02*
X182416384Y-128708728D01*
X183416384Y-129184919D02*
X183416384Y-128184919D01*
X184083050Y-128184919D02*
X184273526Y-128184919D01*
X184273526Y-128184919D02*
X184368764Y-128232538D01*
X184368764Y-128232538D02*
X184464002Y-128327776D01*
X184464002Y-128327776D02*
X184511621Y-128518252D01*
X184511621Y-128518252D02*
X184511621Y-128851585D01*
X184511621Y-128851585D02*
X184464002Y-129042061D01*
X184464002Y-129042061D02*
X184368764Y-129137300D01*
X184368764Y-129137300D02*
X184273526Y-129184919D01*
X184273526Y-129184919D02*
X184083050Y-129184919D01*
X184083050Y-129184919D02*
X183987812Y-129137300D01*
X183987812Y-129137300D02*
X183892574Y-129042061D01*
X183892574Y-129042061D02*
X183844955Y-128851585D01*
X183844955Y-128851585D02*
X183844955Y-128518252D01*
X183844955Y-128518252D02*
X183892574Y-128327776D01*
X183892574Y-128327776D02*
X183987812Y-128232538D01*
X183987812Y-128232538D02*
X184083050Y-128184919D01*
X185464002Y-129184919D02*
X184892574Y-129184919D01*
X185178288Y-129184919D02*
X185178288Y-128184919D01*
X185178288Y-128184919D02*
X185083050Y-128327776D01*
X185083050Y-128327776D02*
X184987812Y-128423014D01*
X184987812Y-128423014D02*
X184892574Y-128470633D01*
X183241384Y-90784919D02*
X183241384Y-90118252D01*
X183241384Y-89784919D02*
X183193765Y-89832538D01*
X183193765Y-89832538D02*
X183241384Y-89880157D01*
X183241384Y-89880157D02*
X183289003Y-89832538D01*
X183289003Y-89832538D02*
X183241384Y-89784919D01*
X183241384Y-89784919D02*
X183241384Y-89880157D01*
X183860431Y-90784919D02*
X183765193Y-90737300D01*
X183765193Y-90737300D02*
X183717574Y-90689680D01*
X183717574Y-90689680D02*
X183669955Y-90594442D01*
X183669955Y-90594442D02*
X183669955Y-90308728D01*
X183669955Y-90308728D02*
X183717574Y-90213490D01*
X183717574Y-90213490D02*
X183765193Y-90165871D01*
X183765193Y-90165871D02*
X183860431Y-90118252D01*
X183860431Y-90118252D02*
X184003288Y-90118252D01*
X184003288Y-90118252D02*
X184098526Y-90165871D01*
X184098526Y-90165871D02*
X184146145Y-90213490D01*
X184146145Y-90213490D02*
X184193764Y-90308728D01*
X184193764Y-90308728D02*
X184193764Y-90594442D01*
X184193764Y-90594442D02*
X184146145Y-90689680D01*
X184146145Y-90689680D02*
X184098526Y-90737300D01*
X184098526Y-90737300D02*
X184003288Y-90784919D01*
X184003288Y-90784919D02*
X183860431Y-90784919D01*
X185098526Y-89784919D02*
X184622336Y-89784919D01*
X184622336Y-89784919D02*
X184574717Y-90261109D01*
X184574717Y-90261109D02*
X184622336Y-90213490D01*
X184622336Y-90213490D02*
X184717574Y-90165871D01*
X184717574Y-90165871D02*
X184955669Y-90165871D01*
X184955669Y-90165871D02*
X185050907Y-90213490D01*
X185050907Y-90213490D02*
X185098526Y-90261109D01*
X185098526Y-90261109D02*
X185146145Y-90356347D01*
X185146145Y-90356347D02*
X185146145Y-90594442D01*
X185146145Y-90594442D02*
X185098526Y-90689680D01*
X185098526Y-90689680D02*
X185050907Y-90737300D01*
X185050907Y-90737300D02*
X184955669Y-90784919D01*
X184955669Y-90784919D02*
X184717574Y-90784919D01*
X184717574Y-90784919D02*
X184622336Y-90737300D01*
X184622336Y-90737300D02*
X184574717Y-90689680D01*
X139241384Y-59011109D02*
X139574717Y-59011109D01*
X139717574Y-59534919D02*
X139241384Y-59534919D01*
X139241384Y-59534919D02*
X139241384Y-58534919D01*
X139241384Y-58534919D02*
X139717574Y-58534919D01*
X140146146Y-59534919D02*
X140146146Y-58534919D01*
X140146146Y-58534919D02*
X140717574Y-59534919D01*
X140717574Y-59534919D02*
X140717574Y-58534919D01*
X93193765Y-124540157D02*
X93241384Y-124492538D01*
X93241384Y-124492538D02*
X93336622Y-124444919D01*
X93336622Y-124444919D02*
X93574717Y-124444919D01*
X93574717Y-124444919D02*
X93669955Y-124492538D01*
X93669955Y-124492538D02*
X93717574Y-124540157D01*
X93717574Y-124540157D02*
X93765193Y-124635395D01*
X93765193Y-124635395D02*
X93765193Y-124730633D01*
X93765193Y-124730633D02*
X93717574Y-124873490D01*
X93717574Y-124873490D02*
X93146146Y-125444919D01*
X93146146Y-125444919D02*
X93765193Y-125444919D01*
X183241384Y-69534919D02*
X183241384Y-68868252D01*
X183241384Y-68534919D02*
X183193765Y-68582538D01*
X183193765Y-68582538D02*
X183241384Y-68630157D01*
X183241384Y-68630157D02*
X183289003Y-68582538D01*
X183289003Y-68582538D02*
X183241384Y-68534919D01*
X183241384Y-68534919D02*
X183241384Y-68630157D01*
X183860431Y-69534919D02*
X183765193Y-69487300D01*
X183765193Y-69487300D02*
X183717574Y-69439680D01*
X183717574Y-69439680D02*
X183669955Y-69344442D01*
X183669955Y-69344442D02*
X183669955Y-69058728D01*
X183669955Y-69058728D02*
X183717574Y-68963490D01*
X183717574Y-68963490D02*
X183765193Y-68915871D01*
X183765193Y-68915871D02*
X183860431Y-68868252D01*
X183860431Y-68868252D02*
X184003288Y-68868252D01*
X184003288Y-68868252D02*
X184098526Y-68915871D01*
X184098526Y-68915871D02*
X184146145Y-68963490D01*
X184146145Y-68963490D02*
X184193764Y-69058728D01*
X184193764Y-69058728D02*
X184193764Y-69344442D01*
X184193764Y-69344442D02*
X184146145Y-69439680D01*
X184146145Y-69439680D02*
X184098526Y-69487300D01*
X184098526Y-69487300D02*
X184003288Y-69534919D01*
X184003288Y-69534919D02*
X183860431Y-69534919D01*
X184574717Y-68630157D02*
X184622336Y-68582538D01*
X184622336Y-68582538D02*
X184717574Y-68534919D01*
X184717574Y-68534919D02*
X184955669Y-68534919D01*
X184955669Y-68534919D02*
X185050907Y-68582538D01*
X185050907Y-68582538D02*
X185098526Y-68630157D01*
X185098526Y-68630157D02*
X185146145Y-68725395D01*
X185146145Y-68725395D02*
X185146145Y-68820633D01*
X185146145Y-68820633D02*
X185098526Y-68963490D01*
X185098526Y-68963490D02*
X184527098Y-69534919D01*
X184527098Y-69534919D02*
X185146145Y-69534919D01*
X186098526Y-69534919D02*
X185527098Y-69534919D01*
X185812812Y-69534919D02*
X185812812Y-68534919D01*
X185812812Y-68534919D02*
X185717574Y-68677776D01*
X185717574Y-68677776D02*
X185622336Y-68773014D01*
X185622336Y-68773014D02*
X185527098Y-68820633D01*
X145597336Y-154472061D02*
X145502098Y-154567300D01*
X145502098Y-154567300D02*
X145216384Y-154662538D01*
X145216384Y-154662538D02*
X145025908Y-154662538D01*
X145025908Y-154662538D02*
X144740193Y-154567300D01*
X144740193Y-154567300D02*
X144549717Y-154376823D01*
X144549717Y-154376823D02*
X144454479Y-154186347D01*
X144454479Y-154186347D02*
X144359241Y-153805395D01*
X144359241Y-153805395D02*
X144359241Y-153519680D01*
X144359241Y-153519680D02*
X144454479Y-153138728D01*
X144454479Y-153138728D02*
X144549717Y-152948252D01*
X144549717Y-152948252D02*
X144740193Y-152757776D01*
X144740193Y-152757776D02*
X145025908Y-152662538D01*
X145025908Y-152662538D02*
X145216384Y-152662538D01*
X145216384Y-152662538D02*
X145502098Y-152757776D01*
X145502098Y-152757776D02*
X145597336Y-152853014D01*
X146835431Y-152662538D02*
X147216384Y-152662538D01*
X147216384Y-152662538D02*
X147406860Y-152757776D01*
X147406860Y-152757776D02*
X147597336Y-152948252D01*
X147597336Y-152948252D02*
X147692574Y-153329204D01*
X147692574Y-153329204D02*
X147692574Y-153995871D01*
X147692574Y-153995871D02*
X147597336Y-154376823D01*
X147597336Y-154376823D02*
X147406860Y-154567300D01*
X147406860Y-154567300D02*
X147216384Y-154662538D01*
X147216384Y-154662538D02*
X146835431Y-154662538D01*
X146835431Y-154662538D02*
X146644955Y-154567300D01*
X146644955Y-154567300D02*
X146454479Y-154376823D01*
X146454479Y-154376823D02*
X146359241Y-153995871D01*
X146359241Y-153995871D02*
X146359241Y-153329204D01*
X146359241Y-153329204D02*
X146454479Y-152948252D01*
X146454479Y-152948252D02*
X146644955Y-152757776D01*
X146644955Y-152757776D02*
X146835431Y-152662538D01*
X149597336Y-152757776D02*
X149406860Y-152662538D01*
X149406860Y-152662538D02*
X149121146Y-152662538D01*
X149121146Y-152662538D02*
X148835431Y-152757776D01*
X148835431Y-152757776D02*
X148644955Y-152948252D01*
X148644955Y-152948252D02*
X148549717Y-153138728D01*
X148549717Y-153138728D02*
X148454479Y-153519680D01*
X148454479Y-153519680D02*
X148454479Y-153805395D01*
X148454479Y-153805395D02*
X148549717Y-154186347D01*
X148549717Y-154186347D02*
X148644955Y-154376823D01*
X148644955Y-154376823D02*
X148835431Y-154567300D01*
X148835431Y-154567300D02*
X149121146Y-154662538D01*
X149121146Y-154662538D02*
X149311622Y-154662538D01*
X149311622Y-154662538D02*
X149597336Y-154567300D01*
X149597336Y-154567300D02*
X149692574Y-154472061D01*
X149692574Y-154472061D02*
X149692574Y-153805395D01*
X149692574Y-153805395D02*
X149311622Y-153805395D01*
X151597336Y-154662538D02*
X150454479Y-154662538D01*
X151025907Y-154662538D02*
X151025907Y-152662538D01*
X151025907Y-152662538D02*
X150835431Y-152948252D01*
X150835431Y-152948252D02*
X150644955Y-153138728D01*
X150644955Y-153138728D02*
X150454479Y-153233966D01*
X152740193Y-153519680D02*
X152549717Y-153424442D01*
X152549717Y-153424442D02*
X152454479Y-153329204D01*
X152454479Y-153329204D02*
X152359241Y-153138728D01*
X152359241Y-153138728D02*
X152359241Y-153043490D01*
X152359241Y-153043490D02*
X152454479Y-152853014D01*
X152454479Y-152853014D02*
X152549717Y-152757776D01*
X152549717Y-152757776D02*
X152740193Y-152662538D01*
X152740193Y-152662538D02*
X153121146Y-152662538D01*
X153121146Y-152662538D02*
X153311622Y-152757776D01*
X153311622Y-152757776D02*
X153406860Y-152853014D01*
X153406860Y-152853014D02*
X153502098Y-153043490D01*
X153502098Y-153043490D02*
X153502098Y-153138728D01*
X153502098Y-153138728D02*
X153406860Y-153329204D01*
X153406860Y-153329204D02*
X153311622Y-153424442D01*
X153311622Y-153424442D02*
X153121146Y-153519680D01*
X153121146Y-153519680D02*
X152740193Y-153519680D01*
X152740193Y-153519680D02*
X152549717Y-153614919D01*
X152549717Y-153614919D02*
X152454479Y-153710157D01*
X152454479Y-153710157D02*
X152359241Y-153900633D01*
X152359241Y-153900633D02*
X152359241Y-154281585D01*
X152359241Y-154281585D02*
X152454479Y-154472061D01*
X152454479Y-154472061D02*
X152549717Y-154567300D01*
X152549717Y-154567300D02*
X152740193Y-154662538D01*
X152740193Y-154662538D02*
X153121146Y-154662538D01*
X153121146Y-154662538D02*
X153311622Y-154567300D01*
X153311622Y-154567300D02*
X153406860Y-154472061D01*
X153406860Y-154472061D02*
X153502098Y-154281585D01*
X153502098Y-154281585D02*
X153502098Y-153900633D01*
X153502098Y-153900633D02*
X153406860Y-153710157D01*
X153406860Y-153710157D02*
X153311622Y-153614919D01*
X153311622Y-153614919D02*
X153121146Y-153519680D01*
X154454479Y-154662538D02*
X154835431Y-154662538D01*
X154835431Y-154662538D02*
X155025908Y-154567300D01*
X155025908Y-154567300D02*
X155121146Y-154472061D01*
X155121146Y-154472061D02*
X155311622Y-154186347D01*
X155311622Y-154186347D02*
X155406860Y-153805395D01*
X155406860Y-153805395D02*
X155406860Y-153043490D01*
X155406860Y-153043490D02*
X155311622Y-152853014D01*
X155311622Y-152853014D02*
X155216384Y-152757776D01*
X155216384Y-152757776D02*
X155025908Y-152662538D01*
X155025908Y-152662538D02*
X154644955Y-152662538D01*
X154644955Y-152662538D02*
X154454479Y-152757776D01*
X154454479Y-152757776D02*
X154359241Y-152853014D01*
X154359241Y-152853014D02*
X154264003Y-153043490D01*
X154264003Y-153043490D02*
X154264003Y-153519680D01*
X154264003Y-153519680D02*
X154359241Y-153710157D01*
X154359241Y-153710157D02*
X154454479Y-153805395D01*
X154454479Y-153805395D02*
X154644955Y-153900633D01*
X154644955Y-153900633D02*
X155025908Y-153900633D01*
X155025908Y-153900633D02*
X155216384Y-153805395D01*
X155216384Y-153805395D02*
X155311622Y-153710157D01*
X155311622Y-153710157D02*
X155406860Y-153519680D01*
X90693765Y-130397300D02*
X90836622Y-130444919D01*
X90836622Y-130444919D02*
X91074717Y-130444919D01*
X91074717Y-130444919D02*
X91169955Y-130397300D01*
X91169955Y-130397300D02*
X91217574Y-130349680D01*
X91217574Y-130349680D02*
X91265193Y-130254442D01*
X91265193Y-130254442D02*
X91265193Y-130159204D01*
X91265193Y-130159204D02*
X91217574Y-130063966D01*
X91217574Y-130063966D02*
X91169955Y-130016347D01*
X91169955Y-130016347D02*
X91074717Y-129968728D01*
X91074717Y-129968728D02*
X90884241Y-129921109D01*
X90884241Y-129921109D02*
X90789003Y-129873490D01*
X90789003Y-129873490D02*
X90741384Y-129825871D01*
X90741384Y-129825871D02*
X90693765Y-129730633D01*
X90693765Y-129730633D02*
X90693765Y-129635395D01*
X90693765Y-129635395D02*
X90741384Y-129540157D01*
X90741384Y-129540157D02*
X90789003Y-129492538D01*
X90789003Y-129492538D02*
X90884241Y-129444919D01*
X90884241Y-129444919D02*
X91122336Y-129444919D01*
X91122336Y-129444919D02*
X91265193Y-129492538D01*
X92265193Y-130444919D02*
X91931860Y-129968728D01*
X91693765Y-130444919D02*
X91693765Y-129444919D01*
X91693765Y-129444919D02*
X92074717Y-129444919D01*
X92074717Y-129444919D02*
X92169955Y-129492538D01*
X92169955Y-129492538D02*
X92217574Y-129540157D01*
X92217574Y-129540157D02*
X92265193Y-129635395D01*
X92265193Y-129635395D02*
X92265193Y-129778252D01*
X92265193Y-129778252D02*
X92217574Y-129873490D01*
X92217574Y-129873490D02*
X92169955Y-129921109D01*
X92169955Y-129921109D02*
X92074717Y-129968728D01*
X92074717Y-129968728D02*
X91693765Y-129968728D01*
X93027098Y-129921109D02*
X93169955Y-129968728D01*
X93169955Y-129968728D02*
X93217574Y-130016347D01*
X93217574Y-130016347D02*
X93265193Y-130111585D01*
X93265193Y-130111585D02*
X93265193Y-130254442D01*
X93265193Y-130254442D02*
X93217574Y-130349680D01*
X93217574Y-130349680D02*
X93169955Y-130397300D01*
X93169955Y-130397300D02*
X93074717Y-130444919D01*
X93074717Y-130444919D02*
X92693765Y-130444919D01*
X92693765Y-130444919D02*
X92693765Y-129444919D01*
X92693765Y-129444919D02*
X93027098Y-129444919D01*
X93027098Y-129444919D02*
X93122336Y-129492538D01*
X93122336Y-129492538D02*
X93169955Y-129540157D01*
X93169955Y-129540157D02*
X93217574Y-129635395D01*
X93217574Y-129635395D02*
X93217574Y-129730633D01*
X93217574Y-129730633D02*
X93169955Y-129825871D01*
X93169955Y-129825871D02*
X93122336Y-129873490D01*
X93122336Y-129873490D02*
X93027098Y-129921109D01*
X93027098Y-129921109D02*
X92693765Y-129921109D01*
X93646146Y-129540157D02*
X93693765Y-129492538D01*
X93693765Y-129492538D02*
X93789003Y-129444919D01*
X93789003Y-129444919D02*
X94027098Y-129444919D01*
X94027098Y-129444919D02*
X94122336Y-129492538D01*
X94122336Y-129492538D02*
X94169955Y-129540157D01*
X94169955Y-129540157D02*
X94217574Y-129635395D01*
X94217574Y-129635395D02*
X94217574Y-129730633D01*
X94217574Y-129730633D02*
X94169955Y-129873490D01*
X94169955Y-129873490D02*
X93598527Y-130444919D01*
X93598527Y-130444919D02*
X94217574Y-130444919D01*
X137716384Y-69784919D02*
X137716384Y-69118252D01*
X137716384Y-68784919D02*
X137668765Y-68832538D01*
X137668765Y-68832538D02*
X137716384Y-68880157D01*
X137716384Y-68880157D02*
X137764003Y-68832538D01*
X137764003Y-68832538D02*
X137716384Y-68784919D01*
X137716384Y-68784919D02*
X137716384Y-68880157D01*
X138335431Y-69784919D02*
X138240193Y-69737300D01*
X138240193Y-69737300D02*
X138192574Y-69689680D01*
X138192574Y-69689680D02*
X138144955Y-69594442D01*
X138144955Y-69594442D02*
X138144955Y-69308728D01*
X138144955Y-69308728D02*
X138192574Y-69213490D01*
X138192574Y-69213490D02*
X138240193Y-69165871D01*
X138240193Y-69165871D02*
X138335431Y-69118252D01*
X138335431Y-69118252D02*
X138478288Y-69118252D01*
X138478288Y-69118252D02*
X138573526Y-69165871D01*
X138573526Y-69165871D02*
X138621145Y-69213490D01*
X138621145Y-69213490D02*
X138668764Y-69308728D01*
X138668764Y-69308728D02*
X138668764Y-69594442D01*
X138668764Y-69594442D02*
X138621145Y-69689680D01*
X138621145Y-69689680D02*
X138573526Y-69737300D01*
X138573526Y-69737300D02*
X138478288Y-69784919D01*
X138478288Y-69784919D02*
X138335431Y-69784919D01*
X139002098Y-68784919D02*
X139621145Y-68784919D01*
X139621145Y-68784919D02*
X139287812Y-69165871D01*
X139287812Y-69165871D02*
X139430669Y-69165871D01*
X139430669Y-69165871D02*
X139525907Y-69213490D01*
X139525907Y-69213490D02*
X139573526Y-69261109D01*
X139573526Y-69261109D02*
X139621145Y-69356347D01*
X139621145Y-69356347D02*
X139621145Y-69594442D01*
X139621145Y-69594442D02*
X139573526Y-69689680D01*
X139573526Y-69689680D02*
X139525907Y-69737300D01*
X139525907Y-69737300D02*
X139430669Y-69784919D01*
X139430669Y-69784919D02*
X139144955Y-69784919D01*
X139144955Y-69784919D02*
X139049717Y-69737300D01*
X139049717Y-69737300D02*
X139002098Y-69689680D01*
X140525907Y-68784919D02*
X140049717Y-68784919D01*
X140049717Y-68784919D02*
X140002098Y-69261109D01*
X140002098Y-69261109D02*
X140049717Y-69213490D01*
X140049717Y-69213490D02*
X140144955Y-69165871D01*
X140144955Y-69165871D02*
X140383050Y-69165871D01*
X140383050Y-69165871D02*
X140478288Y-69213490D01*
X140478288Y-69213490D02*
X140525907Y-69261109D01*
X140525907Y-69261109D02*
X140573526Y-69356347D01*
X140573526Y-69356347D02*
X140573526Y-69594442D01*
X140573526Y-69594442D02*
X140525907Y-69689680D01*
X140525907Y-69689680D02*
X140478288Y-69737300D01*
X140478288Y-69737300D02*
X140383050Y-69784919D01*
X140383050Y-69784919D02*
X140144955Y-69784919D01*
X140144955Y-69784919D02*
X140049717Y-69737300D01*
X140049717Y-69737300D02*
X140002098Y-69689680D01*
X181840193Y-124832538D02*
X181744955Y-124784919D01*
X181744955Y-124784919D02*
X181602098Y-124784919D01*
X181602098Y-124784919D02*
X181459241Y-124832538D01*
X181459241Y-124832538D02*
X181364003Y-124927776D01*
X181364003Y-124927776D02*
X181316384Y-125023014D01*
X181316384Y-125023014D02*
X181268765Y-125213490D01*
X181268765Y-125213490D02*
X181268765Y-125356347D01*
X181268765Y-125356347D02*
X181316384Y-125546823D01*
X181316384Y-125546823D02*
X181364003Y-125642061D01*
X181364003Y-125642061D02*
X181459241Y-125737300D01*
X181459241Y-125737300D02*
X181602098Y-125784919D01*
X181602098Y-125784919D02*
X181697336Y-125784919D01*
X181697336Y-125784919D02*
X181840193Y-125737300D01*
X181840193Y-125737300D02*
X181887812Y-125689680D01*
X181887812Y-125689680D02*
X181887812Y-125356347D01*
X181887812Y-125356347D02*
X181697336Y-125356347D01*
X182316384Y-125784919D02*
X182316384Y-124784919D01*
X182316384Y-124784919D02*
X182697336Y-124784919D01*
X182697336Y-124784919D02*
X182792574Y-124832538D01*
X182792574Y-124832538D02*
X182840193Y-124880157D01*
X182840193Y-124880157D02*
X182887812Y-124975395D01*
X182887812Y-124975395D02*
X182887812Y-125118252D01*
X182887812Y-125118252D02*
X182840193Y-125213490D01*
X182840193Y-125213490D02*
X182792574Y-125261109D01*
X182792574Y-125261109D02*
X182697336Y-125308728D01*
X182697336Y-125308728D02*
X182316384Y-125308728D01*
X183316384Y-125784919D02*
X183316384Y-124784919D01*
X183983050Y-124784919D02*
X184173526Y-124784919D01*
X184173526Y-124784919D02*
X184268764Y-124832538D01*
X184268764Y-124832538D02*
X184364002Y-124927776D01*
X184364002Y-124927776D02*
X184411621Y-125118252D01*
X184411621Y-125118252D02*
X184411621Y-125451585D01*
X184411621Y-125451585D02*
X184364002Y-125642061D01*
X184364002Y-125642061D02*
X184268764Y-125737300D01*
X184268764Y-125737300D02*
X184173526Y-125784919D01*
X184173526Y-125784919D02*
X183983050Y-125784919D01*
X183983050Y-125784919D02*
X183887812Y-125737300D01*
X183887812Y-125737300D02*
X183792574Y-125642061D01*
X183792574Y-125642061D02*
X183744955Y-125451585D01*
X183744955Y-125451585D02*
X183744955Y-125118252D01*
X183744955Y-125118252D02*
X183792574Y-124927776D01*
X183792574Y-124927776D02*
X183887812Y-124832538D01*
X183887812Y-124832538D02*
X183983050Y-124784919D01*
X184792574Y-124880157D02*
X184840193Y-124832538D01*
X184840193Y-124832538D02*
X184935431Y-124784919D01*
X184935431Y-124784919D02*
X185173526Y-124784919D01*
X185173526Y-124784919D02*
X185268764Y-124832538D01*
X185268764Y-124832538D02*
X185316383Y-124880157D01*
X185316383Y-124880157D02*
X185364002Y-124975395D01*
X185364002Y-124975395D02*
X185364002Y-125070633D01*
X185364002Y-125070633D02*
X185316383Y-125213490D01*
X185316383Y-125213490D02*
X184744955Y-125784919D01*
X184744955Y-125784919D02*
X185364002Y-125784919D01*
X183241384Y-62534919D02*
X183241384Y-61868252D01*
X183241384Y-61534919D02*
X183193765Y-61582538D01*
X183193765Y-61582538D02*
X183241384Y-61630157D01*
X183241384Y-61630157D02*
X183289003Y-61582538D01*
X183289003Y-61582538D02*
X183241384Y-61534919D01*
X183241384Y-61534919D02*
X183241384Y-61630157D01*
X183860431Y-62534919D02*
X183765193Y-62487300D01*
X183765193Y-62487300D02*
X183717574Y-62439680D01*
X183717574Y-62439680D02*
X183669955Y-62344442D01*
X183669955Y-62344442D02*
X183669955Y-62058728D01*
X183669955Y-62058728D02*
X183717574Y-61963490D01*
X183717574Y-61963490D02*
X183765193Y-61915871D01*
X183765193Y-61915871D02*
X183860431Y-61868252D01*
X183860431Y-61868252D02*
X184003288Y-61868252D01*
X184003288Y-61868252D02*
X184098526Y-61915871D01*
X184098526Y-61915871D02*
X184146145Y-61963490D01*
X184146145Y-61963490D02*
X184193764Y-62058728D01*
X184193764Y-62058728D02*
X184193764Y-62344442D01*
X184193764Y-62344442D02*
X184146145Y-62439680D01*
X184146145Y-62439680D02*
X184098526Y-62487300D01*
X184098526Y-62487300D02*
X184003288Y-62534919D01*
X184003288Y-62534919D02*
X183860431Y-62534919D01*
X184574717Y-61630157D02*
X184622336Y-61582538D01*
X184622336Y-61582538D02*
X184717574Y-61534919D01*
X184717574Y-61534919D02*
X184955669Y-61534919D01*
X184955669Y-61534919D02*
X185050907Y-61582538D01*
X185050907Y-61582538D02*
X185098526Y-61630157D01*
X185098526Y-61630157D02*
X185146145Y-61725395D01*
X185146145Y-61725395D02*
X185146145Y-61820633D01*
X185146145Y-61820633D02*
X185098526Y-61963490D01*
X185098526Y-61963490D02*
X184527098Y-62534919D01*
X184527098Y-62534919D02*
X185146145Y-62534919D01*
X185527098Y-61630157D02*
X185574717Y-61582538D01*
X185574717Y-61582538D02*
X185669955Y-61534919D01*
X185669955Y-61534919D02*
X185908050Y-61534919D01*
X185908050Y-61534919D02*
X186003288Y-61582538D01*
X186003288Y-61582538D02*
X186050907Y-61630157D01*
X186050907Y-61630157D02*
X186098526Y-61725395D01*
X186098526Y-61725395D02*
X186098526Y-61820633D01*
X186098526Y-61820633D02*
X186050907Y-61963490D01*
X186050907Y-61963490D02*
X185479479Y-62534919D01*
X185479479Y-62534919D02*
X186098526Y-62534919D01*
X137716384Y-87534919D02*
X137716384Y-86868252D01*
X137716384Y-86534919D02*
X137668765Y-86582538D01*
X137668765Y-86582538D02*
X137716384Y-86630157D01*
X137716384Y-86630157D02*
X137764003Y-86582538D01*
X137764003Y-86582538D02*
X137716384Y-86534919D01*
X137716384Y-86534919D02*
X137716384Y-86630157D01*
X138335431Y-87534919D02*
X138240193Y-87487300D01*
X138240193Y-87487300D02*
X138192574Y-87439680D01*
X138192574Y-87439680D02*
X138144955Y-87344442D01*
X138144955Y-87344442D02*
X138144955Y-87058728D01*
X138144955Y-87058728D02*
X138192574Y-86963490D01*
X138192574Y-86963490D02*
X138240193Y-86915871D01*
X138240193Y-86915871D02*
X138335431Y-86868252D01*
X138335431Y-86868252D02*
X138478288Y-86868252D01*
X138478288Y-86868252D02*
X138573526Y-86915871D01*
X138573526Y-86915871D02*
X138621145Y-86963490D01*
X138621145Y-86963490D02*
X138668764Y-87058728D01*
X138668764Y-87058728D02*
X138668764Y-87344442D01*
X138668764Y-87344442D02*
X138621145Y-87439680D01*
X138621145Y-87439680D02*
X138573526Y-87487300D01*
X138573526Y-87487300D02*
X138478288Y-87534919D01*
X138478288Y-87534919D02*
X138335431Y-87534919D01*
X139621145Y-87534919D02*
X139049717Y-87534919D01*
X139335431Y-87534919D02*
X139335431Y-86534919D01*
X139335431Y-86534919D02*
X139240193Y-86677776D01*
X139240193Y-86677776D02*
X139144955Y-86773014D01*
X139144955Y-86773014D02*
X139049717Y-86820633D01*
X140002098Y-86630157D02*
X140049717Y-86582538D01*
X140049717Y-86582538D02*
X140144955Y-86534919D01*
X140144955Y-86534919D02*
X140383050Y-86534919D01*
X140383050Y-86534919D02*
X140478288Y-86582538D01*
X140478288Y-86582538D02*
X140525907Y-86630157D01*
X140525907Y-86630157D02*
X140573526Y-86725395D01*
X140573526Y-86725395D02*
X140573526Y-86820633D01*
X140573526Y-86820633D02*
X140525907Y-86963490D01*
X140525907Y-86963490D02*
X139954479Y-87534919D01*
X139954479Y-87534919D02*
X140573526Y-87534919D01*
X137716384Y-90284919D02*
X137716384Y-89618252D01*
X137716384Y-89284919D02*
X137668765Y-89332538D01*
X137668765Y-89332538D02*
X137716384Y-89380157D01*
X137716384Y-89380157D02*
X137764003Y-89332538D01*
X137764003Y-89332538D02*
X137716384Y-89284919D01*
X137716384Y-89284919D02*
X137716384Y-89380157D01*
X138335431Y-90284919D02*
X138240193Y-90237300D01*
X138240193Y-90237300D02*
X138192574Y-90189680D01*
X138192574Y-90189680D02*
X138144955Y-90094442D01*
X138144955Y-90094442D02*
X138144955Y-89808728D01*
X138144955Y-89808728D02*
X138192574Y-89713490D01*
X138192574Y-89713490D02*
X138240193Y-89665871D01*
X138240193Y-89665871D02*
X138335431Y-89618252D01*
X138335431Y-89618252D02*
X138478288Y-89618252D01*
X138478288Y-89618252D02*
X138573526Y-89665871D01*
X138573526Y-89665871D02*
X138621145Y-89713490D01*
X138621145Y-89713490D02*
X138668764Y-89808728D01*
X138668764Y-89808728D02*
X138668764Y-90094442D01*
X138668764Y-90094442D02*
X138621145Y-90189680D01*
X138621145Y-90189680D02*
X138573526Y-90237300D01*
X138573526Y-90237300D02*
X138478288Y-90284919D01*
X138478288Y-90284919D02*
X138335431Y-90284919D01*
X139621145Y-90284919D02*
X139049717Y-90284919D01*
X139335431Y-90284919D02*
X139335431Y-89284919D01*
X139335431Y-89284919D02*
X139240193Y-89427776D01*
X139240193Y-89427776D02*
X139144955Y-89523014D01*
X139144955Y-89523014D02*
X139049717Y-89570633D01*
X139954479Y-89284919D02*
X140573526Y-89284919D01*
X140573526Y-89284919D02*
X140240193Y-89665871D01*
X140240193Y-89665871D02*
X140383050Y-89665871D01*
X140383050Y-89665871D02*
X140478288Y-89713490D01*
X140478288Y-89713490D02*
X140525907Y-89761109D01*
X140525907Y-89761109D02*
X140573526Y-89856347D01*
X140573526Y-89856347D02*
X140573526Y-90094442D01*
X140573526Y-90094442D02*
X140525907Y-90189680D01*
X140525907Y-90189680D02*
X140478288Y-90237300D01*
X140478288Y-90237300D02*
X140383050Y-90284919D01*
X140383050Y-90284919D02*
X140097336Y-90284919D01*
X140097336Y-90284919D02*
X140002098Y-90237300D01*
X140002098Y-90237300D02*
X139954479Y-90189680D01*
X137716384Y-82534919D02*
X137716384Y-81868252D01*
X137716384Y-81534919D02*
X137668765Y-81582538D01*
X137668765Y-81582538D02*
X137716384Y-81630157D01*
X137716384Y-81630157D02*
X137764003Y-81582538D01*
X137764003Y-81582538D02*
X137716384Y-81534919D01*
X137716384Y-81534919D02*
X137716384Y-81630157D01*
X138335431Y-82534919D02*
X138240193Y-82487300D01*
X138240193Y-82487300D02*
X138192574Y-82439680D01*
X138192574Y-82439680D02*
X138144955Y-82344442D01*
X138144955Y-82344442D02*
X138144955Y-82058728D01*
X138144955Y-82058728D02*
X138192574Y-81963490D01*
X138192574Y-81963490D02*
X138240193Y-81915871D01*
X138240193Y-81915871D02*
X138335431Y-81868252D01*
X138335431Y-81868252D02*
X138478288Y-81868252D01*
X138478288Y-81868252D02*
X138573526Y-81915871D01*
X138573526Y-81915871D02*
X138621145Y-81963490D01*
X138621145Y-81963490D02*
X138668764Y-82058728D01*
X138668764Y-82058728D02*
X138668764Y-82344442D01*
X138668764Y-82344442D02*
X138621145Y-82439680D01*
X138621145Y-82439680D02*
X138573526Y-82487300D01*
X138573526Y-82487300D02*
X138478288Y-82534919D01*
X138478288Y-82534919D02*
X138335431Y-82534919D01*
X139049717Y-81630157D02*
X139097336Y-81582538D01*
X139097336Y-81582538D02*
X139192574Y-81534919D01*
X139192574Y-81534919D02*
X139430669Y-81534919D01*
X139430669Y-81534919D02*
X139525907Y-81582538D01*
X139525907Y-81582538D02*
X139573526Y-81630157D01*
X139573526Y-81630157D02*
X139621145Y-81725395D01*
X139621145Y-81725395D02*
X139621145Y-81820633D01*
X139621145Y-81820633D02*
X139573526Y-81963490D01*
X139573526Y-81963490D02*
X139002098Y-82534919D01*
X139002098Y-82534919D02*
X139621145Y-82534919D01*
X139954479Y-81534919D02*
X140621145Y-81534919D01*
X140621145Y-81534919D02*
X140192574Y-82534919D01*
X93717574Y-116944919D02*
X93241384Y-116944919D01*
X93241384Y-116944919D02*
X93193765Y-117421109D01*
X93193765Y-117421109D02*
X93241384Y-117373490D01*
X93241384Y-117373490D02*
X93336622Y-117325871D01*
X93336622Y-117325871D02*
X93574717Y-117325871D01*
X93574717Y-117325871D02*
X93669955Y-117373490D01*
X93669955Y-117373490D02*
X93717574Y-117421109D01*
X93717574Y-117421109D02*
X93765193Y-117516347D01*
X93765193Y-117516347D02*
X93765193Y-117754442D01*
X93765193Y-117754442D02*
X93717574Y-117849680D01*
X93717574Y-117849680D02*
X93669955Y-117897300D01*
X93669955Y-117897300D02*
X93574717Y-117944919D01*
X93574717Y-117944919D02*
X93336622Y-117944919D01*
X93336622Y-117944919D02*
X93241384Y-117897300D01*
X93241384Y-117897300D02*
X93193765Y-117849680D01*
X137716384Y-77534919D02*
X137716384Y-76868252D01*
X137716384Y-76534919D02*
X137668765Y-76582538D01*
X137668765Y-76582538D02*
X137716384Y-76630157D01*
X137716384Y-76630157D02*
X137764003Y-76582538D01*
X137764003Y-76582538D02*
X137716384Y-76534919D01*
X137716384Y-76534919D02*
X137716384Y-76630157D01*
X138335431Y-77534919D02*
X138240193Y-77487300D01*
X138240193Y-77487300D02*
X138192574Y-77439680D01*
X138192574Y-77439680D02*
X138144955Y-77344442D01*
X138144955Y-77344442D02*
X138144955Y-77058728D01*
X138144955Y-77058728D02*
X138192574Y-76963490D01*
X138192574Y-76963490D02*
X138240193Y-76915871D01*
X138240193Y-76915871D02*
X138335431Y-76868252D01*
X138335431Y-76868252D02*
X138478288Y-76868252D01*
X138478288Y-76868252D02*
X138573526Y-76915871D01*
X138573526Y-76915871D02*
X138621145Y-76963490D01*
X138621145Y-76963490D02*
X138668764Y-77058728D01*
X138668764Y-77058728D02*
X138668764Y-77344442D01*
X138668764Y-77344442D02*
X138621145Y-77439680D01*
X138621145Y-77439680D02*
X138573526Y-77487300D01*
X138573526Y-77487300D02*
X138478288Y-77534919D01*
X138478288Y-77534919D02*
X138335431Y-77534919D01*
X139049717Y-76630157D02*
X139097336Y-76582538D01*
X139097336Y-76582538D02*
X139192574Y-76534919D01*
X139192574Y-76534919D02*
X139430669Y-76534919D01*
X139430669Y-76534919D02*
X139525907Y-76582538D01*
X139525907Y-76582538D02*
X139573526Y-76630157D01*
X139573526Y-76630157D02*
X139621145Y-76725395D01*
X139621145Y-76725395D02*
X139621145Y-76820633D01*
X139621145Y-76820633D02*
X139573526Y-76963490D01*
X139573526Y-76963490D02*
X139002098Y-77534919D01*
X139002098Y-77534919D02*
X139621145Y-77534919D01*
X140525907Y-76534919D02*
X140049717Y-76534919D01*
X140049717Y-76534919D02*
X140002098Y-77011109D01*
X140002098Y-77011109D02*
X140049717Y-76963490D01*
X140049717Y-76963490D02*
X140144955Y-76915871D01*
X140144955Y-76915871D02*
X140383050Y-76915871D01*
X140383050Y-76915871D02*
X140478288Y-76963490D01*
X140478288Y-76963490D02*
X140525907Y-77011109D01*
X140525907Y-77011109D02*
X140573526Y-77106347D01*
X140573526Y-77106347D02*
X140573526Y-77344442D01*
X140573526Y-77344442D02*
X140525907Y-77439680D01*
X140525907Y-77439680D02*
X140478288Y-77487300D01*
X140478288Y-77487300D02*
X140383050Y-77534919D01*
X140383050Y-77534919D02*
X140144955Y-77534919D01*
X140144955Y-77534919D02*
X140049717Y-77487300D01*
X140049717Y-77487300D02*
X140002098Y-77439680D01*
X181940193Y-117632538D02*
X181844955Y-117584919D01*
X181844955Y-117584919D02*
X181702098Y-117584919D01*
X181702098Y-117584919D02*
X181559241Y-117632538D01*
X181559241Y-117632538D02*
X181464003Y-117727776D01*
X181464003Y-117727776D02*
X181416384Y-117823014D01*
X181416384Y-117823014D02*
X181368765Y-118013490D01*
X181368765Y-118013490D02*
X181368765Y-118156347D01*
X181368765Y-118156347D02*
X181416384Y-118346823D01*
X181416384Y-118346823D02*
X181464003Y-118442061D01*
X181464003Y-118442061D02*
X181559241Y-118537300D01*
X181559241Y-118537300D02*
X181702098Y-118584919D01*
X181702098Y-118584919D02*
X181797336Y-118584919D01*
X181797336Y-118584919D02*
X181940193Y-118537300D01*
X181940193Y-118537300D02*
X181987812Y-118489680D01*
X181987812Y-118489680D02*
X181987812Y-118156347D01*
X181987812Y-118156347D02*
X181797336Y-118156347D01*
X182416384Y-118584919D02*
X182416384Y-117584919D01*
X182416384Y-117584919D02*
X182797336Y-117584919D01*
X182797336Y-117584919D02*
X182892574Y-117632538D01*
X182892574Y-117632538D02*
X182940193Y-117680157D01*
X182940193Y-117680157D02*
X182987812Y-117775395D01*
X182987812Y-117775395D02*
X182987812Y-117918252D01*
X182987812Y-117918252D02*
X182940193Y-118013490D01*
X182940193Y-118013490D02*
X182892574Y-118061109D01*
X182892574Y-118061109D02*
X182797336Y-118108728D01*
X182797336Y-118108728D02*
X182416384Y-118108728D01*
X183606860Y-117584919D02*
X183797336Y-117584919D01*
X183797336Y-117584919D02*
X183892574Y-117632538D01*
X183892574Y-117632538D02*
X183987812Y-117727776D01*
X183987812Y-117727776D02*
X184035431Y-117918252D01*
X184035431Y-117918252D02*
X184035431Y-118251585D01*
X184035431Y-118251585D02*
X183987812Y-118442061D01*
X183987812Y-118442061D02*
X183892574Y-118537300D01*
X183892574Y-118537300D02*
X183797336Y-118584919D01*
X183797336Y-118584919D02*
X183606860Y-118584919D01*
X183606860Y-118584919D02*
X183511622Y-118537300D01*
X183511622Y-118537300D02*
X183416384Y-118442061D01*
X183416384Y-118442061D02*
X183368765Y-118251585D01*
X183368765Y-118251585D02*
X183368765Y-117918252D01*
X183368765Y-117918252D02*
X183416384Y-117727776D01*
X183416384Y-117727776D02*
X183511622Y-117632538D01*
X183511622Y-117632538D02*
X183606860Y-117584919D01*
X184464003Y-118584919D02*
X184464003Y-117584919D01*
X185368764Y-117918252D02*
X185368764Y-118584919D01*
X185130669Y-117537300D02*
X184892574Y-118251585D01*
X184892574Y-118251585D02*
X185511621Y-118251585D01*
X93669955Y-114444919D02*
X93479479Y-114444919D01*
X93479479Y-114444919D02*
X93384241Y-114492538D01*
X93384241Y-114492538D02*
X93336622Y-114540157D01*
X93336622Y-114540157D02*
X93241384Y-114683014D01*
X93241384Y-114683014D02*
X93193765Y-114873490D01*
X93193765Y-114873490D02*
X93193765Y-115254442D01*
X93193765Y-115254442D02*
X93241384Y-115349680D01*
X93241384Y-115349680D02*
X93289003Y-115397300D01*
X93289003Y-115397300D02*
X93384241Y-115444919D01*
X93384241Y-115444919D02*
X93574717Y-115444919D01*
X93574717Y-115444919D02*
X93669955Y-115397300D01*
X93669955Y-115397300D02*
X93717574Y-115349680D01*
X93717574Y-115349680D02*
X93765193Y-115254442D01*
X93765193Y-115254442D02*
X93765193Y-115016347D01*
X93765193Y-115016347D02*
X93717574Y-114921109D01*
X93717574Y-114921109D02*
X93669955Y-114873490D01*
X93669955Y-114873490D02*
X93574717Y-114825871D01*
X93574717Y-114825871D02*
X93384241Y-114825871D01*
X93384241Y-114825871D02*
X93289003Y-114873490D01*
X93289003Y-114873490D02*
X93241384Y-114921109D01*
X93241384Y-114921109D02*
X93193765Y-115016347D01*
X93669955Y-119778252D02*
X93669955Y-120444919D01*
X93431860Y-119397300D02*
X93193765Y-120111585D01*
X93193765Y-120111585D02*
X93812812Y-120111585D01*
X183303884Y-88172419D02*
X183303884Y-87505752D01*
X183303884Y-87172419D02*
X183256265Y-87220038D01*
X183256265Y-87220038D02*
X183303884Y-87267657D01*
X183303884Y-87267657D02*
X183351503Y-87220038D01*
X183351503Y-87220038D02*
X183303884Y-87172419D01*
X183303884Y-87172419D02*
X183303884Y-87267657D01*
X183922931Y-88172419D02*
X183827693Y-88124800D01*
X183827693Y-88124800D02*
X183780074Y-88077180D01*
X183780074Y-88077180D02*
X183732455Y-87981942D01*
X183732455Y-87981942D02*
X183732455Y-87696228D01*
X183732455Y-87696228D02*
X183780074Y-87600990D01*
X183780074Y-87600990D02*
X183827693Y-87553371D01*
X183827693Y-87553371D02*
X183922931Y-87505752D01*
X183922931Y-87505752D02*
X184065788Y-87505752D01*
X184065788Y-87505752D02*
X184161026Y-87553371D01*
X184161026Y-87553371D02*
X184208645Y-87600990D01*
X184208645Y-87600990D02*
X184256264Y-87696228D01*
X184256264Y-87696228D02*
X184256264Y-87981942D01*
X184256264Y-87981942D02*
X184208645Y-88077180D01*
X184208645Y-88077180D02*
X184161026Y-88124800D01*
X184161026Y-88124800D02*
X184065788Y-88172419D01*
X184065788Y-88172419D02*
X183922931Y-88172419D01*
X184637217Y-87267657D02*
X184684836Y-87220038D01*
X184684836Y-87220038D02*
X184780074Y-87172419D01*
X184780074Y-87172419D02*
X185018169Y-87172419D01*
X185018169Y-87172419D02*
X185113407Y-87220038D01*
X185113407Y-87220038D02*
X185161026Y-87267657D01*
X185161026Y-87267657D02*
X185208645Y-87362895D01*
X185208645Y-87362895D02*
X185208645Y-87458133D01*
X185208645Y-87458133D02*
X185161026Y-87600990D01*
X185161026Y-87600990D02*
X184589598Y-88172419D01*
X184589598Y-88172419D02*
X185208645Y-88172419D01*
X183073527Y-79618252D02*
X183454479Y-79618252D01*
X183216384Y-79284919D02*
X183216384Y-80142061D01*
X183216384Y-80142061D02*
X183264003Y-80237300D01*
X183264003Y-80237300D02*
X183359241Y-80284919D01*
X183359241Y-80284919D02*
X183454479Y-80284919D01*
X183692575Y-80284919D02*
X184216384Y-79618252D01*
X183692575Y-79618252D02*
X184216384Y-80284919D01*
X184787813Y-79284919D02*
X184883051Y-79284919D01*
X184883051Y-79284919D02*
X184978289Y-79332538D01*
X184978289Y-79332538D02*
X185025908Y-79380157D01*
X185025908Y-79380157D02*
X185073527Y-79475395D01*
X185073527Y-79475395D02*
X185121146Y-79665871D01*
X185121146Y-79665871D02*
X185121146Y-79903966D01*
X185121146Y-79903966D02*
X185073527Y-80094442D01*
X185073527Y-80094442D02*
X185025908Y-80189680D01*
X185025908Y-80189680D02*
X184978289Y-80237300D01*
X184978289Y-80237300D02*
X184883051Y-80284919D01*
X184883051Y-80284919D02*
X184787813Y-80284919D01*
X184787813Y-80284919D02*
X184692575Y-80237300D01*
X184692575Y-80237300D02*
X184644956Y-80189680D01*
X184644956Y-80189680D02*
X184597337Y-80094442D01*
X184597337Y-80094442D02*
X184549718Y-79903966D01*
X184549718Y-79903966D02*
X184549718Y-79665871D01*
X184549718Y-79665871D02*
X184597337Y-79475395D01*
X184597337Y-79475395D02*
X184644956Y-79380157D01*
X184644956Y-79380157D02*
X184692575Y-79332538D01*
X184692575Y-79332538D02*
X184787813Y-79284919D01*
X91214680Y-122697187D02*
X91262300Y-122744806D01*
X91262300Y-122744806D02*
X91309919Y-122887663D01*
X91309919Y-122887663D02*
X91309919Y-122982901D01*
X91309919Y-122982901D02*
X91262300Y-123125758D01*
X91262300Y-123125758D02*
X91167061Y-123220996D01*
X91167061Y-123220996D02*
X91071823Y-123268615D01*
X91071823Y-123268615D02*
X90881347Y-123316234D01*
X90881347Y-123316234D02*
X90738490Y-123316234D01*
X90738490Y-123316234D02*
X90548014Y-123268615D01*
X90548014Y-123268615D02*
X90452776Y-123220996D01*
X90452776Y-123220996D02*
X90357538Y-123125758D01*
X90357538Y-123125758D02*
X90309919Y-122982901D01*
X90309919Y-122982901D02*
X90309919Y-122887663D01*
X90309919Y-122887663D02*
X90357538Y-122744806D01*
X90357538Y-122744806D02*
X90405157Y-122697187D01*
X91309919Y-122268615D02*
X90309919Y-122268615D01*
X90786109Y-122268615D02*
X90786109Y-121697187D01*
X91309919Y-121697187D02*
X90309919Y-121697187D01*
X91024204Y-121268615D02*
X91024204Y-120792425D01*
X91309919Y-121363853D02*
X90309919Y-121030520D01*
X90309919Y-121030520D02*
X91309919Y-120697187D01*
X91309919Y-120363853D02*
X90309919Y-120363853D01*
X90309919Y-120363853D02*
X91309919Y-119792425D01*
X91309919Y-119792425D02*
X90309919Y-119792425D01*
X91309919Y-119316234D02*
X90309919Y-119316234D01*
X90309919Y-119316234D02*
X91309919Y-118744806D01*
X91309919Y-118744806D02*
X90309919Y-118744806D01*
X90786109Y-118268615D02*
X90786109Y-117935282D01*
X91309919Y-117792425D02*
X91309919Y-118268615D01*
X91309919Y-118268615D02*
X90309919Y-118268615D01*
X90309919Y-118268615D02*
X90309919Y-117792425D01*
X91309919Y-116887663D02*
X91309919Y-117363853D01*
X91309919Y-117363853D02*
X90309919Y-117363853D01*
X91262300Y-116601948D02*
X91309919Y-116459091D01*
X91309919Y-116459091D02*
X91309919Y-116220996D01*
X91309919Y-116220996D02*
X91262300Y-116125758D01*
X91262300Y-116125758D02*
X91214680Y-116078139D01*
X91214680Y-116078139D02*
X91119442Y-116030520D01*
X91119442Y-116030520D02*
X91024204Y-116030520D01*
X91024204Y-116030520D02*
X90928966Y-116078139D01*
X90928966Y-116078139D02*
X90881347Y-116125758D01*
X90881347Y-116125758D02*
X90833728Y-116220996D01*
X90833728Y-116220996D02*
X90786109Y-116411472D01*
X90786109Y-116411472D02*
X90738490Y-116506710D01*
X90738490Y-116506710D02*
X90690871Y-116554329D01*
X90690871Y-116554329D02*
X90595633Y-116601948D01*
X90595633Y-116601948D02*
X90500395Y-116601948D01*
X90500395Y-116601948D02*
X90405157Y-116554329D01*
X90405157Y-116554329D02*
X90357538Y-116506710D01*
X90357538Y-116506710D02*
X90309919Y-116411472D01*
X90309919Y-116411472D02*
X90309919Y-116173377D01*
X90309919Y-116173377D02*
X90357538Y-116030520D01*
X93146146Y-111944919D02*
X93812812Y-111944919D01*
X93812812Y-111944919D02*
X93384241Y-112944919D01*
X93384241Y-109873490D02*
X93289003Y-109825871D01*
X93289003Y-109825871D02*
X93241384Y-109778252D01*
X93241384Y-109778252D02*
X93193765Y-109683014D01*
X93193765Y-109683014D02*
X93193765Y-109635395D01*
X93193765Y-109635395D02*
X93241384Y-109540157D01*
X93241384Y-109540157D02*
X93289003Y-109492538D01*
X93289003Y-109492538D02*
X93384241Y-109444919D01*
X93384241Y-109444919D02*
X93574717Y-109444919D01*
X93574717Y-109444919D02*
X93669955Y-109492538D01*
X93669955Y-109492538D02*
X93717574Y-109540157D01*
X93717574Y-109540157D02*
X93765193Y-109635395D01*
X93765193Y-109635395D02*
X93765193Y-109683014D01*
X93765193Y-109683014D02*
X93717574Y-109778252D01*
X93717574Y-109778252D02*
X93669955Y-109825871D01*
X93669955Y-109825871D02*
X93574717Y-109873490D01*
X93574717Y-109873490D02*
X93384241Y-109873490D01*
X93384241Y-109873490D02*
X93289003Y-109921109D01*
X93289003Y-109921109D02*
X93241384Y-109968728D01*
X93241384Y-109968728D02*
X93193765Y-110063966D01*
X93193765Y-110063966D02*
X93193765Y-110254442D01*
X93193765Y-110254442D02*
X93241384Y-110349680D01*
X93241384Y-110349680D02*
X93289003Y-110397300D01*
X93289003Y-110397300D02*
X93384241Y-110444919D01*
X93384241Y-110444919D02*
X93574717Y-110444919D01*
X93574717Y-110444919D02*
X93669955Y-110397300D01*
X93669955Y-110397300D02*
X93717574Y-110349680D01*
X93717574Y-110349680D02*
X93765193Y-110254442D01*
X93765193Y-110254442D02*
X93765193Y-110063966D01*
X93765193Y-110063966D02*
X93717574Y-109968728D01*
X93717574Y-109968728D02*
X93669955Y-109921109D01*
X93669955Y-109921109D02*
X93574717Y-109873490D01*
X137716384Y-79784919D02*
X137716384Y-79118252D01*
X137716384Y-78784919D02*
X137668765Y-78832538D01*
X137668765Y-78832538D02*
X137716384Y-78880157D01*
X137716384Y-78880157D02*
X137764003Y-78832538D01*
X137764003Y-78832538D02*
X137716384Y-78784919D01*
X137716384Y-78784919D02*
X137716384Y-78880157D01*
X138335431Y-79784919D02*
X138240193Y-79737300D01*
X138240193Y-79737300D02*
X138192574Y-79689680D01*
X138192574Y-79689680D02*
X138144955Y-79594442D01*
X138144955Y-79594442D02*
X138144955Y-79308728D01*
X138144955Y-79308728D02*
X138192574Y-79213490D01*
X138192574Y-79213490D02*
X138240193Y-79165871D01*
X138240193Y-79165871D02*
X138335431Y-79118252D01*
X138335431Y-79118252D02*
X138478288Y-79118252D01*
X138478288Y-79118252D02*
X138573526Y-79165871D01*
X138573526Y-79165871D02*
X138621145Y-79213490D01*
X138621145Y-79213490D02*
X138668764Y-79308728D01*
X138668764Y-79308728D02*
X138668764Y-79594442D01*
X138668764Y-79594442D02*
X138621145Y-79689680D01*
X138621145Y-79689680D02*
X138573526Y-79737300D01*
X138573526Y-79737300D02*
X138478288Y-79784919D01*
X138478288Y-79784919D02*
X138335431Y-79784919D01*
X139049717Y-78880157D02*
X139097336Y-78832538D01*
X139097336Y-78832538D02*
X139192574Y-78784919D01*
X139192574Y-78784919D02*
X139430669Y-78784919D01*
X139430669Y-78784919D02*
X139525907Y-78832538D01*
X139525907Y-78832538D02*
X139573526Y-78880157D01*
X139573526Y-78880157D02*
X139621145Y-78975395D01*
X139621145Y-78975395D02*
X139621145Y-79070633D01*
X139621145Y-79070633D02*
X139573526Y-79213490D01*
X139573526Y-79213490D02*
X139002098Y-79784919D01*
X139002098Y-79784919D02*
X139621145Y-79784919D01*
X140478288Y-78784919D02*
X140287812Y-78784919D01*
X140287812Y-78784919D02*
X140192574Y-78832538D01*
X140192574Y-78832538D02*
X140144955Y-78880157D01*
X140144955Y-78880157D02*
X140049717Y-79023014D01*
X140049717Y-79023014D02*
X140002098Y-79213490D01*
X140002098Y-79213490D02*
X140002098Y-79594442D01*
X140002098Y-79594442D02*
X140049717Y-79689680D01*
X140049717Y-79689680D02*
X140097336Y-79737300D01*
X140097336Y-79737300D02*
X140192574Y-79784919D01*
X140192574Y-79784919D02*
X140383050Y-79784919D01*
X140383050Y-79784919D02*
X140478288Y-79737300D01*
X140478288Y-79737300D02*
X140525907Y-79689680D01*
X140525907Y-79689680D02*
X140573526Y-79594442D01*
X140573526Y-79594442D02*
X140573526Y-79356347D01*
X140573526Y-79356347D02*
X140525907Y-79261109D01*
X140525907Y-79261109D02*
X140478288Y-79213490D01*
X140478288Y-79213490D02*
X140383050Y-79165871D01*
X140383050Y-79165871D02*
X140192574Y-79165871D01*
X140192574Y-79165871D02*
X140097336Y-79213490D01*
X140097336Y-79213490D02*
X140049717Y-79261109D01*
X140049717Y-79261109D02*
X140002098Y-79356347D01*
X139098527Y-61534919D02*
X139431860Y-62534919D01*
X139431860Y-62534919D02*
X139765193Y-61534919D01*
X140098527Y-62534919D02*
X140098527Y-61534919D01*
X140098527Y-61534919D02*
X140479479Y-61534919D01*
X140479479Y-61534919D02*
X140574717Y-61582538D01*
X140574717Y-61582538D02*
X140622336Y-61630157D01*
X140622336Y-61630157D02*
X140669955Y-61725395D01*
X140669955Y-61725395D02*
X140669955Y-61868252D01*
X140669955Y-61868252D02*
X140622336Y-61963490D01*
X140622336Y-61963490D02*
X140574717Y-62011109D01*
X140574717Y-62011109D02*
X140479479Y-62058728D01*
X140479479Y-62058728D02*
X140098527Y-62058728D01*
X137716384Y-85284919D02*
X137716384Y-84618252D01*
X137716384Y-84284919D02*
X137668765Y-84332538D01*
X137668765Y-84332538D02*
X137716384Y-84380157D01*
X137716384Y-84380157D02*
X137764003Y-84332538D01*
X137764003Y-84332538D02*
X137716384Y-84284919D01*
X137716384Y-84284919D02*
X137716384Y-84380157D01*
X138335431Y-85284919D02*
X138240193Y-85237300D01*
X138240193Y-85237300D02*
X138192574Y-85189680D01*
X138192574Y-85189680D02*
X138144955Y-85094442D01*
X138144955Y-85094442D02*
X138144955Y-84808728D01*
X138144955Y-84808728D02*
X138192574Y-84713490D01*
X138192574Y-84713490D02*
X138240193Y-84665871D01*
X138240193Y-84665871D02*
X138335431Y-84618252D01*
X138335431Y-84618252D02*
X138478288Y-84618252D01*
X138478288Y-84618252D02*
X138573526Y-84665871D01*
X138573526Y-84665871D02*
X138621145Y-84713490D01*
X138621145Y-84713490D02*
X138668764Y-84808728D01*
X138668764Y-84808728D02*
X138668764Y-85094442D01*
X138668764Y-85094442D02*
X138621145Y-85189680D01*
X138621145Y-85189680D02*
X138573526Y-85237300D01*
X138573526Y-85237300D02*
X138478288Y-85284919D01*
X138478288Y-85284919D02*
X138335431Y-85284919D01*
X139621145Y-85284919D02*
X139049717Y-85284919D01*
X139335431Y-85284919D02*
X139335431Y-84284919D01*
X139335431Y-84284919D02*
X139240193Y-84427776D01*
X139240193Y-84427776D02*
X139144955Y-84523014D01*
X139144955Y-84523014D02*
X139049717Y-84570633D01*
X140478288Y-84618252D02*
X140478288Y-85284919D01*
X140240193Y-84237300D02*
X140002098Y-84951585D01*
X140002098Y-84951585D02*
X140621145Y-84951585D01*
D11*
X148301009Y-104633333D02*
X148301009Y-104966666D01*
X148824819Y-104966666D02*
X147824819Y-104966666D01*
X147824819Y-104966666D02*
X147824819Y-104490476D01*
X148301009Y-103776190D02*
X148348628Y-103633333D01*
X148348628Y-103633333D02*
X148396247Y-103585714D01*
X148396247Y-103585714D02*
X148491485Y-103538095D01*
X148491485Y-103538095D02*
X148634342Y-103538095D01*
X148634342Y-103538095D02*
X148729580Y-103585714D01*
X148729580Y-103585714D02*
X148777200Y-103633333D01*
X148777200Y-103633333D02*
X148824819Y-103728571D01*
X148824819Y-103728571D02*
X148824819Y-104109523D01*
X148824819Y-104109523D02*
X147824819Y-104109523D01*
X147824819Y-104109523D02*
X147824819Y-103776190D01*
X147824819Y-103776190D02*
X147872438Y-103680952D01*
X147872438Y-103680952D02*
X147920057Y-103633333D01*
X147920057Y-103633333D02*
X148015295Y-103585714D01*
X148015295Y-103585714D02*
X148110533Y-103585714D01*
X148110533Y-103585714D02*
X148205771Y-103633333D01*
X148205771Y-103633333D02*
X148253390Y-103680952D01*
X148253390Y-103680952D02*
X148301009Y-103776190D01*
X148301009Y-103776190D02*
X148301009Y-104109523D01*
X148824819Y-102585714D02*
X148824819Y-103157142D01*
X148824819Y-102871428D02*
X147824819Y-102871428D01*
X147824819Y-102871428D02*
X147967676Y-102966666D01*
X147967676Y-102966666D02*
X148062914Y-103061904D01*
X148062914Y-103061904D02*
X148110533Y-103157142D01*
D12*
X156959519Y-136343092D02*
X156978267Y-136361840D01*
X156978267Y-136361840D02*
X156997014Y-136418083D01*
X156997014Y-136418083D02*
X156997014Y-136455578D01*
X156997014Y-136455578D02*
X156978267Y-136511821D01*
X156978267Y-136511821D02*
X156940771Y-136549317D01*
X156940771Y-136549317D02*
X156903276Y-136568064D01*
X156903276Y-136568064D02*
X156828285Y-136586812D01*
X156828285Y-136586812D02*
X156772042Y-136586812D01*
X156772042Y-136586812D02*
X156697052Y-136568064D01*
X156697052Y-136568064D02*
X156659556Y-136549317D01*
X156659556Y-136549317D02*
X156622061Y-136511821D01*
X156622061Y-136511821D02*
X156603313Y-136455578D01*
X156603313Y-136455578D02*
X156603313Y-136418083D01*
X156603313Y-136418083D02*
X156622061Y-136361840D01*
X156622061Y-136361840D02*
X156640809Y-136343092D01*
X156997014Y-135968139D02*
X156997014Y-136193111D01*
X156997014Y-136080625D02*
X156603313Y-136080625D01*
X156603313Y-136080625D02*
X156659556Y-136118120D01*
X156659556Y-136118120D02*
X156697052Y-136155616D01*
X156697052Y-136155616D02*
X156715799Y-136193111D01*
X156734547Y-135630681D02*
X156997014Y-135630681D01*
X156584566Y-135724420D02*
X156865781Y-135818158D01*
X156865781Y-135818158D02*
X156865781Y-135574438D01*
D11*
X141095833Y-108524580D02*
X141048214Y-108572200D01*
X141048214Y-108572200D02*
X140905357Y-108619819D01*
X140905357Y-108619819D02*
X140810119Y-108619819D01*
X140810119Y-108619819D02*
X140667262Y-108572200D01*
X140667262Y-108572200D02*
X140572024Y-108476961D01*
X140572024Y-108476961D02*
X140524405Y-108381723D01*
X140524405Y-108381723D02*
X140476786Y-108191247D01*
X140476786Y-108191247D02*
X140476786Y-108048390D01*
X140476786Y-108048390D02*
X140524405Y-107857914D01*
X140524405Y-107857914D02*
X140572024Y-107762676D01*
X140572024Y-107762676D02*
X140667262Y-107667438D01*
X140667262Y-107667438D02*
X140810119Y-107619819D01*
X140810119Y-107619819D02*
X140905357Y-107619819D01*
X140905357Y-107619819D02*
X141048214Y-107667438D01*
X141048214Y-107667438D02*
X141095833Y-107715057D01*
X141952976Y-107953152D02*
X141952976Y-108619819D01*
X141714881Y-107572200D02*
X141476786Y-108286485D01*
X141476786Y-108286485D02*
X142095833Y-108286485D01*
X142604166Y-55947319D02*
X142604166Y-56661604D01*
X142604166Y-56661604D02*
X142556547Y-56804461D01*
X142556547Y-56804461D02*
X142461309Y-56899700D01*
X142461309Y-56899700D02*
X142318452Y-56947319D01*
X142318452Y-56947319D02*
X142223214Y-56947319D01*
X143032738Y-56042557D02*
X143080357Y-55994938D01*
X143080357Y-55994938D02*
X143175595Y-55947319D01*
X143175595Y-55947319D02*
X143413690Y-55947319D01*
X143413690Y-55947319D02*
X143508928Y-55994938D01*
X143508928Y-55994938D02*
X143556547Y-56042557D01*
X143556547Y-56042557D02*
X143604166Y-56137795D01*
X143604166Y-56137795D02*
X143604166Y-56233033D01*
X143604166Y-56233033D02*
X143556547Y-56375890D01*
X143556547Y-56375890D02*
X142985119Y-56947319D01*
X142985119Y-56947319D02*
X143604166Y-56947319D01*
X150988095Y-118267319D02*
X150988095Y-119076842D01*
X150988095Y-119076842D02*
X151035714Y-119172080D01*
X151035714Y-119172080D02*
X151083333Y-119219700D01*
X151083333Y-119219700D02*
X151178571Y-119267319D01*
X151178571Y-119267319D02*
X151369047Y-119267319D01*
X151369047Y-119267319D02*
X151464285Y-119219700D01*
X151464285Y-119219700D02*
X151511904Y-119172080D01*
X151511904Y-119172080D02*
X151559523Y-119076842D01*
X151559523Y-119076842D02*
X151559523Y-118267319D01*
X152464285Y-118267319D02*
X152273809Y-118267319D01*
X152273809Y-118267319D02*
X152178571Y-118314938D01*
X152178571Y-118314938D02*
X152130952Y-118362557D01*
X152130952Y-118362557D02*
X152035714Y-118505414D01*
X152035714Y-118505414D02*
X151988095Y-118695890D01*
X151988095Y-118695890D02*
X151988095Y-119076842D01*
X151988095Y-119076842D02*
X152035714Y-119172080D01*
X152035714Y-119172080D02*
X152083333Y-119219700D01*
X152083333Y-119219700D02*
X152178571Y-119267319D01*
X152178571Y-119267319D02*
X152369047Y-119267319D01*
X152369047Y-119267319D02*
X152464285Y-119219700D01*
X152464285Y-119219700D02*
X152511904Y-119172080D01*
X152511904Y-119172080D02*
X152559523Y-119076842D01*
X152559523Y-119076842D02*
X152559523Y-118838747D01*
X152559523Y-118838747D02*
X152511904Y-118743509D01*
X152511904Y-118743509D02*
X152464285Y-118695890D01*
X152464285Y-118695890D02*
X152369047Y-118648271D01*
X152369047Y-118648271D02*
X152178571Y-118648271D01*
X152178571Y-118648271D02*
X152083333Y-118695890D01*
X152083333Y-118695890D02*
X152035714Y-118743509D01*
X152035714Y-118743509D02*
X151988095Y-118838747D01*
X158269642Y-115184580D02*
X158222023Y-115232200D01*
X158222023Y-115232200D02*
X158079166Y-115279819D01*
X158079166Y-115279819D02*
X157983928Y-115279819D01*
X157983928Y-115279819D02*
X157841071Y-115232200D01*
X157841071Y-115232200D02*
X157745833Y-115136961D01*
X157745833Y-115136961D02*
X157698214Y-115041723D01*
X157698214Y-115041723D02*
X157650595Y-114851247D01*
X157650595Y-114851247D02*
X157650595Y-114708390D01*
X157650595Y-114708390D02*
X157698214Y-114517914D01*
X157698214Y-114517914D02*
X157745833Y-114422676D01*
X157745833Y-114422676D02*
X157841071Y-114327438D01*
X157841071Y-114327438D02*
X157983928Y-114279819D01*
X157983928Y-114279819D02*
X158079166Y-114279819D01*
X158079166Y-114279819D02*
X158222023Y-114327438D01*
X158222023Y-114327438D02*
X158269642Y-114375057D01*
X159222023Y-115279819D02*
X158650595Y-115279819D01*
X158936309Y-115279819D02*
X158936309Y-114279819D01*
X158936309Y-114279819D02*
X158841071Y-114422676D01*
X158841071Y-114422676D02*
X158745833Y-114517914D01*
X158745833Y-114517914D02*
X158650595Y-114565533D01*
X159602976Y-114375057D02*
X159650595Y-114327438D01*
X159650595Y-114327438D02*
X159745833Y-114279819D01*
X159745833Y-114279819D02*
X159983928Y-114279819D01*
X159983928Y-114279819D02*
X160079166Y-114327438D01*
X160079166Y-114327438D02*
X160126785Y-114375057D01*
X160126785Y-114375057D02*
X160174404Y-114470295D01*
X160174404Y-114470295D02*
X160174404Y-114565533D01*
X160174404Y-114565533D02*
X160126785Y-114708390D01*
X160126785Y-114708390D02*
X159555357Y-115279819D01*
X159555357Y-115279819D02*
X160174404Y-115279819D01*
X116939199Y-147584557D02*
X116463008Y-147917890D01*
X116939199Y-148155985D02*
X115939199Y-148155985D01*
X115939199Y-148155985D02*
X115939199Y-147775033D01*
X115939199Y-147775033D02*
X115986818Y-147679795D01*
X115986818Y-147679795D02*
X116034437Y-147632176D01*
X116034437Y-147632176D02*
X116129675Y-147584557D01*
X116129675Y-147584557D02*
X116272532Y-147584557D01*
X116272532Y-147584557D02*
X116367770Y-147632176D01*
X116367770Y-147632176D02*
X116415389Y-147679795D01*
X116415389Y-147679795D02*
X116463008Y-147775033D01*
X116463008Y-147775033D02*
X116463008Y-148155985D01*
X116939199Y-146632176D02*
X116939199Y-147203604D01*
X116939199Y-146917890D02*
X115939199Y-146917890D01*
X115939199Y-146917890D02*
X116082056Y-147013128D01*
X116082056Y-147013128D02*
X116177294Y-147108366D01*
X116177294Y-147108366D02*
X116224913Y-147203604D01*
X115939199Y-146013128D02*
X115939199Y-145917890D01*
X115939199Y-145917890D02*
X115986818Y-145822652D01*
X115986818Y-145822652D02*
X116034437Y-145775033D01*
X116034437Y-145775033D02*
X116129675Y-145727414D01*
X116129675Y-145727414D02*
X116320151Y-145679795D01*
X116320151Y-145679795D02*
X116558246Y-145679795D01*
X116558246Y-145679795D02*
X116748722Y-145727414D01*
X116748722Y-145727414D02*
X116843960Y-145775033D01*
X116843960Y-145775033D02*
X116891580Y-145822652D01*
X116891580Y-145822652D02*
X116939199Y-145917890D01*
X116939199Y-145917890D02*
X116939199Y-146013128D01*
X116939199Y-146013128D02*
X116891580Y-146108366D01*
X116891580Y-146108366D02*
X116843960Y-146155985D01*
X116843960Y-146155985D02*
X116748722Y-146203604D01*
X116748722Y-146203604D02*
X116558246Y-146251223D01*
X116558246Y-146251223D02*
X116320151Y-146251223D01*
X116320151Y-146251223D02*
X116129675Y-146203604D01*
X116129675Y-146203604D02*
X116034437Y-146155985D01*
X116034437Y-146155985D02*
X115986818Y-146108366D01*
X115986818Y-146108366D02*
X115939199Y-146013128D01*
X117642500Y-144312319D02*
X117642500Y-144550414D01*
X117404405Y-144455176D02*
X117642500Y-144550414D01*
X117642500Y-144550414D02*
X117880595Y-144455176D01*
X117499643Y-144740890D02*
X117642500Y-144550414D01*
X117642500Y-144550414D02*
X117785357Y-144740890D01*
X117000000Y-143854819D02*
X117000000Y-144092914D01*
X116761905Y-143997676D02*
X117000000Y-144092914D01*
X117000000Y-144092914D02*
X117238095Y-143997676D01*
X116857143Y-144283390D02*
X117000000Y-144092914D01*
X117000000Y-144092914D02*
X117142857Y-144283390D01*
X116939219Y-125973866D02*
X116463028Y-126307199D01*
X116939219Y-126545294D02*
X115939219Y-126545294D01*
X115939219Y-126545294D02*
X115939219Y-126164342D01*
X115939219Y-126164342D02*
X115986838Y-126069104D01*
X115986838Y-126069104D02*
X116034457Y-126021485D01*
X116034457Y-126021485D02*
X116129695Y-125973866D01*
X116129695Y-125973866D02*
X116272552Y-125973866D01*
X116272552Y-125973866D02*
X116367790Y-126021485D01*
X116367790Y-126021485D02*
X116415409Y-126069104D01*
X116415409Y-126069104D02*
X116463028Y-126164342D01*
X116463028Y-126164342D02*
X116463028Y-126545294D01*
X115939219Y-125069104D02*
X115939219Y-125545294D01*
X115939219Y-125545294D02*
X116415409Y-125592913D01*
X116415409Y-125592913D02*
X116367790Y-125545294D01*
X116367790Y-125545294D02*
X116320171Y-125450056D01*
X116320171Y-125450056D02*
X116320171Y-125211961D01*
X116320171Y-125211961D02*
X116367790Y-125116723D01*
X116367790Y-125116723D02*
X116415409Y-125069104D01*
X116415409Y-125069104D02*
X116510647Y-125021485D01*
X116510647Y-125021485D02*
X116748742Y-125021485D01*
X116748742Y-125021485D02*
X116843980Y-125069104D01*
X116843980Y-125069104D02*
X116891600Y-125116723D01*
X116891600Y-125116723D02*
X116939219Y-125211961D01*
X116939219Y-125211961D02*
X116939219Y-125450056D01*
X116939219Y-125450056D02*
X116891600Y-125545294D01*
X116891600Y-125545294D02*
X116843980Y-125592913D01*
X117200000Y-122954819D02*
X117200000Y-123192914D01*
X116961905Y-123097676D02*
X117200000Y-123192914D01*
X117200000Y-123192914D02*
X117438095Y-123097676D01*
X117057143Y-123383390D02*
X117200000Y-123192914D01*
X117200000Y-123192914D02*
X117342857Y-123383390D01*
X117728500Y-123373019D02*
X117728500Y-123611114D01*
X117490405Y-123515876D02*
X117728500Y-123611114D01*
X117728500Y-123611114D02*
X117966595Y-123515876D01*
X117585643Y-123801590D02*
X117728500Y-123611114D01*
X117728500Y-123611114D02*
X117871357Y-123801590D01*
X180604166Y-58347319D02*
X180604166Y-59061604D01*
X180604166Y-59061604D02*
X180556547Y-59204461D01*
X180556547Y-59204461D02*
X180461309Y-59299700D01*
X180461309Y-59299700D02*
X180318452Y-59347319D01*
X180318452Y-59347319D02*
X180223214Y-59347319D01*
X180985119Y-58347319D02*
X181604166Y-58347319D01*
X181604166Y-58347319D02*
X181270833Y-58728271D01*
X181270833Y-58728271D02*
X181413690Y-58728271D01*
X181413690Y-58728271D02*
X181508928Y-58775890D01*
X181508928Y-58775890D02*
X181556547Y-58823509D01*
X181556547Y-58823509D02*
X181604166Y-58918747D01*
X181604166Y-58918747D02*
X181604166Y-59156842D01*
X181604166Y-59156842D02*
X181556547Y-59252080D01*
X181556547Y-59252080D02*
X181508928Y-59299700D01*
X181508928Y-59299700D02*
X181413690Y-59347319D01*
X181413690Y-59347319D02*
X181127976Y-59347319D01*
X181127976Y-59347319D02*
X181032738Y-59299700D01*
X181032738Y-59299700D02*
X180985119Y-59252080D01*
X173920833Y-131337319D02*
X173587500Y-130861128D01*
X173349405Y-131337319D02*
X173349405Y-130337319D01*
X173349405Y-130337319D02*
X173730357Y-130337319D01*
X173730357Y-130337319D02*
X173825595Y-130384938D01*
X173825595Y-130384938D02*
X173873214Y-130432557D01*
X173873214Y-130432557D02*
X173920833Y-130527795D01*
X173920833Y-130527795D02*
X173920833Y-130670652D01*
X173920833Y-130670652D02*
X173873214Y-130765890D01*
X173873214Y-130765890D02*
X173825595Y-130813509D01*
X173825595Y-130813509D02*
X173730357Y-130861128D01*
X173730357Y-130861128D02*
X173349405Y-130861128D01*
X174397024Y-131337319D02*
X174587500Y-131337319D01*
X174587500Y-131337319D02*
X174682738Y-131289700D01*
X174682738Y-131289700D02*
X174730357Y-131242080D01*
X174730357Y-131242080D02*
X174825595Y-131099223D01*
X174825595Y-131099223D02*
X174873214Y-130908747D01*
X174873214Y-130908747D02*
X174873214Y-130527795D01*
X174873214Y-130527795D02*
X174825595Y-130432557D01*
X174825595Y-130432557D02*
X174777976Y-130384938D01*
X174777976Y-130384938D02*
X174682738Y-130337319D01*
X174682738Y-130337319D02*
X174492262Y-130337319D01*
X174492262Y-130337319D02*
X174397024Y-130384938D01*
X174397024Y-130384938D02*
X174349405Y-130432557D01*
X174349405Y-130432557D02*
X174301786Y-130527795D01*
X174301786Y-130527795D02*
X174301786Y-130765890D01*
X174301786Y-130765890D02*
X174349405Y-130861128D01*
X174349405Y-130861128D02*
X174397024Y-130908747D01*
X174397024Y-130908747D02*
X174492262Y-130956366D01*
X174492262Y-130956366D02*
X174682738Y-130956366D01*
X174682738Y-130956366D02*
X174777976Y-130908747D01*
X174777976Y-130908747D02*
X174825595Y-130861128D01*
X174825595Y-130861128D02*
X174873214Y-130765890D01*
X149378666Y-55637319D02*
X149378666Y-56351604D01*
X149378666Y-56351604D02*
X149331047Y-56494461D01*
X149331047Y-56494461D02*
X149235809Y-56589700D01*
X149235809Y-56589700D02*
X149092952Y-56637319D01*
X149092952Y-56637319D02*
X148997714Y-56637319D01*
X150378666Y-56637319D02*
X149807238Y-56637319D01*
X150092952Y-56637319D02*
X150092952Y-55637319D01*
X150092952Y-55637319D02*
X149997714Y-55780176D01*
X149997714Y-55780176D02*
X149902476Y-55875414D01*
X149902476Y-55875414D02*
X149807238Y-55923033D01*
X167242319Y-114745833D02*
X167956604Y-114745833D01*
X167956604Y-114745833D02*
X168099461Y-114793452D01*
X168099461Y-114793452D02*
X168194700Y-114888690D01*
X168194700Y-114888690D02*
X168242319Y-115031547D01*
X168242319Y-115031547D02*
X168242319Y-115126785D01*
X168242319Y-114269642D02*
X167242319Y-114269642D01*
X167242319Y-114269642D02*
X167242319Y-113888690D01*
X167242319Y-113888690D02*
X167289938Y-113793452D01*
X167289938Y-113793452D02*
X167337557Y-113745833D01*
X167337557Y-113745833D02*
X167432795Y-113698214D01*
X167432795Y-113698214D02*
X167575652Y-113698214D01*
X167575652Y-113698214D02*
X167670890Y-113745833D01*
X167670890Y-113745833D02*
X167718509Y-113793452D01*
X167718509Y-113793452D02*
X167766128Y-113888690D01*
X167766128Y-113888690D02*
X167766128Y-114269642D01*
X168242319Y-112745833D02*
X168242319Y-113317261D01*
X168242319Y-113031547D02*
X167242319Y-113031547D01*
X167242319Y-113031547D02*
X167385176Y-113126785D01*
X167385176Y-113126785D02*
X167480414Y-113222023D01*
X167480414Y-113222023D02*
X167528033Y-113317261D01*
X170042319Y-116226785D02*
X170042319Y-116798213D01*
X170042319Y-116512499D02*
X169042319Y-116512499D01*
X169042319Y-116512499D02*
X169185176Y-116607737D01*
X169185176Y-116607737D02*
X169280414Y-116702975D01*
X169280414Y-116702975D02*
X169328033Y-116798213D01*
X169042319Y-111645832D02*
X169042319Y-111026785D01*
X169042319Y-111026785D02*
X169423271Y-111360118D01*
X169423271Y-111360118D02*
X169423271Y-111217261D01*
X169423271Y-111217261D02*
X169470890Y-111122023D01*
X169470890Y-111122023D02*
X169518509Y-111074404D01*
X169518509Y-111074404D02*
X169613747Y-111026785D01*
X169613747Y-111026785D02*
X169851842Y-111026785D01*
X169851842Y-111026785D02*
X169947080Y-111074404D01*
X169947080Y-111074404D02*
X169994700Y-111122023D01*
X169994700Y-111122023D02*
X170042319Y-111217261D01*
X170042319Y-111217261D02*
X170042319Y-111502975D01*
X170042319Y-111502975D02*
X169994700Y-111598213D01*
X169994700Y-111598213D02*
X169947080Y-111645832D01*
X167242319Y-144345833D02*
X167956604Y-144345833D01*
X167956604Y-144345833D02*
X168099461Y-144393452D01*
X168099461Y-144393452D02*
X168194700Y-144488690D01*
X168194700Y-144488690D02*
X168242319Y-144631547D01*
X168242319Y-144631547D02*
X168242319Y-144726785D01*
X168242319Y-143869642D02*
X167242319Y-143869642D01*
X167242319Y-143869642D02*
X167242319Y-143488690D01*
X167242319Y-143488690D02*
X167289938Y-143393452D01*
X167289938Y-143393452D02*
X167337557Y-143345833D01*
X167337557Y-143345833D02*
X167432795Y-143298214D01*
X167432795Y-143298214D02*
X167575652Y-143298214D01*
X167575652Y-143298214D02*
X167670890Y-143345833D01*
X167670890Y-143345833D02*
X167718509Y-143393452D01*
X167718509Y-143393452D02*
X167766128Y-143488690D01*
X167766128Y-143488690D02*
X167766128Y-143869642D01*
X167575652Y-142441071D02*
X168242319Y-142441071D01*
X167194700Y-142679166D02*
X167908985Y-142917261D01*
X167908985Y-142917261D02*
X167908985Y-142298214D01*
X170042319Y-145826785D02*
X170042319Y-146398213D01*
X170042319Y-146112499D02*
X169042319Y-146112499D01*
X169042319Y-146112499D02*
X169185176Y-146207737D01*
X169185176Y-146207737D02*
X169280414Y-146302975D01*
X169280414Y-146302975D02*
X169328033Y-146398213D01*
X169042319Y-141245832D02*
X169042319Y-140626785D01*
X169042319Y-140626785D02*
X169423271Y-140960118D01*
X169423271Y-140960118D02*
X169423271Y-140817261D01*
X169423271Y-140817261D02*
X169470890Y-140722023D01*
X169470890Y-140722023D02*
X169518509Y-140674404D01*
X169518509Y-140674404D02*
X169613747Y-140626785D01*
X169613747Y-140626785D02*
X169851842Y-140626785D01*
X169851842Y-140626785D02*
X169947080Y-140674404D01*
X169947080Y-140674404D02*
X169994700Y-140722023D01*
X169994700Y-140722023D02*
X170042319Y-140817261D01*
X170042319Y-140817261D02*
X170042319Y-141102975D01*
X170042319Y-141102975D02*
X169994700Y-141198213D01*
X169994700Y-141198213D02*
X169947080Y-141245832D01*
X129970533Y-103522080D02*
X129922914Y-103569700D01*
X129922914Y-103569700D02*
X129780057Y-103617319D01*
X129780057Y-103617319D02*
X129684819Y-103617319D01*
X129684819Y-103617319D02*
X129541962Y-103569700D01*
X129541962Y-103569700D02*
X129446724Y-103474461D01*
X129446724Y-103474461D02*
X129399105Y-103379223D01*
X129399105Y-103379223D02*
X129351486Y-103188747D01*
X129351486Y-103188747D02*
X129351486Y-103045890D01*
X129351486Y-103045890D02*
X129399105Y-102855414D01*
X129399105Y-102855414D02*
X129446724Y-102760176D01*
X129446724Y-102760176D02*
X129541962Y-102664938D01*
X129541962Y-102664938D02*
X129684819Y-102617319D01*
X129684819Y-102617319D02*
X129780057Y-102617319D01*
X129780057Y-102617319D02*
X129922914Y-102664938D01*
X129922914Y-102664938D02*
X129970533Y-102712557D01*
X130922914Y-103617319D02*
X130351486Y-103617319D01*
X130637200Y-103617319D02*
X130637200Y-102617319D01*
X130637200Y-102617319D02*
X130541962Y-102760176D01*
X130541962Y-102760176D02*
X130446724Y-102855414D01*
X130446724Y-102855414D02*
X130351486Y-102903033D01*
X128587800Y-103152119D02*
X128587800Y-103390214D01*
X128349705Y-103294976D02*
X128587800Y-103390214D01*
X128587800Y-103390214D02*
X128825895Y-103294976D01*
X128444943Y-103580690D02*
X128587800Y-103390214D01*
X128587800Y-103390214D02*
X128730657Y-103580690D01*
X128000000Y-102754819D02*
X128000000Y-102992914D01*
X127761905Y-102897676D02*
X128000000Y-102992914D01*
X128000000Y-102992914D02*
X128238095Y-102897676D01*
X127857143Y-103183390D02*
X128000000Y-102992914D01*
X128000000Y-102992914D02*
X128142857Y-103183390D01*
X138070833Y-111779819D02*
X137737500Y-111303628D01*
X137499405Y-111779819D02*
X137499405Y-110779819D01*
X137499405Y-110779819D02*
X137880357Y-110779819D01*
X137880357Y-110779819D02*
X137975595Y-110827438D01*
X137975595Y-110827438D02*
X138023214Y-110875057D01*
X138023214Y-110875057D02*
X138070833Y-110970295D01*
X138070833Y-110970295D02*
X138070833Y-111113152D01*
X138070833Y-111113152D02*
X138023214Y-111208390D01*
X138023214Y-111208390D02*
X137975595Y-111256009D01*
X137975595Y-111256009D02*
X137880357Y-111303628D01*
X137880357Y-111303628D02*
X137499405Y-111303628D01*
X138451786Y-110875057D02*
X138499405Y-110827438D01*
X138499405Y-110827438D02*
X138594643Y-110779819D01*
X138594643Y-110779819D02*
X138832738Y-110779819D01*
X138832738Y-110779819D02*
X138927976Y-110827438D01*
X138927976Y-110827438D02*
X138975595Y-110875057D01*
X138975595Y-110875057D02*
X139023214Y-110970295D01*
X139023214Y-110970295D02*
X139023214Y-111065533D01*
X139023214Y-111065533D02*
X138975595Y-111208390D01*
X138975595Y-111208390D02*
X138404167Y-111779819D01*
X138404167Y-111779819D02*
X139023214Y-111779819D01*
X96104166Y-106397319D02*
X96104166Y-107111604D01*
X96104166Y-107111604D02*
X96056547Y-107254461D01*
X96056547Y-107254461D02*
X95961309Y-107349700D01*
X95961309Y-107349700D02*
X95818452Y-107397319D01*
X95818452Y-107397319D02*
X95723214Y-107397319D01*
X96485119Y-106397319D02*
X97151785Y-106397319D01*
X97151785Y-106397319D02*
X96723214Y-107397319D01*
X96151786Y-135797319D02*
X96151786Y-134797319D01*
X96151786Y-134797319D02*
X96723214Y-135797319D01*
X96723214Y-135797319D02*
X96723214Y-134797319D01*
X129200595Y-95267319D02*
X129200595Y-96076842D01*
X129200595Y-96076842D02*
X129248214Y-96172080D01*
X129248214Y-96172080D02*
X129295833Y-96219700D01*
X129295833Y-96219700D02*
X129391071Y-96267319D01*
X129391071Y-96267319D02*
X129581547Y-96267319D01*
X129581547Y-96267319D02*
X129676785Y-96219700D01*
X129676785Y-96219700D02*
X129724404Y-96172080D01*
X129724404Y-96172080D02*
X129772023Y-96076842D01*
X129772023Y-96076842D02*
X129772023Y-95267319D01*
X130200595Y-95362557D02*
X130248214Y-95314938D01*
X130248214Y-95314938D02*
X130343452Y-95267319D01*
X130343452Y-95267319D02*
X130581547Y-95267319D01*
X130581547Y-95267319D02*
X130676785Y-95314938D01*
X130676785Y-95314938D02*
X130724404Y-95362557D01*
X130724404Y-95362557D02*
X130772023Y-95457795D01*
X130772023Y-95457795D02*
X130772023Y-95553033D01*
X130772023Y-95553033D02*
X130724404Y-95695890D01*
X130724404Y-95695890D02*
X130152976Y-96267319D01*
X130152976Y-96267319D02*
X130772023Y-96267319D01*
X144520833Y-115184580D02*
X144473214Y-115232200D01*
X144473214Y-115232200D02*
X144330357Y-115279819D01*
X144330357Y-115279819D02*
X144235119Y-115279819D01*
X144235119Y-115279819D02*
X144092262Y-115232200D01*
X144092262Y-115232200D02*
X143997024Y-115136961D01*
X143997024Y-115136961D02*
X143949405Y-115041723D01*
X143949405Y-115041723D02*
X143901786Y-114851247D01*
X143901786Y-114851247D02*
X143901786Y-114708390D01*
X143901786Y-114708390D02*
X143949405Y-114517914D01*
X143949405Y-114517914D02*
X143997024Y-114422676D01*
X143997024Y-114422676D02*
X144092262Y-114327438D01*
X144092262Y-114327438D02*
X144235119Y-114279819D01*
X144235119Y-114279819D02*
X144330357Y-114279819D01*
X144330357Y-114279819D02*
X144473214Y-114327438D01*
X144473214Y-114327438D02*
X144520833Y-114375057D01*
X144997024Y-115279819D02*
X145187500Y-115279819D01*
X145187500Y-115279819D02*
X145282738Y-115232200D01*
X145282738Y-115232200D02*
X145330357Y-115184580D01*
X145330357Y-115184580D02*
X145425595Y-115041723D01*
X145425595Y-115041723D02*
X145473214Y-114851247D01*
X145473214Y-114851247D02*
X145473214Y-114470295D01*
X145473214Y-114470295D02*
X145425595Y-114375057D01*
X145425595Y-114375057D02*
X145377976Y-114327438D01*
X145377976Y-114327438D02*
X145282738Y-114279819D01*
X145282738Y-114279819D02*
X145092262Y-114279819D01*
X145092262Y-114279819D02*
X144997024Y-114327438D01*
X144997024Y-114327438D02*
X144949405Y-114375057D01*
X144949405Y-114375057D02*
X144901786Y-114470295D01*
X144901786Y-114470295D02*
X144901786Y-114708390D01*
X144901786Y-114708390D02*
X144949405Y-114803628D01*
X144949405Y-114803628D02*
X144997024Y-114851247D01*
X144997024Y-114851247D02*
X145092262Y-114898866D01*
X145092262Y-114898866D02*
X145282738Y-114898866D01*
X145282738Y-114898866D02*
X145377976Y-114851247D01*
X145377976Y-114851247D02*
X145425595Y-114803628D01*
X145425595Y-114803628D02*
X145473214Y-114708390D01*
X167242319Y-134445833D02*
X167956604Y-134445833D01*
X167956604Y-134445833D02*
X168099461Y-134493452D01*
X168099461Y-134493452D02*
X168194700Y-134588690D01*
X168194700Y-134588690D02*
X168242319Y-134731547D01*
X168242319Y-134731547D02*
X168242319Y-134826785D01*
X168242319Y-133969642D02*
X167242319Y-133969642D01*
X167242319Y-133969642D02*
X167242319Y-133588690D01*
X167242319Y-133588690D02*
X167289938Y-133493452D01*
X167289938Y-133493452D02*
X167337557Y-133445833D01*
X167337557Y-133445833D02*
X167432795Y-133398214D01*
X167432795Y-133398214D02*
X167575652Y-133398214D01*
X167575652Y-133398214D02*
X167670890Y-133445833D01*
X167670890Y-133445833D02*
X167718509Y-133493452D01*
X167718509Y-133493452D02*
X167766128Y-133588690D01*
X167766128Y-133588690D02*
X167766128Y-133969642D01*
X167242319Y-133064880D02*
X167242319Y-132445833D01*
X167242319Y-132445833D02*
X167623271Y-132779166D01*
X167623271Y-132779166D02*
X167623271Y-132636309D01*
X167623271Y-132636309D02*
X167670890Y-132541071D01*
X167670890Y-132541071D02*
X167718509Y-132493452D01*
X167718509Y-132493452D02*
X167813747Y-132445833D01*
X167813747Y-132445833D02*
X168051842Y-132445833D01*
X168051842Y-132445833D02*
X168147080Y-132493452D01*
X168147080Y-132493452D02*
X168194700Y-132541071D01*
X168194700Y-132541071D02*
X168242319Y-132636309D01*
X168242319Y-132636309D02*
X168242319Y-132922023D01*
X168242319Y-132922023D02*
X168194700Y-133017261D01*
X168194700Y-133017261D02*
X168147080Y-133064880D01*
X170042319Y-135926785D02*
X170042319Y-136498213D01*
X170042319Y-136212499D02*
X169042319Y-136212499D01*
X169042319Y-136212499D02*
X169185176Y-136307737D01*
X169185176Y-136307737D02*
X169280414Y-136402975D01*
X169280414Y-136402975D02*
X169328033Y-136498213D01*
X169042319Y-131345832D02*
X169042319Y-130726785D01*
X169042319Y-130726785D02*
X169423271Y-131060118D01*
X169423271Y-131060118D02*
X169423271Y-130917261D01*
X169423271Y-130917261D02*
X169470890Y-130822023D01*
X169470890Y-130822023D02*
X169518509Y-130774404D01*
X169518509Y-130774404D02*
X169613747Y-130726785D01*
X169613747Y-130726785D02*
X169851842Y-130726785D01*
X169851842Y-130726785D02*
X169947080Y-130774404D01*
X169947080Y-130774404D02*
X169994700Y-130822023D01*
X169994700Y-130822023D02*
X170042319Y-130917261D01*
X170042319Y-130917261D02*
X170042319Y-131202975D01*
X170042319Y-131202975D02*
X169994700Y-131298213D01*
X169994700Y-131298213D02*
X169947080Y-131345832D01*
X109324095Y-113387319D02*
X109324095Y-114196842D01*
X109324095Y-114196842D02*
X109371714Y-114292080D01*
X109371714Y-114292080D02*
X109419333Y-114339700D01*
X109419333Y-114339700D02*
X109514571Y-114387319D01*
X109514571Y-114387319D02*
X109705047Y-114387319D01*
X109705047Y-114387319D02*
X109800285Y-114339700D01*
X109800285Y-114339700D02*
X109847904Y-114292080D01*
X109847904Y-114292080D02*
X109895523Y-114196842D01*
X109895523Y-114196842D02*
X109895523Y-113387319D01*
X110847904Y-113387319D02*
X110371714Y-113387319D01*
X110371714Y-113387319D02*
X110324095Y-113863509D01*
X110324095Y-113863509D02*
X110371714Y-113815890D01*
X110371714Y-113815890D02*
X110466952Y-113768271D01*
X110466952Y-113768271D02*
X110705047Y-113768271D01*
X110705047Y-113768271D02*
X110800285Y-113815890D01*
X110800285Y-113815890D02*
X110847904Y-113863509D01*
X110847904Y-113863509D02*
X110895523Y-113958747D01*
X110895523Y-113958747D02*
X110895523Y-114196842D01*
X110895523Y-114196842D02*
X110847904Y-114292080D01*
X110847904Y-114292080D02*
X110800285Y-114339700D01*
X110800285Y-114339700D02*
X110705047Y-114387319D01*
X110705047Y-114387319D02*
X110466952Y-114387319D01*
X110466952Y-114387319D02*
X110371714Y-114339700D01*
X110371714Y-114339700D02*
X110324095Y-114292080D01*
X129997333Y-124022080D02*
X129949714Y-124069700D01*
X129949714Y-124069700D02*
X129806857Y-124117319D01*
X129806857Y-124117319D02*
X129711619Y-124117319D01*
X129711619Y-124117319D02*
X129568762Y-124069700D01*
X129568762Y-124069700D02*
X129473524Y-123974461D01*
X129473524Y-123974461D02*
X129425905Y-123879223D01*
X129425905Y-123879223D02*
X129378286Y-123688747D01*
X129378286Y-123688747D02*
X129378286Y-123545890D01*
X129378286Y-123545890D02*
X129425905Y-123355414D01*
X129425905Y-123355414D02*
X129473524Y-123260176D01*
X129473524Y-123260176D02*
X129568762Y-123164938D01*
X129568762Y-123164938D02*
X129711619Y-123117319D01*
X129711619Y-123117319D02*
X129806857Y-123117319D01*
X129806857Y-123117319D02*
X129949714Y-123164938D01*
X129949714Y-123164938D02*
X129997333Y-123212557D01*
X130330667Y-123117319D02*
X130997333Y-123117319D01*
X130997333Y-123117319D02*
X130568762Y-124117319D01*
X128100000Y-123154819D02*
X128100000Y-123392914D01*
X127861905Y-123297676D02*
X128100000Y-123392914D01*
X128100000Y-123392914D02*
X128338095Y-123297676D01*
X127957143Y-123583390D02*
X128100000Y-123392914D01*
X128100000Y-123392914D02*
X128242857Y-123583390D01*
X128614600Y-123652119D02*
X128614600Y-123890214D01*
X128376505Y-123794976D02*
X128614600Y-123890214D01*
X128614600Y-123890214D02*
X128852695Y-123794976D01*
X128471743Y-124080690D02*
X128614600Y-123890214D01*
X128614600Y-123890214D02*
X128757457Y-124080690D01*
X102075595Y-140637319D02*
X102075595Y-141446842D01*
X102075595Y-141446842D02*
X102123214Y-141542080D01*
X102123214Y-141542080D02*
X102170833Y-141589700D01*
X102170833Y-141589700D02*
X102266071Y-141637319D01*
X102266071Y-141637319D02*
X102456547Y-141637319D01*
X102456547Y-141637319D02*
X102551785Y-141589700D01*
X102551785Y-141589700D02*
X102599404Y-141542080D01*
X102599404Y-141542080D02*
X102647023Y-141446842D01*
X102647023Y-141446842D02*
X102647023Y-140637319D01*
X103027976Y-140637319D02*
X103694642Y-140637319D01*
X103694642Y-140637319D02*
X103266071Y-141637319D01*
X157859580Y-139716666D02*
X157907200Y-139764285D01*
X157907200Y-139764285D02*
X157954819Y-139907142D01*
X157954819Y-139907142D02*
X157954819Y-140002380D01*
X157954819Y-140002380D02*
X157907200Y-140145237D01*
X157907200Y-140145237D02*
X157811961Y-140240475D01*
X157811961Y-140240475D02*
X157716723Y-140288094D01*
X157716723Y-140288094D02*
X157526247Y-140335713D01*
X157526247Y-140335713D02*
X157383390Y-140335713D01*
X157383390Y-140335713D02*
X157192914Y-140288094D01*
X157192914Y-140288094D02*
X157097676Y-140240475D01*
X157097676Y-140240475D02*
X157002438Y-140145237D01*
X157002438Y-140145237D02*
X156954819Y-140002380D01*
X156954819Y-140002380D02*
X156954819Y-139907142D01*
X156954819Y-139907142D02*
X157002438Y-139764285D01*
X157002438Y-139764285D02*
X157050057Y-139716666D01*
X157383390Y-139145237D02*
X157335771Y-139240475D01*
X157335771Y-139240475D02*
X157288152Y-139288094D01*
X157288152Y-139288094D02*
X157192914Y-139335713D01*
X157192914Y-139335713D02*
X157145295Y-139335713D01*
X157145295Y-139335713D02*
X157050057Y-139288094D01*
X157050057Y-139288094D02*
X157002438Y-139240475D01*
X157002438Y-139240475D02*
X156954819Y-139145237D01*
X156954819Y-139145237D02*
X156954819Y-138954761D01*
X156954819Y-138954761D02*
X157002438Y-138859523D01*
X157002438Y-138859523D02*
X157050057Y-138811904D01*
X157050057Y-138811904D02*
X157145295Y-138764285D01*
X157145295Y-138764285D02*
X157192914Y-138764285D01*
X157192914Y-138764285D02*
X157288152Y-138811904D01*
X157288152Y-138811904D02*
X157335771Y-138859523D01*
X157335771Y-138859523D02*
X157383390Y-138954761D01*
X157383390Y-138954761D02*
X157383390Y-139145237D01*
X157383390Y-139145237D02*
X157431009Y-139240475D01*
X157431009Y-139240475D02*
X157478628Y-139288094D01*
X157478628Y-139288094D02*
X157573866Y-139335713D01*
X157573866Y-139335713D02*
X157764342Y-139335713D01*
X157764342Y-139335713D02*
X157859580Y-139288094D01*
X157859580Y-139288094D02*
X157907200Y-139240475D01*
X157907200Y-139240475D02*
X157954819Y-139145237D01*
X157954819Y-139145237D02*
X157954819Y-138954761D01*
X157954819Y-138954761D02*
X157907200Y-138859523D01*
X157907200Y-138859523D02*
X157859580Y-138811904D01*
X157859580Y-138811904D02*
X157764342Y-138764285D01*
X157764342Y-138764285D02*
X157573866Y-138764285D01*
X157573866Y-138764285D02*
X157478628Y-138811904D01*
X157478628Y-138811904D02*
X157431009Y-138859523D01*
X157431009Y-138859523D02*
X157383390Y-138954761D01*
X150859580Y-140417857D02*
X150907200Y-140465476D01*
X150907200Y-140465476D02*
X150954819Y-140608333D01*
X150954819Y-140608333D02*
X150954819Y-140703571D01*
X150954819Y-140703571D02*
X150907200Y-140846428D01*
X150907200Y-140846428D02*
X150811961Y-140941666D01*
X150811961Y-140941666D02*
X150716723Y-140989285D01*
X150716723Y-140989285D02*
X150526247Y-141036904D01*
X150526247Y-141036904D02*
X150383390Y-141036904D01*
X150383390Y-141036904D02*
X150192914Y-140989285D01*
X150192914Y-140989285D02*
X150097676Y-140941666D01*
X150097676Y-140941666D02*
X150002438Y-140846428D01*
X150002438Y-140846428D02*
X149954819Y-140703571D01*
X149954819Y-140703571D02*
X149954819Y-140608333D01*
X149954819Y-140608333D02*
X150002438Y-140465476D01*
X150002438Y-140465476D02*
X150050057Y-140417857D01*
X150954819Y-139465476D02*
X150954819Y-140036904D01*
X150954819Y-139751190D02*
X149954819Y-139751190D01*
X149954819Y-139751190D02*
X150097676Y-139846428D01*
X150097676Y-139846428D02*
X150192914Y-139941666D01*
X150192914Y-139941666D02*
X150240533Y-140036904D01*
X149954819Y-138608333D02*
X149954819Y-138798809D01*
X149954819Y-138798809D02*
X150002438Y-138894047D01*
X150002438Y-138894047D02*
X150050057Y-138941666D01*
X150050057Y-138941666D02*
X150192914Y-139036904D01*
X150192914Y-139036904D02*
X150383390Y-139084523D01*
X150383390Y-139084523D02*
X150764342Y-139084523D01*
X150764342Y-139084523D02*
X150859580Y-139036904D01*
X150859580Y-139036904D02*
X150907200Y-138989285D01*
X150907200Y-138989285D02*
X150954819Y-138894047D01*
X150954819Y-138894047D02*
X150954819Y-138703571D01*
X150954819Y-138703571D02*
X150907200Y-138608333D01*
X150907200Y-138608333D02*
X150859580Y-138560714D01*
X150859580Y-138560714D02*
X150764342Y-138513095D01*
X150764342Y-138513095D02*
X150526247Y-138513095D01*
X150526247Y-138513095D02*
X150431009Y-138560714D01*
X150431009Y-138560714D02*
X150383390Y-138608333D01*
X150383390Y-138608333D02*
X150335771Y-138703571D01*
X150335771Y-138703571D02*
X150335771Y-138894047D01*
X150335771Y-138894047D02*
X150383390Y-138989285D01*
X150383390Y-138989285D02*
X150431009Y-139036904D01*
X150431009Y-139036904D02*
X150526247Y-139084523D01*
X103200595Y-96667319D02*
X103200595Y-97476842D01*
X103200595Y-97476842D02*
X103248214Y-97572080D01*
X103248214Y-97572080D02*
X103295833Y-97619700D01*
X103295833Y-97619700D02*
X103391071Y-97667319D01*
X103391071Y-97667319D02*
X103581547Y-97667319D01*
X103581547Y-97667319D02*
X103676785Y-97619700D01*
X103676785Y-97619700D02*
X103724404Y-97572080D01*
X103724404Y-97572080D02*
X103772023Y-97476842D01*
X103772023Y-97476842D02*
X103772023Y-96667319D01*
X104772023Y-97667319D02*
X104200595Y-97667319D01*
X104486309Y-97667319D02*
X104486309Y-96667319D01*
X104486309Y-96667319D02*
X104391071Y-96810176D01*
X104391071Y-96810176D02*
X104295833Y-96905414D01*
X104295833Y-96905414D02*
X104200595Y-96953033D01*
X148859580Y-140067357D02*
X148907200Y-140114976D01*
X148907200Y-140114976D02*
X148954819Y-140257833D01*
X148954819Y-140257833D02*
X148954819Y-140353071D01*
X148954819Y-140353071D02*
X148907200Y-140495928D01*
X148907200Y-140495928D02*
X148811961Y-140591166D01*
X148811961Y-140591166D02*
X148716723Y-140638785D01*
X148716723Y-140638785D02*
X148526247Y-140686404D01*
X148526247Y-140686404D02*
X148383390Y-140686404D01*
X148383390Y-140686404D02*
X148192914Y-140638785D01*
X148192914Y-140638785D02*
X148097676Y-140591166D01*
X148097676Y-140591166D02*
X148002438Y-140495928D01*
X148002438Y-140495928D02*
X147954819Y-140353071D01*
X147954819Y-140353071D02*
X147954819Y-140257833D01*
X147954819Y-140257833D02*
X148002438Y-140114976D01*
X148002438Y-140114976D02*
X148050057Y-140067357D01*
X148954819Y-139114976D02*
X148954819Y-139686404D01*
X148954819Y-139400690D02*
X147954819Y-139400690D01*
X147954819Y-139400690D02*
X148097676Y-139495928D01*
X148097676Y-139495928D02*
X148192914Y-139591166D01*
X148192914Y-139591166D02*
X148240533Y-139686404D01*
X147954819Y-138495928D02*
X147954819Y-138400690D01*
X147954819Y-138400690D02*
X148002438Y-138305452D01*
X148002438Y-138305452D02*
X148050057Y-138257833D01*
X148050057Y-138257833D02*
X148145295Y-138210214D01*
X148145295Y-138210214D02*
X148335771Y-138162595D01*
X148335771Y-138162595D02*
X148573866Y-138162595D01*
X148573866Y-138162595D02*
X148764342Y-138210214D01*
X148764342Y-138210214D02*
X148859580Y-138257833D01*
X148859580Y-138257833D02*
X148907200Y-138305452D01*
X148907200Y-138305452D02*
X148954819Y-138400690D01*
X148954819Y-138400690D02*
X148954819Y-138495928D01*
X148954819Y-138495928D02*
X148907200Y-138591166D01*
X148907200Y-138591166D02*
X148859580Y-138638785D01*
X148859580Y-138638785D02*
X148764342Y-138686404D01*
X148764342Y-138686404D02*
X148573866Y-138734023D01*
X148573866Y-138734023D02*
X148335771Y-138734023D01*
X148335771Y-138734023D02*
X148145295Y-138686404D01*
X148145295Y-138686404D02*
X148050057Y-138638785D01*
X148050057Y-138638785D02*
X148002438Y-138591166D01*
X148002438Y-138591166D02*
X147954819Y-138495928D01*
X129997333Y-114006080D02*
X129949714Y-114053700D01*
X129949714Y-114053700D02*
X129806857Y-114101319D01*
X129806857Y-114101319D02*
X129711619Y-114101319D01*
X129711619Y-114101319D02*
X129568762Y-114053700D01*
X129568762Y-114053700D02*
X129473524Y-113958461D01*
X129473524Y-113958461D02*
X129425905Y-113863223D01*
X129425905Y-113863223D02*
X129378286Y-113672747D01*
X129378286Y-113672747D02*
X129378286Y-113529890D01*
X129378286Y-113529890D02*
X129425905Y-113339414D01*
X129425905Y-113339414D02*
X129473524Y-113244176D01*
X129473524Y-113244176D02*
X129568762Y-113148938D01*
X129568762Y-113148938D02*
X129711619Y-113101319D01*
X129711619Y-113101319D02*
X129806857Y-113101319D01*
X129806857Y-113101319D02*
X129949714Y-113148938D01*
X129949714Y-113148938D02*
X129997333Y-113196557D01*
X130902095Y-113101319D02*
X130425905Y-113101319D01*
X130425905Y-113101319D02*
X130378286Y-113577509D01*
X130378286Y-113577509D02*
X130425905Y-113529890D01*
X130425905Y-113529890D02*
X130521143Y-113482271D01*
X130521143Y-113482271D02*
X130759238Y-113482271D01*
X130759238Y-113482271D02*
X130854476Y-113529890D01*
X130854476Y-113529890D02*
X130902095Y-113577509D01*
X130902095Y-113577509D02*
X130949714Y-113672747D01*
X130949714Y-113672747D02*
X130949714Y-113910842D01*
X130949714Y-113910842D02*
X130902095Y-114006080D01*
X130902095Y-114006080D02*
X130854476Y-114053700D01*
X130854476Y-114053700D02*
X130759238Y-114101319D01*
X130759238Y-114101319D02*
X130521143Y-114101319D01*
X130521143Y-114101319D02*
X130425905Y-114053700D01*
X130425905Y-114053700D02*
X130378286Y-114006080D01*
X128614600Y-113652119D02*
X128614600Y-113890214D01*
X128376505Y-113794976D02*
X128614600Y-113890214D01*
X128614600Y-113890214D02*
X128852695Y-113794976D01*
X128471743Y-114080690D02*
X128614600Y-113890214D01*
X128614600Y-113890214D02*
X128757457Y-114080690D01*
X128200000Y-113154819D02*
X128200000Y-113392914D01*
X127961905Y-113297676D02*
X128200000Y-113392914D01*
X128200000Y-113392914D02*
X128438095Y-113297676D01*
X128057143Y-113583390D02*
X128200000Y-113392914D01*
X128200000Y-113392914D02*
X128342857Y-113583390D01*
X116939189Y-136486566D02*
X116462998Y-136819899D01*
X116939189Y-137057994D02*
X115939189Y-137057994D01*
X115939189Y-137057994D02*
X115939189Y-136677042D01*
X115939189Y-136677042D02*
X115986808Y-136581804D01*
X115986808Y-136581804D02*
X116034427Y-136534185D01*
X116034427Y-136534185D02*
X116129665Y-136486566D01*
X116129665Y-136486566D02*
X116272522Y-136486566D01*
X116272522Y-136486566D02*
X116367760Y-136534185D01*
X116367760Y-136534185D02*
X116415379Y-136581804D01*
X116415379Y-136581804D02*
X116462998Y-136677042D01*
X116462998Y-136677042D02*
X116462998Y-137057994D01*
X115939189Y-135629423D02*
X115939189Y-135819899D01*
X115939189Y-135819899D02*
X115986808Y-135915137D01*
X115986808Y-135915137D02*
X116034427Y-135962756D01*
X116034427Y-135962756D02*
X116177284Y-136057994D01*
X116177284Y-136057994D02*
X116367760Y-136105613D01*
X116367760Y-136105613D02*
X116748712Y-136105613D01*
X116748712Y-136105613D02*
X116843950Y-136057994D01*
X116843950Y-136057994D02*
X116891570Y-136010375D01*
X116891570Y-136010375D02*
X116939189Y-135915137D01*
X116939189Y-135915137D02*
X116939189Y-135724661D01*
X116939189Y-135724661D02*
X116891570Y-135629423D01*
X116891570Y-135629423D02*
X116843950Y-135581804D01*
X116843950Y-135581804D02*
X116748712Y-135534185D01*
X116748712Y-135534185D02*
X116510617Y-135534185D01*
X116510617Y-135534185D02*
X116415379Y-135581804D01*
X116415379Y-135581804D02*
X116367760Y-135629423D01*
X116367760Y-135629423D02*
X116320141Y-135724661D01*
X116320141Y-135724661D02*
X116320141Y-135915137D01*
X116320141Y-135915137D02*
X116367760Y-136010375D01*
X116367760Y-136010375D02*
X116415379Y-136057994D01*
X116415379Y-136057994D02*
X116510617Y-136105613D01*
X117300000Y-133354819D02*
X117300000Y-133592914D01*
X117061905Y-133497676D02*
X117300000Y-133592914D01*
X117300000Y-133592914D02*
X117538095Y-133497676D01*
X117157143Y-133783390D02*
X117300000Y-133592914D01*
X117300000Y-133592914D02*
X117442857Y-133783390D01*
X117690500Y-133849019D02*
X117690500Y-134087114D01*
X117452405Y-133991876D02*
X117690500Y-134087114D01*
X117690500Y-134087114D02*
X117928595Y-133991876D01*
X117547643Y-134277590D02*
X117690500Y-134087114D01*
X117690500Y-134087114D02*
X117833357Y-134277590D01*
X157769642Y-117184580D02*
X157722023Y-117232200D01*
X157722023Y-117232200D02*
X157579166Y-117279819D01*
X157579166Y-117279819D02*
X157483928Y-117279819D01*
X157483928Y-117279819D02*
X157341071Y-117232200D01*
X157341071Y-117232200D02*
X157245833Y-117136961D01*
X157245833Y-117136961D02*
X157198214Y-117041723D01*
X157198214Y-117041723D02*
X157150595Y-116851247D01*
X157150595Y-116851247D02*
X157150595Y-116708390D01*
X157150595Y-116708390D02*
X157198214Y-116517914D01*
X157198214Y-116517914D02*
X157245833Y-116422676D01*
X157245833Y-116422676D02*
X157341071Y-116327438D01*
X157341071Y-116327438D02*
X157483928Y-116279819D01*
X157483928Y-116279819D02*
X157579166Y-116279819D01*
X157579166Y-116279819D02*
X157722023Y-116327438D01*
X157722023Y-116327438D02*
X157769642Y-116375057D01*
X158722023Y-117279819D02*
X158150595Y-117279819D01*
X158436309Y-117279819D02*
X158436309Y-116279819D01*
X158436309Y-116279819D02*
X158341071Y-116422676D01*
X158341071Y-116422676D02*
X158245833Y-116517914D01*
X158245833Y-116517914D02*
X158150595Y-116565533D01*
X159055357Y-116279819D02*
X159674404Y-116279819D01*
X159674404Y-116279819D02*
X159341071Y-116660771D01*
X159341071Y-116660771D02*
X159483928Y-116660771D01*
X159483928Y-116660771D02*
X159579166Y-116708390D01*
X159579166Y-116708390D02*
X159626785Y-116756009D01*
X159626785Y-116756009D02*
X159674404Y-116851247D01*
X159674404Y-116851247D02*
X159674404Y-117089342D01*
X159674404Y-117089342D02*
X159626785Y-117184580D01*
X159626785Y-117184580D02*
X159579166Y-117232200D01*
X159579166Y-117232200D02*
X159483928Y-117279819D01*
X159483928Y-117279819D02*
X159198214Y-117279819D01*
X159198214Y-117279819D02*
X159102976Y-117232200D01*
X159102976Y-117232200D02*
X159055357Y-117184580D01*
X117090819Y-105449866D02*
X116614628Y-105783199D01*
X117090819Y-106021294D02*
X116090819Y-106021294D01*
X116090819Y-106021294D02*
X116090819Y-105640342D01*
X116090819Y-105640342D02*
X116138438Y-105545104D01*
X116138438Y-105545104D02*
X116186057Y-105497485D01*
X116186057Y-105497485D02*
X116281295Y-105449866D01*
X116281295Y-105449866D02*
X116424152Y-105449866D01*
X116424152Y-105449866D02*
X116519390Y-105497485D01*
X116519390Y-105497485D02*
X116567009Y-105545104D01*
X116567009Y-105545104D02*
X116614628Y-105640342D01*
X116614628Y-105640342D02*
X116614628Y-106021294D01*
X117090819Y-104497485D02*
X117090819Y-105068913D01*
X117090819Y-104783199D02*
X116090819Y-104783199D01*
X116090819Y-104783199D02*
X116233676Y-104878437D01*
X116233676Y-104878437D02*
X116328914Y-104973675D01*
X116328914Y-104973675D02*
X116376533Y-105068913D01*
X117880100Y-102349019D02*
X117880100Y-102587114D01*
X117642005Y-102491876D02*
X117880100Y-102587114D01*
X117880100Y-102587114D02*
X118118195Y-102491876D01*
X117737243Y-102777590D02*
X117880100Y-102587114D01*
X117880100Y-102587114D02*
X118022957Y-102777590D01*
X117300000Y-101954819D02*
X117300000Y-102192914D01*
X117061905Y-102097676D02*
X117300000Y-102192914D01*
X117300000Y-102192914D02*
X117538095Y-102097676D01*
X117157143Y-102383390D02*
X117300000Y-102192914D01*
X117300000Y-102192914D02*
X117442857Y-102383390D01*
X174866666Y-55697319D02*
X174866666Y-56411604D01*
X174866666Y-56411604D02*
X174819047Y-56554461D01*
X174819047Y-56554461D02*
X174723809Y-56649700D01*
X174723809Y-56649700D02*
X174580952Y-56697319D01*
X174580952Y-56697319D02*
X174485714Y-56697319D01*
X175771428Y-56030652D02*
X175771428Y-56697319D01*
X175533333Y-55649700D02*
X175295238Y-56363985D01*
X175295238Y-56363985D02*
X175914285Y-56363985D01*
X130021142Y-145760080D02*
X129973523Y-145807700D01*
X129973523Y-145807700D02*
X129830666Y-145855319D01*
X129830666Y-145855319D02*
X129735428Y-145855319D01*
X129735428Y-145855319D02*
X129592571Y-145807700D01*
X129592571Y-145807700D02*
X129497333Y-145712461D01*
X129497333Y-145712461D02*
X129449714Y-145617223D01*
X129449714Y-145617223D02*
X129402095Y-145426747D01*
X129402095Y-145426747D02*
X129402095Y-145283890D01*
X129402095Y-145283890D02*
X129449714Y-145093414D01*
X129449714Y-145093414D02*
X129497333Y-144998176D01*
X129497333Y-144998176D02*
X129592571Y-144902938D01*
X129592571Y-144902938D02*
X129735428Y-144855319D01*
X129735428Y-144855319D02*
X129830666Y-144855319D01*
X129830666Y-144855319D02*
X129973523Y-144902938D01*
X129973523Y-144902938D02*
X130021142Y-144950557D01*
X130973523Y-145855319D02*
X130402095Y-145855319D01*
X130687809Y-145855319D02*
X130687809Y-144855319D01*
X130687809Y-144855319D02*
X130592571Y-144998176D01*
X130592571Y-144998176D02*
X130497333Y-145093414D01*
X130497333Y-145093414D02*
X130402095Y-145141033D01*
X131306857Y-144855319D02*
X131973523Y-144855319D01*
X131973523Y-144855319D02*
X131544952Y-145855319D01*
X128100000Y-144854819D02*
X128100000Y-145092914D01*
X127861905Y-144997676D02*
X128100000Y-145092914D01*
X128100000Y-145092914D02*
X128338095Y-144997676D01*
X127957143Y-145283390D02*
X128100000Y-145092914D01*
X128100000Y-145092914D02*
X128242857Y-145283390D01*
X128614600Y-145390119D02*
X128614600Y-145628214D01*
X128376505Y-145532976D02*
X128614600Y-145628214D01*
X128614600Y-145628214D02*
X128852695Y-145532976D01*
X128471743Y-145818690D02*
X128614600Y-145628214D01*
X128614600Y-145628214D02*
X128757457Y-145818690D01*
X173444642Y-141237319D02*
X173111309Y-140761128D01*
X172873214Y-141237319D02*
X172873214Y-140237319D01*
X172873214Y-140237319D02*
X173254166Y-140237319D01*
X173254166Y-140237319D02*
X173349404Y-140284938D01*
X173349404Y-140284938D02*
X173397023Y-140332557D01*
X173397023Y-140332557D02*
X173444642Y-140427795D01*
X173444642Y-140427795D02*
X173444642Y-140570652D01*
X173444642Y-140570652D02*
X173397023Y-140665890D01*
X173397023Y-140665890D02*
X173349404Y-140713509D01*
X173349404Y-140713509D02*
X173254166Y-140761128D01*
X173254166Y-140761128D02*
X172873214Y-140761128D01*
X174397023Y-141237319D02*
X173825595Y-141237319D01*
X174111309Y-141237319D02*
X174111309Y-140237319D01*
X174111309Y-140237319D02*
X174016071Y-140380176D01*
X174016071Y-140380176D02*
X173920833Y-140475414D01*
X173920833Y-140475414D02*
X173825595Y-140523033D01*
X175349404Y-141237319D02*
X174777976Y-141237319D01*
X175063690Y-141237319D02*
X175063690Y-140237319D01*
X175063690Y-140237319D02*
X174968452Y-140380176D01*
X174968452Y-140380176D02*
X174873214Y-140475414D01*
X174873214Y-140475414D02*
X174777976Y-140523033D01*
X143544642Y-117184580D02*
X143497023Y-117232200D01*
X143497023Y-117232200D02*
X143354166Y-117279819D01*
X143354166Y-117279819D02*
X143258928Y-117279819D01*
X143258928Y-117279819D02*
X143116071Y-117232200D01*
X143116071Y-117232200D02*
X143020833Y-117136961D01*
X143020833Y-117136961D02*
X142973214Y-117041723D01*
X142973214Y-117041723D02*
X142925595Y-116851247D01*
X142925595Y-116851247D02*
X142925595Y-116708390D01*
X142925595Y-116708390D02*
X142973214Y-116517914D01*
X142973214Y-116517914D02*
X143020833Y-116422676D01*
X143020833Y-116422676D02*
X143116071Y-116327438D01*
X143116071Y-116327438D02*
X143258928Y-116279819D01*
X143258928Y-116279819D02*
X143354166Y-116279819D01*
X143354166Y-116279819D02*
X143497023Y-116327438D01*
X143497023Y-116327438D02*
X143544642Y-116375057D01*
X144497023Y-117279819D02*
X143925595Y-117279819D01*
X144211309Y-117279819D02*
X144211309Y-116279819D01*
X144211309Y-116279819D02*
X144116071Y-116422676D01*
X144116071Y-116422676D02*
X144020833Y-116517914D01*
X144020833Y-116517914D02*
X143925595Y-116565533D01*
X145449404Y-117279819D02*
X144877976Y-117279819D01*
X145163690Y-117279819D02*
X145163690Y-116279819D01*
X145163690Y-116279819D02*
X145068452Y-116422676D01*
X145068452Y-116422676D02*
X144973214Y-116517914D01*
X144973214Y-116517914D02*
X144877976Y-116565533D01*
X173920833Y-121437319D02*
X173587500Y-120961128D01*
X173349405Y-121437319D02*
X173349405Y-120437319D01*
X173349405Y-120437319D02*
X173730357Y-120437319D01*
X173730357Y-120437319D02*
X173825595Y-120484938D01*
X173825595Y-120484938D02*
X173873214Y-120532557D01*
X173873214Y-120532557D02*
X173920833Y-120627795D01*
X173920833Y-120627795D02*
X173920833Y-120770652D01*
X173920833Y-120770652D02*
X173873214Y-120865890D01*
X173873214Y-120865890D02*
X173825595Y-120913509D01*
X173825595Y-120913509D02*
X173730357Y-120961128D01*
X173730357Y-120961128D02*
X173349405Y-120961128D01*
X174492262Y-120865890D02*
X174397024Y-120818271D01*
X174397024Y-120818271D02*
X174349405Y-120770652D01*
X174349405Y-120770652D02*
X174301786Y-120675414D01*
X174301786Y-120675414D02*
X174301786Y-120627795D01*
X174301786Y-120627795D02*
X174349405Y-120532557D01*
X174349405Y-120532557D02*
X174397024Y-120484938D01*
X174397024Y-120484938D02*
X174492262Y-120437319D01*
X174492262Y-120437319D02*
X174682738Y-120437319D01*
X174682738Y-120437319D02*
X174777976Y-120484938D01*
X174777976Y-120484938D02*
X174825595Y-120532557D01*
X174825595Y-120532557D02*
X174873214Y-120627795D01*
X174873214Y-120627795D02*
X174873214Y-120675414D01*
X174873214Y-120675414D02*
X174825595Y-120770652D01*
X174825595Y-120770652D02*
X174777976Y-120818271D01*
X174777976Y-120818271D02*
X174682738Y-120865890D01*
X174682738Y-120865890D02*
X174492262Y-120865890D01*
X174492262Y-120865890D02*
X174397024Y-120913509D01*
X174397024Y-120913509D02*
X174349405Y-120961128D01*
X174349405Y-120961128D02*
X174301786Y-121056366D01*
X174301786Y-121056366D02*
X174301786Y-121246842D01*
X174301786Y-121246842D02*
X174349405Y-121342080D01*
X174349405Y-121342080D02*
X174397024Y-121389700D01*
X174397024Y-121389700D02*
X174492262Y-121437319D01*
X174492262Y-121437319D02*
X174682738Y-121437319D01*
X174682738Y-121437319D02*
X174777976Y-121389700D01*
X174777976Y-121389700D02*
X174825595Y-121342080D01*
X174825595Y-121342080D02*
X174873214Y-121246842D01*
X174873214Y-121246842D02*
X174873214Y-121056366D01*
X174873214Y-121056366D02*
X174825595Y-120961128D01*
X174825595Y-120961128D02*
X174777976Y-120913509D01*
X174777976Y-120913509D02*
X174682738Y-120865890D01*
X152859580Y-108991666D02*
X152907200Y-109039285D01*
X152907200Y-109039285D02*
X152954819Y-109182142D01*
X152954819Y-109182142D02*
X152954819Y-109277380D01*
X152954819Y-109277380D02*
X152907200Y-109420237D01*
X152907200Y-109420237D02*
X152811961Y-109515475D01*
X152811961Y-109515475D02*
X152716723Y-109563094D01*
X152716723Y-109563094D02*
X152526247Y-109610713D01*
X152526247Y-109610713D02*
X152383390Y-109610713D01*
X152383390Y-109610713D02*
X152192914Y-109563094D01*
X152192914Y-109563094D02*
X152097676Y-109515475D01*
X152097676Y-109515475D02*
X152002438Y-109420237D01*
X152002438Y-109420237D02*
X151954819Y-109277380D01*
X151954819Y-109277380D02*
X151954819Y-109182142D01*
X151954819Y-109182142D02*
X152002438Y-109039285D01*
X152002438Y-109039285D02*
X152050057Y-108991666D01*
X151954819Y-108658332D02*
X151954819Y-108039285D01*
X151954819Y-108039285D02*
X152335771Y-108372618D01*
X152335771Y-108372618D02*
X152335771Y-108229761D01*
X152335771Y-108229761D02*
X152383390Y-108134523D01*
X152383390Y-108134523D02*
X152431009Y-108086904D01*
X152431009Y-108086904D02*
X152526247Y-108039285D01*
X152526247Y-108039285D02*
X152764342Y-108039285D01*
X152764342Y-108039285D02*
X152859580Y-108086904D01*
X152859580Y-108086904D02*
X152907200Y-108134523D01*
X152907200Y-108134523D02*
X152954819Y-108229761D01*
X152954819Y-108229761D02*
X152954819Y-108515475D01*
X152954819Y-108515475D02*
X152907200Y-108610713D01*
X152907200Y-108610713D02*
X152859580Y-108658332D01*
X178754166Y-129837319D02*
X178754166Y-130551604D01*
X178754166Y-130551604D02*
X178706547Y-130694461D01*
X178706547Y-130694461D02*
X178611309Y-130789700D01*
X178611309Y-130789700D02*
X178468452Y-130837319D01*
X178468452Y-130837319D02*
X178373214Y-130837319D01*
X179277976Y-130837319D02*
X179468452Y-130837319D01*
X179468452Y-130837319D02*
X179563690Y-130789700D01*
X179563690Y-130789700D02*
X179611309Y-130742080D01*
X179611309Y-130742080D02*
X179706547Y-130599223D01*
X179706547Y-130599223D02*
X179754166Y-130408747D01*
X179754166Y-130408747D02*
X179754166Y-130027795D01*
X179754166Y-130027795D02*
X179706547Y-129932557D01*
X179706547Y-129932557D02*
X179658928Y-129884938D01*
X179658928Y-129884938D02*
X179563690Y-129837319D01*
X179563690Y-129837319D02*
X179373214Y-129837319D01*
X179373214Y-129837319D02*
X179277976Y-129884938D01*
X179277976Y-129884938D02*
X179230357Y-129932557D01*
X179230357Y-129932557D02*
X179182738Y-130027795D01*
X179182738Y-130027795D02*
X179182738Y-130265890D01*
X179182738Y-130265890D02*
X179230357Y-130361128D01*
X179230357Y-130361128D02*
X179277976Y-130408747D01*
X179277976Y-130408747D02*
X179373214Y-130456366D01*
X179373214Y-130456366D02*
X179563690Y-130456366D01*
X179563690Y-130456366D02*
X179658928Y-130408747D01*
X179658928Y-130408747D02*
X179706547Y-130361128D01*
X179706547Y-130361128D02*
X179754166Y-130265890D01*
X180604166Y-84347319D02*
X180604166Y-85061604D01*
X180604166Y-85061604D02*
X180556547Y-85204461D01*
X180556547Y-85204461D02*
X180461309Y-85299700D01*
X180461309Y-85299700D02*
X180318452Y-85347319D01*
X180318452Y-85347319D02*
X180223214Y-85347319D01*
X181556547Y-84347319D02*
X181080357Y-84347319D01*
X181080357Y-84347319D02*
X181032738Y-84823509D01*
X181032738Y-84823509D02*
X181080357Y-84775890D01*
X181080357Y-84775890D02*
X181175595Y-84728271D01*
X181175595Y-84728271D02*
X181413690Y-84728271D01*
X181413690Y-84728271D02*
X181508928Y-84775890D01*
X181508928Y-84775890D02*
X181556547Y-84823509D01*
X181556547Y-84823509D02*
X181604166Y-84918747D01*
X181604166Y-84918747D02*
X181604166Y-85156842D01*
X181604166Y-85156842D02*
X181556547Y-85252080D01*
X181556547Y-85252080D02*
X181508928Y-85299700D01*
X181508928Y-85299700D02*
X181413690Y-85347319D01*
X181413690Y-85347319D02*
X181175595Y-85347319D01*
X181175595Y-85347319D02*
X181080357Y-85299700D01*
X181080357Y-85299700D02*
X181032738Y-85252080D01*
X151272080Y-108991666D02*
X151319700Y-109039285D01*
X151319700Y-109039285D02*
X151367319Y-109182142D01*
X151367319Y-109182142D02*
X151367319Y-109277380D01*
X151367319Y-109277380D02*
X151319700Y-109420237D01*
X151319700Y-109420237D02*
X151224461Y-109515475D01*
X151224461Y-109515475D02*
X151129223Y-109563094D01*
X151129223Y-109563094D02*
X150938747Y-109610713D01*
X150938747Y-109610713D02*
X150795890Y-109610713D01*
X150795890Y-109610713D02*
X150605414Y-109563094D01*
X150605414Y-109563094D02*
X150510176Y-109515475D01*
X150510176Y-109515475D02*
X150414938Y-109420237D01*
X150414938Y-109420237D02*
X150367319Y-109277380D01*
X150367319Y-109277380D02*
X150367319Y-109182142D01*
X150367319Y-109182142D02*
X150414938Y-109039285D01*
X150414938Y-109039285D02*
X150462557Y-108991666D01*
X150462557Y-108610713D02*
X150414938Y-108563094D01*
X150414938Y-108563094D02*
X150367319Y-108467856D01*
X150367319Y-108467856D02*
X150367319Y-108229761D01*
X150367319Y-108229761D02*
X150414938Y-108134523D01*
X150414938Y-108134523D02*
X150462557Y-108086904D01*
X150462557Y-108086904D02*
X150557795Y-108039285D01*
X150557795Y-108039285D02*
X150653033Y-108039285D01*
X150653033Y-108039285D02*
X150795890Y-108086904D01*
X150795890Y-108086904D02*
X151367319Y-108658332D01*
X151367319Y-108658332D02*
X151367319Y-108039285D01*
X153433333Y-105854819D02*
X153100000Y-105378628D01*
X152861905Y-105854819D02*
X152861905Y-104854819D01*
X152861905Y-104854819D02*
X153242857Y-104854819D01*
X153242857Y-104854819D02*
X153338095Y-104902438D01*
X153338095Y-104902438D02*
X153385714Y-104950057D01*
X153385714Y-104950057D02*
X153433333Y-105045295D01*
X153433333Y-105045295D02*
X153433333Y-105188152D01*
X153433333Y-105188152D02*
X153385714Y-105283390D01*
X153385714Y-105283390D02*
X153338095Y-105331009D01*
X153338095Y-105331009D02*
X153242857Y-105378628D01*
X153242857Y-105378628D02*
X152861905Y-105378628D01*
X154290476Y-105188152D02*
X154290476Y-105854819D01*
X154052381Y-104807200D02*
X153814286Y-105521485D01*
X153814286Y-105521485D02*
X154433333Y-105521485D01*
X104079166Y-106397319D02*
X104079166Y-107111604D01*
X104079166Y-107111604D02*
X104031547Y-107254461D01*
X104031547Y-107254461D02*
X103936309Y-107349700D01*
X103936309Y-107349700D02*
X103793452Y-107397319D01*
X103793452Y-107397319D02*
X103698214Y-107397319D01*
X104698214Y-106825890D02*
X104602976Y-106778271D01*
X104602976Y-106778271D02*
X104555357Y-106730652D01*
X104555357Y-106730652D02*
X104507738Y-106635414D01*
X104507738Y-106635414D02*
X104507738Y-106587795D01*
X104507738Y-106587795D02*
X104555357Y-106492557D01*
X104555357Y-106492557D02*
X104602976Y-106444938D01*
X104602976Y-106444938D02*
X104698214Y-106397319D01*
X104698214Y-106397319D02*
X104888690Y-106397319D01*
X104888690Y-106397319D02*
X104983928Y-106444938D01*
X104983928Y-106444938D02*
X105031547Y-106492557D01*
X105031547Y-106492557D02*
X105079166Y-106587795D01*
X105079166Y-106587795D02*
X105079166Y-106635414D01*
X105079166Y-106635414D02*
X105031547Y-106730652D01*
X105031547Y-106730652D02*
X104983928Y-106778271D01*
X104983928Y-106778271D02*
X104888690Y-106825890D01*
X104888690Y-106825890D02*
X104698214Y-106825890D01*
X104698214Y-106825890D02*
X104602976Y-106873509D01*
X104602976Y-106873509D02*
X104555357Y-106921128D01*
X104555357Y-106921128D02*
X104507738Y-107016366D01*
X104507738Y-107016366D02*
X104507738Y-107206842D01*
X104507738Y-107206842D02*
X104555357Y-107302080D01*
X104555357Y-107302080D02*
X104602976Y-107349700D01*
X104602976Y-107349700D02*
X104698214Y-107397319D01*
X104698214Y-107397319D02*
X104888690Y-107397319D01*
X104888690Y-107397319D02*
X104983928Y-107349700D01*
X104983928Y-107349700D02*
X105031547Y-107302080D01*
X105031547Y-107302080D02*
X105079166Y-107206842D01*
X105079166Y-107206842D02*
X105079166Y-107016366D01*
X105079166Y-107016366D02*
X105031547Y-106921128D01*
X105031547Y-106921128D02*
X104983928Y-106873509D01*
X104983928Y-106873509D02*
X104888690Y-106825890D01*
X104150595Y-135797319D02*
X104150595Y-134797319D01*
X104150595Y-134797319D02*
X104531547Y-134797319D01*
X104531547Y-134797319D02*
X104626785Y-134844938D01*
X104626785Y-134844938D02*
X104674404Y-134892557D01*
X104674404Y-134892557D02*
X104722023Y-134987795D01*
X104722023Y-134987795D02*
X104722023Y-135130652D01*
X104722023Y-135130652D02*
X104674404Y-135225890D01*
X104674404Y-135225890D02*
X104626785Y-135273509D01*
X104626785Y-135273509D02*
X104531547Y-135321128D01*
X104531547Y-135321128D02*
X104150595Y-135321128D01*
X167242319Y-124545833D02*
X167956604Y-124545833D01*
X167956604Y-124545833D02*
X168099461Y-124593452D01*
X168099461Y-124593452D02*
X168194700Y-124688690D01*
X168194700Y-124688690D02*
X168242319Y-124831547D01*
X168242319Y-124831547D02*
X168242319Y-124926785D01*
X168242319Y-124069642D02*
X167242319Y-124069642D01*
X167242319Y-124069642D02*
X167242319Y-123688690D01*
X167242319Y-123688690D02*
X167289938Y-123593452D01*
X167289938Y-123593452D02*
X167337557Y-123545833D01*
X167337557Y-123545833D02*
X167432795Y-123498214D01*
X167432795Y-123498214D02*
X167575652Y-123498214D01*
X167575652Y-123498214D02*
X167670890Y-123545833D01*
X167670890Y-123545833D02*
X167718509Y-123593452D01*
X167718509Y-123593452D02*
X167766128Y-123688690D01*
X167766128Y-123688690D02*
X167766128Y-124069642D01*
X167337557Y-123117261D02*
X167289938Y-123069642D01*
X167289938Y-123069642D02*
X167242319Y-122974404D01*
X167242319Y-122974404D02*
X167242319Y-122736309D01*
X167242319Y-122736309D02*
X167289938Y-122641071D01*
X167289938Y-122641071D02*
X167337557Y-122593452D01*
X167337557Y-122593452D02*
X167432795Y-122545833D01*
X167432795Y-122545833D02*
X167528033Y-122545833D01*
X167528033Y-122545833D02*
X167670890Y-122593452D01*
X167670890Y-122593452D02*
X168242319Y-123164880D01*
X168242319Y-123164880D02*
X168242319Y-122545833D01*
X170042319Y-126026785D02*
X170042319Y-126598213D01*
X170042319Y-126312499D02*
X169042319Y-126312499D01*
X169042319Y-126312499D02*
X169185176Y-126407737D01*
X169185176Y-126407737D02*
X169280414Y-126502975D01*
X169280414Y-126502975D02*
X169328033Y-126598213D01*
X169042319Y-121445832D02*
X169042319Y-120826785D01*
X169042319Y-120826785D02*
X169423271Y-121160118D01*
X169423271Y-121160118D02*
X169423271Y-121017261D01*
X169423271Y-121017261D02*
X169470890Y-120922023D01*
X169470890Y-120922023D02*
X169518509Y-120874404D01*
X169518509Y-120874404D02*
X169613747Y-120826785D01*
X169613747Y-120826785D02*
X169851842Y-120826785D01*
X169851842Y-120826785D02*
X169947080Y-120874404D01*
X169947080Y-120874404D02*
X169994700Y-120922023D01*
X169994700Y-120922023D02*
X170042319Y-121017261D01*
X170042319Y-121017261D02*
X170042319Y-121302975D01*
X170042319Y-121302975D02*
X169994700Y-121398213D01*
X169994700Y-121398213D02*
X169947080Y-121445832D01*
X180604166Y-76347319D02*
X180604166Y-77061604D01*
X180604166Y-77061604D02*
X180556547Y-77204461D01*
X180556547Y-77204461D02*
X180461309Y-77299700D01*
X180461309Y-77299700D02*
X180318452Y-77347319D01*
X180318452Y-77347319D02*
X180223214Y-77347319D01*
X181508928Y-76347319D02*
X181318452Y-76347319D01*
X181318452Y-76347319D02*
X181223214Y-76394938D01*
X181223214Y-76394938D02*
X181175595Y-76442557D01*
X181175595Y-76442557D02*
X181080357Y-76585414D01*
X181080357Y-76585414D02*
X181032738Y-76775890D01*
X181032738Y-76775890D02*
X181032738Y-77156842D01*
X181032738Y-77156842D02*
X181080357Y-77252080D01*
X181080357Y-77252080D02*
X181127976Y-77299700D01*
X181127976Y-77299700D02*
X181223214Y-77347319D01*
X181223214Y-77347319D02*
X181413690Y-77347319D01*
X181413690Y-77347319D02*
X181508928Y-77299700D01*
X181508928Y-77299700D02*
X181556547Y-77252080D01*
X181556547Y-77252080D02*
X181604166Y-77156842D01*
X181604166Y-77156842D02*
X181604166Y-76918747D01*
X181604166Y-76918747D02*
X181556547Y-76823509D01*
X181556547Y-76823509D02*
X181508928Y-76775890D01*
X181508928Y-76775890D02*
X181413690Y-76728271D01*
X181413690Y-76728271D02*
X181223214Y-76728271D01*
X181223214Y-76728271D02*
X181127976Y-76775890D01*
X181127976Y-76775890D02*
X181080357Y-76823509D01*
X181080357Y-76823509D02*
X181032738Y-76918747D01*
X129997333Y-135014080D02*
X129949714Y-135061700D01*
X129949714Y-135061700D02*
X129806857Y-135109319D01*
X129806857Y-135109319D02*
X129711619Y-135109319D01*
X129711619Y-135109319D02*
X129568762Y-135061700D01*
X129568762Y-135061700D02*
X129473524Y-134966461D01*
X129473524Y-134966461D02*
X129425905Y-134871223D01*
X129425905Y-134871223D02*
X129378286Y-134680747D01*
X129378286Y-134680747D02*
X129378286Y-134537890D01*
X129378286Y-134537890D02*
X129425905Y-134347414D01*
X129425905Y-134347414D02*
X129473524Y-134252176D01*
X129473524Y-134252176D02*
X129568762Y-134156938D01*
X129568762Y-134156938D02*
X129711619Y-134109319D01*
X129711619Y-134109319D02*
X129806857Y-134109319D01*
X129806857Y-134109319D02*
X129949714Y-134156938D01*
X129949714Y-134156938D02*
X129997333Y-134204557D01*
X130854476Y-134109319D02*
X130664000Y-134109319D01*
X130664000Y-134109319D02*
X130568762Y-134156938D01*
X130568762Y-134156938D02*
X130521143Y-134204557D01*
X130521143Y-134204557D02*
X130425905Y-134347414D01*
X130425905Y-134347414D02*
X130378286Y-134537890D01*
X130378286Y-134537890D02*
X130378286Y-134918842D01*
X130378286Y-134918842D02*
X130425905Y-135014080D01*
X130425905Y-135014080D02*
X130473524Y-135061700D01*
X130473524Y-135061700D02*
X130568762Y-135109319D01*
X130568762Y-135109319D02*
X130759238Y-135109319D01*
X130759238Y-135109319D02*
X130854476Y-135061700D01*
X130854476Y-135061700D02*
X130902095Y-135014080D01*
X130902095Y-135014080D02*
X130949714Y-134918842D01*
X130949714Y-134918842D02*
X130949714Y-134680747D01*
X130949714Y-134680747D02*
X130902095Y-134585509D01*
X130902095Y-134585509D02*
X130854476Y-134537890D01*
X130854476Y-134537890D02*
X130759238Y-134490271D01*
X130759238Y-134490271D02*
X130568762Y-134490271D01*
X130568762Y-134490271D02*
X130473524Y-134537890D01*
X130473524Y-134537890D02*
X130425905Y-134585509D01*
X130425905Y-134585509D02*
X130378286Y-134680747D01*
X128614600Y-134652119D02*
X128614600Y-134890214D01*
X128376505Y-134794976D02*
X128614600Y-134890214D01*
X128614600Y-134890214D02*
X128852695Y-134794976D01*
X128471743Y-135080690D02*
X128614600Y-134890214D01*
X128614600Y-134890214D02*
X128757457Y-135080690D01*
X128100000Y-134154819D02*
X128100000Y-134392914D01*
X127861905Y-134297676D02*
X128100000Y-134392914D01*
X128100000Y-134392914D02*
X128338095Y-134297676D01*
X127957143Y-134583390D02*
X128100000Y-134392914D01*
X128100000Y-134392914D02*
X128242857Y-134583390D01*
X173920833Y-111637319D02*
X173587500Y-111161128D01*
X173349405Y-111637319D02*
X173349405Y-110637319D01*
X173349405Y-110637319D02*
X173730357Y-110637319D01*
X173730357Y-110637319D02*
X173825595Y-110684938D01*
X173825595Y-110684938D02*
X173873214Y-110732557D01*
X173873214Y-110732557D02*
X173920833Y-110827795D01*
X173920833Y-110827795D02*
X173920833Y-110970652D01*
X173920833Y-110970652D02*
X173873214Y-111065890D01*
X173873214Y-111065890D02*
X173825595Y-111113509D01*
X173825595Y-111113509D02*
X173730357Y-111161128D01*
X173730357Y-111161128D02*
X173349405Y-111161128D01*
X174254167Y-110637319D02*
X174873214Y-110637319D01*
X174873214Y-110637319D02*
X174539881Y-111018271D01*
X174539881Y-111018271D02*
X174682738Y-111018271D01*
X174682738Y-111018271D02*
X174777976Y-111065890D01*
X174777976Y-111065890D02*
X174825595Y-111113509D01*
X174825595Y-111113509D02*
X174873214Y-111208747D01*
X174873214Y-111208747D02*
X174873214Y-111446842D01*
X174873214Y-111446842D02*
X174825595Y-111542080D01*
X174825595Y-111542080D02*
X174777976Y-111589700D01*
X174777976Y-111589700D02*
X174682738Y-111637319D01*
X174682738Y-111637319D02*
X174397024Y-111637319D01*
X174397024Y-111637319D02*
X174301786Y-111589700D01*
X174301786Y-111589700D02*
X174254167Y-111542080D01*
X116939219Y-115389166D02*
X116463028Y-115722499D01*
X116939219Y-115960594D02*
X115939219Y-115960594D01*
X115939219Y-115960594D02*
X115939219Y-115579642D01*
X115939219Y-115579642D02*
X115986838Y-115484404D01*
X115986838Y-115484404D02*
X116034457Y-115436785D01*
X116034457Y-115436785D02*
X116129695Y-115389166D01*
X116129695Y-115389166D02*
X116272552Y-115389166D01*
X116272552Y-115389166D02*
X116367790Y-115436785D01*
X116367790Y-115436785D02*
X116415409Y-115484404D01*
X116415409Y-115484404D02*
X116463028Y-115579642D01*
X116463028Y-115579642D02*
X116463028Y-115960594D01*
X115939219Y-115055832D02*
X115939219Y-114389166D01*
X115939219Y-114389166D02*
X116939219Y-114817737D01*
X117100000Y-112554819D02*
X117100000Y-112792914D01*
X116861905Y-112697676D02*
X117100000Y-112792914D01*
X117100000Y-112792914D02*
X117338095Y-112697676D01*
X116957143Y-112983390D02*
X117100000Y-112792914D01*
X117100000Y-112792914D02*
X117242857Y-112983390D01*
X117728500Y-112788319D02*
X117728500Y-113026414D01*
X117490405Y-112931176D02*
X117728500Y-113026414D01*
X117728500Y-113026414D02*
X117966595Y-112931176D01*
X117585643Y-113216890D02*
X117728500Y-113026414D01*
X117728500Y-113026414D02*
X117871357Y-113216890D01*
X109424095Y-128687319D02*
X109424095Y-129496842D01*
X109424095Y-129496842D02*
X109471714Y-129592080D01*
X109471714Y-129592080D02*
X109519333Y-129639700D01*
X109519333Y-129639700D02*
X109614571Y-129687319D01*
X109614571Y-129687319D02*
X109805047Y-129687319D01*
X109805047Y-129687319D02*
X109900285Y-129639700D01*
X109900285Y-129639700D02*
X109947904Y-129592080D01*
X109947904Y-129592080D02*
X109995523Y-129496842D01*
X109995523Y-129496842D02*
X109995523Y-128687319D01*
X110376476Y-128687319D02*
X110995523Y-128687319D01*
X110995523Y-128687319D02*
X110662190Y-129068271D01*
X110662190Y-129068271D02*
X110805047Y-129068271D01*
X110805047Y-129068271D02*
X110900285Y-129115890D01*
X110900285Y-129115890D02*
X110947904Y-129163509D01*
X110947904Y-129163509D02*
X110995523Y-129258747D01*
X110995523Y-129258747D02*
X110995523Y-129496842D01*
X110995523Y-129496842D02*
X110947904Y-129592080D01*
X110947904Y-129592080D02*
X110900285Y-129639700D01*
X110900285Y-129639700D02*
X110805047Y-129687319D01*
X110805047Y-129687319D02*
X110519333Y-129687319D01*
X110519333Y-129687319D02*
X110424095Y-129639700D01*
X110424095Y-129639700D02*
X110376476Y-129592080D01*
X153859580Y-140192857D02*
X153907200Y-140240476D01*
X153907200Y-140240476D02*
X153954819Y-140383333D01*
X153954819Y-140383333D02*
X153954819Y-140478571D01*
X153954819Y-140478571D02*
X153907200Y-140621428D01*
X153907200Y-140621428D02*
X153811961Y-140716666D01*
X153811961Y-140716666D02*
X153716723Y-140764285D01*
X153716723Y-140764285D02*
X153526247Y-140811904D01*
X153526247Y-140811904D02*
X153383390Y-140811904D01*
X153383390Y-140811904D02*
X153192914Y-140764285D01*
X153192914Y-140764285D02*
X153097676Y-140716666D01*
X153097676Y-140716666D02*
X153002438Y-140621428D01*
X153002438Y-140621428D02*
X152954819Y-140478571D01*
X152954819Y-140478571D02*
X152954819Y-140383333D01*
X152954819Y-140383333D02*
X153002438Y-140240476D01*
X153002438Y-140240476D02*
X153050057Y-140192857D01*
X153954819Y-139240476D02*
X153954819Y-139811904D01*
X153954819Y-139526190D02*
X152954819Y-139526190D01*
X152954819Y-139526190D02*
X153097676Y-139621428D01*
X153097676Y-139621428D02*
X153192914Y-139716666D01*
X153192914Y-139716666D02*
X153240533Y-139811904D01*
X152954819Y-138335714D02*
X152954819Y-138811904D01*
X152954819Y-138811904D02*
X153431009Y-138859523D01*
X153431009Y-138859523D02*
X153383390Y-138811904D01*
X153383390Y-138811904D02*
X153335771Y-138716666D01*
X153335771Y-138716666D02*
X153335771Y-138478571D01*
X153335771Y-138478571D02*
X153383390Y-138383333D01*
X153383390Y-138383333D02*
X153431009Y-138335714D01*
X153431009Y-138335714D02*
X153526247Y-138288095D01*
X153526247Y-138288095D02*
X153764342Y-138288095D01*
X153764342Y-138288095D02*
X153859580Y-138335714D01*
X153859580Y-138335714D02*
X153907200Y-138383333D01*
X153907200Y-138383333D02*
X153954819Y-138478571D01*
X153954819Y-138478571D02*
X153954819Y-138716666D01*
X153954819Y-138716666D02*
X153907200Y-138811904D01*
X153907200Y-138811904D02*
X153859580Y-138859523D01*
X109324095Y-120387319D02*
X109324095Y-121196842D01*
X109324095Y-121196842D02*
X109371714Y-121292080D01*
X109371714Y-121292080D02*
X109419333Y-121339700D01*
X109419333Y-121339700D02*
X109514571Y-121387319D01*
X109514571Y-121387319D02*
X109705047Y-121387319D01*
X109705047Y-121387319D02*
X109800285Y-121339700D01*
X109800285Y-121339700D02*
X109847904Y-121292080D01*
X109847904Y-121292080D02*
X109895523Y-121196842D01*
X109895523Y-121196842D02*
X109895523Y-120387319D01*
X110800285Y-120720652D02*
X110800285Y-121387319D01*
X110562190Y-120339700D02*
X110324095Y-121053985D01*
X110324095Y-121053985D02*
X110943142Y-121053985D01*
D13*
%TO.C,FB1*%
X149290000Y-103962779D02*
X149290000Y-103637221D01*
X150310000Y-103962779D02*
X150310000Y-103637221D01*
%TO.C,C4*%
X141154664Y-108965000D02*
X141370336Y-108965000D01*
X141154664Y-109685000D02*
X141370336Y-109685000D01*
%TO.C,J2*%
X141607500Y-60532500D02*
X141607500Y-91072500D01*
X141607500Y-60532500D02*
X144267500Y-60532500D01*
X141607500Y-91072500D02*
X144267500Y-91072500D01*
X142937500Y-57932500D02*
X144267500Y-57932500D01*
X144267500Y-57932500D02*
X144267500Y-59262500D01*
X144267500Y-60532500D02*
X144267500Y-91072500D01*
%TO.C,U6*%
X146640000Y-121052500D02*
X146640000Y-122002500D01*
X146640000Y-131272500D02*
X146640000Y-130322500D01*
X147590000Y-121052500D02*
X146640000Y-121052500D01*
X147590000Y-131272500D02*
X146640000Y-131272500D01*
X155910000Y-121052500D02*
X156860000Y-121052500D01*
X155910000Y-131272500D02*
X156860000Y-131272500D01*
X156860000Y-121052500D02*
X156860000Y-122002500D01*
X156860000Y-131272500D02*
X156860000Y-130322500D01*
X146050000Y-122002500D02*
X145710000Y-121532500D01*
X146390000Y-121532500D01*
X146050000Y-122002500D01*
G36*
X146050000Y-122002500D02*
G01*
X145710000Y-121532500D01*
X146390000Y-121532500D01*
X146050000Y-122002500D01*
G37*
%TO.C,C12*%
X155778080Y-114315000D02*
X155496920Y-114315000D01*
X155778080Y-115335000D02*
X155496920Y-115335000D01*
%TO.C,J3*%
X179607500Y-62932500D02*
X179607500Y-70612500D01*
X179607500Y-62932500D02*
X182267500Y-62932500D01*
X179607500Y-70612500D02*
X182267500Y-70612500D01*
X180937500Y-60332500D02*
X182267500Y-60332500D01*
X182267500Y-60332500D02*
X182267500Y-61662500D01*
X182267500Y-62932500D02*
X182267500Y-70612500D01*
%TO.C,R9*%
X173850242Y-131790000D02*
X174324758Y-131790000D01*
X173850242Y-132835000D02*
X174324758Y-132835000D01*
%TO.C,J1*%
X148382000Y-60222500D02*
X148382000Y-95842500D01*
X148382000Y-60222500D02*
X151042000Y-60222500D01*
X148382000Y-95842500D02*
X151042000Y-95842500D01*
X149712000Y-57622500D02*
X151042000Y-57622500D01*
X151042000Y-57622500D02*
X151042000Y-58952500D01*
X151042000Y-60222500D02*
X151042000Y-95842500D01*
%TO.C,JP1*%
X168587500Y-115312500D02*
X168587500Y-112512500D01*
X169287500Y-111862500D02*
X169887500Y-111862500D01*
X169887500Y-115962500D02*
X169287500Y-115962500D01*
X170587500Y-112512500D02*
X170587500Y-115312500D01*
X168587500Y-112562500D02*
G75*
G02*
X169287500Y-111862500I700000J0D01*
G01*
X169287500Y-115962500D02*
G75*
G02*
X168587500Y-115262500I-1J699999D01*
G01*
X169887500Y-111862500D02*
G75*
G02*
X170587500Y-112562500I0J-700000D01*
G01*
X170587500Y-115262500D02*
G75*
G02*
X169887500Y-115962500I-699999J-1D01*
G01*
%TO.C,JP4*%
X168587500Y-144912500D02*
X168587500Y-142112500D01*
X169287500Y-141462500D02*
X169887500Y-141462500D01*
X169887500Y-145562500D02*
X169287500Y-145562500D01*
X170587500Y-142112500D02*
X170587500Y-144912500D01*
X168587500Y-142162500D02*
G75*
G02*
X169287500Y-141462500I700000J0D01*
G01*
X169287500Y-145562500D02*
G75*
G02*
X168587500Y-144862500I-1J699999D01*
G01*
X169887500Y-141462500D02*
G75*
G02*
X170587500Y-142162500I0J-700000D01*
G01*
X170587500Y-144862500D02*
G75*
G02*
X169887500Y-145562500I-699999J-1D01*
G01*
D14*
%TO.C,C1*%
X129166253Y-106554800D02*
X129634947Y-106554800D01*
X129634947Y-104294200D02*
X129166253Y-104294200D01*
D13*
%TO.C,R2*%
X141000242Y-110802500D02*
X141474758Y-110802500D01*
X141000242Y-111847500D02*
X141474758Y-111847500D01*
%TO.C,J7*%
X95107500Y-110982500D02*
X95107500Y-133902500D01*
X95107500Y-110982500D02*
X97767500Y-110982500D01*
X95107500Y-133902500D02*
X97767500Y-133902500D01*
X96437500Y-108382500D02*
X97767500Y-108382500D01*
X97767500Y-108382500D02*
X97767500Y-109712500D01*
X97767500Y-110982500D02*
X97767500Y-133902500D01*
%TO.C,U2*%
X130662500Y-92402500D02*
X129262500Y-92402500D01*
X130672500Y-94722500D02*
X129262500Y-94722500D01*
X131282500Y-95002500D02*
X130802500Y-95002500D01*
X131042500Y-94672500D01*
X131282500Y-95002500D01*
G36*
X131282500Y-95002500D02*
G01*
X130802500Y-95002500D01*
X131042500Y-94672500D01*
X131282500Y-95002500D01*
G37*
%TO.C,C9*%
X147828080Y-114315000D02*
X147546920Y-114315000D01*
X147828080Y-115335000D02*
X147546920Y-115335000D01*
%TO.C,JP3*%
X168587500Y-135012500D02*
X168587500Y-132212500D01*
X169287500Y-131562500D02*
X169887500Y-131562500D01*
X169887500Y-135662500D02*
X169287500Y-135662500D01*
X170587500Y-132212500D02*
X170587500Y-135012500D01*
X168587500Y-132262500D02*
G75*
G02*
X169287500Y-131562500I700000J0D01*
G01*
X169287500Y-135662500D02*
G75*
G02*
X168587500Y-134962500I-1J699999D01*
G01*
X169887500Y-131562500D02*
G75*
G02*
X170587500Y-132262500I0J-700000D01*
G01*
X170587500Y-134962500D02*
G75*
G02*
X169887500Y-135662500I-699999J-1D01*
G01*
%TO.C,U5*%
X109376000Y-115022500D02*
X110786000Y-115022500D01*
X109386000Y-117342500D02*
X110786000Y-117342500D01*
X109006000Y-115072500D02*
X108766000Y-114742500D01*
X109246000Y-114742500D01*
X109006000Y-115072500D01*
G36*
X109006000Y-115072500D02*
G01*
X108766000Y-114742500D01*
X109246000Y-114742500D01*
X109006000Y-115072500D01*
G37*
D14*
%TO.C,C7*%
X129193053Y-127054800D02*
X129661747Y-127054800D01*
X129661747Y-124794200D02*
X129193053Y-124794200D01*
D13*
%TO.C,U7*%
X102127500Y-142522500D02*
X103537500Y-142522500D01*
X102137500Y-144842500D02*
X103537500Y-144842500D01*
X101757500Y-142572500D02*
X101517500Y-142242500D01*
X101997500Y-142242500D01*
X101757500Y-142572500D01*
G36*
X101757500Y-142572500D02*
G01*
X101517500Y-142242500D01*
X101997500Y-142242500D01*
X101757500Y-142572500D01*
G37*
%TO.C,C8*%
X156990000Y-136690580D02*
X156990000Y-136409420D01*
X158010000Y-136690580D02*
X158010000Y-136409420D01*
%TO.C,C16*%
X149990000Y-136690580D02*
X149990000Y-136409420D01*
X151010000Y-136690580D02*
X151010000Y-136409420D01*
%TO.C,U1*%
X103252500Y-98402500D02*
X104662500Y-98402500D01*
X103262500Y-100722500D02*
X104662500Y-100722500D01*
X102882500Y-98452500D02*
X102642500Y-98122500D01*
X103122500Y-98122500D01*
X102882500Y-98452500D01*
G36*
X102882500Y-98452500D02*
G01*
X102642500Y-98122500D01*
X103122500Y-98122500D01*
X102882500Y-98452500D01*
G37*
%TO.C,C10*%
X147990000Y-136690580D02*
X147990000Y-136409420D01*
X149010000Y-136690580D02*
X149010000Y-136409420D01*
D14*
%TO.C,C5*%
X129193053Y-117054800D02*
X129661747Y-117054800D01*
X129661747Y-114794200D02*
X129193053Y-114794200D01*
D13*
%TO.C,C13*%
X155778080Y-116315000D02*
X155496920Y-116315000D01*
X155778080Y-117335000D02*
X155496920Y-117335000D01*
%TO.C,J4*%
X173870000Y-60282500D02*
X173870000Y-95902500D01*
X173870000Y-60282500D02*
X176530000Y-60282500D01*
X173870000Y-95902500D02*
X176530000Y-95902500D01*
X175200000Y-57682500D02*
X176530000Y-57682500D01*
X176530000Y-57682500D02*
X176530000Y-59012500D01*
X176530000Y-60282500D02*
X176530000Y-95902500D01*
D14*
%TO.C,C17*%
X129193053Y-148792800D02*
X129661747Y-148792800D01*
X129661747Y-146532200D02*
X129193053Y-146532200D01*
D13*
%TO.C,R11*%
X173850242Y-141690000D02*
X174324758Y-141690000D01*
X173850242Y-142735000D02*
X174324758Y-142735000D01*
%TO.C,C11*%
X147828080Y-116315000D02*
X147546920Y-116315000D01*
X147828080Y-117335000D02*
X147546920Y-117335000D01*
%TO.C,R8*%
X173850242Y-121890000D02*
X174324758Y-121890000D01*
X173850242Y-122935000D02*
X174324758Y-122935000D01*
%TO.C,C3*%
X151990000Y-111684420D02*
X151990000Y-111965580D01*
X153010000Y-111684420D02*
X153010000Y-111965580D01*
%TO.C,J9*%
X177757500Y-126342500D02*
X177757500Y-118662500D01*
X177757500Y-128942500D02*
X177757500Y-127612500D01*
X179087500Y-128942500D02*
X177757500Y-128942500D01*
X180417500Y-118662500D02*
X177757500Y-118662500D01*
X180417500Y-126342500D02*
X177757500Y-126342500D01*
X180417500Y-126342500D02*
X180417500Y-118662500D01*
%TO.C,J5*%
X179607500Y-88932500D02*
X179607500Y-91532500D01*
X179607500Y-88932500D02*
X182267500Y-88932500D01*
X179607500Y-91532500D02*
X182267500Y-91532500D01*
X180937500Y-86332500D02*
X182267500Y-86332500D01*
X182267500Y-86332500D02*
X182267500Y-87662500D01*
X182267500Y-88932500D02*
X182267500Y-91532500D01*
%TO.C,C2*%
X150402500Y-111684420D02*
X150402500Y-111965580D01*
X151422500Y-111684420D02*
X151422500Y-111965580D01*
%TO.C,R4*%
X153837258Y-107322500D02*
X153362742Y-107322500D01*
X153837258Y-106277500D02*
X153362742Y-106277500D01*
%TO.C,J8*%
X103082500Y-110982500D02*
X103082500Y-133902500D01*
X103082500Y-110982500D02*
X105742500Y-110982500D01*
X103082500Y-133902500D02*
X105742500Y-133902500D01*
X104412500Y-108382500D02*
X105742500Y-108382500D01*
X105742500Y-108382500D02*
X105742500Y-109712500D01*
X105742500Y-110982500D02*
X105742500Y-133902500D01*
%TO.C,JP2*%
X168587500Y-125112500D02*
X168587500Y-122312500D01*
X169287500Y-121662500D02*
X169887500Y-121662500D01*
X169887500Y-125762500D02*
X169287500Y-125762500D01*
X170587500Y-122312500D02*
X170587500Y-125112500D01*
X168587500Y-122362500D02*
G75*
G02*
X169287500Y-121662500I700000J0D01*
G01*
X169287500Y-125762500D02*
G75*
G02*
X168587500Y-125062500I-1J699999D01*
G01*
X169887500Y-121662500D02*
G75*
G02*
X170587500Y-122362500I0J-700000D01*
G01*
X170587500Y-125062500D02*
G75*
G02*
X169887500Y-125762500I-699999J-1D01*
G01*
%TO.C,J6*%
X179607500Y-80932500D02*
X179607500Y-83532500D01*
X179607500Y-80932500D02*
X182267500Y-80932500D01*
X179607500Y-83532500D02*
X182267500Y-83532500D01*
X180937500Y-78332500D02*
X182267500Y-78332500D01*
X182267500Y-78332500D02*
X182267500Y-79662500D01*
X182267500Y-80932500D02*
X182267500Y-83532500D01*
D14*
%TO.C,C6*%
X129193053Y-138054800D02*
X129661747Y-138054800D01*
X129661747Y-135794200D02*
X129193053Y-135794200D01*
D13*
%TO.C,R3*%
X173850242Y-112090000D02*
X174324758Y-112090000D01*
X173850242Y-113135000D02*
X174324758Y-113135000D01*
%TO.C,U3*%
X109476000Y-130322500D02*
X110886000Y-130322500D01*
X109486000Y-132642500D02*
X110886000Y-132642500D01*
X109106000Y-130372500D02*
X108866000Y-130042500D01*
X109346000Y-130042500D01*
X109106000Y-130372500D01*
G36*
X109106000Y-130372500D02*
G01*
X108866000Y-130042500D01*
X109346000Y-130042500D01*
X109106000Y-130372500D01*
G37*
%TO.C,C15*%
X152990000Y-136690580D02*
X152990000Y-136409420D01*
X154010000Y-136690580D02*
X154010000Y-136409420D01*
%TO.C,U4*%
X109376000Y-122022500D02*
X110786000Y-122022500D01*
X109386000Y-124342500D02*
X110786000Y-124342500D01*
X109006000Y-122072500D02*
X108766000Y-121742500D01*
X109246000Y-121742500D01*
X109006000Y-122072500D01*
G36*
X109006000Y-122072500D02*
G01*
X108766000Y-121742500D01*
X109246000Y-121742500D01*
X109006000Y-122072500D01*
G37*
%TD*%
M02*
