M48
; DRILL file {KiCad 8.0.5} date 2025-02-18T14:06:27-0800
; FORMAT={-:-/ absolute / inch / decimal}
; #@! TF.CreationDate,2025-02-18T14:06:27-08:00
; #@! TF.GenerationSoftware,Kicad,Pcbnew,8.0.5
; #@! TF.FileFunction,Plated,1,2,PTH
FMAT,2
INCH
; #@! TA.AperFunction,Plated,PTH,ViaDrill
T1C0.0118
; #@! TA.AperFunction,Plated,PTH,ComponentDrill
T2C0.0394
%
G90
G05
T1
X3.937Y-5.0866
X4.2043Y-4.4202
X4.2126Y-4.1181
X4.252Y-4.5679
X4.2967Y-4.7441
X4.3135Y-4.1166
X4.315Y-4.6299
X4.3296Y-4.866
X4.3385Y-5.2598
X4.3448Y-5.0194
X4.3504Y-4.7047
X4.3543Y-5.9291
X4.3715Y-4.9666
X4.3754Y-5.3794
X4.4241Y-4.848
X4.4724Y-5.5984
X4.4882Y-5.2441
X4.5276Y-5.1654
X4.5472Y-4.3406
X4.5472Y-4.4713
X4.5984Y-5.1969
X4.6056Y-4.3955
X4.7362Y-5.5276
X4.7362Y-5.6732
X4.7494Y-5.2826
X4.7575Y-5.3716
X4.7587Y-4.99
X4.7588Y-5.0599
X4.7835Y-5.776
X4.7835Y-5.8076
X4.8031Y-4.2126
X4.8031Y-5.462
X4.8129Y-4.0452
X4.8228Y-4.1623
X4.8228Y-4.5276
X4.8425Y-4.6063
X4.8819Y-4.4599
X4.9606Y-4.5276
X4.9764Y-4.7638
X5.0394Y-4.4094
X5.1063Y-5.5324
X5.131Y-5.0599
X5.1489Y-4.2438
X5.1499Y-5.2826
X5.1575Y-4.4882
X5.1581Y-5.4007
X5.1654Y-5.6535
X5.1894Y-5.5669
X5.2165Y-3.6836
X5.2177Y-4.9721
X5.2279Y-5.776
X5.2325Y-4.1206
X5.2508Y-5.3295
X5.2554Y-5.8076
X5.2559Y-4.2126
X5.2756Y-4.574
X5.3558Y-4.5116
X5.4488Y-5.4803
X5.5906Y-4.4882
X5.7047Y-4.7008
X5.7472Y-4.4094
X5.7572Y-5.5013
X5.8268Y-5.1181
X5.8465Y-4.685
X5.9528Y-4.2756
X6.0551Y-3.811
X6.0841Y-5.0025
X6.0996Y-5.0803
X6.1024Y-4.685
X6.122Y-4.8425
X6.122Y-4.9002
X6.122Y-4.9606
X6.2008Y-3.7795
X6.2047Y-3.9528
X6.2205Y-4.3386
X6.2894Y-4.9508
X6.2992Y-3.3858
X6.2992Y-4.6614
X6.3071Y-4.874
X6.315Y-4.2047
X6.3661Y-5.0866
X6.437Y-2.8937
X6.4567Y-2.9921
X6.4764Y-3.0512
X6.4961Y-5.4921
X6.5748Y-4.7047
X6.5945Y-4.8727
X6.6142Y-5.1755
X6.7662Y-4.5359
X6.7772Y-5.2756
X6.811Y-4.8819
X7.0079Y-4.5669
T2
X3.7968Y-4.3194
X3.7968Y-4.4194
X3.7968Y-4.5194
X3.7968Y-4.6194
X3.7968Y-4.7194
X3.7968Y-4.8194
X3.7968Y-4.9194
X3.7968Y-5.0194
X3.7968Y-5.1194
X3.7968Y-5.2194
X4.1107Y-4.3194
X4.1107Y-4.4194
X4.1107Y-4.5194
X4.1107Y-4.6194
X4.1107Y-4.7194
X4.1107Y-4.8194
X4.1107Y-4.9194
X4.1107Y-5.0194
X4.1107Y-5.1194
X4.1107Y-5.2194
X5.6275Y-2.3332
X5.6275Y-2.4332
X5.6275Y-2.5332
X5.6275Y-2.6332
X5.6275Y-2.7332
X5.6275Y-2.8332
X5.6275Y-2.9332
X5.6275Y-3.0332
X5.6275Y-3.1332
X5.6275Y-3.2332
X5.6275Y-3.3332
X5.6275Y-3.4332
X5.6275Y-3.5332
X5.8942Y-2.321
X5.8942Y-2.421
X5.8942Y-2.521
X5.8942Y-2.621
X5.8942Y-2.721
X5.8942Y-2.821
X5.8942Y-2.921
X5.8942Y-3.021
X5.8942Y-3.121
X5.8942Y-3.221
X5.8942Y-3.321
X5.8942Y-3.421
X5.8942Y-3.521
X5.8942Y-3.621
X5.8942Y-3.721
X6.8976Y-2.3233
X6.8976Y-2.4233
X6.8976Y-2.5233
X6.8976Y-2.6233
X6.8976Y-2.7233
X6.8976Y-2.8233
X6.8976Y-2.9233
X6.8976Y-3.0233
X6.8976Y-3.1233
X6.8976Y-3.2233
X6.8976Y-3.3233
X6.8976Y-3.4233
X6.8976Y-3.5233
X6.8976Y-3.6233
X6.8976Y-3.7233
X7.0507Y-4.7241
X7.0507Y-4.8241
X7.0507Y-4.9241
X7.0507Y-5.0241
X7.1235Y-2.4277
X7.1235Y-2.5277
X7.1235Y-2.6277
X7.1235Y-2.7277
X7.1235Y-3.1363
X7.1235Y-3.2363
X7.1235Y-3.4513
X7.1235Y-3.5513
M30
