%TF.GenerationSoftware,KiCad,Pcbnew,8.0.5*%
%TF.CreationDate,2025-02-17T01:38:54-08:00*%
%TF.ProjectId,eegw:ads1299,65656777-3a61-4647-9331-3239392e6b69,rev?*%
%TF.SameCoordinates,Original*%
%TF.FileFunction,Legend,Bot*%
%TF.FilePolarity,Positive*%
%FSLAX46Y46*%
G04 Gerber Fmt 4.6, Leading zero omitted, Abs format (unit mm)*
G04 Created by KiCad (PCBNEW 8.0.5) date 2025-02-17 01:38:54*
%MOMM*%
%LPD*%
G01*
G04 APERTURE LIST*
%ADD10C,0.000000*%
%ADD11C,0.100000*%
G04 APERTURE END LIST*
D10*
G36*
X174830520Y-99634880D02*
G01*
X174963974Y-99965607D01*
X174830520Y-100296348D01*
X174697067Y-100627075D01*
X174697067Y-99304153D01*
X174830520Y-99634880D01*
G37*
G36*
X178806411Y-109821258D02*
G01*
X178927414Y-110284271D01*
X178806411Y-110747314D01*
X178685394Y-111210327D01*
X178685394Y-109358246D01*
X178806411Y-109821258D01*
G37*
G36*
X167701530Y-144547653D02*
G01*
X167787933Y-146399734D01*
X168340454Y-146862747D01*
X168892975Y-147325775D01*
X168665222Y-147317779D01*
X168665313Y-147317673D01*
X168437561Y-147309677D01*
X167974540Y-147039993D01*
X167511520Y-146770309D01*
X167563324Y-144732941D01*
X167615127Y-142695572D01*
X167701530Y-144547653D01*
G37*
G36*
X172009437Y-106299286D02*
G01*
X172406311Y-106345581D01*
X172869331Y-106889084D01*
X173332351Y-107432571D01*
X173332351Y-109188217D01*
X172916580Y-109604004D01*
X172500808Y-110019775D01*
X172009430Y-110019867D01*
X171518059Y-110019867D01*
X171080131Y-109581940D01*
X170642189Y-109143997D01*
X170387817Y-108474945D01*
X170133445Y-107805893D01*
X170442077Y-107060791D01*
X170750709Y-106315689D01*
X171181633Y-106284286D01*
X171612556Y-106252991D01*
X172009437Y-106299286D01*
G37*
G36*
X169880729Y-91492416D02*
G01*
X170372658Y-91755684D01*
X171740326Y-93280891D01*
X173108009Y-94806099D01*
X173384826Y-95335258D01*
X173661636Y-95864426D01*
X173409866Y-95599846D01*
X173158096Y-95335258D01*
X172145775Y-94067261D01*
X171133453Y-92799263D01*
X170347336Y-92239494D01*
X169561203Y-91679726D01*
X169085205Y-92310776D01*
X168609207Y-92941826D01*
X167899246Y-95196884D01*
X167189277Y-97451935D01*
X166418579Y-99324646D01*
X165647880Y-101197365D01*
X162344200Y-103378883D01*
X159040519Y-105560409D01*
X156002083Y-105820755D01*
X151901031Y-106493881D01*
X147799988Y-107167023D01*
X147572998Y-107378357D01*
X147346000Y-107589691D01*
X147639511Y-108473953D01*
X147933014Y-109358200D01*
X149586296Y-111259415D01*
X151239586Y-113160629D01*
X151982475Y-113738037D01*
X152725364Y-114315445D01*
X154035835Y-114813385D01*
X155346298Y-115311325D01*
X156663543Y-115311325D01*
X156685547Y-115906631D01*
X156707649Y-116501938D01*
X156799949Y-117031113D01*
X156892250Y-117560272D01*
X157022239Y-118089447D01*
X157152229Y-118618622D01*
X157172432Y-118807846D01*
X157192733Y-118997070D01*
X158800338Y-120828033D01*
X160126228Y-121112381D01*
X161452118Y-121396728D01*
X162431274Y-121427429D01*
X163410446Y-121458130D01*
X162954895Y-121577682D01*
X162499351Y-121697235D01*
X162228760Y-122671448D01*
X161958183Y-123645676D01*
X161957184Y-123852035D01*
X161956184Y-124058380D01*
X160126503Y-127820785D01*
X158296829Y-131583176D01*
X157745247Y-133228470D01*
X157193680Y-134873764D01*
X157193680Y-137204178D01*
X158553604Y-141370163D01*
X159104980Y-142297485D01*
X159656357Y-143224823D01*
X160740127Y-144371139D01*
X161823890Y-145517456D01*
X162805542Y-146024795D01*
X163787185Y-146532120D01*
X164602012Y-146532120D01*
X164602012Y-146352127D01*
X163813064Y-144920792D01*
X163024101Y-143489456D01*
X163024101Y-142960281D01*
X163773063Y-144318481D01*
X164522026Y-145676666D01*
X165097099Y-146484283D01*
X165672172Y-147291901D01*
X166393875Y-147401550D01*
X167115577Y-147511215D01*
X166419441Y-147550995D01*
X165724228Y-147590591D01*
X165394851Y-147193726D01*
X165065483Y-146796844D01*
X163789757Y-146796844D01*
X162541786Y-146158249D01*
X161293808Y-145519653D01*
X160328537Y-144504608D01*
X159363258Y-143489563D01*
X158552261Y-141862594D01*
X157741249Y-140235626D01*
X157298050Y-138471237D01*
X156854851Y-136706833D01*
X156252487Y-136312149D01*
X155650139Y-135917480D01*
X155230827Y-134869522D01*
X154811516Y-133821564D01*
X154863418Y-129395142D01*
X154915321Y-124968735D01*
X155061813Y-129778992D01*
X155208313Y-134589249D01*
X155753570Y-135318542D01*
X156298843Y-136047851D01*
X156575500Y-136140045D01*
X156852157Y-136232239D01*
X157003059Y-134966064D01*
X157153946Y-133699905D01*
X158114433Y-131450943D01*
X159074936Y-129201980D01*
X160223396Y-126953018D01*
X161371856Y-124704056D01*
X161678177Y-123563034D01*
X161984489Y-122421997D01*
X162122169Y-122063202D01*
X162259849Y-121704422D01*
X160809601Y-121523239D01*
X159359359Y-121342041D01*
X158553451Y-120851944D01*
X157747543Y-120361832D01*
X157304176Y-119490234D01*
X156860809Y-118618637D01*
X156653808Y-118388443D01*
X155546722Y-119429581D01*
X154439644Y-120470718D01*
X154806572Y-119941543D01*
X155173515Y-119412384D01*
X155903106Y-118750931D01*
X156632690Y-118089477D01*
X156481407Y-116832703D01*
X156330124Y-115575928D01*
X155436653Y-115575928D01*
X154063843Y-115168243D01*
X152691032Y-114760559D01*
X150973961Y-113154312D01*
X149256889Y-111548065D01*
X148315040Y-110265015D01*
X147373192Y-108981949D01*
X147070808Y-107118606D01*
X147435402Y-106989014D01*
X147799980Y-106859405D01*
X150974983Y-106298630D01*
X154149986Y-105737854D01*
X156571434Y-105496948D01*
X158992881Y-105256058D01*
X162166168Y-103122558D01*
X165339454Y-100989082D01*
X166130096Y-99220512D01*
X166920738Y-97451942D01*
X167503837Y-95467575D01*
X168086937Y-93483192D01*
X168737877Y-92356171D01*
X169388809Y-91229149D01*
X169880729Y-91492416D01*
G37*
G36*
X174571396Y-98593147D02*
G01*
X174710373Y-98940407D01*
X174550522Y-99100265D01*
X174550476Y-99100265D01*
X174390625Y-99260116D01*
X174411529Y-98752998D01*
X174432434Y-98245880D01*
X174571396Y-98593147D01*
G37*
G36*
X152780380Y-108828735D02*
G01*
X154299240Y-109224350D01*
X155398727Y-109785263D01*
X156498230Y-110346176D01*
X155853691Y-110703171D01*
X155209152Y-111060181D01*
X155485801Y-111069183D01*
X155762451Y-111078186D01*
X155893051Y-113017090D01*
X156029739Y-113238266D01*
X156166443Y-113459442D01*
X156061798Y-113459427D01*
X155957985Y-113459427D01*
X155781593Y-113283035D01*
X155605201Y-113106659D01*
X155605201Y-111973068D01*
X155216743Y-111459473D01*
X154828285Y-110945877D01*
X154820282Y-110747436D01*
X154812278Y-110549011D01*
X155275299Y-110541016D01*
X155738319Y-110533020D01*
X155209160Y-110132904D01*
X154679992Y-109732788D01*
X153275001Y-109324173D01*
X151870010Y-108915542D01*
X148329986Y-108502731D01*
X149795746Y-108467926D01*
X151261512Y-108433121D01*
X152780380Y-108828735D01*
G37*
G36*
X169804580Y-94232727D02*
G01*
X169980957Y-94409119D01*
X169804580Y-94585510D01*
X169628189Y-94761902D01*
X169628189Y-94056351D01*
X169804580Y-94232727D01*
G37*
G36*
X172783592Y-106688644D02*
G01*
X173093384Y-107061920D01*
X173248451Y-108017548D01*
X173403534Y-108973190D01*
X172930061Y-109496368D01*
X172456588Y-110019546D01*
X171518074Y-110019546D01*
X171143738Y-109645203D01*
X170769401Y-109270859D01*
X170431930Y-108456146D01*
X170094459Y-107641418D01*
X170528892Y-106978393D01*
X170963310Y-106315369D01*
X172473816Y-106315369D01*
X172783592Y-106688644D01*
G37*
G36*
X170028328Y-93746994D02*
G01*
X169859344Y-94275223D01*
X169468483Y-96889252D01*
X169077621Y-99503273D01*
X169256843Y-99668312D01*
X169436050Y-99833351D01*
X169554168Y-99502624D01*
X169672287Y-99171898D01*
X170115310Y-99171898D01*
X170279762Y-99920639D01*
X170444214Y-100669372D01*
X172299499Y-101397339D01*
X172583748Y-101739838D01*
X172867988Y-102082329D01*
X172637169Y-102051460D01*
X172406326Y-102020660D01*
X171284248Y-101456177D01*
X170162170Y-100891693D01*
X170001198Y-100402031D01*
X169840225Y-99912384D01*
X169549003Y-100203590D01*
X169257782Y-100494812D01*
X168834450Y-100494812D01*
X168834450Y-98160110D01*
X169218780Y-96151382D01*
X169603111Y-94142639D01*
X169900222Y-93680710D01*
X170197319Y-93218773D01*
X170028328Y-93746994D01*
G37*
G36*
X174126114Y-119015549D02*
G01*
X173861526Y-119015549D01*
X173861526Y-118750961D01*
X174126114Y-118750961D01*
X174126114Y-119015549D01*
G37*
G36*
X169839271Y-91475410D02*
G01*
X170289650Y-91721588D01*
X171347976Y-92856666D01*
X172406303Y-93991745D01*
X171155441Y-92877602D01*
X169904579Y-91763473D01*
X169406753Y-91763473D01*
X168884742Y-92623375D01*
X168362724Y-93483269D01*
X167664032Y-95798378D01*
X166965332Y-98113480D01*
X166813240Y-98113487D01*
X166661148Y-98113487D01*
X166800491Y-97750366D01*
X166939834Y-97387237D01*
X168087021Y-93483276D01*
X168737961Y-92356254D01*
X169388893Y-91229233D01*
X169839271Y-91475410D01*
G37*
G36*
X174131134Y-129195755D02*
G01*
X173796737Y-129598678D01*
X173596939Y-129598678D01*
X173596939Y-129126129D01*
X174031234Y-128959473D01*
X174465545Y-128792816D01*
X174131134Y-129195755D01*
G37*
G36*
X178540207Y-111822174D02*
G01*
X178679184Y-112169449D01*
X178519333Y-112329300D01*
X178519287Y-112329300D01*
X178359436Y-112489151D01*
X178380340Y-111982040D01*
X178401245Y-111474914D01*
X178540207Y-111822174D01*
G37*
G36*
X178278579Y-133638885D02*
G01*
X178400558Y-134106934D01*
X178268783Y-134432632D01*
X178268402Y-134432632D01*
X178136627Y-134758316D01*
X178156616Y-133170822D01*
X178278579Y-133638885D01*
G37*
G36*
X174037903Y-131803863D02*
G01*
X174214294Y-131980255D01*
X173508728Y-131980255D01*
X173861511Y-131627472D01*
X174037903Y-131803863D01*
G37*
G36*
X175360824Y-102699394D02*
G01*
X175537201Y-102875786D01*
X175360824Y-103052177D01*
X175184433Y-103228569D01*
X175184433Y-102523003D01*
X175360824Y-102699394D01*
G37*
G36*
X169078132Y-99290893D02*
G01*
X169099029Y-100071411D01*
X169416527Y-99753914D01*
X169734024Y-99436417D01*
X170157364Y-99436417D01*
X170157364Y-100053772D01*
X169985084Y-99881492D01*
X169812805Y-99709221D01*
X169477485Y-100167801D01*
X169477455Y-100167793D01*
X169142135Y-100626381D01*
X168962448Y-99910454D01*
X168782760Y-99194527D01*
X168919998Y-98852447D01*
X169057235Y-98510361D01*
X169078132Y-99290893D01*
G37*
G36*
X167872108Y-112141022D02*
G01*
X168100410Y-112354904D01*
X167922638Y-112642548D01*
X167744880Y-112930191D01*
X167099037Y-112930206D01*
X166453193Y-112930206D01*
X166453193Y-112383972D01*
X167048500Y-112155548D01*
X167643806Y-111927139D01*
X167872108Y-112141022D01*
G37*
G36*
X175100601Y-101238876D02*
G01*
X175239563Y-101586143D01*
X175079712Y-101745994D01*
X175079696Y-101745994D01*
X174919830Y-101905846D01*
X174940735Y-101398727D01*
X174961639Y-100891617D01*
X175100601Y-101238876D01*
G37*
G36*
X174787552Y-147582580D02*
G01*
X173596939Y-147565781D01*
X173596939Y-147565689D01*
X172406311Y-147548889D01*
X172670898Y-147459396D01*
X172935478Y-147369903D01*
X174227920Y-147244186D01*
X175520370Y-147118469D01*
X174787552Y-147582580D01*
G37*
G36*
X157986526Y-117692703D02*
G01*
X157589653Y-117949188D01*
X157060486Y-117949188D01*
X157457359Y-117692703D01*
X157854240Y-117436218D01*
X158383407Y-117436218D01*
X157986526Y-117692703D01*
G37*
G36*
X175624252Y-122918320D02*
G01*
X175757705Y-123249054D01*
X175624252Y-123579758D01*
X175490799Y-123910492D01*
X175490799Y-122587585D01*
X175624252Y-122918320D01*
G37*
G36*
X169808815Y-94095207D02*
G01*
X169947777Y-94442474D01*
X169787925Y-94602325D01*
X169787910Y-94602325D01*
X169628059Y-94762176D01*
X169648956Y-94255058D01*
X169669853Y-93747948D01*
X169808815Y-94095207D01*
G37*
G36*
X169804588Y-94233055D02*
G01*
X169980964Y-94409447D01*
X169804588Y-94585838D01*
X169628196Y-94762230D01*
X169628196Y-94056679D01*
X169804588Y-94233055D01*
G37*
G36*
X175103576Y-119880615D02*
G01*
X175225555Y-120348679D01*
X175093780Y-120674362D01*
X175093399Y-120674362D01*
X174961624Y-121000061D01*
X174971618Y-120206314D01*
X174981613Y-119412567D01*
X175103576Y-119880615D01*
G37*
G36*
X175757721Y-123248901D02*
G01*
X175624267Y-123579605D01*
X175490814Y-123910339D01*
X175490814Y-122587433D01*
X175757721Y-123248901D01*
G37*
G36*
X173697723Y-132521988D02*
G01*
X173220894Y-132978699D01*
X172744056Y-133435425D01*
X173094337Y-132852157D01*
X173444610Y-132268875D01*
X173697723Y-132521988D01*
G37*
G36*
X167690246Y-112226898D02*
G01*
X167829086Y-112365738D01*
X167654686Y-112647934D01*
X167480285Y-112930130D01*
X166749000Y-112930130D01*
X166597252Y-112684585D01*
X166445503Y-112439056D01*
X166998451Y-112263550D01*
X167551399Y-112088043D01*
X167690246Y-112226898D01*
G37*
G36*
X152363456Y-108836471D02*
G01*
X153487198Y-108967224D01*
X155009300Y-109643616D01*
X156531387Y-110320023D01*
X155954414Y-110632797D01*
X155377434Y-110945587D01*
X155904731Y-111886841D01*
X155791015Y-112474548D01*
X155677345Y-113062256D01*
X155641342Y-112421631D01*
X155605339Y-111781006D01*
X155172447Y-111302673D01*
X154739555Y-110824341D01*
X155172447Y-110658234D01*
X155605339Y-110492111D01*
X155605339Y-110091446D01*
X154480858Y-109665268D01*
X153356376Y-109239090D01*
X152298050Y-108972397D01*
X151239723Y-108705704D01*
X152363456Y-108836471D01*
G37*
G36*
X153224037Y-118221634D02*
G01*
X152959449Y-118221634D01*
X152959449Y-117957046D01*
X153224037Y-117957046D01*
X153224037Y-118221634D01*
G37*
G36*
X174344772Y-128787231D02*
G01*
X174615219Y-129563034D01*
X174106079Y-129524750D01*
X173596939Y-129486343D01*
X173596939Y-129069778D01*
X174161758Y-129069778D01*
X173993805Y-128540604D01*
X173825851Y-128011444D01*
X174074325Y-128011444D01*
X174344772Y-128787231D01*
G37*
G36*
X170623459Y-147409164D02*
G01*
X171083397Y-147529571D01*
X170025055Y-147524567D01*
X170025062Y-147523895D01*
X168966736Y-147518890D01*
X169565132Y-147403824D01*
X170163521Y-147288757D01*
X170623459Y-147409164D01*
G37*
G36*
X169539993Y-95291069D02*
G01*
X169716385Y-95467461D01*
X169539993Y-95643852D01*
X169363601Y-95820229D01*
X169363601Y-95114677D01*
X169539993Y-95291069D01*
G37*
G36*
X161919479Y-110837952D02*
G01*
X162616600Y-111227768D01*
X162857292Y-112193222D01*
X163097984Y-113158691D01*
X162652755Y-113838196D01*
X162207535Y-114517700D01*
X161434883Y-114517715D01*
X160662231Y-114517715D01*
X160250351Y-113929672D01*
X159838470Y-113341629D01*
X159838470Y-111354904D01*
X160530418Y-110901520D01*
X161222366Y-110448135D01*
X161919479Y-110837952D01*
G37*
G36*
X154727684Y-124257660D02*
G01*
X154866646Y-124604935D01*
X154706794Y-124764786D01*
X154706779Y-124764786D01*
X154546928Y-124924637D01*
X154567825Y-124417511D01*
X154588722Y-123910385D01*
X154727684Y-124257660D01*
G37*
G36*
X153025573Y-121363113D02*
G01*
X153488594Y-121726242D01*
X153488594Y-121926041D01*
X153388702Y-121926025D01*
X153288803Y-121926025D01*
X152925682Y-121463013D01*
X152562553Y-121000000D01*
X153025573Y-121363113D01*
G37*
G36*
X151023529Y-132724335D02*
G01*
X151162498Y-133071594D01*
X151002640Y-133231460D01*
X151002624Y-133231460D01*
X150842773Y-133391312D01*
X150863670Y-132884186D01*
X150884567Y-132377060D01*
X151023529Y-132724335D01*
G37*
G36*
X166178032Y-99840195D02*
G01*
X166188629Y-100112045D01*
X165781440Y-100693405D01*
X165374237Y-101274757D01*
X162199325Y-103396995D01*
X159024406Y-105519256D01*
X157513282Y-105662140D01*
X156002189Y-105805023D01*
X151702713Y-106514145D01*
X147403236Y-107223251D01*
X147403236Y-107919723D01*
X147761719Y-108777710D01*
X148120208Y-109635696D01*
X151428146Y-113469589D01*
X152597557Y-114154907D01*
X153766967Y-114840225D01*
X155016868Y-115184280D01*
X156266777Y-115528335D01*
X155737610Y-115535339D01*
X155737571Y-115535995D01*
X155208412Y-115542999D01*
X153885490Y-115114944D01*
X152562568Y-114686905D01*
X150402885Y-112520233D01*
X148243194Y-110353561D01*
X147690902Y-109270965D01*
X147138603Y-108188385D01*
X147138603Y-107092377D01*
X147469330Y-106975754D01*
X147800056Y-106859146D01*
X150975059Y-106306610D01*
X154150062Y-105754074D01*
X156570503Y-105514831D01*
X158990936Y-105275604D01*
X162198944Y-103121887D01*
X165406967Y-100968185D01*
X165787201Y-100268265D01*
X166167434Y-99568336D01*
X166178032Y-99840195D01*
G37*
G36*
X178678405Y-136213150D02*
G01*
X178895447Y-137668365D01*
X178752640Y-139785034D01*
X178609817Y-141901688D01*
X178448913Y-143329025D01*
X178288009Y-144756363D01*
X177331085Y-145816864D01*
X176374160Y-146877380D01*
X174671371Y-147590240D01*
X173538391Y-147552948D01*
X173539291Y-147552994D01*
X172406311Y-147515701D01*
X175052154Y-147189346D01*
X176902435Y-146106399D01*
X177481277Y-145247452D01*
X178060119Y-144388519D01*
X178455353Y-141372528D01*
X178458359Y-138065231D01*
X178461364Y-134757934D01*
X178678405Y-136213150D01*
G37*
G36*
X173693954Y-132518265D02*
G01*
X173365188Y-132844559D01*
X173036415Y-133170883D01*
X173217064Y-132696457D01*
X173397720Y-132222031D01*
X173693954Y-132518265D01*
G37*
G36*
X153224029Y-118221802D02*
G01*
X152959442Y-118221802D01*
X152959442Y-117957214D01*
X153224029Y-117957214D01*
X153224029Y-118221802D01*
G37*
G36*
X175449020Y-103140602D02*
G01*
X175184433Y-103140602D01*
X175184433Y-102876015D01*
X175449020Y-102876015D01*
X175449020Y-103140602D01*
G37*
G36*
X150100952Y-119894058D02*
G01*
X150445884Y-120032242D01*
X149621666Y-120053146D01*
X148797455Y-120074051D01*
X148120628Y-120606445D01*
X147443809Y-121138840D01*
X147268272Y-121938065D01*
X147092735Y-122737289D01*
X148030243Y-123775009D01*
X148967766Y-124812729D01*
X149499069Y-125854172D01*
X150030380Y-126895615D01*
X150463028Y-129239517D01*
X150895691Y-131583420D01*
X151400894Y-133694199D01*
X151906105Y-135804962D01*
X152646522Y-136719788D01*
X153386940Y-137634598D01*
X154077400Y-138150101D01*
X154767853Y-138665604D01*
X156046463Y-139009262D01*
X157325065Y-139352920D01*
X156649414Y-139370819D01*
X156649414Y-139370727D01*
X155973755Y-139388626D01*
X154591491Y-138699814D01*
X153209221Y-138011001D01*
X152563354Y-137164215D01*
X151917488Y-136317428D01*
X151520790Y-135368011D01*
X151124099Y-134418594D01*
X150584511Y-131413498D01*
X150044922Y-128408401D01*
X149642929Y-127020096D01*
X149240936Y-125631790D01*
X148057480Y-124299286D01*
X146874031Y-122966782D01*
X146875007Y-122380295D01*
X146875984Y-121793808D01*
X147391540Y-120948273D01*
X147907089Y-120102737D01*
X148831558Y-119929306D01*
X149756019Y-119755875D01*
X150100952Y-119894058D01*
G37*
G36*
X155517090Y-138947571D02*
G01*
X155693481Y-139123962D01*
X154987915Y-139123962D01*
X155164306Y-138947571D01*
X155340698Y-138771179D01*
X155517090Y-138947571D01*
G37*
G36*
X174126114Y-97055283D02*
G01*
X173861526Y-97055283D01*
X173861526Y-96790687D01*
X174126114Y-96790687D01*
X174126114Y-97055283D01*
G37*
G36*
X169538841Y-95137047D02*
G01*
X169672302Y-95467773D01*
X169538841Y-95798515D01*
X169405388Y-96129242D01*
X169405388Y-94806320D01*
X169538841Y-95137047D01*
G37*
G36*
X174831665Y-99789299D02*
G01*
X175008056Y-99965691D01*
X174831665Y-100142082D01*
X174655273Y-100318474D01*
X174655273Y-99612923D01*
X174831665Y-99789299D01*
G37*
G36*
X166709655Y-98774940D02*
G01*
X166453178Y-99171814D01*
X166196701Y-99568695D01*
X166196701Y-99039528D01*
X166453178Y-98642654D01*
X166709655Y-98245773D01*
X166709655Y-98774940D01*
G37*
G36*
X175100601Y-101238686D02*
G01*
X175239563Y-101585953D01*
X175079712Y-101745804D01*
X175079696Y-101745804D01*
X174919830Y-101905655D01*
X174940735Y-101398537D01*
X174961639Y-100891426D01*
X175100601Y-101238686D01*
G37*
G36*
X177565567Y-109226059D02*
G01*
X177300979Y-109226059D01*
X177300979Y-108961471D01*
X177565567Y-108961471D01*
X177565567Y-109226059D01*
G37*
G36*
X175801803Y-103669533D02*
G01*
X175625412Y-103845932D01*
X175449020Y-104022324D01*
X175449020Y-103316749D01*
X175801803Y-103669533D01*
G37*
G36*
X176779831Y-116090393D02*
G01*
X176504516Y-116604828D01*
X176213913Y-116784439D01*
X175923309Y-116964035D01*
X176378052Y-116269989D01*
X176832794Y-115575958D01*
X177055145Y-115575958D01*
X176779831Y-116090393D01*
G37*
G36*
X157061111Y-118354172D02*
G01*
X157435318Y-119412506D01*
X158368515Y-120272400D01*
X159301712Y-121132294D01*
X159069000Y-121132294D01*
X159068947Y-121132278D01*
X158836227Y-121132278D01*
X158014496Y-120364670D01*
X157192764Y-119597061D01*
X157188766Y-119372482D01*
X157184768Y-119147903D01*
X156935775Y-118754089D01*
X156686783Y-118360275D01*
X155707420Y-119283264D01*
X154728050Y-120206238D01*
X155142463Y-119586685D01*
X155556862Y-118967117D01*
X156110283Y-118579483D01*
X156663696Y-118191864D01*
X156675293Y-117743851D01*
X156686889Y-117295837D01*
X157061111Y-118354172D01*
G37*
G36*
X178541824Y-135485931D02*
G01*
X178662826Y-135948944D01*
X178541824Y-136411987D01*
X178420822Y-136875000D01*
X178420822Y-135022903D01*
X178541824Y-135485931D01*
G37*
G36*
X174037903Y-131803818D02*
G01*
X174214294Y-131980209D01*
X173508728Y-131980209D01*
X173861511Y-131627426D01*
X174037903Y-131803818D01*
G37*
G36*
X170157364Y-93615700D02*
G01*
X169892776Y-93615700D01*
X169892776Y-93351112D01*
X170157364Y-93351112D01*
X170157364Y-93615700D01*
G37*
G36*
X173773330Y-127305954D02*
G01*
X173949707Y-127482345D01*
X173773330Y-127658737D01*
X173596939Y-127835129D01*
X173596939Y-127129562D01*
X173773330Y-127305954D01*
G37*
G36*
X172538597Y-101817695D02*
G01*
X172274009Y-101817695D01*
X172274009Y-101553101D01*
X172538597Y-101553101D01*
X172538597Y-101817695D01*
G37*
G36*
X174237945Y-128540649D02*
G01*
X174636474Y-129202103D01*
X174645477Y-129428848D01*
X174654480Y-129655594D01*
X173894928Y-129364120D01*
X173766433Y-129679993D01*
X173767212Y-129679993D01*
X173638717Y-129995850D01*
X173617813Y-129384918D01*
X173596908Y-128774002D01*
X173889831Y-128955048D01*
X174182754Y-129136093D01*
X174011078Y-128507645D01*
X173839401Y-127879196D01*
X174237945Y-128540649D01*
G37*
G36*
X169281288Y-96592209D02*
G01*
X169402290Y-97055229D01*
X169281288Y-97518249D01*
X169160278Y-97981270D01*
X169160278Y-96129188D01*
X169281288Y-96592209D01*
G37*
G36*
X167704353Y-143693924D02*
G01*
X167808487Y-144692016D01*
X167702217Y-145546005D01*
X167702484Y-145546005D01*
X167596214Y-146400009D01*
X167598213Y-144547913D01*
X167600212Y-142695831D01*
X167704353Y-143693924D01*
G37*
G36*
X152461418Y-120936462D02*
G01*
X153592018Y-121798798D01*
X154229210Y-123036972D01*
X154866401Y-124275162D01*
X154751449Y-124619995D01*
X154751434Y-124619903D01*
X154636497Y-124964737D01*
X154441841Y-124189163D01*
X154247184Y-123413574D01*
X153692978Y-122603699D01*
X153138756Y-121793808D01*
X152586082Y-121314072D01*
X152033409Y-120834335D01*
X151239662Y-120464523D01*
X150445915Y-120094726D01*
X151330818Y-120074127D01*
X152461418Y-120936462D01*
G37*
G36*
X155561851Y-110747314D02*
G01*
X155518448Y-110945755D01*
X155719970Y-111662002D01*
X155921501Y-112378250D01*
X155784279Y-112720337D01*
X155647049Y-113062424D01*
X155626152Y-112353714D01*
X155605255Y-111645019D01*
X155220978Y-111260742D01*
X154836708Y-110876465D01*
X155000496Y-110712677D01*
X155164283Y-110548889D01*
X155605255Y-110548889D01*
X155561851Y-110747314D01*
G37*
G36*
X175368042Y-121468048D02*
G01*
X175490005Y-121936111D01*
X175358230Y-122261795D01*
X175357864Y-122261795D01*
X175226089Y-122587494D01*
X175246078Y-121000000D01*
X175368042Y-121468048D01*
G37*
G36*
X173513031Y-126374374D02*
G01*
X173651993Y-126721634D01*
X173492141Y-126881500D01*
X173492096Y-126881500D01*
X173332245Y-127041351D01*
X173353149Y-126534225D01*
X173374054Y-126027099D01*
X173513031Y-126374374D01*
G37*
G36*
X177565689Y-109226120D02*
G01*
X177301101Y-109226120D01*
X177301101Y-108961533D01*
X177565689Y-108961533D01*
X177565689Y-109226120D01*
G37*
G36*
X175095077Y-100957870D02*
G01*
X175228531Y-101288597D01*
X175095077Y-101619339D01*
X174961624Y-101950065D01*
X174961624Y-100627144D01*
X175095077Y-100957870D01*
G37*
G36*
X170620361Y-100741188D02*
G01*
X171083389Y-101006226D01*
X171480262Y-101275612D01*
X171877144Y-101544998D01*
X171612549Y-101516533D01*
X171347969Y-101488136D01*
X170752662Y-101193298D01*
X170157341Y-100898468D01*
X170157341Y-100476158D01*
X170620361Y-100741188D01*
G37*
G36*
X163100364Y-143114777D02*
G01*
X163186165Y-143225021D01*
X164028656Y-144746368D01*
X164871155Y-146267731D01*
X164741943Y-146267731D01*
X164741012Y-146267715D01*
X164611808Y-146267715D01*
X163815185Y-144878647D01*
X163018562Y-143489593D01*
X163016563Y-143247070D01*
X163014564Y-143004532D01*
X163100364Y-143114777D01*
G37*
G36*
X173773330Y-96084816D02*
G01*
X173949707Y-96261207D01*
X173773330Y-96437599D01*
X173596939Y-96613975D01*
X173596939Y-95908424D01*
X173773330Y-96084816D01*
G37*
G36*
X154282356Y-109382858D02*
G01*
X154943817Y-109557587D01*
X155671425Y-109927734D01*
X156399025Y-110297882D01*
X156399025Y-110548889D01*
X156200584Y-110512970D01*
X156002151Y-110477066D01*
X154811523Y-109842590D01*
X153620903Y-109208130D01*
X154282356Y-109382858D01*
G37*
G36*
X154214264Y-122637482D02*
G01*
X154864288Y-124607056D01*
X154705620Y-124765716D01*
X154546959Y-124924377D01*
X154546959Y-124209503D01*
X153982681Y-123043854D01*
X153418403Y-121878219D01*
X151292564Y-120338272D01*
X151915054Y-120338272D01*
X154214264Y-122637482D01*
G37*
G36*
X177036545Y-109490631D02*
G01*
X176771957Y-109490631D01*
X176771957Y-109226044D01*
X177036545Y-109226044D01*
X177036545Y-109490631D01*
G37*
G36*
X167511520Y-147326050D02*
G01*
X167246933Y-147326050D01*
X167246933Y-147061462D01*
X167511520Y-147061462D01*
X167511520Y-147326050D01*
G37*
G36*
X155472992Y-117265610D02*
G01*
X154679245Y-117627045D01*
X153356323Y-117951599D01*
X154150070Y-117590164D01*
X154943817Y-117228729D01*
X155605278Y-117066452D01*
X156266739Y-116904175D01*
X155472992Y-117265610D01*
G37*
G36*
X173773224Y-127305923D02*
G01*
X173949600Y-127482315D01*
X173773224Y-127658707D01*
X173773208Y-127658707D01*
X173596832Y-127835098D01*
X173596832Y-127129532D01*
X173773224Y-127305923D01*
G37*
G36*
X169028648Y-98998650D02*
G01*
X169133941Y-100016029D01*
X169610679Y-99584579D01*
X170087433Y-99153137D01*
X170248054Y-99956261D01*
X170408684Y-100759392D01*
X171215660Y-100759392D01*
X171215660Y-101288559D01*
X172209205Y-101288559D01*
X172538574Y-101685440D01*
X172867950Y-102082313D01*
X172769447Y-102063515D01*
X172769317Y-102063515D01*
X172670814Y-102044716D01*
X171427734Y-101474632D01*
X170184662Y-100904541D01*
X170017959Y-100240394D01*
X169851272Y-99576248D01*
X169591133Y-100041092D01*
X169330993Y-100505943D01*
X169082672Y-100352470D01*
X168834350Y-100198997D01*
X168878853Y-99090126D01*
X168923355Y-97981270D01*
X169028648Y-98998650D01*
G37*
G36*
X172634796Y-94387566D02*
G01*
X173096687Y-94762688D01*
X173356140Y-95247467D01*
X173615585Y-95732246D01*
X173523697Y-95732254D01*
X173431900Y-95732254D01*
X172802398Y-94872353D01*
X172172897Y-94012459D01*
X172634796Y-94387566D01*
G37*
G36*
X178551803Y-140650131D02*
G01*
X178658859Y-141514770D01*
X178549103Y-142237625D01*
X178548492Y-142237625D01*
X178438720Y-142960495D01*
X178441726Y-141373001D01*
X178444732Y-139785507D01*
X178551803Y-140650131D01*
G37*
G36*
X178810486Y-109956497D02*
G01*
X178925552Y-110554901D01*
X178805145Y-111014831D01*
X178805816Y-111014816D01*
X178685409Y-111474762D01*
X178695419Y-109358093D01*
X178810486Y-109956497D01*
G37*
G36*
X156721756Y-116116791D02*
G01*
X156839966Y-116922195D01*
X156619499Y-117058441D01*
X156399032Y-117194702D01*
X156399032Y-115311386D01*
X156603546Y-115311386D01*
X156721756Y-116116791D01*
G37*
G36*
X175102615Y-119677078D02*
G01*
X175205230Y-120470825D01*
X176212036Y-125497894D01*
X177031555Y-128142502D01*
X177851089Y-130787109D01*
X178648086Y-135287475D01*
X178797134Y-137404129D01*
X178946182Y-139520798D01*
X178668426Y-141951980D01*
X178390670Y-144383163D01*
X177964035Y-145208206D01*
X177537384Y-146033249D01*
X176309555Y-146811905D01*
X175081726Y-147590576D01*
X173612167Y-147555878D01*
X173611282Y-147555939D01*
X172141731Y-147521240D01*
X173603470Y-147332565D01*
X175065216Y-147143890D01*
X175587845Y-146859817D01*
X176110473Y-146575745D01*
X176976562Y-145675140D01*
X177842651Y-144774536D01*
X178099518Y-143206024D01*
X178356369Y-141637512D01*
X178358368Y-138890961D01*
X178360367Y-136144394D01*
X177936401Y-133477661D01*
X177512436Y-130810928D01*
X176740982Y-128304733D01*
X175969528Y-125798538D01*
X175445160Y-123225403D01*
X174920807Y-120652283D01*
X174960403Y-119767807D01*
X175000000Y-118883331D01*
X175102615Y-119677078D01*
G37*
G36*
X170162758Y-93268257D02*
G01*
X169781616Y-95227875D01*
X169400474Y-97187492D01*
X169281563Y-98450241D01*
X169162651Y-99712997D01*
X169547874Y-99393295D01*
X169933082Y-99073593D01*
X170173454Y-99453453D01*
X170413810Y-99833313D01*
X170417808Y-100246956D01*
X170421806Y-100660599D01*
X171360588Y-101028938D01*
X172299354Y-101397285D01*
X172588905Y-101746178D01*
X172878463Y-102095070D01*
X172774612Y-102190369D01*
X172774742Y-102190330D01*
X172670898Y-102285629D01*
X171744850Y-101670051D01*
X170818809Y-101054481D01*
X170528511Y-101039184D01*
X170238220Y-101023987D01*
X169951111Y-100428665D01*
X169664001Y-99833359D01*
X169646103Y-100164085D01*
X169628204Y-100494812D01*
X168758835Y-100494812D01*
X168900253Y-98431579D01*
X169041672Y-96368339D01*
X169504112Y-94720199D01*
X169966560Y-93072060D01*
X170162758Y-93268257D01*
G37*
G36*
X175978195Y-104463623D02*
G01*
X175713608Y-104463623D01*
X175713608Y-104199036D01*
X175978195Y-104199036D01*
X175978195Y-104463623D01*
G37*
G36*
X167511528Y-147325668D02*
G01*
X167246940Y-147325668D01*
X167246940Y-147061081D01*
X167511528Y-147061081D01*
X167511528Y-147325668D01*
G37*
G36*
X147824501Y-120886688D02*
G01*
X147138618Y-121701813D01*
X147138618Y-122940933D01*
X148179046Y-124023819D01*
X149219475Y-125106705D01*
X149730766Y-126492813D01*
X150242042Y-127878906D01*
X150896980Y-131420471D01*
X150794059Y-131729202D01*
X150691139Y-132037979D01*
X150342743Y-129958435D01*
X149994331Y-127878891D01*
X149512130Y-126606842D01*
X149029930Y-125334808D01*
X147951980Y-124165375D01*
X146874031Y-122995941D01*
X146874031Y-121899506D01*
X147648216Y-120402405D01*
X148079300Y-120236984D01*
X148510368Y-120071579D01*
X147824501Y-120886688D01*
G37*
G36*
X151999298Y-108695145D02*
G01*
X153569977Y-109004166D01*
X155050689Y-109662262D01*
X156531402Y-110320358D01*
X155954429Y-110633133D01*
X155377449Y-110945923D01*
X155640617Y-111415695D01*
X155903785Y-111885467D01*
X155794121Y-112606293D01*
X155684547Y-113327148D01*
X155644951Y-112658417D01*
X155605354Y-111989685D01*
X155192077Y-111399628D01*
X154778785Y-110809585D01*
X155192077Y-110650986D01*
X155605354Y-110492401D01*
X155604362Y-110322266D01*
X155603370Y-110152130D01*
X153356392Y-109244263D01*
X152165771Y-108977066D01*
X150975143Y-108709869D01*
X149916816Y-108663772D01*
X148858490Y-108617676D01*
X149643547Y-108501907D01*
X150428619Y-108386139D01*
X151999298Y-108695145D01*
G37*
G36*
X174086425Y-130988022D02*
G01*
X174126022Y-131980209D01*
X173596847Y-131980209D01*
X173596847Y-132709167D01*
X173174461Y-133059814D01*
X172751960Y-133410461D01*
X173286461Y-132458816D01*
X173820968Y-131507187D01*
X173933899Y-130751510D01*
X174046829Y-129995834D01*
X174086425Y-130988022D01*
G37*
G36*
X176342010Y-125927582D02*
G01*
X176511047Y-126772781D01*
X176402099Y-126881729D01*
X176293152Y-126990677D01*
X176110504Y-126159088D01*
X175927856Y-125327515D01*
X176050415Y-125204941D01*
X176172973Y-125082397D01*
X176342010Y-125927582D01*
G37*
G36*
X169069343Y-99171623D02*
G01*
X169234665Y-100097671D01*
X169447006Y-99766945D01*
X169659355Y-99436218D01*
X170157287Y-99436218D01*
X170157287Y-100053573D01*
X169985016Y-99881294D01*
X169812736Y-99709022D01*
X169514778Y-100116562D01*
X169216781Y-100524109D01*
X169025604Y-100332939D01*
X168834434Y-100141762D01*
X168904030Y-98245582D01*
X169069343Y-99171623D01*
G37*
G36*
X174256515Y-129072800D02*
G01*
X174094879Y-129334350D01*
X173596939Y-129334350D01*
X173596939Y-129126404D01*
X174007553Y-128968826D01*
X174418167Y-128811249D01*
X174256515Y-129072800D01*
G37*
G36*
X148177818Y-120404037D02*
G01*
X147761741Y-120735413D01*
X147458160Y-121264572D01*
X147154693Y-121793747D01*
X147146690Y-121577911D01*
X147138687Y-121362076D01*
X147395927Y-120881424D01*
X147653160Y-120400787D01*
X148593895Y-120072662D01*
X148177818Y-120404037D01*
G37*
G36*
X178089752Y-132349686D02*
G01*
X178413635Y-134066223D01*
X178312286Y-134370315D01*
X178210922Y-134674393D01*
X177882568Y-132759598D01*
X177554214Y-130844803D01*
X177660049Y-130738983D01*
X177765869Y-130633148D01*
X178089752Y-132349686D01*
G37*
G36*
X170373932Y-100426170D02*
G01*
X170582519Y-100754608D01*
X171626648Y-101275520D01*
X172670776Y-101796432D01*
X172406189Y-101793434D01*
X172406303Y-101793304D01*
X172141723Y-101790306D01*
X171149536Y-101344795D01*
X170157348Y-100899277D01*
X170161346Y-100498497D01*
X170165344Y-100097717D01*
X170373932Y-100426170D01*
G37*
G36*
X150229767Y-128226395D02*
G01*
X150368736Y-128573669D01*
X150208877Y-128733520D01*
X150208862Y-128733520D01*
X150049011Y-128893371D01*
X150090805Y-127879120D01*
X150229767Y-128226395D01*
G37*
G36*
X174827621Y-118486389D02*
G01*
X174563034Y-118486389D01*
X175805862Y-117163483D01*
X176070450Y-117163483D01*
X174827621Y-118486389D01*
G37*
G36*
X174616012Y-129202087D02*
G01*
X174635620Y-129428833D01*
X174655227Y-129655578D01*
X174275451Y-129509842D01*
X173895675Y-129364105D01*
X173767181Y-129679977D01*
X173767227Y-129679977D01*
X173638733Y-129995834D01*
X173617828Y-129384903D01*
X173596924Y-128773987D01*
X173906479Y-128965301D01*
X174216018Y-129156616D01*
X173801468Y-128143768D01*
X173587112Y-127085419D01*
X174616012Y-129202087D01*
G37*
G36*
X157721885Y-116634415D02*
G01*
X157457290Y-116634415D01*
X157457290Y-116369827D01*
X157721885Y-116369827D01*
X157721885Y-116634415D01*
G37*
G36*
X177481872Y-129813904D02*
G01*
X177620834Y-130161178D01*
X177460983Y-130321030D01*
X177460968Y-130321030D01*
X177301101Y-130480881D01*
X177342911Y-129466629D01*
X177481872Y-129813904D01*
G37*
G36*
X175978195Y-104463287D02*
G01*
X175713608Y-104463287D01*
X175713608Y-104198700D01*
X175978195Y-104198700D01*
X175978195Y-104463287D01*
G37*
G36*
X174126114Y-119015381D02*
G01*
X173861526Y-119015381D01*
X173861526Y-118750793D01*
X174126114Y-118750793D01*
X174126114Y-119015381D01*
G37*
G36*
X169274238Y-96724419D02*
G01*
X169407692Y-97055145D01*
X169274238Y-97385887D01*
X169140785Y-97716614D01*
X169140785Y-96393692D01*
X169274238Y-96724419D01*
G37*
G36*
X151239654Y-108635589D02*
G01*
X150181320Y-108629913D01*
X149122993Y-108624908D01*
X149721390Y-108509842D01*
X150319778Y-108394775D01*
X151239654Y-108635589D01*
G37*
G36*
X167690269Y-112226730D02*
G01*
X167829109Y-112365570D01*
X167654709Y-112647766D01*
X167480308Y-112929962D01*
X166749023Y-112929962D01*
X166597275Y-112684418D01*
X166445526Y-112438888D01*
X166998474Y-112263382D01*
X167551422Y-112087875D01*
X167690269Y-112226730D01*
G37*
G36*
X162465255Y-111246094D02*
G01*
X163013626Y-111943237D01*
X163013626Y-113341629D01*
X162601753Y-113929672D01*
X162189872Y-114517715D01*
X160662384Y-114517715D01*
X160250503Y-113929672D01*
X159838623Y-113341629D01*
X159838623Y-111372696D01*
X160426666Y-110960815D01*
X161014709Y-110548950D01*
X161916885Y-110548950D01*
X162465255Y-111246094D01*
G37*
G36*
X176948318Y-128099625D02*
G01*
X177124695Y-128276016D01*
X176948318Y-128452408D01*
X176771927Y-128628799D01*
X176771927Y-127923233D01*
X176948318Y-128099625D01*
G37*
G36*
X153416946Y-109066101D02*
G01*
X153576797Y-109225952D01*
X153069679Y-109205078D01*
X152562561Y-109184173D01*
X152909828Y-109045212D01*
X153257087Y-108906250D01*
X153416946Y-109066101D01*
G37*
G36*
X176154571Y-125453796D02*
G01*
X176330948Y-125630188D01*
X176154571Y-125806579D01*
X175978180Y-125982956D01*
X175978180Y-125277405D01*
X176154571Y-125453796D01*
G37*
G36*
X168040695Y-146818130D02*
G01*
X168702156Y-147133133D01*
X168812393Y-147229629D01*
X168922630Y-147326126D01*
X168664520Y-147326050D01*
X168406410Y-147326050D01*
X167892822Y-146914581D01*
X167379234Y-146503113D01*
X168040695Y-146818130D01*
G37*
G36*
X174360244Y-128831787D02*
G01*
X174646209Y-129652115D01*
X174270920Y-129508102D01*
X173895645Y-129364090D01*
X173767196Y-129679962D01*
X173638702Y-129995819D01*
X173596893Y-129069794D01*
X174161712Y-129069794D01*
X173993759Y-128540619D01*
X173825805Y-128011459D01*
X174074280Y-128011459D01*
X174360244Y-128831787D01*
G37*
G36*
X178228103Y-143998108D02*
G01*
X178113357Y-145035812D01*
X177124374Y-146048630D01*
X176135391Y-147061447D01*
X175864212Y-147061462D01*
X175593048Y-147061462D01*
X176542755Y-146278625D01*
X177492462Y-145495804D01*
X177778824Y-144757278D01*
X178065201Y-144018753D01*
X178204025Y-143489578D01*
X178342849Y-142960403D01*
X178228103Y-143998108D01*
G37*
G36*
X175713608Y-103934357D02*
G01*
X175449020Y-103934357D01*
X175449020Y-103669762D01*
X175713608Y-103669762D01*
X175713608Y-103934357D01*
G37*
G36*
X170493553Y-91867935D02*
G01*
X171441475Y-92590942D01*
X172479233Y-93963333D01*
X173516983Y-95335724D01*
X173981979Y-96526352D01*
X174446960Y-97716980D01*
X175074630Y-100726929D01*
X175702316Y-103736885D01*
X176380493Y-104894119D01*
X177058670Y-106051346D01*
X177500717Y-106051346D01*
X177844574Y-105637024D01*
X178188430Y-105222702D01*
X179001465Y-104828735D01*
X179814483Y-104434769D01*
X178649429Y-105464294D01*
X177484390Y-106493820D01*
X177987976Y-107348526D01*
X178491562Y-108203232D01*
X179153015Y-108048065D01*
X179814468Y-107892898D01*
X181931137Y-107643661D01*
X180343643Y-108160278D01*
X178756149Y-108676895D01*
X178846542Y-109991074D01*
X178936935Y-111305252D01*
X178508087Y-112780441D01*
X178079239Y-114255630D01*
X176631744Y-116381424D01*
X175184250Y-118507202D01*
X175188247Y-119489166D01*
X175192245Y-120471130D01*
X175700821Y-122852386D01*
X176209411Y-125233642D01*
X177032760Y-127879471D01*
X177856094Y-130525314D01*
X178372101Y-133528168D01*
X178888107Y-136531021D01*
X178872116Y-140844070D01*
X178615967Y-142828445D01*
X178359802Y-144812820D01*
X177871597Y-145474274D01*
X177383377Y-146135727D01*
X176305374Y-146898331D01*
X175227356Y-147660934D01*
X173684479Y-147603439D01*
X172141586Y-147545944D01*
X170818664Y-147604355D01*
X169819435Y-147603348D01*
X168820213Y-147602341D01*
X168293472Y-147320434D01*
X167766739Y-147038528D01*
X167183311Y-147447174D01*
X166599884Y-147855820D01*
X166312454Y-147855820D01*
X166312591Y-147855225D01*
X166025161Y-147855225D01*
X165511574Y-147466766D01*
X164997986Y-147078308D01*
X164577224Y-147070312D01*
X164156463Y-147062317D01*
X162536773Y-146252945D01*
X160917083Y-145443588D01*
X159879226Y-144140076D01*
X158841369Y-142836578D01*
X158090492Y-141112991D01*
X157339615Y-139389404D01*
X156538597Y-139383408D01*
X155737579Y-139377411D01*
X154676979Y-138895584D01*
X153616379Y-138413757D01*
X152758186Y-137436340D01*
X151899986Y-136458908D01*
X151480797Y-135476562D01*
X151061607Y-134494247D01*
X150406028Y-130922363D01*
X149750450Y-127350494D01*
X149271957Y-126268509D01*
X148793464Y-125186523D01*
X147833755Y-124226807D01*
X146874038Y-123267090D01*
X146874038Y-123149979D01*
X147403152Y-123149979D01*
X148220520Y-123927093D01*
X149037887Y-124704193D01*
X149435478Y-125465713D01*
X149833061Y-126227234D01*
X150183021Y-127450088D01*
X150532974Y-128672943D01*
X150835457Y-130657318D01*
X151137924Y-132641693D01*
X152193603Y-136255463D01*
X153350647Y-137412506D01*
X154507690Y-138569549D01*
X155387192Y-138822922D01*
X156266701Y-139076279D01*
X156752983Y-139100174D01*
X156753013Y-139100098D01*
X157239280Y-139123993D01*
X157059532Y-137999512D01*
X156879768Y-136875030D01*
X156235107Y-136384537D01*
X155590454Y-135894058D01*
X155142883Y-135061630D01*
X154695320Y-134229187D01*
X154753021Y-129996094D01*
X154810722Y-125762985D01*
X154389549Y-124314194D01*
X153968368Y-122865402D01*
X152864036Y-121761063D01*
X151759697Y-120656723D01*
X150649673Y-120357834D01*
X149539650Y-120058929D01*
X148862106Y-120228973D01*
X148184555Y-120399032D01*
X147793853Y-120956833D01*
X147403152Y-121514648D01*
X147403152Y-123149979D01*
X146874038Y-123149979D01*
X146874038Y-121514648D01*
X146874038Y-121356659D01*
X147647438Y-120583252D01*
X148420837Y-119809845D01*
X150599289Y-119809845D01*
X151580940Y-120314789D01*
X152562584Y-120819717D01*
X153276001Y-121571564D01*
X153989418Y-122323395D01*
X155181556Y-124969238D01*
X155124359Y-129157745D01*
X155067161Y-133346252D01*
X155335090Y-134341247D01*
X155603012Y-135336243D01*
X156611206Y-136248657D01*
X156801994Y-135106872D01*
X156992775Y-133965073D01*
X157506012Y-132642166D01*
X158019241Y-131319244D01*
X159841018Y-127482788D01*
X161662811Y-123646332D01*
X161831062Y-122693619D01*
X161999321Y-121740906D01*
X160591964Y-121574219D01*
X159184616Y-121407547D01*
X157854202Y-120427139D01*
X157325035Y-119599548D01*
X156795875Y-118771942D01*
X156543884Y-118761749D01*
X156291893Y-118751556D01*
X155386215Y-119611450D01*
X154480537Y-120471344D01*
X154772346Y-119904571D01*
X155064155Y-119337799D01*
X155802604Y-118713943D01*
X156541061Y-118090088D01*
X156448463Y-117616074D01*
X156355865Y-117142059D01*
X155782074Y-117317047D01*
X155208282Y-117492020D01*
X154316070Y-117857193D01*
X153423858Y-118222366D01*
X152853485Y-118222366D01*
X153119743Y-117956116D01*
X153385994Y-117689850D01*
X154826301Y-117183685D01*
X156266609Y-116677505D01*
X156350311Y-116268768D01*
X156434013Y-115860031D01*
X155688835Y-115694794D01*
X154943641Y-115529571D01*
X153620735Y-115121658D01*
X152297813Y-114713745D01*
X150146934Y-112505249D01*
X147996055Y-110296753D01*
X147423767Y-109079254D01*
X146851478Y-107861771D01*
X147000715Y-107391586D01*
X147374405Y-107391586D01*
X147547455Y-107978088D01*
X147720505Y-108564590D01*
X148334404Y-109518127D01*
X148948311Y-110471664D01*
X150444511Y-112087738D01*
X151940712Y-113703812D01*
X153347580Y-114392136D01*
X154754463Y-115080460D01*
X155708481Y-115129852D01*
X156662513Y-115179245D01*
X156663513Y-115911896D01*
X156664512Y-116644531D01*
X157392120Y-116501694D01*
X158119720Y-116358856D01*
X157524414Y-116669372D01*
X156929107Y-116979889D01*
X156929107Y-117790283D01*
X157471267Y-118910232D01*
X158013420Y-120030182D01*
X158689247Y-120473007D01*
X159365074Y-120915832D01*
X161388237Y-121118378D01*
X163411400Y-121320923D01*
X163650718Y-121185745D01*
X163890030Y-121050568D01*
X163701248Y-121356033D01*
X163512459Y-121661499D01*
X162569557Y-121661499D01*
X162248825Y-123094665D01*
X161928093Y-124527832D01*
X160777710Y-126732681D01*
X159627342Y-128937530D01*
X158567604Y-131451065D01*
X157507873Y-133964600D01*
X157331917Y-135063095D01*
X157155960Y-136161590D01*
X158063919Y-139785431D01*
X158573448Y-140976059D01*
X159082985Y-142166672D01*
X160122978Y-143544739D01*
X161162979Y-144922806D01*
X162287185Y-145567779D01*
X163411392Y-146212753D01*
X164012512Y-146392197D01*
X164613632Y-146571640D01*
X163681785Y-144876343D01*
X162749939Y-143181045D01*
X162753937Y-142673859D01*
X162757934Y-142166656D01*
X163835045Y-144151031D01*
X164912155Y-146135406D01*
X165464943Y-146730728D01*
X166017730Y-147326034D01*
X166447860Y-147326034D01*
X166446388Y-147326050D01*
X166876518Y-147326050D01*
X167194015Y-147008545D01*
X167511513Y-146691040D01*
X167505516Y-145090317D01*
X167499519Y-143489593D01*
X167038704Y-141505218D01*
X167450432Y-141505218D01*
X167609962Y-142100525D01*
X167769500Y-142695831D01*
X167773498Y-143919525D01*
X167777496Y-145143219D01*
X167942718Y-145969284D01*
X168107925Y-146795349D01*
X169109367Y-147095383D01*
X170110809Y-147395416D01*
X170791427Y-147224579D01*
X171472046Y-147053757D01*
X171873726Y-146276977D01*
X172275413Y-145500213D01*
X172290611Y-143965713D01*
X172305809Y-142431229D01*
X172743629Y-140314560D01*
X172781227Y-145077072D01*
X172399948Y-146135406D01*
X172018676Y-147193741D01*
X172014679Y-147296631D01*
X172010681Y-147399536D01*
X173627639Y-147252899D01*
X175244613Y-147106277D01*
X176207336Y-146339264D01*
X177170059Y-145572250D01*
X177652084Y-144602875D01*
X178134109Y-143633514D01*
X178282333Y-140254257D01*
X178430542Y-136875000D01*
X177975601Y-133987244D01*
X177520645Y-131099487D01*
X176727661Y-128430984D01*
X175934662Y-125762482D01*
X175439880Y-123381226D01*
X174945114Y-120999969D01*
X174816726Y-118734466D01*
X174405929Y-118900406D01*
X173995117Y-119066360D01*
X173652801Y-119206024D01*
X173310493Y-119345688D01*
X174844528Y-117791595D01*
X176378570Y-116237488D01*
X177096374Y-114894760D01*
X177814163Y-113552032D01*
X178224395Y-111984344D01*
X178634613Y-110416641D01*
X178476654Y-109689041D01*
X178318710Y-108961441D01*
X178160721Y-108961441D01*
X177202362Y-109361862D01*
X176244018Y-109762298D01*
X176244018Y-109504211D01*
X177963806Y-108629578D01*
X178044204Y-108560776D01*
X178124603Y-108491974D01*
X177629089Y-107677170D01*
X177133575Y-106862366D01*
X176657882Y-107316604D01*
X176182190Y-107770828D01*
X176484161Y-107180801D01*
X176786133Y-106590774D01*
X175986068Y-105005844D01*
X175186004Y-103420914D01*
X174927887Y-101627113D01*
X174669815Y-99833313D01*
X174266189Y-98298584D01*
X173862564Y-96763863D01*
X173461807Y-95988884D01*
X173061050Y-95213913D01*
X171447220Y-93488724D01*
X169833381Y-91763527D01*
X169485222Y-91763527D01*
X169027260Y-92623428D01*
X168569298Y-93483314D01*
X167800407Y-95869026D01*
X167031517Y-98254738D01*
X166367454Y-99756309D01*
X165703384Y-101257881D01*
X163499237Y-102709640D01*
X161295089Y-104161407D01*
X160130798Y-104973923D01*
X158966499Y-105786453D01*
X156458763Y-105786453D01*
X154246719Y-106177048D01*
X152034683Y-106567642D01*
X150314880Y-106853699D01*
X148595093Y-107139755D01*
X147984756Y-107265671D01*
X147374405Y-107391586D01*
X147000715Y-107391586D01*
X147006958Y-107371918D01*
X147162430Y-106882065D01*
X148593643Y-106587418D01*
X152512466Y-105922607D01*
X156431289Y-105257797D01*
X157539558Y-105253799D01*
X158647819Y-105249802D01*
X159227569Y-104922974D01*
X159807319Y-104596146D01*
X162472938Y-102793068D01*
X165138565Y-100989990D01*
X165801613Y-99681518D01*
X166464653Y-98373062D01*
X167406685Y-95454742D01*
X168348701Y-92536423D01*
X168947159Y-91840675D01*
X169545631Y-91144913D01*
X170493553Y-91867935D01*
G37*
G36*
X173596893Y-119280243D02*
G01*
X173332306Y-119280243D01*
X173332306Y-119015655D01*
X173596893Y-119015655D01*
X173596893Y-119280243D01*
G37*
G36*
X174036758Y-130326599D02*
G01*
X174170212Y-130657333D01*
X174036758Y-130988037D01*
X173903305Y-131318771D01*
X173903305Y-129995865D01*
X174036758Y-130326599D01*
G37*
G36*
X175894378Y-124257583D02*
G01*
X176033340Y-124604858D01*
X175873489Y-124764709D01*
X175873474Y-124764709D01*
X175713608Y-124924560D01*
X175734512Y-124417450D01*
X175755417Y-123910324D01*
X175894378Y-124257583D01*
G37*
G36*
X175103454Y-119880554D02*
G01*
X175225433Y-120348617D01*
X175093658Y-120674301D01*
X175093277Y-120674301D01*
X174961502Y-121000000D01*
X174971496Y-120206253D01*
X174981491Y-119412506D01*
X175103454Y-119880554D01*
G37*
G36*
X149982879Y-119891327D02*
G01*
X150445907Y-120012329D01*
X148593818Y-120012329D01*
X149056839Y-119891327D01*
X149519859Y-119770325D01*
X149982879Y-119891327D01*
G37*
G36*
X151009483Y-108437530D02*
G01*
X153088753Y-108752716D01*
X154455185Y-109263962D01*
X155821617Y-109775207D01*
X156140106Y-110158951D01*
X156458595Y-110542709D01*
X156068725Y-110692306D01*
X155678863Y-110841919D01*
X155906845Y-112062256D01*
X156134826Y-113282593D01*
X156046455Y-113370972D01*
X155958053Y-113459366D01*
X155781662Y-113282974D01*
X155605270Y-113106598D01*
X155605270Y-111989624D01*
X155158668Y-111352020D01*
X154712066Y-110714416D01*
X155026375Y-110609650D01*
X155340683Y-110504883D01*
X155340683Y-110041077D01*
X153554741Y-109487213D01*
X151768799Y-108933349D01*
X150101745Y-108775604D01*
X148434692Y-108617859D01*
X148682449Y-108370102D01*
X148930206Y-108122345D01*
X151009483Y-108437530D01*
G37*
G36*
X174158172Y-97141220D02*
G01*
X174438965Y-97624077D01*
X174315109Y-97747940D01*
X174315201Y-97747940D01*
X174191345Y-97871803D01*
X174026367Y-97441872D01*
X173861389Y-97011955D01*
X173869385Y-96835152D01*
X173877380Y-96658348D01*
X174158172Y-97141220D01*
G37*
G36*
X150776619Y-108514465D02*
G01*
X151239647Y-108635467D01*
X149387558Y-108635467D01*
X150313598Y-108393463D01*
X150776619Y-108514465D01*
G37*
G36*
X152124237Y-136081604D02*
G01*
X152609977Y-136875351D01*
X153247726Y-137471435D01*
X153885467Y-138067520D01*
X154414634Y-138455215D01*
X154943794Y-138842911D01*
X154811500Y-138849914D01*
X154811531Y-138849228D01*
X154679237Y-138856232D01*
X153887779Y-138334549D01*
X153096328Y-137812866D01*
X152366432Y-136833954D01*
X151636535Y-135855041D01*
X151637512Y-135571442D01*
X151638489Y-135287857D01*
X152124237Y-136081604D01*
G37*
G36*
X178127166Y-105708267D02*
G01*
X177233490Y-106489380D01*
X177955169Y-107579925D01*
X178676864Y-108670471D01*
X178539062Y-109014358D01*
X178401214Y-109358261D01*
X178359405Y-108665573D01*
X178097839Y-108827225D01*
X177836288Y-108988876D01*
X177988281Y-108592819D01*
X178140259Y-108196747D01*
X177368805Y-107057724D01*
X176597366Y-105918701D01*
X176407791Y-105521820D01*
X176218216Y-105124939D01*
X176654709Y-105712860D01*
X177091202Y-106300766D01*
X178056030Y-105613953D01*
X179020859Y-104927154D01*
X178127166Y-105708267D01*
G37*
G36*
X156994323Y-139213303D02*
G01*
X157325050Y-139346756D01*
X156002151Y-139346756D01*
X156332870Y-139213303D01*
X156663597Y-139079849D01*
X156994323Y-139213303D01*
G37*
G36*
X178540222Y-111822006D02*
G01*
X178679199Y-112169281D01*
X178519348Y-112329132D01*
X178519302Y-112329132D01*
X178359451Y-112488983D01*
X178380356Y-111981872D01*
X178401260Y-111474747D01*
X178540222Y-111822006D01*
G37*
G36*
X169070320Y-99039657D02*
G01*
X169231209Y-100097999D01*
X169445266Y-99767273D01*
X169659317Y-99436546D01*
X170099891Y-99436546D01*
X170416557Y-100698250D01*
X171543686Y-101244827D01*
X172670807Y-101791420D01*
X172406219Y-101791000D01*
X172406303Y-101790993D01*
X172141723Y-101790565D01*
X171164184Y-101351395D01*
X170186653Y-100912216D01*
X170019005Y-100244255D01*
X169851356Y-99576294D01*
X169591217Y-100041138D01*
X169331077Y-100505989D01*
X169082756Y-100352516D01*
X168834434Y-100199058D01*
X168871933Y-99090187D01*
X168909431Y-97981331D01*
X169070320Y-99039657D01*
G37*
G36*
X154546928Y-123778107D02*
G01*
X154282333Y-123778107D01*
X154282333Y-123513519D01*
X154546928Y-123513519D01*
X154546928Y-123778107D01*
G37*
G36*
X175359665Y-121595398D02*
G01*
X175493118Y-121926132D01*
X175359665Y-122256836D01*
X175226211Y-122587570D01*
X175226211Y-121264664D01*
X175359665Y-121595398D01*
G37*
G36*
X150710479Y-130392685D02*
G01*
X150897087Y-131749481D01*
X150772911Y-131873672D01*
X150648720Y-131997864D01*
X150467949Y-130635223D01*
X150287185Y-129272583D01*
X150405533Y-129154236D01*
X150523872Y-129035889D01*
X150710479Y-130392685D01*
G37*
G36*
X170991562Y-92459793D02*
G01*
X172304405Y-93747826D01*
X173082916Y-94917679D01*
X173861419Y-96087517D01*
X173849716Y-96372879D01*
X173838012Y-96658249D01*
X173320007Y-95677345D01*
X172802009Y-94696457D01*
X171370247Y-93229957D01*
X169938484Y-91763458D01*
X169374237Y-91763458D01*
X168874923Y-92755646D01*
X168375602Y-93747833D01*
X167658661Y-95981125D01*
X166941711Y-98214416D01*
X166195701Y-99859718D01*
X165449692Y-101505005D01*
X164826889Y-101826248D01*
X164204101Y-102147491D01*
X161656624Y-103851562D01*
X159109146Y-105555649D01*
X156629547Y-105809601D01*
X154149940Y-106063537D01*
X147535362Y-107272827D01*
X147590065Y-108020157D01*
X147644668Y-108767471D01*
X148308212Y-109724335D01*
X148971756Y-110681183D01*
X152469635Y-114229797D01*
X153915031Y-114770584D01*
X155360428Y-115311386D01*
X156663482Y-115311386D01*
X156663482Y-116590195D01*
X156994209Y-116723648D01*
X157324936Y-116857101D01*
X156713012Y-116898910D01*
X156850624Y-117425095D01*
X156988228Y-117951279D01*
X157288879Y-117771164D01*
X157589531Y-117591064D01*
X157269661Y-117986587D01*
X156949798Y-118382126D01*
X157465675Y-119230423D01*
X157981552Y-120078720D01*
X158829818Y-120594574D01*
X159678077Y-121110428D01*
X161544220Y-121305069D01*
X163410347Y-121499725D01*
X162546501Y-121688110D01*
X162094413Y-123328354D01*
X161642326Y-124968582D01*
X160770324Y-126556076D01*
X159898323Y-128143570D01*
X158656624Y-131007492D01*
X157414932Y-133871399D01*
X157276413Y-135240814D01*
X157137901Y-136610229D01*
X157586448Y-138330017D01*
X158035011Y-140049805D01*
X158735862Y-141505020D01*
X159436722Y-142960235D01*
X162359863Y-145920837D01*
X163365852Y-146252838D01*
X164371834Y-146584854D01*
X164505501Y-146451187D01*
X164639160Y-146317520D01*
X163997261Y-145300339D01*
X163355354Y-144283142D01*
X162977821Y-142960235D01*
X163673500Y-144150848D01*
X164369171Y-145341476D01*
X165050224Y-146333664D01*
X165731277Y-147325851D01*
X166290603Y-147321854D01*
X166849930Y-147317856D01*
X167218147Y-147084686D01*
X167586357Y-146851532D01*
X167452850Y-144244476D01*
X167319351Y-141637421D01*
X167529068Y-142166595D01*
X167738777Y-142695755D01*
X167757377Y-144598984D01*
X167775978Y-146502197D01*
X168952064Y-147325958D01*
X171133552Y-147325958D01*
X171632301Y-146774841D01*
X172131058Y-146223724D01*
X172297516Y-144856613D01*
X172463974Y-143489487D01*
X172501274Y-144627106D01*
X172538574Y-145764725D01*
X172136886Y-146541504D01*
X171735206Y-147318283D01*
X171077835Y-147483261D01*
X170420479Y-147648254D01*
X168437538Y-147304443D01*
X167908371Y-147299438D01*
X167379211Y-147294433D01*
X166570411Y-147464828D01*
X166570434Y-147465317D01*
X165761635Y-147635696D01*
X165413551Y-147216293D01*
X165065483Y-146796890D01*
X163789756Y-146796890D01*
X162541786Y-146158295D01*
X161293808Y-145519699D01*
X160323890Y-144504654D01*
X159353973Y-143489609D01*
X158556137Y-141902115D01*
X157758301Y-140314621D01*
X157302589Y-138594833D01*
X156846878Y-136875046D01*
X156091621Y-136213592D01*
X155336349Y-135552139D01*
X155073936Y-134627853D01*
X154811523Y-133703552D01*
X154863426Y-129336182D01*
X154915329Y-124968811D01*
X155061821Y-129779068D01*
X155208320Y-134589325D01*
X155753578Y-135318619D01*
X156298851Y-136047928D01*
X156575508Y-136140121D01*
X156852165Y-136232315D01*
X157007362Y-134921890D01*
X157162559Y-133611465D01*
X158262291Y-131009903D01*
X159362015Y-128408325D01*
X160370537Y-126556244D01*
X161379043Y-124704147D01*
X161681770Y-123563126D01*
X161984489Y-122422088D01*
X162117981Y-122074234D01*
X162251457Y-121726379D01*
X160793754Y-121544250D01*
X159336044Y-121362122D01*
X158502144Y-120784180D01*
X157668235Y-120206238D01*
X157232017Y-119412491D01*
X156795807Y-118618744D01*
X156724807Y-118503647D01*
X156653808Y-118388550D01*
X155557411Y-119429687D01*
X154461014Y-120470825D01*
X155051506Y-119610397D01*
X155641998Y-118749954D01*
X156152771Y-118476608D01*
X156663528Y-118203247D01*
X156663528Y-117411514D01*
X156305137Y-117273987D01*
X155946739Y-117136444D01*
X154519195Y-117679031D01*
X153091652Y-118221619D01*
X152959358Y-118210022D01*
X152827064Y-118198425D01*
X153753105Y-117712906D01*
X154679146Y-117227386D01*
X155539032Y-117042114D01*
X156398933Y-116856857D01*
X156398933Y-115575989D01*
X155095863Y-115575989D01*
X152247581Y-114510315D01*
X150489441Y-112728058D01*
X148731308Y-110945785D01*
X148048340Y-109939880D01*
X147365379Y-108933975D01*
X147222778Y-108055283D01*
X147080185Y-107176605D01*
X147323166Y-107026428D01*
X147566147Y-106876251D01*
X151387230Y-106220459D01*
X155208313Y-105564682D01*
X157192680Y-105380081D01*
X159177063Y-105195496D01*
X160896850Y-103951126D01*
X162616638Y-102706764D01*
X163911529Y-101950134D01*
X165206428Y-101193497D01*
X165932060Y-99587334D01*
X166657676Y-97981171D01*
X167346557Y-95792892D01*
X168035415Y-93604599D01*
X168563392Y-92569687D01*
X169091362Y-91534775D01*
X169385040Y-91353264D01*
X169678718Y-91171760D01*
X170991562Y-92459793D01*
G37*
G36*
X179417785Y-104992721D02*
G01*
X179153198Y-104992721D01*
X179153198Y-104728134D01*
X179417785Y-104728134D01*
X179417785Y-104992721D01*
G37*
G36*
X172682899Y-106700531D02*
G01*
X173332336Y-107349960D01*
X173332336Y-109188309D01*
X172916565Y-109604095D01*
X172500793Y-110019867D01*
X171854294Y-110019852D01*
X171207847Y-110019852D01*
X170159263Y-108300064D01*
X170158264Y-107704758D01*
X170157341Y-107109436D01*
X170686508Y-106580276D01*
X171215675Y-106051102D01*
X172033470Y-106051102D01*
X172682899Y-106700531D01*
G37*
G36*
X147157661Y-122605499D02*
G01*
X147393478Y-123417297D01*
X148218178Y-124152115D01*
X149042869Y-124886917D01*
X149563888Y-126064758D01*
X150084900Y-127242599D01*
X149988098Y-127533066D01*
X149987983Y-127533066D01*
X149891182Y-127823532D01*
X149561203Y-126722137D01*
X149231216Y-125620743D01*
X148052627Y-124293716D01*
X146874038Y-122966690D01*
X146897941Y-122380203D01*
X146921844Y-121793716D01*
X147157661Y-122605499D01*
G37*
G36*
X153712303Y-122297638D02*
G01*
X154017761Y-122486435D01*
X154017761Y-122719788D01*
X153901077Y-122719772D01*
X153784408Y-122719772D01*
X153406830Y-122108841D01*
X153712303Y-122297638D01*
G37*
G36*
X167718635Y-112444992D02*
G01*
X167602295Y-112797989D01*
X166998245Y-112886383D01*
X166394188Y-112974777D01*
X166510528Y-112621780D01*
X166626869Y-112268783D01*
X167230926Y-112180389D01*
X167834976Y-112091995D01*
X167718635Y-112444992D01*
G37*
G36*
X178447632Y-112930130D02*
G01*
X178271240Y-113106522D01*
X178094848Y-113282898D01*
X178094848Y-112577347D01*
X178447632Y-112930130D01*
G37*
G36*
X176065719Y-124836487D02*
G01*
X176683639Y-127085434D01*
X177359665Y-129334396D01*
X178035690Y-131583359D01*
X178499527Y-134857513D01*
X178963363Y-138131668D01*
X178675827Y-141258880D01*
X178388290Y-144386078D01*
X177986252Y-145163528D01*
X177584213Y-145940994D01*
X176338958Y-146765823D01*
X175093689Y-147590637D01*
X173617721Y-147555939D01*
X172141731Y-147521240D01*
X173654876Y-147327164D01*
X175168014Y-147133087D01*
X175771545Y-146728073D01*
X176375061Y-146323044D01*
X176986587Y-145740799D01*
X177598114Y-145158569D01*
X177866699Y-144456375D01*
X178135284Y-143754181D01*
X178321319Y-140844925D01*
X178507370Y-137935669D01*
X178286453Y-135817856D01*
X178065536Y-133700043D01*
X177554245Y-131451080D01*
X177042938Y-129202118D01*
X176374542Y-126976486D01*
X175706146Y-124750839D01*
X175576980Y-123669174D01*
X175447815Y-122587524D01*
X176065719Y-124836487D01*
G37*
G36*
X176630005Y-105503296D02*
G01*
X177056259Y-106327576D01*
X178038574Y-105631805D01*
X179020904Y-104936035D01*
X178128769Y-105738190D01*
X177236633Y-106540344D01*
X177844650Y-107420212D01*
X178452667Y-108300079D01*
X178516479Y-108412872D01*
X179802963Y-108025696D01*
X181089432Y-107638519D01*
X181378113Y-107664413D01*
X181666794Y-107690308D01*
X180211578Y-108142486D01*
X178756363Y-108594681D01*
X178845062Y-109587860D01*
X178933761Y-110581039D01*
X178614563Y-111954010D01*
X178295364Y-113326965D01*
X177503280Y-114836243D01*
X176711197Y-116345520D01*
X175792236Y-117419113D01*
X174873275Y-118492706D01*
X174301193Y-118775757D01*
X173729217Y-119058624D01*
X175373169Y-117713776D01*
X176494110Y-115993286D01*
X177615066Y-114272781D01*
X178119537Y-112651916D01*
X178624008Y-111031052D01*
X178624008Y-109533981D01*
X178464004Y-109116989D01*
X178303985Y-108699982D01*
X177836334Y-108989014D01*
X177989868Y-108588913D01*
X178143402Y-108188797D01*
X177020080Y-106587402D01*
X175896759Y-104985992D01*
X176050262Y-104832504D01*
X176203750Y-104679016D01*
X176630005Y-105503296D01*
G37*
G36*
X174126098Y-130657333D02*
G01*
X173861511Y-130657333D01*
X173861511Y-130392746D01*
X174126098Y-130392746D01*
X174126098Y-130657333D01*
G37*
G36*
X176476059Y-107638595D02*
G01*
X176211471Y-107638595D01*
X176538498Y-107109421D01*
X176803085Y-107109421D01*
X176476059Y-107638595D01*
G37*
G36*
X173773346Y-127305618D02*
G01*
X173949722Y-127482010D01*
X173773346Y-127658401D01*
X173596954Y-127834793D01*
X173596954Y-127129227D01*
X173773346Y-127305618D01*
G37*
G36*
X155008156Y-126898529D02*
G01*
X155099655Y-128828339D01*
X155007354Y-130602692D01*
X155007469Y-130602707D01*
X154915168Y-132377060D01*
X154915909Y-128672897D01*
X154916656Y-124968735D01*
X155008156Y-126898529D01*
G37*
G36*
X162308037Y-122719772D02*
G01*
X161955253Y-123072555D01*
X161955253Y-122366989D01*
X162308037Y-122719772D01*
G37*
G36*
X174566955Y-98466339D02*
G01*
X174743332Y-98642731D01*
X174566955Y-98819122D01*
X174390564Y-98995499D01*
X174390564Y-98289947D01*
X174566955Y-98466339D01*
G37*
G36*
X176423553Y-126374329D02*
G01*
X176562515Y-126721588D01*
X176402664Y-126881454D01*
X176402618Y-126881454D01*
X176242767Y-127041305D01*
X176284576Y-126027054D01*
X176423553Y-126374329D01*
G37*
G36*
X176242782Y-104992691D02*
G01*
X175978195Y-104992691D01*
X175978195Y-104728104D01*
X176242782Y-104728104D01*
X176242782Y-104992691D01*
G37*
G36*
X177177719Y-128663727D02*
G01*
X177614731Y-130166992D01*
X177388427Y-130393295D01*
X176965957Y-128875473D01*
X176543503Y-127357666D01*
X176642105Y-127259064D01*
X176740707Y-127160461D01*
X177177719Y-128663727D01*
G37*
G36*
X174126114Y-128275757D02*
G01*
X173861526Y-128275757D01*
X173861526Y-128011169D01*
X174126114Y-128011169D01*
X174126114Y-128275757D01*
G37*
G36*
X151018005Y-132442902D02*
G01*
X151151458Y-132773636D01*
X151018005Y-133104355D01*
X150884552Y-133435074D01*
X150884552Y-132112167D01*
X151018005Y-132442902D01*
G37*
G36*
X169892784Y-94409332D02*
G01*
X169628196Y-94409332D01*
X169628196Y-94144745D01*
X169892784Y-94144745D01*
X169892784Y-94409332D01*
G37*
G36*
X178359466Y-113252792D02*
G01*
X177509262Y-114847946D01*
X176659057Y-116443100D01*
X175502365Y-117663086D01*
X174345688Y-118883102D01*
X175411880Y-117560181D01*
X176478073Y-116237274D01*
X177418762Y-114432114D01*
X178359466Y-112626938D01*
X178359466Y-113252792D01*
G37*
G36*
X172725044Y-141177231D02*
G01*
X172840111Y-141775619D01*
X172719703Y-142235565D01*
X172720390Y-142235565D01*
X172599991Y-142695495D01*
X172604988Y-141637161D01*
X172609985Y-140578827D01*
X172725044Y-141177231D01*
G37*
G36*
X172513580Y-106566666D02*
G01*
X173045013Y-106851074D01*
X173218353Y-107775070D01*
X173391693Y-108699066D01*
X172959060Y-109359360D01*
X172526413Y-110019653D01*
X172044342Y-110019714D01*
X171562294Y-110019714D01*
X171158401Y-109556702D01*
X170754524Y-109093689D01*
X170443924Y-108493317D01*
X170133323Y-107892944D01*
X170478554Y-107170395D01*
X170823776Y-106447845D01*
X171402954Y-106365051D01*
X171982147Y-106282257D01*
X172513580Y-106566666D01*
G37*
G36*
X174126098Y-97054962D02*
G01*
X173861511Y-97054962D01*
X173861511Y-96790367D01*
X174126098Y-96790367D01*
X174126098Y-97054962D01*
G37*
G36*
X163013611Y-142828171D02*
G01*
X162749023Y-142828171D01*
X162749023Y-142563583D01*
X163013611Y-142563583D01*
X163013611Y-142828171D01*
G37*
G36*
X162486007Y-111212356D02*
G01*
X162816948Y-111611130D01*
X162843750Y-112633392D01*
X162870552Y-113655640D01*
X162512802Y-114086700D01*
X162155052Y-114517776D01*
X160697143Y-114517776D01*
X160387352Y-114144501D01*
X160077575Y-113771225D01*
X159929359Y-112857864D01*
X159781143Y-111944504D01*
X160083770Y-111379059D01*
X160386390Y-110813599D01*
X162155060Y-110813599D01*
X162486007Y-111212356D01*
G37*
G36*
X175894348Y-124257660D02*
G01*
X176033310Y-124604935D01*
X175873459Y-124764786D01*
X175873443Y-124764786D01*
X175713577Y-124924637D01*
X175734482Y-124417511D01*
X175755386Y-123910400D01*
X175894348Y-124257660D01*
G37*
G36*
X167427696Y-141984436D02*
G01*
X167566658Y-142331695D01*
X167406807Y-142491562D01*
X167406791Y-142491562D01*
X167246940Y-142651413D01*
X167288734Y-141637161D01*
X167427696Y-141984436D01*
G37*
G36*
X155428886Y-134626038D02*
G01*
X155252495Y-134802429D01*
X155076103Y-134978821D01*
X155076103Y-134273254D01*
X155428886Y-134626038D01*
G37*
G36*
X170157226Y-93615646D02*
G01*
X169892639Y-93615646D01*
X169892639Y-93351059D01*
X170157226Y-93351059D01*
X170157226Y-93615646D01*
G37*
G36*
X171324272Y-92756111D02*
G01*
X172871475Y-94277458D01*
X173630813Y-95864960D01*
X174390136Y-97452461D01*
X174376541Y-97849342D01*
X174362945Y-98246216D01*
X173820053Y-96832939D01*
X173277145Y-95419662D01*
X171552833Y-93591789D01*
X169828506Y-91763931D01*
X169477531Y-91763931D01*
X169003494Y-92566414D01*
X168529457Y-93368904D01*
X167735023Y-95910393D01*
X166940605Y-98451881D01*
X166269882Y-99868469D01*
X165599151Y-101285049D01*
X162388061Y-103439682D01*
X159176979Y-105594314D01*
X157192596Y-105782547D01*
X155208229Y-105970764D01*
X151504059Y-106587387D01*
X147799888Y-107204010D01*
X147576637Y-107393371D01*
X147353386Y-107582733D01*
X147866119Y-108735321D01*
X148378837Y-109887894D01*
X150265007Y-111902740D01*
X152151169Y-113917587D01*
X153513031Y-114503448D01*
X154874893Y-115089310D01*
X155767982Y-115134415D01*
X156661064Y-115179520D01*
X156662063Y-115907135D01*
X156663063Y-116634735D01*
X157118850Y-116634735D01*
X156986908Y-117324951D01*
X156854957Y-118015167D01*
X157486618Y-117707230D01*
X158118271Y-117399292D01*
X157591980Y-117820053D01*
X157065689Y-118240799D01*
X157591980Y-119223709D01*
X158118271Y-120206604D01*
X159048530Y-120661819D01*
X159978782Y-121117035D01*
X161865616Y-121190933D01*
X163752449Y-121264831D01*
X163511009Y-121661713D01*
X162583946Y-121661713D01*
X162228943Y-123050766D01*
X161873955Y-124439819D01*
X157971855Y-132481842D01*
X157538727Y-134236999D01*
X157105606Y-135992142D01*
X157559234Y-137916336D01*
X158012863Y-139840530D01*
X158759384Y-141419052D01*
X159505905Y-142997589D01*
X160378998Y-143991974D01*
X161252090Y-144986374D01*
X162595604Y-145756973D01*
X163939125Y-146527573D01*
X164267837Y-146529571D01*
X164596550Y-146531570D01*
X163672531Y-144789795D01*
X162748504Y-143048019D01*
X162755508Y-142606979D01*
X162762512Y-142165924D01*
X163797363Y-144115662D01*
X164832222Y-146065399D01*
X165424019Y-146695343D01*
X166015831Y-147325287D01*
X166917122Y-147325287D01*
X167252784Y-146920853D01*
X167588432Y-146516418D01*
X167430740Y-144082443D01*
X167273048Y-141648483D01*
X167520309Y-142039490D01*
X167767563Y-142430496D01*
X167775566Y-144282593D01*
X167783569Y-146134674D01*
X167977951Y-146425796D01*
X168172340Y-146716919D01*
X168750259Y-147021103D01*
X169328178Y-147325302D01*
X170891838Y-147325302D01*
X171486114Y-146844086D01*
X172080391Y-146362869D01*
X172321899Y-143479965D01*
X172563423Y-140597061D01*
X172715400Y-140455459D01*
X172867393Y-140313843D01*
X172739105Y-143091965D01*
X172610817Y-145870102D01*
X172277557Y-146575287D01*
X171944290Y-147280472D01*
X170818176Y-147582657D01*
X169132843Y-147590652D01*
X168434211Y-147325043D01*
X167735588Y-147059418D01*
X167167488Y-147457321D01*
X166599396Y-147855225D01*
X166459823Y-147854217D01*
X166460464Y-147854233D01*
X166320907Y-147853226D01*
X165454605Y-147325043D01*
X164588318Y-146796860D01*
X163521698Y-146796860D01*
X162540046Y-146294846D01*
X161558403Y-145792892D01*
X160412842Y-144641266D01*
X159267288Y-143489639D01*
X158296165Y-141446304D01*
X157325058Y-139402969D01*
X155852859Y-139388962D01*
X154982216Y-139025177D01*
X154111572Y-138661407D01*
X152221039Y-137001495D01*
X151686287Y-135863861D01*
X151151535Y-134726227D01*
X150448105Y-131041153D01*
X149744674Y-127356094D01*
X149217796Y-126131348D01*
X148690925Y-124906601D01*
X147782478Y-124026092D01*
X146874016Y-123145584D01*
X146874016Y-122985748D01*
X147337005Y-122985748D01*
X148414375Y-124154556D01*
X149491745Y-125323364D01*
X150027618Y-127130432D01*
X150563476Y-128937515D01*
X150979660Y-131406967D01*
X151395843Y-133876434D01*
X151929664Y-135303177D01*
X152463485Y-136729935D01*
X154658172Y-138608505D01*
X155462440Y-138842377D01*
X156266708Y-139076248D01*
X156821121Y-139100143D01*
X156821144Y-139100098D01*
X157375557Y-139123993D01*
X157077736Y-137951050D01*
X156779907Y-136778091D01*
X156079460Y-136227127D01*
X155378998Y-135676147D01*
X155088096Y-134794693D01*
X154797188Y-133913238D01*
X154738189Y-129176422D01*
X154679191Y-124439606D01*
X154108108Y-123381271D01*
X153537025Y-122322937D01*
X152785186Y-121609375D01*
X152033355Y-120895798D01*
X150998398Y-120463455D01*
X149963440Y-120031128D01*
X149078170Y-120197205D01*
X148192894Y-120363281D01*
X147764953Y-121016418D01*
X147337005Y-121669540D01*
X147337005Y-122985748D01*
X146874016Y-122985748D01*
X146874016Y-121669540D01*
X146874016Y-121356613D01*
X147647415Y-120583206D01*
X148420814Y-119809799D01*
X150330589Y-119809799D01*
X151314277Y-120220703D01*
X152297966Y-120631622D01*
X153059036Y-121345184D01*
X153820106Y-122058761D01*
X154445503Y-123381683D01*
X155070915Y-124704590D01*
X155074913Y-129070221D01*
X155078911Y-133435837D01*
X155343498Y-134388367D01*
X155608085Y-135340881D01*
X156112816Y-135797653D01*
X156617538Y-136254425D01*
X156929031Y-134753982D01*
X157240524Y-133253540D01*
X158039978Y-131319183D01*
X159849800Y-127482727D01*
X161659622Y-123646271D01*
X161990066Y-121789612D01*
X160354820Y-121478836D01*
X158719574Y-121168075D01*
X158063255Y-120555084D01*
X157406944Y-119942093D01*
X157012245Y-119183227D01*
X156617538Y-118424347D01*
X155549797Y-119447800D01*
X154482048Y-120471252D01*
X154787399Y-119877655D01*
X155092750Y-119284058D01*
X155846451Y-118726822D01*
X156600151Y-118169586D01*
X156466720Y-117659363D01*
X156333290Y-117149124D01*
X155770782Y-117320541D01*
X155208275Y-117491943D01*
X153423851Y-118222290D01*
X152853477Y-118222290D01*
X153115226Y-117960556D01*
X153376968Y-117698822D01*
X154821785Y-117209106D01*
X156266601Y-116719376D01*
X156351204Y-116147919D01*
X156435707Y-115576462D01*
X154631340Y-115576462D01*
X153006523Y-114764526D01*
X151381691Y-113952591D01*
X149907181Y-112317123D01*
X148432670Y-110681656D01*
X147813049Y-109623321D01*
X147193428Y-108564987D01*
X147039711Y-108035812D01*
X146885978Y-107506653D01*
X147096489Y-107171890D01*
X147306991Y-106837128D01*
X152051384Y-106047912D01*
X156795784Y-105258697D01*
X158986519Y-105257690D01*
X160669266Y-104017898D01*
X162352028Y-102778099D01*
X162881187Y-102479919D01*
X163410354Y-102181747D01*
X164277557Y-101669189D01*
X165144767Y-101156639D01*
X165793686Y-99794998D01*
X166442619Y-98433357D01*
X167348938Y-95637535D01*
X168255264Y-92841713D01*
X168827385Y-92038231D01*
X169399513Y-91234749D01*
X169777061Y-91234749D01*
X171324272Y-92756111D01*
G37*
G36*
X169407692Y-97054947D02*
G01*
X169274238Y-97385689D01*
X169140785Y-97716415D01*
X169140785Y-96393494D01*
X169407692Y-97054947D01*
G37*
G36*
X172226234Y-146135559D02*
G01*
X172310737Y-146216156D01*
X171964164Y-146771088D01*
X171617614Y-147326019D01*
X171404266Y-147326050D01*
X171190979Y-147326050D01*
X171666359Y-146690506D01*
X172141731Y-146054962D01*
X172226234Y-146135559D01*
G37*
G36*
X175559173Y-103272880D02*
G01*
X175898651Y-104331222D01*
X176501846Y-105337280D01*
X177105041Y-106343353D01*
X177666031Y-105839661D01*
X178227020Y-105335983D01*
X178623886Y-105141815D01*
X179020767Y-104947647D01*
X178154434Y-105765930D01*
X177288116Y-106584213D01*
X177888962Y-107442093D01*
X178489807Y-108299972D01*
X178503006Y-108356369D01*
X178516205Y-108412765D01*
X179802688Y-108025589D01*
X181089172Y-107638412D01*
X181666534Y-107690201D01*
X180244293Y-108129837D01*
X178822052Y-108569473D01*
X178785354Y-110440308D01*
X178748657Y-112311142D01*
X177777466Y-114274200D01*
X176806259Y-116237274D01*
X175839630Y-117364929D01*
X174873016Y-118492584D01*
X174301071Y-118775696D01*
X173729095Y-119058563D01*
X174575622Y-118366913D01*
X175422165Y-117675278D01*
X176603317Y-115765762D01*
X177784454Y-113856247D01*
X178204162Y-112419159D01*
X178623886Y-110982086D01*
X178623886Y-109528412D01*
X178239609Y-109144134D01*
X177855331Y-108759857D01*
X177996460Y-108618729D01*
X178137588Y-108477600D01*
X177853302Y-107946411D01*
X177569015Y-107415207D01*
X177221634Y-107063843D01*
X176874237Y-106712479D01*
X176029266Y-105016571D01*
X175184295Y-103320663D01*
X175201996Y-102767601D01*
X175219696Y-102214554D01*
X175559173Y-103272880D01*
G37*
G36*
X172720993Y-141042175D02*
G01*
X172841995Y-141505188D01*
X172720993Y-141968231D01*
X172599991Y-142431244D01*
X172599991Y-140579147D01*
X172720993Y-141042175D01*
G37*
G36*
X169539978Y-95291267D02*
G01*
X169716369Y-95467659D01*
X169539978Y-95644050D01*
X169363586Y-95820427D01*
X169363586Y-95114876D01*
X169539978Y-95291267D01*
G37*
G36*
X167690254Y-112227051D02*
G01*
X167829094Y-112365890D01*
X167480293Y-112930282D01*
X166453193Y-112930282D01*
X166453193Y-112436767D01*
X167002296Y-112262482D01*
X167551407Y-112088196D01*
X167690254Y-112227051D01*
G37*
G36*
X174390701Y-97849029D02*
G01*
X174126114Y-97849029D01*
X174126114Y-97584434D01*
X174390701Y-97584434D01*
X174390701Y-97849029D01*
G37*
G36*
X173596954Y-132509079D02*
G01*
X173332367Y-132509079D01*
X173332367Y-132244491D01*
X173596954Y-132244491D01*
X173596954Y-132509079D01*
G37*
G36*
X177036453Y-109490677D02*
G01*
X176771866Y-109490677D01*
X176771866Y-109226089D01*
X177036453Y-109226089D01*
X177036453Y-109490677D01*
G37*
G36*
X163013557Y-111943252D02*
G01*
X163013557Y-113483444D01*
X161714699Y-114782303D01*
X161452888Y-114782288D01*
X161191040Y-114782288D01*
X160490303Y-114179535D01*
X159789573Y-113576782D01*
X159760673Y-112558334D01*
X159731773Y-111539871D01*
X160343643Y-111044418D01*
X160955513Y-110548965D01*
X161916816Y-110548965D01*
X163013557Y-111943252D01*
G37*
G36*
X175471542Y-103112961D02*
G01*
X175725036Y-103746689D01*
X175619751Y-103851990D01*
X175619674Y-103851990D01*
X175514389Y-103957275D01*
X175349426Y-103527344D01*
X175184448Y-103097412D01*
X175201248Y-102788322D01*
X175218048Y-102479233D01*
X175471542Y-103112961D01*
G37*
G36*
X171209007Y-92689583D02*
G01*
X172824974Y-94277084D01*
X173607864Y-95840706D01*
X174390747Y-97404312D01*
X174376953Y-97825073D01*
X174363159Y-98245834D01*
X173820251Y-96832558D01*
X173277351Y-95419281D01*
X171553032Y-93591408D01*
X169828712Y-91763550D01*
X169477737Y-91763550D01*
X169031280Y-92519340D01*
X168584823Y-93275131D01*
X166782959Y-98775009D01*
X166175811Y-100066406D01*
X165568649Y-101357803D01*
X164357292Y-102104004D01*
X163145942Y-102850197D01*
X161187973Y-104228699D01*
X159230003Y-105607208D01*
X157880684Y-105706009D01*
X156531357Y-105804916D01*
X152165733Y-106498962D01*
X147800102Y-107193024D01*
X147557525Y-107407013D01*
X147314956Y-107621017D01*
X147818985Y-108754272D01*
X148323028Y-109887527D01*
X150575111Y-112157440D01*
X152827202Y-114427353D01*
X154353821Y-114895691D01*
X155880447Y-115364029D01*
X156663650Y-115063492D01*
X156663650Y-116590286D01*
X157325103Y-116857193D01*
X157019142Y-116878097D01*
X156713180Y-116899002D01*
X156850792Y-117425186D01*
X156988395Y-117951370D01*
X157198227Y-117821686D01*
X157408050Y-117692001D01*
X157293854Y-118155395D01*
X157179641Y-118618774D01*
X158262741Y-120370422D01*
X159116844Y-120722137D01*
X159970955Y-121073883D01*
X161690742Y-121283310D01*
X163410530Y-121492752D01*
X162970299Y-121592148D01*
X162530060Y-121691544D01*
X162202781Y-123055817D01*
X161875503Y-124420090D01*
X160057373Y-128134033D01*
X158239250Y-131847977D01*
X157716041Y-133529495D01*
X157192825Y-135211014D01*
X157192825Y-136951614D01*
X157752128Y-138765427D01*
X158311416Y-140579224D01*
X158959297Y-141859863D01*
X159607185Y-143140518D01*
X161733864Y-145447708D01*
X162854171Y-145990036D01*
X163974479Y-146532364D01*
X164597114Y-146532364D01*
X163673095Y-144790588D01*
X162749069Y-143048828D01*
X162756073Y-142607773D01*
X162763077Y-142166717D01*
X163797928Y-144116470D01*
X164832786Y-146066208D01*
X165424583Y-146696152D01*
X166016395Y-147326095D01*
X166917686Y-147326095D01*
X167251098Y-146924377D01*
X167584495Y-146522644D01*
X167449966Y-144080093D01*
X167315437Y-141637558D01*
X167527237Y-142166717D01*
X167739044Y-142695892D01*
X167757644Y-144431259D01*
X167776245Y-146166626D01*
X168123062Y-146640930D01*
X168469871Y-147115234D01*
X170825172Y-147380707D01*
X171445610Y-146878311D01*
X172066047Y-146375915D01*
X172304847Y-143874451D01*
X172543647Y-141372986D01*
X172659660Y-140843826D01*
X172775673Y-140314651D01*
X172660995Y-143138168D01*
X172546318Y-145961670D01*
X172245697Y-146621475D01*
X171945068Y-147281280D01*
X171382011Y-147432373D01*
X170818954Y-147583481D01*
X169976288Y-147587479D01*
X169133621Y-147591476D01*
X168422760Y-147321213D01*
X167711891Y-147050949D01*
X167413337Y-147280136D01*
X167114799Y-147509338D01*
X166668663Y-147667923D01*
X166668510Y-147667068D01*
X166222381Y-147825653D01*
X165568443Y-147311279D01*
X164914512Y-146796890D01*
X163709839Y-146796890D01*
X162576896Y-146248444D01*
X161443954Y-145699997D01*
X160150818Y-144285095D01*
X158857689Y-142870209D01*
X158117828Y-141129379D01*
X157377968Y-139388565D01*
X156328117Y-139388565D01*
X155303230Y-139081512D01*
X154278343Y-138774445D01*
X153259552Y-137902389D01*
X152240753Y-137030334D01*
X151666343Y-135695068D01*
X151091926Y-134359802D01*
X150463096Y-130961868D01*
X149834266Y-127563934D01*
X149262603Y-126235062D01*
X148690933Y-124906189D01*
X147782486Y-124025680D01*
X146874023Y-123145172D01*
X146874023Y-122685852D01*
X147137054Y-122685852D01*
X148235267Y-123954742D01*
X149333481Y-125223617D01*
X149673843Y-126038208D01*
X150014206Y-126852798D01*
X150398788Y-128556625D01*
X150783371Y-130260452D01*
X150963394Y-131583374D01*
X151143425Y-132906296D01*
X151497947Y-134129150D01*
X151852470Y-135352005D01*
X152264168Y-136148147D01*
X152675880Y-136944290D01*
X153545280Y-137677032D01*
X154414680Y-138409775D01*
X155208427Y-138756531D01*
X156002174Y-139103287D01*
X156702362Y-139113586D01*
X156702339Y-139113602D01*
X157402527Y-139124008D01*
X157099205Y-137938187D01*
X156795898Y-136752365D01*
X155609359Y-135921860D01*
X155276939Y-135340118D01*
X154944511Y-134758362D01*
X154805359Y-129598999D01*
X154666198Y-124439621D01*
X154101631Y-123381287D01*
X153537071Y-122322952D01*
X152785232Y-121609390D01*
X152033401Y-120895813D01*
X151049713Y-120484909D01*
X150066025Y-120074005D01*
X148755615Y-120074005D01*
X148105644Y-120669311D01*
X147455673Y-121264618D01*
X147137054Y-122685852D01*
X146874023Y-122685852D01*
X146874023Y-121356201D01*
X147679916Y-120550308D01*
X148485817Y-119744415D01*
X149815201Y-119872162D01*
X151144569Y-119999893D01*
X152244186Y-120772735D01*
X153343796Y-121545578D01*
X154143806Y-122839126D01*
X154943817Y-124132675D01*
X155076111Y-129360275D01*
X155208412Y-134587875D01*
X155766128Y-135334579D01*
X156323845Y-136081283D01*
X156559875Y-136025284D01*
X156795906Y-135969284D01*
X156964096Y-134826599D01*
X157132293Y-133683914D01*
X158114380Y-131310730D01*
X159096466Y-128937546D01*
X160261558Y-126688583D01*
X161426658Y-124439621D01*
X161776382Y-123081863D01*
X162126098Y-121724106D01*
X160824516Y-121569961D01*
X159522949Y-121415817D01*
X158688591Y-120931671D01*
X157854233Y-120447525D01*
X157210464Y-119460647D01*
X156566696Y-118473770D01*
X154482177Y-120470901D01*
X154787536Y-119877304D01*
X155092888Y-119283707D01*
X155878250Y-118703064D01*
X156663612Y-118122421D01*
X156659614Y-117973740D01*
X156655616Y-117825058D01*
X156197563Y-117102005D01*
X154676063Y-117671265D01*
X153154564Y-118240539D01*
X153016433Y-118102417D01*
X152878311Y-117964294D01*
X154839767Y-117144745D01*
X155619461Y-116988800D01*
X156399139Y-116832855D01*
X156399139Y-115576080D01*
X154631576Y-115576080D01*
X153002235Y-114761887D01*
X151372894Y-113947693D01*
X149618324Y-111935913D01*
X147863754Y-109924118D01*
X147387794Y-108861023D01*
X146911827Y-107797928D01*
X147166878Y-107321381D01*
X147421928Y-106844818D01*
X147548927Y-106844818D01*
X151246406Y-106201111D01*
X154943886Y-105557419D01*
X156928268Y-105372818D01*
X158912636Y-105188248D01*
X162148048Y-103060593D01*
X165383445Y-100932930D01*
X166150306Y-99060219D01*
X166917167Y-97187508D01*
X167625694Y-94924774D01*
X168334221Y-92662056D01*
X168963630Y-91882072D01*
X169593048Y-91102081D01*
X171209007Y-92689583D01*
G37*
G36*
X172757072Y-106663406D02*
G01*
X173332351Y-107275772D01*
X173332351Y-109384781D01*
X173014854Y-109702286D01*
X172697357Y-110019791D01*
X171297706Y-110019791D01*
X170848518Y-109523437D01*
X170399330Y-109027084D01*
X170248558Y-108098007D01*
X170097786Y-107168930D01*
X170656746Y-106609985D01*
X171215698Y-106051041D01*
X172181785Y-106051041D01*
X172757072Y-106663406D01*
G37*
G36*
X173545837Y-132370102D02*
G01*
X173693954Y-132518219D01*
X173365188Y-132844513D01*
X173036415Y-133170837D01*
X173217064Y-132696411D01*
X173397720Y-132221985D01*
X173545837Y-132370102D01*
G37*
G36*
X172457779Y-144751465D02*
G01*
X172579750Y-145219513D01*
X172447983Y-145545212D01*
X172447571Y-145545212D01*
X172315803Y-145870895D01*
X172325805Y-145077148D01*
X172335808Y-144283401D01*
X172457779Y-144751465D01*
G37*
G36*
X151288116Y-133782669D02*
G01*
X151427078Y-134129944D01*
X151267227Y-134289795D01*
X151267212Y-134289795D01*
X151107353Y-134449646D01*
X151149147Y-133435394D01*
X151288116Y-133782669D01*
G37*
G36*
X177746475Y-130872238D02*
G01*
X177885452Y-131219513D01*
X177725601Y-131379364D01*
X177725555Y-131379364D01*
X177565704Y-131539215D01*
X177586609Y-131032104D01*
X177607513Y-130524979D01*
X177746475Y-130872238D01*
G37*
G36*
X152177154Y-108699692D02*
G01*
X153582977Y-108966308D01*
X155057548Y-109644195D01*
X156532112Y-110322082D01*
X155955139Y-110634354D01*
X155378158Y-110946640D01*
X155641327Y-111416412D01*
X155904495Y-111886185D01*
X155794006Y-112606232D01*
X155684433Y-113327087D01*
X155644836Y-112650055D01*
X155605240Y-111973022D01*
X155216781Y-111459427D01*
X154828323Y-110945831D01*
X154820320Y-110747391D01*
X154812317Y-110548965D01*
X155738357Y-110532974D01*
X155209198Y-110132858D01*
X154680031Y-109732742D01*
X153275039Y-109324127D01*
X151870048Y-108915497D01*
X150100036Y-108709091D01*
X148330024Y-108502685D01*
X149550682Y-108467880D01*
X150771332Y-108433075D01*
X152177154Y-108699692D01*
G37*
G36*
X174830429Y-99634926D02*
G01*
X174963882Y-99965652D01*
X174830429Y-100296394D01*
X174696975Y-100627121D01*
X174696975Y-99304199D01*
X174830429Y-99634926D01*
G37*
G36*
X161819488Y-123844314D02*
G01*
X161680557Y-124571991D01*
X159858436Y-128342239D01*
X158036308Y-132112488D01*
X157614540Y-133549560D01*
X157192756Y-134986648D01*
X157192756Y-137244537D01*
X157844955Y-139308716D01*
X158497154Y-141372879D01*
X159253204Y-142563507D01*
X160009254Y-143754120D01*
X161751808Y-145494354D01*
X162769027Y-146013290D01*
X163786247Y-146532242D01*
X165065460Y-146532242D01*
X165698135Y-147294571D01*
X166406372Y-147402924D01*
X167114624Y-147511276D01*
X166419441Y-147550995D01*
X165724228Y-147590591D01*
X165394851Y-147193725D01*
X165065483Y-146796844D01*
X163786270Y-146796844D01*
X162804626Y-146290771D01*
X161822975Y-145784714D01*
X160712463Y-144826919D01*
X159601951Y-143869125D01*
X158687652Y-142041550D01*
X157773361Y-140213974D01*
X157296150Y-138361526D01*
X156818947Y-136509064D01*
X155633323Y-135874542D01*
X155472305Y-135454941D01*
X155311294Y-135035339D01*
X155938347Y-135624435D01*
X156565407Y-136213531D01*
X156928177Y-136213531D01*
X156928177Y-134708862D01*
X157995102Y-131607788D01*
X159819023Y-127759094D01*
X161642952Y-123910400D01*
X161800689Y-123513519D01*
X161958427Y-123116653D01*
X161819488Y-123844314D01*
G37*
G36*
X171008896Y-92459213D02*
G01*
X172338875Y-93747253D01*
X173100242Y-94923523D01*
X173861603Y-96099800D01*
X173849899Y-96378731D01*
X173838196Y-96657661D01*
X173338730Y-95712868D01*
X172839248Y-94768074D01*
X171360458Y-93265472D01*
X169881668Y-91762863D01*
X169374435Y-91762863D01*
X168869613Y-92755051D01*
X168364807Y-93747238D01*
X167778953Y-95731605D01*
X167193100Y-97715988D01*
X166333549Y-99585899D01*
X165473999Y-101455818D01*
X164177688Y-102204727D01*
X162881378Y-102953644D01*
X159253753Y-105567627D01*
X156966522Y-105785370D01*
X154679291Y-106003082D01*
X151239708Y-106594360D01*
X147800117Y-107185638D01*
X147557541Y-107402969D01*
X147314972Y-107620315D01*
X147819000Y-108753570D01*
X148323044Y-109886825D01*
X150575126Y-112176453D01*
X152827217Y-114466080D01*
X154362694Y-114911316D01*
X155898185Y-115356552D01*
X156280922Y-115209686D01*
X156663658Y-115062820D01*
X156663658Y-116589615D01*
X156994384Y-116723068D01*
X157325111Y-116856522D01*
X157019150Y-116877426D01*
X156713188Y-116898331D01*
X156850799Y-117424515D01*
X156988403Y-117950699D01*
X157198234Y-117821014D01*
X157408058Y-117691330D01*
X157269706Y-118220383D01*
X157131355Y-118749451D01*
X157562645Y-119407684D01*
X157993942Y-120065918D01*
X159287521Y-120913513D01*
X161349022Y-121260025D01*
X163410530Y-121606552D01*
X162978920Y-121633652D01*
X162547310Y-121660751D01*
X162239959Y-122917526D01*
X161932617Y-124174301D01*
X160506828Y-127084717D01*
X159081039Y-129995132D01*
X158228622Y-132111801D01*
X157376205Y-134228470D01*
X157252746Y-135465500D01*
X157129295Y-136702530D01*
X157714279Y-138640503D01*
X158299247Y-140578476D01*
X159114647Y-142116379D01*
X159930038Y-143654297D01*
X161216415Y-144810852D01*
X162502792Y-145967422D01*
X163437416Y-146275879D01*
X164372024Y-146584335D01*
X164496757Y-146459610D01*
X164621490Y-146334885D01*
X163830513Y-145044189D01*
X163039535Y-143753494D01*
X162866775Y-142959747D01*
X162694023Y-142166000D01*
X163662735Y-144018082D01*
X164631454Y-145870163D01*
X165327263Y-146597778D01*
X166023086Y-147325378D01*
X166917633Y-147325378D01*
X167251030Y-146923660D01*
X167584442Y-146521927D01*
X167449905Y-144079391D01*
X167315376Y-141636841D01*
X167527176Y-142166016D01*
X167738983Y-142695175D01*
X167757583Y-144581009D01*
X167776184Y-146466843D01*
X168173202Y-146796341D01*
X168570221Y-147125824D01*
X169697670Y-147252899D01*
X170825119Y-147379974D01*
X171474106Y-146854462D01*
X172123108Y-146328949D01*
X172425407Y-143321442D01*
X172727707Y-140313919D01*
X172753906Y-141504547D01*
X172780105Y-142695160D01*
X172551498Y-144670608D01*
X172322891Y-146646042D01*
X171740059Y-147117996D01*
X171157219Y-147589950D01*
X169133629Y-147589950D01*
X168411857Y-147315536D01*
X167690086Y-147041122D01*
X167415680Y-147315536D01*
X167141227Y-147589950D01*
X166432670Y-147590637D01*
X165724228Y-147590637D01*
X165394851Y-147193771D01*
X165065483Y-146796890D01*
X163790367Y-146796890D01*
X162878425Y-146415863D01*
X161966476Y-146034820D01*
X160685318Y-144836456D01*
X159404167Y-143638092D01*
X158705993Y-142240936D01*
X158007820Y-140843780D01*
X157739128Y-140116165D01*
X157470451Y-139388565D01*
X156736297Y-139385559D01*
X156002144Y-139382553D01*
X154679222Y-138758697D01*
X153356300Y-138134842D01*
X152773910Y-137501221D01*
X152191528Y-136867599D01*
X151670768Y-135680252D01*
X151150009Y-134493057D01*
X149749756Y-127117020D01*
X149390396Y-126256943D01*
X149031036Y-125396881D01*
X147952530Y-124226837D01*
X146874023Y-123056793D01*
X146874534Y-122726257D01*
X147095192Y-122726257D01*
X148304901Y-124071762D01*
X149514618Y-125417252D01*
X149921669Y-126780609D01*
X150328720Y-128143967D01*
X150871681Y-131186676D01*
X151414634Y-134229370D01*
X151936645Y-135419998D01*
X152458648Y-136610611D01*
X153172065Y-137371582D01*
X153885483Y-138132553D01*
X154943809Y-138622543D01*
X156002151Y-139112549D01*
X156702339Y-139118545D01*
X156702339Y-139118164D01*
X157402527Y-139124161D01*
X157099205Y-137938339D01*
X156795898Y-136752518D01*
X156172630Y-136316254D01*
X155549370Y-135879990D01*
X155180450Y-134997024D01*
X154811523Y-134114059D01*
X154811523Y-125600143D01*
X154513321Y-124415863D01*
X154215110Y-123231598D01*
X153076088Y-121964722D01*
X151937057Y-120697845D01*
X150896194Y-120386002D01*
X149855331Y-120074158D01*
X148797462Y-120074158D01*
X148120636Y-120606552D01*
X147443817Y-121138946D01*
X147269500Y-121932602D01*
X147095192Y-122726257D01*
X146874534Y-122726257D01*
X146875000Y-122424927D01*
X146875976Y-121793060D01*
X147391533Y-120947525D01*
X147907081Y-120101990D01*
X148803619Y-119933807D01*
X149700149Y-119765625D01*
X150734466Y-120045212D01*
X151768776Y-120324814D01*
X152737205Y-121124771D01*
X153705635Y-121924728D01*
X154324707Y-123181824D01*
X154943794Y-124438919D01*
X155076088Y-129513702D01*
X155208389Y-134588486D01*
X155753647Y-135317856D01*
X156298919Y-136047226D01*
X156613548Y-136152100D01*
X156928177Y-136256973D01*
X156928177Y-134343719D01*
X157743583Y-132229294D01*
X158558983Y-130114868D01*
X159988563Y-127326675D01*
X161418136Y-124538483D01*
X161786957Y-123126129D01*
X162155777Y-121713776D01*
X160781296Y-121542053D01*
X159406822Y-121370331D01*
X158554031Y-120851715D01*
X157701240Y-120333099D01*
X157145729Y-119391586D01*
X156590217Y-118450073D01*
X155525650Y-119460144D01*
X154461067Y-120470199D01*
X155051559Y-119609772D01*
X155642051Y-118749329D01*
X156152824Y-118475983D01*
X156663582Y-118202621D01*
X156659584Y-118013504D01*
X156655586Y-117824371D01*
X156426559Y-117462845D01*
X156197532Y-117101318D01*
X154676033Y-117670578D01*
X153154533Y-118239853D01*
X153048980Y-118134308D01*
X152943428Y-118028763D01*
X154257301Y-117463547D01*
X155571174Y-116898331D01*
X156399116Y-116898331D01*
X156399116Y-115647339D01*
X154016182Y-115320709D01*
X151780739Y-114180267D01*
X150235542Y-112562729D01*
X148690330Y-110945190D01*
X147914520Y-109775345D01*
X147138702Y-108605499D01*
X147138702Y-107139954D01*
X147386268Y-106986954D01*
X147633835Y-106833938D01*
X151421165Y-106196274D01*
X155208496Y-105558594D01*
X157135078Y-105372604D01*
X159061668Y-105186615D01*
X160839248Y-103943725D01*
X162616829Y-102700828D01*
X163911720Y-101946876D01*
X165206619Y-101192917D01*
X165932251Y-99586754D01*
X166657867Y-97980591D01*
X167346748Y-95792313D01*
X168035606Y-93604019D01*
X168563583Y-92569107D01*
X169091552Y-91534195D01*
X169385231Y-91352684D01*
X169678909Y-91171181D01*
X171008896Y-92459213D01*
G37*
G36*
X169538704Y-95136993D02*
G01*
X169672165Y-95467720D01*
X169538704Y-95798462D01*
X169405250Y-96129188D01*
X169405250Y-94806267D01*
X169538704Y-95136993D01*
G37*
G36*
X175187515Y-101817726D02*
G01*
X175442398Y-103008346D01*
X176257751Y-104665985D01*
X177073105Y-106323608D01*
X178040893Y-105525864D01*
X179008667Y-104728134D01*
X179537842Y-104728134D01*
X178551513Y-105541153D01*
X177565201Y-106354172D01*
X177565201Y-106895401D01*
X178091141Y-107634018D01*
X178617065Y-108372635D01*
X179717178Y-107993622D01*
X180817291Y-107614609D01*
X181241760Y-107708313D01*
X181666244Y-107802017D01*
X180183365Y-108245636D01*
X178700485Y-108689255D01*
X178825180Y-109986999D01*
X178949875Y-111284759D01*
X178488830Y-112702774D01*
X178027786Y-114120788D01*
X177155670Y-115576645D01*
X176283554Y-117032486D01*
X175649399Y-117628235D01*
X175015259Y-118223984D01*
X175241012Y-120141128D01*
X175466766Y-122058288D01*
X175986480Y-124174957D01*
X176506195Y-126291611D01*
X177181183Y-128540573D01*
X177856186Y-130789535D01*
X178372146Y-133792389D01*
X178888092Y-136795242D01*
X178880096Y-138687179D01*
X178872101Y-140579117D01*
X178623092Y-142496170D01*
X178374084Y-144413223D01*
X177566070Y-145975723D01*
X176607986Y-146706482D01*
X175649902Y-147437256D01*
X173895721Y-147496750D01*
X173895920Y-147496796D01*
X172141739Y-147556290D01*
X173679168Y-147342132D01*
X175216598Y-147127991D01*
X176192703Y-146339081D01*
X177168808Y-145550156D01*
X177656784Y-144717285D01*
X178144760Y-143884399D01*
X178289428Y-140229904D01*
X178434097Y-136575409D01*
X177973098Y-133818420D01*
X177512100Y-131061432D01*
X176868103Y-128941131D01*
X176224106Y-126820831D01*
X175574753Y-123778122D01*
X174925400Y-120735412D01*
X174922394Y-119604843D01*
X174919388Y-118474258D01*
X174249664Y-118913071D01*
X173579941Y-119351898D01*
X173444824Y-119216766D01*
X173309692Y-119081634D01*
X174093094Y-118585617D01*
X174876495Y-118089584D01*
X175847122Y-116818390D01*
X176817749Y-115547195D01*
X177553207Y-113907974D01*
X178288650Y-112268753D01*
X178465118Y-111292404D01*
X178641586Y-110316070D01*
X178466079Y-109616852D01*
X178290588Y-108917633D01*
X177729461Y-109058685D01*
X177168335Y-109199737D01*
X177657058Y-108834213D01*
X178145782Y-108468689D01*
X177670242Y-107663666D01*
X177194717Y-106858658D01*
X176680008Y-107314758D01*
X176165298Y-107770859D01*
X176465301Y-107198685D01*
X176765304Y-106626511D01*
X175977798Y-104943649D01*
X175190292Y-103260788D01*
X175061462Y-101943939D01*
X174932647Y-100627098D01*
X175187515Y-101817726D01*
G37*
G36*
X154282341Y-123248947D02*
G01*
X154017753Y-123248947D01*
X154017753Y-122984360D01*
X154282341Y-122984360D01*
X154282341Y-123248947D01*
G37*
G36*
X180211502Y-107925644D02*
G01*
X180608383Y-107940140D01*
X180079208Y-108167541D01*
X179550033Y-108394928D01*
X179285446Y-108409424D01*
X179285476Y-108409622D01*
X179020889Y-108424118D01*
X179417755Y-108167633D01*
X179814636Y-107911148D01*
X180211502Y-107925644D01*
G37*
G36*
X177565628Y-109226089D02*
G01*
X177301040Y-109226089D01*
X177301040Y-108961502D01*
X177565628Y-108961502D01*
X177565628Y-109226089D01*
G37*
G36*
X174003219Y-127746826D02*
G01*
X174646499Y-129466629D01*
X174650497Y-129561035D01*
X174654495Y-129655441D01*
X174298782Y-129518936D01*
X173943069Y-129382431D01*
X174049774Y-130615112D01*
X174156479Y-131847793D01*
X173486465Y-132641663D01*
X172815696Y-133435409D01*
X173370849Y-132257004D01*
X173925995Y-131078598D01*
X173662307Y-129926315D01*
X173398620Y-128774048D01*
X173762359Y-128913620D01*
X174126083Y-129053207D01*
X174126083Y-128869797D01*
X173729217Y-127919937D01*
X173332336Y-126970093D01*
X173346130Y-126498566D01*
X173359924Y-126027038D01*
X174003219Y-127746826D01*
G37*
G36*
X181446243Y-107726715D02*
G01*
X181622635Y-107903107D01*
X180917083Y-107903107D01*
X181093460Y-107726715D01*
X181269851Y-107550339D01*
X181446243Y-107726715D01*
G37*
G36*
X161919548Y-110837997D02*
G01*
X162616668Y-111227814D01*
X162857361Y-112193268D01*
X163098053Y-113158737D01*
X162652824Y-113838241D01*
X162207603Y-114517746D01*
X161434952Y-114517761D01*
X160662300Y-114517761D01*
X160250419Y-113929718D01*
X159838539Y-113341675D01*
X159838539Y-111354950D01*
X160530487Y-110901565D01*
X161222435Y-110448181D01*
X161919548Y-110837997D01*
G37*
G36*
X161377281Y-110864563D02*
G01*
X162352173Y-110945663D01*
X162684700Y-111964218D01*
X163017227Y-112982757D01*
X162682853Y-113684006D01*
X162348480Y-114385239D01*
X161534034Y-114464828D01*
X160719581Y-114544525D01*
X160398590Y-114157745D01*
X160077591Y-113770965D01*
X159929374Y-112857605D01*
X159781158Y-111944244D01*
X160091781Y-111363846D01*
X160402405Y-110783462D01*
X161377281Y-110864563D01*
G37*
G36*
X173332351Y-133038528D02*
G01*
X173067772Y-133038528D01*
X173067772Y-132773941D01*
X173332351Y-132773941D01*
X173332351Y-133038528D01*
G37*
G36*
X176534256Y-105451187D02*
G01*
X177082229Y-106306808D01*
X178051147Y-105621262D01*
X179020065Y-104935715D01*
X177257400Y-106521988D01*
X177874145Y-107475555D01*
X178490890Y-108429123D01*
X178846206Y-108297165D01*
X179201523Y-108165207D01*
X179904541Y-108031662D01*
X180607574Y-107898117D01*
X179734451Y-108237015D01*
X178861328Y-108575928D01*
X178614029Y-108967010D01*
X178614853Y-108967010D01*
X178367553Y-109358093D01*
X178363556Y-109011749D01*
X178359558Y-108665405D01*
X178097992Y-108827057D01*
X177836441Y-108988708D01*
X177987350Y-108595444D01*
X178138260Y-108202179D01*
X175978286Y-105021484D01*
X175982284Y-104808533D01*
X175986282Y-104595581D01*
X176534256Y-105451187D01*
G37*
G36*
X152231819Y-108786209D02*
G01*
X152562545Y-108919662D01*
X151239647Y-108919662D01*
X151570366Y-108786209D01*
X151901092Y-108652756D01*
X152231819Y-108786209D01*
G37*
G36*
X151195556Y-120338470D02*
G01*
X150489990Y-120338470D01*
X150666382Y-120162079D01*
X150842773Y-119985687D01*
X151195556Y-120338470D01*
G37*
G36*
X178029495Y-113570358D02*
G01*
X178133880Y-113674744D01*
X177710693Y-114493088D01*
X177287506Y-115311432D01*
X177166305Y-115311401D01*
X177045089Y-115311401D01*
X177485107Y-114388687D01*
X177925110Y-113465973D01*
X178029495Y-113570358D01*
G37*
G36*
X155472984Y-117265777D02*
G01*
X154679237Y-117627212D01*
X154017776Y-117789490D01*
X153356315Y-117951767D01*
X154943809Y-117228897D01*
X155605270Y-117066620D01*
X156266731Y-116904343D01*
X155472984Y-117265777D01*
G37*
G36*
X174571487Y-98593101D02*
G01*
X174710464Y-98940361D01*
X174550613Y-99100220D01*
X174550567Y-99100220D01*
X174390716Y-99260071D01*
X174432525Y-98245834D01*
X174571487Y-98593101D01*
G37*
G36*
X173596817Y-126688538D02*
G01*
X173332229Y-126688538D01*
X173332229Y-126423950D01*
X173596817Y-126423950D01*
X173596817Y-126688538D01*
G37*
G36*
X181446243Y-107726486D02*
G01*
X181622635Y-107902878D01*
X180917083Y-107902878D01*
X181093460Y-107726486D01*
X181269851Y-107550110D01*
X181446243Y-107726486D01*
G37*
G36*
X175228546Y-120073898D02*
G01*
X175095093Y-120404602D01*
X174961639Y-120735336D01*
X174961639Y-119412430D01*
X175228546Y-120073898D01*
G37*
G36*
X173596954Y-132509354D02*
G01*
X173332367Y-132509354D01*
X173332367Y-132244766D01*
X173596954Y-132244766D01*
X173596954Y-132509354D01*
G37*
G36*
X174126083Y-131980225D02*
G01*
X173565704Y-131980225D01*
X173729217Y-131715637D01*
X173892730Y-131451050D01*
X174126083Y-131451050D01*
X174126083Y-131980225D01*
G37*
G36*
X175100616Y-120024277D02*
G01*
X175239578Y-120371536D01*
X175079727Y-120531402D01*
X175079712Y-120531402D01*
X174919845Y-120691254D01*
X174961654Y-119677002D01*
X175100616Y-120024277D01*
G37*
G36*
X172682983Y-106700485D02*
G01*
X173332412Y-107349914D01*
X173332412Y-108996246D01*
X173058525Y-109508026D01*
X172784637Y-110019791D01*
X171996261Y-110019806D01*
X171207931Y-110019806D01*
X170683639Y-109159912D01*
X170159347Y-108300018D01*
X170158348Y-107704712D01*
X170157425Y-107109390D01*
X170686592Y-106580231D01*
X171215759Y-106051056D01*
X172033554Y-106051056D01*
X172682983Y-106700485D01*
G37*
G36*
X167690254Y-112226990D02*
G01*
X167829094Y-112365829D01*
X167654693Y-112648025D01*
X167480293Y-112930221D01*
X166453193Y-112930221D01*
X166453193Y-112436706D01*
X167002296Y-112262421D01*
X167551407Y-112088135D01*
X167690254Y-112226990D01*
G37*
G36*
X175625396Y-123072555D02*
G01*
X175801788Y-123248947D01*
X175625396Y-123425339D01*
X175449005Y-123601715D01*
X175449005Y-122896164D01*
X175625396Y-123072555D01*
G37*
G36*
X174126098Y-128276016D02*
G01*
X173861511Y-128276016D01*
X173861511Y-128011429D01*
X174126098Y-128011429D01*
X174126098Y-128276016D01*
G37*
G36*
X177389297Y-129069763D02*
G01*
X177212906Y-129246155D01*
X177036514Y-129422546D01*
X177036514Y-128716980D01*
X177389297Y-129069763D01*
G37*
G36*
X162475143Y-111325302D02*
G01*
X162749031Y-111837082D01*
X162749031Y-113969910D01*
X162237259Y-114243805D01*
X161725487Y-114517700D01*
X161377357Y-114509598D01*
X161029236Y-114501602D01*
X160602901Y-114253052D01*
X160576858Y-114237869D01*
X160149058Y-113988464D01*
X160124481Y-113974136D01*
X160077531Y-113723877D01*
X160367775Y-113723877D01*
X160367775Y-113988464D01*
X160632362Y-113988464D01*
X161690696Y-113988464D01*
X161690696Y-114253052D01*
X161955284Y-114253052D01*
X161955284Y-113988464D01*
X161690696Y-113988464D01*
X160632362Y-113988464D01*
X160632362Y-113723877D01*
X162219856Y-113723877D01*
X162219856Y-113988464D01*
X162484451Y-113988464D01*
X162484451Y-113723877D01*
X162219856Y-113723877D01*
X160632362Y-113723877D01*
X160367775Y-113723877D01*
X160077531Y-113723877D01*
X159948303Y-113035049D01*
X159772133Y-112095947D01*
X160064285Y-111454742D01*
X160115365Y-111342636D01*
X160235922Y-111078049D01*
X160896942Y-111078049D01*
X160896942Y-111342636D01*
X161161529Y-111342636D01*
X161161529Y-111078049D01*
X160896942Y-111078049D01*
X160235922Y-111078049D01*
X160356445Y-110813537D01*
X162201256Y-110813537D01*
X162475143Y-111325302D01*
G37*
G36*
X173773208Y-127305893D02*
G01*
X173949585Y-127482284D01*
X173773208Y-127658676D01*
X173773193Y-127658676D01*
X173596817Y-127835068D01*
X173596817Y-127129501D01*
X173773208Y-127305893D01*
G37*
G36*
X157898353Y-116457977D02*
G01*
X158074745Y-116634369D01*
X157369178Y-116634369D01*
X157545570Y-116457977D01*
X157721962Y-116281601D01*
X157898353Y-116457977D01*
G37*
G36*
X151019172Y-120161911D02*
G01*
X151195564Y-120338303D01*
X150489998Y-120338303D01*
X150842781Y-119985519D01*
X151019172Y-120161911D01*
G37*
G36*
X175103454Y-101095169D02*
G01*
X175225433Y-101563217D01*
X175093658Y-101888916D01*
X175093277Y-101888908D01*
X174961502Y-102214600D01*
X174971496Y-101420853D01*
X174981491Y-100627106D01*
X175103454Y-101095169D01*
G37*
G36*
X151645637Y-134876099D02*
G01*
X152163910Y-136317322D01*
X153025161Y-137213928D01*
X153886398Y-138110519D01*
X154812439Y-138605286D01*
X155738479Y-139100052D01*
X155473900Y-139109054D01*
X155472984Y-139109421D01*
X155208404Y-139118423D01*
X154150062Y-138483169D01*
X153091736Y-137847931D01*
X152514885Y-137066147D01*
X151938026Y-136284363D01*
X151522697Y-135290329D01*
X151107361Y-134296295D01*
X151117363Y-133865585D01*
X151127365Y-133434875D01*
X151645637Y-134876099D01*
G37*
G36*
X173861526Y-131979919D02*
G01*
X173596939Y-131979919D01*
X173596939Y-131715332D01*
X173861526Y-131715332D01*
X173861526Y-131979919D01*
G37*
G36*
X170023414Y-93392692D02*
G01*
X170118416Y-93487694D01*
X169760078Y-95029243D01*
X169401725Y-96570801D01*
X169236397Y-98334350D01*
X169071068Y-100097908D01*
X169445335Y-99634880D01*
X169819618Y-99171860D01*
X170116104Y-99171860D01*
X170280555Y-99920601D01*
X170445007Y-100669334D01*
X171372650Y-101033317D01*
X172300293Y-101397301D01*
X172584541Y-101739799D01*
X172868667Y-102082291D01*
X172637085Y-102051506D01*
X172406242Y-102020706D01*
X171284164Y-101456222D01*
X170162086Y-100891739D01*
X170001114Y-100402077D01*
X169840141Y-99912430D01*
X169548919Y-100203636D01*
X169257698Y-100494858D01*
X168834366Y-100494858D01*
X168838363Y-98510483D01*
X169081932Y-97023613D01*
X169325500Y-95536743D01*
X169626961Y-94417221D01*
X169928413Y-93297691D01*
X170023414Y-93392692D01*
G37*
G36*
X178814636Y-137870834D02*
G01*
X178925216Y-138602081D01*
X178810272Y-139193741D01*
X178696075Y-139785416D01*
X178700073Y-138462509D01*
X178704071Y-137139587D01*
X178814636Y-137870834D01*
G37*
G36*
X167776123Y-112930221D02*
G01*
X166409111Y-112930221D01*
X166612755Y-112319290D01*
X167194442Y-112104111D01*
X167776123Y-111888931D01*
X167776123Y-112930221D01*
G37*
G36*
X175259048Y-102082306D02*
G01*
X175599014Y-103537514D01*
X176354004Y-104915954D01*
X177108978Y-106294388D01*
X178059036Y-105511261D01*
X179009094Y-104728149D01*
X179512939Y-104728149D01*
X178411468Y-105670959D01*
X177309982Y-106613785D01*
X177899917Y-107456909D01*
X178489853Y-108300033D01*
X178511856Y-108408432D01*
X179560058Y-108035095D01*
X180608261Y-107661758D01*
X181137420Y-107670761D01*
X181666595Y-107679764D01*
X180211380Y-108188431D01*
X178756164Y-108697098D01*
X178755630Y-110497620D01*
X178755111Y-112298157D01*
X176806442Y-116236969D01*
X175839828Y-117364624D01*
X174873199Y-118492279D01*
X174358215Y-118767898D01*
X174358124Y-118768478D01*
X173843124Y-119044098D01*
X175062118Y-117773102D01*
X176281112Y-116502106D01*
X177315109Y-114385437D01*
X178349106Y-112268783D01*
X178514419Y-110926498D01*
X178679718Y-109584213D01*
X177855407Y-108759903D01*
X177996536Y-108618774D01*
X178137665Y-108477646D01*
X177853378Y-107946457D01*
X177569092Y-107415253D01*
X176868713Y-106712524D01*
X176027054Y-104992737D01*
X175185394Y-103272926D01*
X175052231Y-101950020D01*
X174919067Y-100627098D01*
X175259048Y-102082306D01*
G37*
G36*
X178005508Y-132178650D02*
G01*
X178138962Y-132509384D01*
X178005508Y-132840088D01*
X177872055Y-133170822D01*
X177872055Y-131847916D01*
X178005508Y-132178650D01*
G37*
G36*
X173513138Y-126374344D02*
G01*
X173652099Y-126721603D01*
X173492248Y-126881470D01*
X173492233Y-126881470D01*
X173332367Y-127041321D01*
X173353271Y-126534195D01*
X173374176Y-126027069D01*
X173513138Y-126374344D01*
G37*
G36*
X172009330Y-106299240D02*
G01*
X172406204Y-106345535D01*
X172869224Y-106889038D01*
X173332245Y-107432526D01*
X173332245Y-109188171D01*
X172916473Y-109603958D01*
X172500702Y-110019730D01*
X171990417Y-110019806D01*
X171480148Y-110019806D01*
X170977920Y-109517578D01*
X170475700Y-109015366D01*
X170298851Y-108210190D01*
X170122001Y-107405014D01*
X170413513Y-106860336D01*
X170705024Y-106315643D01*
X171158737Y-106284241D01*
X171612449Y-106252945D01*
X172009330Y-106299240D01*
G37*
G36*
X151548332Y-134714233D02*
G01*
X151724724Y-134890625D01*
X151548332Y-135067017D01*
X151371940Y-135243408D01*
X151371940Y-134537857D01*
X151548332Y-134714233D01*
G37*
G36*
X156994323Y-139212967D02*
G01*
X157325050Y-139346420D01*
X156002151Y-139346420D01*
X156332870Y-139212967D01*
X156663597Y-139079513D01*
X156994323Y-139212967D01*
G37*
G36*
X174831543Y-99789245D02*
G01*
X175007934Y-99965637D01*
X174831543Y-100142029D01*
X174655151Y-100318420D01*
X174655151Y-99612869D01*
X174831543Y-99789245D01*
G37*
G36*
X174214294Y-130657288D02*
G01*
X174037903Y-130833679D01*
X173861511Y-131010071D01*
X173861511Y-130304504D01*
X174214294Y-130657288D01*
G37*
G36*
X155114906Y-133303085D02*
G01*
X154993904Y-133766128D01*
X154872902Y-134229141D01*
X154872902Y-132377060D01*
X155114906Y-133303085D01*
G37*
G36*
X175360824Y-121749634D02*
G01*
X175537201Y-121926025D01*
X175360824Y-122102417D01*
X175184433Y-122278808D01*
X175184433Y-121573242D01*
X175360824Y-121749634D01*
G37*
G36*
X162955948Y-121529251D02*
G01*
X162587898Y-121870315D01*
X162219841Y-122211471D01*
X162219841Y-121711105D01*
X160830780Y-121515198D01*
X159441719Y-121319290D01*
X159706299Y-121226486D01*
X159970886Y-121133682D01*
X162955948Y-121529251D01*
G37*
G36*
X172729240Y-141045883D02*
G01*
X172839821Y-141777130D01*
X172724853Y-142368790D01*
X172610672Y-142960464D01*
X172614670Y-141637558D01*
X172618667Y-140314636D01*
X172729240Y-141045883D01*
G37*
G36*
X175359680Y-121595245D02*
G01*
X175493133Y-121925979D01*
X175359680Y-122256683D01*
X175226227Y-122587417D01*
X175226227Y-121264511D01*
X175359680Y-121595245D01*
G37*
G36*
X151636520Y-120603104D02*
G01*
X151371933Y-120603104D01*
X151371933Y-120338516D01*
X151636520Y-120338516D01*
X151636520Y-120603104D01*
G37*
G36*
X152124809Y-120710144D02*
G01*
X152430267Y-120898941D01*
X152430267Y-121132294D01*
X152313583Y-121132278D01*
X152196914Y-121132278D01*
X152008125Y-120826813D01*
X151819336Y-120521347D01*
X152124809Y-120710144D01*
G37*
G36*
X172464210Y-144640579D02*
G01*
X172582397Y-145262802D01*
X172421447Y-145904083D01*
X172260498Y-146545349D01*
X171738060Y-147067795D01*
X171215629Y-147590240D01*
X170091148Y-147544037D01*
X170091209Y-147543991D01*
X168966728Y-147497787D01*
X170083679Y-147396881D01*
X171200638Y-147295959D01*
X171737327Y-146613663D01*
X172274017Y-145931366D01*
X172310020Y-144974869D01*
X172346023Y-144018356D01*
X172464210Y-144640579D01*
G37*
G36*
X173332351Y-133038254D02*
G01*
X173067772Y-133038254D01*
X173067772Y-132773666D01*
X173332351Y-132773666D01*
X173332351Y-133038254D01*
G37*
G36*
X167423332Y-142122574D02*
G01*
X167599708Y-142298965D01*
X167423332Y-142475357D01*
X167246940Y-142651733D01*
X167246940Y-141946182D01*
X167423332Y-142122574D01*
G37*
G36*
X169281418Y-96592262D02*
G01*
X169402420Y-97055283D01*
X169281418Y-97518303D01*
X169160408Y-97981323D01*
X169160408Y-96129242D01*
X169281418Y-96592262D01*
G37*
G36*
X151544731Y-108579346D02*
G01*
X153648903Y-108944488D01*
X154881141Y-109489563D01*
X156113373Y-110034637D01*
X156273391Y-110293564D01*
X156433410Y-110552475D01*
X156063461Y-110694443D01*
X155693512Y-110836395D01*
X155885833Y-112081619D01*
X156078155Y-113326843D01*
X156017692Y-113393234D01*
X155958091Y-113459335D01*
X155781700Y-113282944D01*
X155605308Y-113106567D01*
X155605308Y-111972977D01*
X154828392Y-110945785D01*
X154820389Y-110766739D01*
X154812385Y-110587707D01*
X155738426Y-110389892D01*
X154855713Y-109921585D01*
X153972999Y-109453278D01*
X152209877Y-109079590D01*
X150446754Y-108705902D01*
X149388412Y-108684509D01*
X148330085Y-108663116D01*
X148885322Y-108438660D01*
X149440559Y-108214203D01*
X151544731Y-108579346D01*
G37*
G36*
X176392654Y-126027084D02*
G01*
X177043304Y-128143753D01*
X178073089Y-131979599D01*
X178501465Y-134824173D01*
X178929840Y-137668747D01*
X178573913Y-142695816D01*
X178364319Y-143842972D01*
X178154724Y-144990127D01*
X177264908Y-145916061D01*
X176375091Y-146841995D01*
X175660629Y-147216293D01*
X174946151Y-147590591D01*
X173676239Y-147553299D01*
X173676223Y-147553421D01*
X172406311Y-147516128D01*
X173729233Y-147352753D01*
X175052154Y-147189361D01*
X177009857Y-145976471D01*
X178053924Y-144283356D01*
X178329361Y-141324127D01*
X178604812Y-138364883D01*
X178361328Y-136230057D01*
X178117843Y-134095230D01*
X177823044Y-132442413D01*
X177528244Y-130789596D01*
X176620926Y-127779510D01*
X175713608Y-124769424D01*
X175727813Y-124339920D01*
X175742019Y-123910416D01*
X176392654Y-126027084D01*
G37*
G36*
X149850570Y-119898651D02*
G01*
X150181297Y-120032104D01*
X148858398Y-120032104D01*
X149189117Y-119898651D01*
X149519844Y-119765198D01*
X149850570Y-119898651D01*
G37*
G36*
X179417785Y-104992783D02*
G01*
X179153198Y-104992783D01*
X179153198Y-104728195D01*
X179417785Y-104728195D01*
X179417785Y-104992783D01*
G37*
G36*
X176860122Y-127482269D02*
G01*
X176507339Y-127835052D01*
X176507339Y-127129486D01*
X176860122Y-127482269D01*
G37*
D11*
X146558020Y-114000150D02*
X146558020Y-112000150D01*
X146558020Y-112000150D02*
X145891353Y-113428721D01*
X145891353Y-113428721D02*
X145224687Y-112000150D01*
X145224687Y-112000150D02*
X145224687Y-114000150D01*
X144367544Y-113428721D02*
X143415163Y-113428721D01*
X144558020Y-114000150D02*
X143891354Y-112000150D01*
X143891354Y-112000150D02*
X143224687Y-114000150D01*
X142558020Y-114000150D02*
X142558020Y-112000150D01*
X142558020Y-112000150D02*
X142081830Y-112000150D01*
X142081830Y-112000150D02*
X141796115Y-112095388D01*
X141796115Y-112095388D02*
X141605639Y-112285864D01*
X141605639Y-112285864D02*
X141510401Y-112476340D01*
X141510401Y-112476340D02*
X141415163Y-112857292D01*
X141415163Y-112857292D02*
X141415163Y-113143007D01*
X141415163Y-113143007D02*
X141510401Y-113523959D01*
X141510401Y-113523959D02*
X141605639Y-113714435D01*
X141605639Y-113714435D02*
X141796115Y-113904912D01*
X141796115Y-113904912D02*
X142081830Y-114000150D01*
X142081830Y-114000150D02*
X142558020Y-114000150D01*
X140558020Y-112952531D02*
X139891353Y-112952531D01*
X139605639Y-114000150D02*
X140558020Y-114000150D01*
X140558020Y-114000150D02*
X140558020Y-112000150D01*
X140558020Y-112000150D02*
X139605639Y-112000150D01*
X137415162Y-112666816D02*
X137034210Y-114000150D01*
X137034210Y-114000150D02*
X136653257Y-113047769D01*
X136653257Y-113047769D02*
X136272305Y-114000150D01*
X136272305Y-114000150D02*
X135891353Y-112666816D01*
X133700877Y-111904912D02*
X135415162Y-114476340D01*
X131796114Y-112000150D02*
X130653257Y-112000150D01*
X131224686Y-114000150D02*
X131224686Y-112000150D01*
X129986590Y-112952531D02*
X129319923Y-112952531D01*
X129034209Y-114000150D02*
X129986590Y-114000150D01*
X129986590Y-114000150D02*
X129986590Y-112000150D01*
X129986590Y-112000150D02*
X129034209Y-112000150D01*
X128272304Y-113428721D02*
X127319923Y-113428721D01*
X128462780Y-114000150D02*
X127796114Y-112000150D01*
X127796114Y-112000150D02*
X127129447Y-114000150D01*
X125319923Y-114000150D02*
X125986590Y-113047769D01*
X126462780Y-114000150D02*
X126462780Y-112000150D01*
X126462780Y-112000150D02*
X125700875Y-112000150D01*
X125700875Y-112000150D02*
X125510399Y-112095388D01*
X125510399Y-112095388D02*
X125415161Y-112190626D01*
X125415161Y-112190626D02*
X125319923Y-112381102D01*
X125319923Y-112381102D02*
X125319923Y-112666816D01*
X125319923Y-112666816D02*
X125415161Y-112857292D01*
X125415161Y-112857292D02*
X125510399Y-112952531D01*
X125510399Y-112952531D02*
X125700875Y-113047769D01*
X125700875Y-113047769D02*
X126462780Y-113047769D01*
X124558018Y-113904912D02*
X124272304Y-114000150D01*
X124272304Y-114000150D02*
X123796113Y-114000150D01*
X123796113Y-114000150D02*
X123605637Y-113904912D01*
X123605637Y-113904912D02*
X123510399Y-113809673D01*
X123510399Y-113809673D02*
X123415161Y-113619197D01*
X123415161Y-113619197D02*
X123415161Y-113428721D01*
X123415161Y-113428721D02*
X123510399Y-113238245D01*
X123510399Y-113238245D02*
X123605637Y-113143007D01*
X123605637Y-113143007D02*
X123796113Y-113047769D01*
X123796113Y-113047769D02*
X124177066Y-112952531D01*
X124177066Y-112952531D02*
X124367542Y-112857292D01*
X124367542Y-112857292D02*
X124462780Y-112762054D01*
X124462780Y-112762054D02*
X124558018Y-112571578D01*
X124558018Y-112571578D02*
X124558018Y-112381102D01*
X124558018Y-112381102D02*
X124462780Y-112190626D01*
X124462780Y-112190626D02*
X124367542Y-112095388D01*
X124367542Y-112095388D02*
X124177066Y-112000150D01*
X124177066Y-112000150D02*
X123700875Y-112000150D01*
X123700875Y-112000150D02*
X123415161Y-112095388D01*
X122462780Y-113904912D02*
X122462780Y-114000150D01*
X122462780Y-114000150D02*
X122558018Y-114190626D01*
X122558018Y-114190626D02*
X122653256Y-114285864D01*
X120177065Y-113904912D02*
X119891351Y-114000150D01*
X119891351Y-114000150D02*
X119415160Y-114000150D01*
X119415160Y-114000150D02*
X119224684Y-113904912D01*
X119224684Y-113904912D02*
X119129446Y-113809673D01*
X119129446Y-113809673D02*
X119034208Y-113619197D01*
X119034208Y-113619197D02*
X119034208Y-113428721D01*
X119034208Y-113428721D02*
X119129446Y-113238245D01*
X119129446Y-113238245D02*
X119224684Y-113143007D01*
X119224684Y-113143007D02*
X119415160Y-113047769D01*
X119415160Y-113047769D02*
X119796113Y-112952531D01*
X119796113Y-112952531D02*
X119986589Y-112857292D01*
X119986589Y-112857292D02*
X120081827Y-112762054D01*
X120081827Y-112762054D02*
X120177065Y-112571578D01*
X120177065Y-112571578D02*
X120177065Y-112381102D01*
X120177065Y-112381102D02*
X120081827Y-112190626D01*
X120081827Y-112190626D02*
X119986589Y-112095388D01*
X119986589Y-112095388D02*
X119796113Y-112000150D01*
X119796113Y-112000150D02*
X119319922Y-112000150D01*
X119319922Y-112000150D02*
X119034208Y-112095388D01*
X118462779Y-112000150D02*
X117319922Y-112000150D01*
X117891351Y-114000150D02*
X117891351Y-112000150D01*
X115510398Y-114000150D02*
X116177065Y-113047769D01*
X116653255Y-114000150D02*
X116653255Y-112000150D01*
X116653255Y-112000150D02*
X115891350Y-112000150D01*
X115891350Y-112000150D02*
X115700874Y-112095388D01*
X115700874Y-112095388D02*
X115605636Y-112190626D01*
X115605636Y-112190626D02*
X115510398Y-112381102D01*
X115510398Y-112381102D02*
X115510398Y-112666816D01*
X115510398Y-112666816D02*
X115605636Y-112857292D01*
X115605636Y-112857292D02*
X115700874Y-112952531D01*
X115700874Y-112952531D02*
X115891350Y-113047769D01*
X115891350Y-113047769D02*
X116653255Y-113047769D01*
X114653255Y-112952531D02*
X113986588Y-112952531D01*
X113700874Y-114000150D02*
X114653255Y-114000150D01*
X114653255Y-114000150D02*
X114653255Y-112000150D01*
X114653255Y-112000150D02*
X113700874Y-112000150D01*
X112938969Y-113904912D02*
X112653255Y-114000150D01*
X112653255Y-114000150D02*
X112177064Y-114000150D01*
X112177064Y-114000150D02*
X111986588Y-113904912D01*
X111986588Y-113904912D02*
X111891350Y-113809673D01*
X111891350Y-113809673D02*
X111796112Y-113619197D01*
X111796112Y-113619197D02*
X111796112Y-113428721D01*
X111796112Y-113428721D02*
X111891350Y-113238245D01*
X111891350Y-113238245D02*
X111986588Y-113143007D01*
X111986588Y-113143007D02*
X112177064Y-113047769D01*
X112177064Y-113047769D02*
X112558017Y-112952531D01*
X112558017Y-112952531D02*
X112748493Y-112857292D01*
X112748493Y-112857292D02*
X112843731Y-112762054D01*
X112843731Y-112762054D02*
X112938969Y-112571578D01*
X112938969Y-112571578D02*
X112938969Y-112381102D01*
X112938969Y-112381102D02*
X112843731Y-112190626D01*
X112843731Y-112190626D02*
X112748493Y-112095388D01*
X112748493Y-112095388D02*
X112558017Y-112000150D01*
X112558017Y-112000150D02*
X112081826Y-112000150D01*
X112081826Y-112000150D02*
X111796112Y-112095388D01*
X111034207Y-113904912D02*
X110748493Y-114000150D01*
X110748493Y-114000150D02*
X110272302Y-114000150D01*
X110272302Y-114000150D02*
X110081826Y-113904912D01*
X110081826Y-113904912D02*
X109986588Y-113809673D01*
X109986588Y-113809673D02*
X109891350Y-113619197D01*
X109891350Y-113619197D02*
X109891350Y-113428721D01*
X109891350Y-113428721D02*
X109986588Y-113238245D01*
X109986588Y-113238245D02*
X110081826Y-113143007D01*
X110081826Y-113143007D02*
X110272302Y-113047769D01*
X110272302Y-113047769D02*
X110653255Y-112952531D01*
X110653255Y-112952531D02*
X110843731Y-112857292D01*
X110843731Y-112857292D02*
X110938969Y-112762054D01*
X110938969Y-112762054D02*
X111034207Y-112571578D01*
X111034207Y-112571578D02*
X111034207Y-112381102D01*
X111034207Y-112381102D02*
X110938969Y-112190626D01*
X110938969Y-112190626D02*
X110843731Y-112095388D01*
X110843731Y-112095388D02*
X110653255Y-112000150D01*
X110653255Y-112000150D02*
X110177064Y-112000150D01*
X110177064Y-112000150D02*
X109891350Y-112095388D01*
X108938969Y-113904912D02*
X108938969Y-114000150D01*
X108938969Y-114000150D02*
X109034207Y-114190626D01*
X109034207Y-114190626D02*
X109129445Y-114285864D01*
X144938972Y-117220038D02*
X145034211Y-117220038D01*
X145034211Y-117220038D02*
X145224687Y-117124800D01*
X145224687Y-117124800D02*
X145510401Y-116839085D01*
X145510401Y-116839085D02*
X145986591Y-116267657D01*
X145986591Y-116267657D02*
X146177068Y-115981942D01*
X146177068Y-115981942D02*
X146272306Y-115696228D01*
X146272306Y-115696228D02*
X146272306Y-115505752D01*
X146272306Y-115505752D02*
X146177068Y-115315276D01*
X146177068Y-115315276D02*
X145986591Y-115220038D01*
X145986591Y-115220038D02*
X145891353Y-115220038D01*
X145891353Y-115220038D02*
X145700877Y-115315276D01*
X145700877Y-115315276D02*
X145605639Y-115505752D01*
X145605639Y-115505752D02*
X145605639Y-115600990D01*
X145605639Y-115600990D02*
X145700877Y-115791466D01*
X145700877Y-115791466D02*
X145796115Y-115886704D01*
X145796115Y-115886704D02*
X146367544Y-116267657D01*
X146367544Y-116267657D02*
X146462782Y-116362895D01*
X146462782Y-116362895D02*
X146558020Y-116553371D01*
X146558020Y-116553371D02*
X146558020Y-116839085D01*
X146558020Y-116839085D02*
X146462782Y-117029561D01*
X146462782Y-117029561D02*
X146367544Y-117124800D01*
X146367544Y-117124800D02*
X146177068Y-117220038D01*
X146177068Y-117220038D02*
X145891353Y-117220038D01*
X145891353Y-117220038D02*
X145700877Y-117124800D01*
X145700877Y-117124800D02*
X145605639Y-117029561D01*
X145605639Y-117029561D02*
X145319925Y-116648609D01*
X145319925Y-116648609D02*
X145224687Y-116362895D01*
X145224687Y-116362895D02*
X145224687Y-116172419D01*
X141891353Y-116172419D02*
X141605639Y-116267657D01*
X141605639Y-116267657D02*
X141510401Y-116362895D01*
X141510401Y-116362895D02*
X141415163Y-116553371D01*
X141415163Y-116553371D02*
X141415163Y-116839085D01*
X141415163Y-116839085D02*
X141510401Y-117029561D01*
X141510401Y-117029561D02*
X141605639Y-117124800D01*
X141605639Y-117124800D02*
X141796115Y-117220038D01*
X141796115Y-117220038D02*
X142558020Y-117220038D01*
X142558020Y-117220038D02*
X142558020Y-115220038D01*
X142558020Y-115220038D02*
X141891353Y-115220038D01*
X141891353Y-115220038D02*
X141700877Y-115315276D01*
X141700877Y-115315276D02*
X141605639Y-115410514D01*
X141605639Y-115410514D02*
X141510401Y-115600990D01*
X141510401Y-115600990D02*
X141510401Y-115791466D01*
X141510401Y-115791466D02*
X141605639Y-115981942D01*
X141605639Y-115981942D02*
X141700877Y-116077180D01*
X141700877Y-116077180D02*
X141891353Y-116172419D01*
X141891353Y-116172419D02*
X142558020Y-116172419D01*
X140558020Y-116172419D02*
X139891353Y-116172419D01*
X139605639Y-117220038D02*
X140558020Y-117220038D01*
X140558020Y-117220038D02*
X140558020Y-115220038D01*
X140558020Y-115220038D02*
X139605639Y-115220038D01*
X138748496Y-117220038D02*
X138748496Y-115220038D01*
X138748496Y-115220038D02*
X137605639Y-117220038D01*
X137605639Y-117220038D02*
X137605639Y-115220038D01*
X136748496Y-117124800D02*
X136462782Y-117220038D01*
X136462782Y-117220038D02*
X135986591Y-117220038D01*
X135986591Y-117220038D02*
X135796115Y-117124800D01*
X135796115Y-117124800D02*
X135700877Y-117029561D01*
X135700877Y-117029561D02*
X135605639Y-116839085D01*
X135605639Y-116839085D02*
X135605639Y-116648609D01*
X135605639Y-116648609D02*
X135700877Y-116458133D01*
X135700877Y-116458133D02*
X135796115Y-116362895D01*
X135796115Y-116362895D02*
X135986591Y-116267657D01*
X135986591Y-116267657D02*
X136367544Y-116172419D01*
X136367544Y-116172419D02*
X136558020Y-116077180D01*
X136558020Y-116077180D02*
X136653258Y-115981942D01*
X136653258Y-115981942D02*
X136748496Y-115791466D01*
X136748496Y-115791466D02*
X136748496Y-115600990D01*
X136748496Y-115600990D02*
X136653258Y-115410514D01*
X136653258Y-115410514D02*
X136558020Y-115315276D01*
X136558020Y-115315276D02*
X136367544Y-115220038D01*
X136367544Y-115220038D02*
X135891353Y-115220038D01*
X135891353Y-115220038D02*
X135605639Y-115315276D01*
X134367544Y-115220038D02*
X133986591Y-115220038D01*
X133986591Y-115220038D02*
X133796115Y-115315276D01*
X133796115Y-115315276D02*
X133605639Y-115505752D01*
X133605639Y-115505752D02*
X133510401Y-115886704D01*
X133510401Y-115886704D02*
X133510401Y-116553371D01*
X133510401Y-116553371D02*
X133605639Y-116934323D01*
X133605639Y-116934323D02*
X133796115Y-117124800D01*
X133796115Y-117124800D02*
X133986591Y-117220038D01*
X133986591Y-117220038D02*
X134367544Y-117220038D01*
X134367544Y-117220038D02*
X134558020Y-117124800D01*
X134558020Y-117124800D02*
X134748496Y-116934323D01*
X134748496Y-116934323D02*
X134843734Y-116553371D01*
X134843734Y-116553371D02*
X134843734Y-115886704D01*
X134843734Y-115886704D02*
X134748496Y-115505752D01*
X134748496Y-115505752D02*
X134558020Y-115315276D01*
X134558020Y-115315276D02*
X134367544Y-115220038D01*
X132653258Y-117220038D02*
X132653258Y-115220038D01*
X132653258Y-115220038D02*
X131510401Y-117220038D01*
X131510401Y-117220038D02*
X131510401Y-115220038D01*
X139034211Y-119678021D02*
X137510402Y-119678021D01*
X135129449Y-120344688D02*
X134843735Y-120439926D01*
X134843735Y-120439926D02*
X134367544Y-120439926D01*
X134367544Y-120439926D02*
X134177068Y-120344688D01*
X134177068Y-120344688D02*
X134081830Y-120249449D01*
X134081830Y-120249449D02*
X133986592Y-120058973D01*
X133986592Y-120058973D02*
X133986592Y-119868497D01*
X133986592Y-119868497D02*
X134081830Y-119678021D01*
X134081830Y-119678021D02*
X134177068Y-119582783D01*
X134177068Y-119582783D02*
X134367544Y-119487545D01*
X134367544Y-119487545D02*
X134748497Y-119392307D01*
X134748497Y-119392307D02*
X134938973Y-119297068D01*
X134938973Y-119297068D02*
X135034211Y-119201830D01*
X135034211Y-119201830D02*
X135129449Y-119011354D01*
X135129449Y-119011354D02*
X135129449Y-118820878D01*
X135129449Y-118820878D02*
X135034211Y-118630402D01*
X135034211Y-118630402D02*
X134938973Y-118535164D01*
X134938973Y-118535164D02*
X134748497Y-118439926D01*
X134748497Y-118439926D02*
X134272306Y-118439926D01*
X134272306Y-118439926D02*
X133986592Y-118535164D01*
X133224687Y-119868497D02*
X132272306Y-119868497D01*
X133415163Y-120439926D02*
X132748497Y-118439926D01*
X132748497Y-118439926D02*
X132081830Y-120439926D01*
X130272306Y-120439926D02*
X130938973Y-119487545D01*
X131415163Y-120439926D02*
X131415163Y-118439926D01*
X131415163Y-118439926D02*
X130653258Y-118439926D01*
X130653258Y-118439926D02*
X130462782Y-118535164D01*
X130462782Y-118535164D02*
X130367544Y-118630402D01*
X130367544Y-118630402D02*
X130272306Y-118820878D01*
X130272306Y-118820878D02*
X130272306Y-119106592D01*
X130272306Y-119106592D02*
X130367544Y-119297068D01*
X130367544Y-119297068D02*
X130462782Y-119392307D01*
X130462782Y-119392307D02*
X130653258Y-119487545D01*
X130653258Y-119487545D02*
X131415163Y-119487545D01*
X129510401Y-119868497D02*
X128558020Y-119868497D01*
X129700877Y-120439926D02*
X129034211Y-118439926D01*
X129034211Y-118439926D02*
X128367544Y-120439926D01*
X127700877Y-120439926D02*
X127700877Y-118439926D01*
X127700877Y-119392307D02*
X126558020Y-119392307D01*
X126558020Y-120439926D02*
X126558020Y-118439926D01*
M02*
