M48
; DRILL file {KiCad 8.0.5} date 2025-02-22T12:04:01-0800
; FORMAT={-:-/ absolute / inch / decimal}
; #@! TF.CreationDate,2025-02-22T12:04:01-08:00
; #@! TF.GenerationSoftware,Kicad,Pcbnew,8.0.5
; #@! TF.FileFunction,Plated,1,2,PTH
FMAT,2
INCH
; #@! TA.AperFunction,Plated,PTH,ViaDrill
T1C0.0118
; #@! TA.AperFunction,Plated,PTH,ComponentDrill
T2C0.0394
%
G90
G05
T1
X3.8988Y-4.7261
X3.9575Y-5.5508
X4.0433Y-4.741
X4.061Y-5.0988
X4.0867Y-5.1268
X4.1087Y-5.0185
X4.1221Y-4.6294
X4.1342Y-5.2166
X4.143Y-4.9431
X4.1973Y-3.6943
X4.2539Y-5.3547
X4.2551Y-5.8307
X4.2608Y-4.1112
X4.2614Y-3.7499
X4.2618Y-4.6346
X4.2624Y-4.5973
X4.2624Y-4.7207
X4.2673Y-4.9063
X4.2724Y-5.0606
X4.2837Y-4.2255
X4.298Y-4.5561
X4.298Y-4.8317
X4.298Y-5.8841
X4.2988Y-5.1642
X4.313Y-3.9124
X4.3514Y-3.8356
X4.4168Y-4.1865
X5.0508Y-5.8063
X5.1319Y-5.9144
X5.135Y-5.4785
X5.1945Y-5.4303
X5.2165Y-4.2371
X5.2198Y-5.8267
X5.2304Y-4.6207
X5.2304Y-5.0148
X5.2498Y-4.4906
X5.3083Y-4.2945
X5.3282Y-4.5355
X5.3992Y-4.5902
X5.4102Y-5.7807
X5.4386Y-4.9685
X5.4393Y-5.161
X5.4496Y-4.7016
X5.6421Y-5.3874
X5.6602Y-4.7756
X5.8172Y-5.0728
X5.9112Y-4.5014
X6.1142Y-4.8508
X6.1309Y-5.0965
X6.1484Y-4.9795
X6.1501Y-3.0866
X6.2625Y-5.0925
X6.2705Y-4.9941
X6.4881Y-4.5807
X6.531Y-4.8952
X6.5561Y-5.124
X6.9606Y-4.2933
X6.9832Y-4.682
X7.0673Y-5.0553
X7.1427Y-4.8996
T2
X3.2264Y-4.328
X3.2264Y-4.428
X3.2264Y-4.528
X3.2264Y-4.628
X3.2264Y-4.728
X3.2264Y-4.828
X3.2264Y-4.928
X3.2264Y-5.028
X3.2264Y-5.128
X3.2264Y-5.228
X4.1973Y-4.3194
X4.1973Y-4.4194
X4.1973Y-4.5194
X4.1973Y-4.6194
X4.1973Y-4.7194
X4.1973Y-4.8194
X4.1973Y-4.9194
X4.1973Y-5.0194
X4.1973Y-5.1194
X4.1973Y-5.2194
X5.6176Y-2.3332
X5.6176Y-2.4332
X5.6176Y-2.5332
X5.6176Y-2.6332
X5.6176Y-2.7332
X5.6176Y-2.8332
X5.6176Y-2.9332
X5.6176Y-3.0332
X5.6176Y-3.1332
X5.6176Y-3.2332
X5.6176Y-3.3332
X5.6176Y-3.4332
X5.6176Y-3.5332
X5.8843Y-2.321
X5.8843Y-2.421
X5.8843Y-2.521
X5.8843Y-2.621
X5.8843Y-2.721
X5.8843Y-2.821
X5.8843Y-2.921
X5.8843Y-3.021
X5.8843Y-3.121
X5.8843Y-3.221
X5.8843Y-3.321
X5.8843Y-3.421
X5.8843Y-3.521
X5.8843Y-3.621
X5.8843Y-3.721
X6.8878Y-2.3233
X6.8878Y-2.4233
X6.8878Y-2.5233
X6.8878Y-2.6233
X6.8878Y-2.7233
X6.8878Y-2.8233
X6.8878Y-2.9233
X6.8878Y-3.0233
X6.8878Y-3.1233
X6.8878Y-3.2233
X6.8878Y-3.3233
X6.8878Y-3.4233
X6.8878Y-3.5233
X6.8878Y-3.6233
X6.8878Y-3.7233
X7.1137Y-2.4277
X7.1137Y-2.5277
X7.1137Y-2.6277
X7.1137Y-2.7277
X7.1137Y-3.1363
X7.1137Y-3.2363
X7.1137Y-3.4513
X7.1137Y-3.5513
X7.2343Y-4.7622
X7.2343Y-4.8622
X7.2343Y-4.9622
X7.2343Y-5.0622
M30
