%TF.GenerationSoftware,KiCad,Pcbnew,8.0.5*%
%TF.CreationDate,2025-02-22T12:03:58-08:00*%
%TF.ProjectId,eegw:ads1299,65656777-3a61-4647-9331-3239392e6b69,rev?*%
%TF.SameCoordinates,Original*%
%TF.FileFunction,Copper,L2,Bot*%
%TF.FilePolarity,Positive*%
%FSLAX46Y46*%
G04 Gerber Fmt 4.6, Leading zero omitted, Abs format (unit mm)*
G04 Created by KiCad (PCBNEW 8.0.5) date 2025-02-22 12:03:58*
%MOMM*%
%LPD*%
G01*
G04 APERTURE LIST*
%TA.AperFunction,ComponentPad*%
%ADD10R,1.700000X1.700000*%
%TD*%
%TA.AperFunction,ComponentPad*%
%ADD11O,1.700000X1.700000*%
%TD*%
%TA.AperFunction,ViaPad*%
%ADD12C,0.600000*%
%TD*%
%TA.AperFunction,Conductor*%
%ADD13C,0.254000*%
%TD*%
%TA.AperFunction,Conductor*%
%ADD14C,0.381000*%
%TD*%
G04 APERTURE END LIST*
D10*
%TO.P,J1,1,Pin_1*%
%TO.N,en*%
X142687500Y-59262500D03*
D11*
%TO.P,J1,2,Pin_2*%
%TO.N,vp*%
X142687500Y-61802500D03*
%TO.P,J1,3,Pin_3*%
%TO.N,vn*%
X142687500Y-64342500D03*
%TO.P,J1,4,Pin_4*%
%TO.N,io34*%
X142687500Y-66882500D03*
%TO.P,J1,5,Pin_5*%
%TO.N,io35*%
X142687500Y-69422500D03*
%TO.P,J1,6,Pin_6*%
%TO.N,io32*%
X142687500Y-71962500D03*
%TO.P,J1,7,Pin_7*%
%TO.N,io33*%
X142687500Y-74502500D03*
%TO.P,J1,8,Pin_8*%
%TO.N,io25*%
X142687500Y-77042500D03*
%TO.P,J1,9,Pin_9*%
%TO.N,io26*%
X142687500Y-79582500D03*
%TO.P,J1,10,Pin_10*%
%TO.N,io27*%
X142687500Y-82122500D03*
%TO.P,J1,11,Pin_11*%
%TO.N,io14*%
X142687500Y-84662500D03*
%TO.P,J1,12,Pin_12*%
%TO.N,io12*%
X142687500Y-87202500D03*
%TO.P,J1,13,Pin_13*%
%TO.N,io13*%
X142687500Y-89742500D03*
%TD*%
D10*
%TO.P,J4,1,Pin_1*%
%TO.N,io22*%
X180687500Y-61662500D03*
D11*
%TO.P,J4,2,Pin_2*%
%TO.N,tx0*%
X180687500Y-64202500D03*
%TO.P,J4,3,Pin_3*%
%TO.N,rx0*%
X180687500Y-66742500D03*
%TO.P,J4,4,Pin_4*%
%TO.N,io21*%
X180687500Y-69282500D03*
%TD*%
D10*
%TO.P,J2,1,Pin_1*%
%TO.N,en*%
X149462000Y-58952500D03*
D11*
%TO.P,J2,2,Pin_2*%
%TO.N,vp*%
X149462000Y-61492500D03*
%TO.P,J2,3,Pin_3*%
%TO.N,vn*%
X149462000Y-64032500D03*
%TO.P,J2,4,Pin_4*%
%TO.N,io34*%
X149462000Y-66572500D03*
%TO.P,J2,5,Pin_5*%
%TO.N,io35*%
X149462000Y-69112500D03*
%TO.P,J2,6,Pin_6*%
%TO.N,io32*%
X149462000Y-71652500D03*
%TO.P,J2,7,Pin_7*%
%TO.N,io33*%
X149462000Y-74192500D03*
%TO.P,J2,8,Pin_8*%
%TO.N,io25*%
X149462000Y-76732500D03*
%TO.P,J2,9,Pin_9*%
%TO.N,io26*%
X149462000Y-79272500D03*
%TO.P,J2,10,Pin_10*%
%TO.N,io27*%
X149462000Y-81812500D03*
%TO.P,J2,11,Pin_11*%
%TO.N,io14*%
X149462000Y-84352500D03*
%TO.P,J2,12,Pin_12*%
%TO.N,io12*%
X149462000Y-86892500D03*
%TO.P,J2,13,Pin_13*%
%TO.N,io13*%
X149462000Y-89432500D03*
%TO.P,J2,14,Pin_14*%
%TO.N,GND*%
X149462000Y-91972500D03*
%TO.P,J2,15,Pin_15*%
%TO.N,+5V*%
X149462000Y-94512500D03*
%TD*%
D10*
%TO.P,J7,1,Pin_1*%
%TO.N,BIAS*%
X81950000Y-109930000D03*
D11*
%TO.P,J7,2,Pin_2*%
%TO.N,8n*%
X81950000Y-112470000D03*
%TO.P,J7,3,Pin_3*%
%TO.N,7n*%
X81950000Y-115010000D03*
%TO.P,J7,4,Pin_4*%
%TO.N,6n*%
X81950000Y-117550000D03*
%TO.P,J7,5,Pin_5*%
%TO.N,5n*%
X81950000Y-120090000D03*
%TO.P,J7,6,Pin_6*%
%TO.N,4n*%
X81950000Y-122630000D03*
%TO.P,J7,7,Pin_7*%
%TO.N,3n*%
X81950000Y-125170000D03*
%TO.P,J7,8,Pin_8*%
%TO.N,2n*%
X81950000Y-127710000D03*
%TO.P,J7,9,Pin_9*%
%TO.N,1n*%
X81950000Y-130250000D03*
%TO.P,J7,10,Pin_10*%
%TO.N,SRB2*%
X81950000Y-132790000D03*
%TD*%
D10*
%TO.P,J3,1,Pin_1*%
%TO.N,MOSI*%
X174950000Y-59012500D03*
D11*
%TO.P,J3,2,Pin_2*%
%TO.N,io22*%
X174950000Y-61552500D03*
%TO.P,J3,3,Pin_3*%
%TO.N,tx0*%
X174950000Y-64092500D03*
%TO.P,J3,4,Pin_4*%
%TO.N,rx0*%
X174950000Y-66632500D03*
%TO.P,J3,5,Pin_5*%
%TO.N,io21*%
X174950000Y-69172500D03*
%TO.P,J3,6,Pin_6*%
%TO.N,MISO*%
X174950000Y-71712500D03*
%TO.P,J3,7,Pin_7*%
%TO.N,SCLK*%
X174950000Y-74252500D03*
%TO.P,J3,8,Pin_8*%
%TO.N,CS*%
X174950000Y-76792500D03*
%TO.P,J3,9,Pin_9*%
%TO.N,tx2*%
X174950000Y-79332500D03*
%TO.P,J3,10,Pin_10*%
%TO.N,rx2*%
X174950000Y-81872500D03*
%TO.P,J3,11,Pin_11*%
%TO.N,DRDY*%
X174950000Y-84412500D03*
%TO.P,J3,12,Pin_12*%
%TO.N,io2*%
X174950000Y-86952500D03*
%TO.P,J3,13,Pin_13*%
%TO.N,io15*%
X174950000Y-89492500D03*
%TO.P,J3,14,Pin_14*%
%TO.N,GND*%
X174950000Y-92032500D03*
%TO.P,J3,15,Pin_15*%
%TO.N,+3V3*%
X174950000Y-94572500D03*
%TD*%
D10*
%TO.P,J9,1,Pin_1*%
%TO.N,gpio1ADS*%
X183750000Y-128580000D03*
D11*
%TO.P,J9,2,Pin_2*%
%TO.N,gpio2ADS*%
X183750000Y-126040000D03*
%TO.P,J9,3,Pin_3*%
%TO.N,gpio3ADS*%
X183750000Y-123500000D03*
%TO.P,J9,4,Pin_4*%
%TO.N,gpio4ADS*%
X183750000Y-120960000D03*
%TD*%
D10*
%TO.P,J5,1,Pin_1*%
%TO.N,io2*%
X180687500Y-87662500D03*
D11*
%TO.P,J5,2,Pin_2*%
%TO.N,io15*%
X180687500Y-90202500D03*
%TD*%
D10*
%TO.P,J8,1,Pin_1*%
%TO.N,BIAS*%
X106612500Y-109712500D03*
D11*
%TO.P,J8,2,Pin_2*%
%TO.N,8p*%
X106612500Y-112252500D03*
%TO.P,J8,3,Pin_3*%
%TO.N,7p*%
X106612500Y-114792500D03*
%TO.P,J8,4,Pin_4*%
%TO.N,6p*%
X106612500Y-117332500D03*
%TO.P,J8,5,Pin_5*%
%TO.N,5p*%
X106612500Y-119872500D03*
%TO.P,J8,6,Pin_6*%
%TO.N,4p*%
X106612500Y-122412500D03*
%TO.P,J8,7,Pin_7*%
%TO.N,3p*%
X106612500Y-124952500D03*
%TO.P,J8,8,Pin_8*%
%TO.N,2p*%
X106612500Y-127492500D03*
%TO.P,J8,9,Pin_9*%
%TO.N,1p*%
X106612500Y-130032500D03*
%TO.P,J8,10,Pin_10*%
%TO.N,SRB1*%
X106612500Y-132572500D03*
%TD*%
D10*
%TO.P,J6,1,Pin_1*%
%TO.N,tx2*%
X180687500Y-79662500D03*
D11*
%TO.P,J6,2,Pin_2*%
%TO.N,rx2*%
X180687500Y-82202500D03*
%TD*%
D12*
%TO.N,in1p*%
X137420000Y-146830000D03*
X128290000Y-147480000D03*
%TO.N,in2p*%
X147757000Y-128850000D03*
X130430000Y-139153900D03*
%TO.N,_SRB1*%
X130350000Y-150225000D03*
X143310000Y-136840000D03*
%TO.N,5n*%
X108265300Y-116772400D03*
X102700900Y-120421000D03*
%TO.N,in5p*%
X138140000Y-126200000D03*
X138157300Y-131089300D03*
%TO.N,3n*%
X104360000Y-127470000D03*
X108390000Y-124620000D03*
%TO.N,BIAS*%
X106612500Y-93834000D03*
%TO.N,in7p*%
X137140000Y-116590000D03*
X133344200Y-114061200D03*
%TO.N,in8p*%
X134830000Y-109080000D03*
X143770000Y-121300000D03*
%TO.N,MISO*%
X181425000Y-124450000D03*
%TO.N,DRDY*%
X164798600Y-116350000D03*
%TO.N,MOSI*%
X159068200Y-129350000D03*
%TO.N,CS*%
X159269800Y-126850000D03*
%TO.N,1p*%
X105008300Y-132501800D03*
%TO.N,2p*%
X103801600Y-130220000D03*
%TO.N,GND*%
X176800000Y-109050400D03*
X177373900Y-118922000D03*
X155300000Y-123210000D03*
X155725000Y-129450000D03*
X179509900Y-128405600D03*
%TO.N,+5V*%
X150145000Y-114335000D03*
%TO.N,SCLK*%
X156170000Y-126480000D03*
X156213100Y-78400000D03*
%TO.N,pin2*%
X166525000Y-130150000D03*
X165887500Y-124337500D03*
%TO.N,in6n*%
X135335900Y-115202100D03*
X138420000Y-119420000D03*
%TO.N,GNDA*%
X132853300Y-127376200D03*
X109190000Y-131170000D03*
X131940000Y-137930000D03*
X132500000Y-107623000D03*
X132853300Y-117365800D03*
X132583600Y-147998800D03*
X109168000Y-115725000D03*
X109168000Y-122725000D03*
X108239300Y-95247300D03*
X109168000Y-149455800D03*
X108225000Y-104425000D03*
%TO.N,Net-(U1-IO2)*%
X110525000Y-97425000D03*
X112187500Y-106337500D03*
%TO.N,Net-(U1-IO4)*%
X109550000Y-99375000D03*
X108806400Y-107326700D03*
%TO.N,Net-(U4-IO1)*%
X99030000Y-120043000D03*
X108265300Y-119906300D03*
%TO.N,Net-(U3-IO4)*%
X103150000Y-129510000D03*
X108050000Y-136010000D03*
%TO.N,Net-(U3-IO1)*%
X108520000Y-128540000D03*
X105232541Y-125554641D03*
%TO.N,Net-(U5-IO4)*%
X104700456Y-117586256D03*
X108250000Y-117720000D03*
%TO.N,Net-(U7-IO4)*%
X108078900Y-148100000D03*
X100520000Y-140990000D03*
%TD*%
D13*
%TO.N,in1p*%
X130060000Y-152100000D02*
X128290000Y-150330000D01*
X137880000Y-147460000D02*
X137880000Y-150180000D01*
X135960000Y-152100000D02*
X130060000Y-152100000D01*
X128290000Y-150330000D02*
X128290000Y-147480000D01*
X137880000Y-150180000D02*
X135960000Y-152100000D01*
X137420000Y-147000000D02*
X137880000Y-147460000D01*
X137420000Y-146830000D02*
X137420000Y-147000000D01*
%TO.N,in2p*%
X133763000Y-148067000D02*
X133763000Y-142787000D01*
X147690000Y-128850000D02*
X133763000Y-142777000D01*
X147757000Y-128850000D02*
X147690000Y-128850000D01*
X132811300Y-149018700D02*
X133763000Y-148067000D01*
X130430000Y-139153900D02*
X131330000Y-140053900D01*
X132298700Y-149018700D02*
X132811300Y-149018700D01*
X131330000Y-140053900D02*
X131330000Y-148050000D01*
X131330000Y-148050000D02*
X132298700Y-149018700D01*
%TO.N,_SRB1*%
X134480000Y-149080000D02*
X133335000Y-150225000D01*
X133335000Y-150225000D02*
X130350000Y-150225000D01*
X134480000Y-143470000D02*
X134480000Y-149080000D01*
X141110000Y-136840000D02*
X134480000Y-143470000D01*
X143310000Y-136840000D02*
X141110000Y-136840000D01*
%TO.N,5n*%
X102700900Y-118699100D02*
X102700900Y-120421000D01*
X108265300Y-116772400D02*
X107542900Y-116050000D01*
X107542900Y-116050000D02*
X105350000Y-116050000D01*
X105350000Y-116050000D02*
X102700900Y-118699100D01*
%TO.N,in5p*%
X138157300Y-126217300D02*
X138140000Y-126200000D01*
X138157300Y-131089300D02*
X138157300Y-126217300D01*
%TO.N,3n*%
X104360000Y-127470000D02*
X104360000Y-125540470D01*
X107545500Y-123775500D02*
X108390000Y-124620000D01*
X106124970Y-123775500D02*
X107545500Y-123775500D01*
X104360000Y-125540470D02*
X106124970Y-123775500D01*
%TO.N,BIAS*%
X106612500Y-93834000D02*
X106612500Y-109712500D01*
%TO.N,in7p*%
X134640000Y-116590000D02*
X133344200Y-115294200D01*
X137140000Y-116590000D02*
X134640000Y-116590000D01*
X133344200Y-115294200D02*
X133344200Y-114061200D01*
%TO.N,in8p*%
X144725900Y-120344100D02*
X144725900Y-118975900D01*
X143770000Y-121300000D02*
X144725900Y-120344100D01*
X144725900Y-118975900D02*
X134830000Y-109080000D01*
%TO.N,MISO*%
X174962500Y-71700000D02*
X174950000Y-71712500D01*
X178000000Y-71700000D02*
X174962500Y-71700000D01*
X181886400Y-119913600D02*
X183800000Y-118000000D01*
X181425000Y-124450000D02*
X181886400Y-123988600D01*
X181886400Y-123988600D02*
X181886400Y-119913600D01*
X183800000Y-77500000D02*
X178000000Y-71700000D01*
X183800000Y-118000000D02*
X183800000Y-77500000D01*
%TO.N,DRDY*%
X171607500Y-84412500D02*
X174950000Y-84412500D01*
X164798600Y-91221400D02*
X171607500Y-84412500D01*
X164798600Y-116350000D02*
X164798600Y-91221400D01*
%TO.N,MOSI*%
X171117500Y-59012500D02*
X158634500Y-71495500D01*
X158634500Y-128916300D02*
X159068200Y-129350000D01*
X174950000Y-59012500D02*
X171117500Y-59012500D01*
X158634500Y-71495500D02*
X158634500Y-128916300D01*
%TO.N,CS*%
X173232500Y-76792500D02*
X174950000Y-76792500D01*
X159560000Y-90465000D02*
X173232500Y-76792500D01*
X159560000Y-126559800D02*
X159560000Y-90465000D01*
X159269800Y-126850000D02*
X159560000Y-126559800D01*
%TO.N,1p*%
X105008300Y-131636700D02*
X105008300Y-132501800D01*
X106612500Y-130032500D02*
X105008300Y-131636700D01*
%TO.N,2p*%
X103885000Y-130220000D02*
X106612500Y-127492500D01*
X103801600Y-130220000D02*
X103885000Y-130220000D01*
%TO.N,GND*%
X155312800Y-121697700D02*
X155312800Y-129037800D01*
X156780000Y-120230500D02*
X155312800Y-121697700D01*
X177600000Y-93350000D02*
X177600000Y-108250400D01*
X177373900Y-118922000D02*
X179509900Y-121058000D01*
X151022500Y-91972500D02*
X156780000Y-97730000D01*
X149462000Y-91972500D02*
X151022500Y-91972500D01*
X156780000Y-97730000D02*
X156780000Y-120230500D01*
X179509900Y-121058000D02*
X179509900Y-128405600D01*
X176800000Y-109050400D02*
X177373900Y-109624300D01*
X155312800Y-129037800D02*
X155725000Y-129450000D01*
X176282500Y-92032500D02*
X177600000Y-93350000D01*
X177373900Y-109624300D02*
X177373900Y-118922000D01*
X174950000Y-92032500D02*
X176282500Y-92032500D01*
X177600000Y-108250400D02*
X176800000Y-109050400D01*
D14*
%TO.N,+5V*%
X150145000Y-114335000D02*
X150270000Y-114210000D01*
X149792500Y-94512500D02*
X149462000Y-94512500D01*
X150270000Y-114210000D02*
X150270000Y-94990000D01*
X150270000Y-94990000D02*
X149792500Y-94512500D01*
D13*
%TO.N,SCLK*%
X156170000Y-126480000D02*
X157590000Y-125060000D01*
X157590000Y-125060000D02*
X157590000Y-79776900D01*
X157590000Y-79776900D02*
X156213100Y-78400000D01*
%TO.N,pin2*%
X166525000Y-130150000D02*
X165876600Y-129501600D01*
X165876600Y-129501600D02*
X165876600Y-124348400D01*
X165876600Y-124348400D02*
X165887500Y-124337500D01*
%TO.N,in6n*%
X139230000Y-118610000D02*
X139230000Y-116600000D01*
X138420000Y-119420000D02*
X139230000Y-118610000D01*
X137832100Y-115202100D02*
X135335900Y-115202100D01*
X139230000Y-116600000D02*
X137832100Y-115202100D01*
%TO.N,GNDA*%
X108179400Y-104470600D02*
X108179400Y-114736400D01*
X132853300Y-127376200D02*
X132853300Y-117365800D01*
X132782400Y-137087600D02*
X131940000Y-137930000D01*
X109190000Y-131170000D02*
X109173900Y-131153900D01*
X109168000Y-122725000D02*
X109168000Y-115725000D01*
X132853300Y-127376200D02*
X132782400Y-127447100D01*
X109173900Y-131153900D02*
X109173900Y-122730900D01*
X109190000Y-131170000D02*
X109168000Y-131192000D01*
X131080000Y-109043000D02*
X131080000Y-115592500D01*
X108225000Y-104425000D02*
X108185300Y-104385300D01*
X108225000Y-104425000D02*
X108179400Y-104470600D01*
X108185300Y-104385300D02*
X108185300Y-95301300D01*
X109173900Y-122730900D02*
X109168000Y-122725000D01*
X131940000Y-137930000D02*
X132583600Y-138573600D01*
X131080000Y-115592500D02*
X132853300Y-117365800D01*
X109168000Y-131192000D02*
X109168000Y-149455800D01*
X132583600Y-138573600D02*
X132583600Y-147998800D01*
X132782400Y-127447100D02*
X132782400Y-137087600D01*
X108179400Y-114736400D02*
X109168000Y-115725000D01*
X108185300Y-95301300D02*
X108239300Y-95247300D01*
X132500000Y-107623000D02*
X131080000Y-109043000D01*
%TO.N,Net-(U1-IO2)*%
X112187500Y-106337500D02*
X111624400Y-105774400D01*
X111624400Y-105774400D02*
X111624400Y-98524400D01*
X111624400Y-98524400D02*
X110525000Y-97425000D01*
%TO.N,Net-(U1-IO4)*%
X109975000Y-99800000D02*
X109975000Y-107326700D01*
X109975000Y-107326700D02*
X108806400Y-107326700D01*
X109550000Y-99375000D02*
X109975000Y-99800000D01*
%TO.N,Net-(U4-IO1)*%
X108265300Y-120434700D02*
X108265300Y-119906300D01*
X107550000Y-121150000D02*
X108265300Y-120434700D01*
X99030000Y-120043000D02*
X100137000Y-121150000D01*
X100137000Y-121150000D02*
X107550000Y-121150000D01*
%TO.N,Net-(U3-IO4)*%
X103150000Y-132296900D02*
X103150000Y-129510000D01*
X108050000Y-136010000D02*
X106863100Y-136010000D01*
X106863100Y-136010000D02*
X103150000Y-132296900D01*
%TO.N,Net-(U3-IO1)*%
X108520000Y-127170000D02*
X107550000Y-126200000D01*
X107550000Y-126200000D02*
X105877900Y-126200000D01*
X105877900Y-126200000D02*
X105232541Y-125554641D01*
X108520000Y-128540000D02*
X108520000Y-127170000D01*
%TO.N,Net-(U5-IO4)*%
X105714200Y-118600000D02*
X104700456Y-117586256D01*
X108250000Y-117720000D02*
X107370000Y-118600000D01*
X107370000Y-118600000D02*
X105714200Y-118600000D01*
%TO.N,Net-(U7-IO4)*%
X100968900Y-140990000D02*
X108078900Y-148100000D01*
X100520000Y-140990000D02*
X100968900Y-140990000D01*
%TD*%
%TA.AperFunction,NonConductor*%
G36*
X177427104Y-45357184D02*
G01*
X178164036Y-45375859D01*
X178170293Y-45376176D01*
X178893891Y-45431282D01*
X178903792Y-45432036D01*
X178910041Y-45432671D01*
X179639738Y-45525606D01*
X179645939Y-45526556D01*
X180370040Y-45656339D01*
X180376155Y-45657596D01*
X181092730Y-45823882D01*
X181098781Y-45825448D01*
X181806046Y-46027823D01*
X181812020Y-46029698D01*
X182508097Y-46267625D01*
X182513961Y-46269796D01*
X183197119Y-46542684D01*
X183202866Y-46545151D01*
X183774619Y-46807856D01*
X183871272Y-46852266D01*
X183876913Y-46855032D01*
X184528938Y-47195623D01*
X184534431Y-47198672D01*
X184847582Y-47383013D01*
X185168374Y-47571853D01*
X185173697Y-47575172D01*
X185787881Y-47979955D01*
X185793038Y-47983544D01*
X186385952Y-48418929D01*
X186390920Y-48422774D01*
X186961024Y-48887634D01*
X186965791Y-48891726D01*
X187316911Y-49208952D01*
X187510798Y-49384123D01*
X187511632Y-49384876D01*
X187516185Y-49389205D01*
X188036312Y-49909333D01*
X188040641Y-49913886D01*
X188533790Y-50459727D01*
X188537882Y-50464494D01*
X189002731Y-51034587D01*
X189006577Y-51039555D01*
X189441970Y-51632481D01*
X189445559Y-51637638D01*
X189850350Y-52251838D01*
X189853673Y-52257169D01*
X190226845Y-52891098D01*
X190229894Y-52896592D01*
X190570475Y-53548602D01*
X190573241Y-53554242D01*
X190880353Y-54222644D01*
X190882831Y-54228417D01*
X191155706Y-54911549D01*
X191157888Y-54917441D01*
X191395806Y-55613494D01*
X191397687Y-55619488D01*
X191600054Y-56326727D01*
X191601628Y-56332809D01*
X191767905Y-57049350D01*
X191769170Y-57055504D01*
X191898946Y-57779580D01*
X191899897Y-57785790D01*
X191992829Y-58515483D01*
X191993465Y-58521733D01*
X192049323Y-59255223D01*
X192049641Y-59261498D01*
X192068343Y-59999483D01*
X192068383Y-60002624D01*
X192068383Y-129930001D01*
X192068362Y-129932266D01*
X192049849Y-130945789D01*
X192049366Y-130972207D01*
X192049201Y-130976733D01*
X191992294Y-132014221D01*
X191991963Y-132018739D01*
X191897208Y-133053410D01*
X191896713Y-133057912D01*
X191764227Y-134088474D01*
X191763567Y-134092955D01*
X191593541Y-135117936D01*
X191592719Y-135122390D01*
X191385361Y-136140531D01*
X191384376Y-136144952D01*
X191139977Y-137154816D01*
X191138831Y-137159199D01*
X190857712Y-138159467D01*
X190856407Y-138163804D01*
X190538951Y-139153119D01*
X190537489Y-139157406D01*
X190184103Y-140134491D01*
X190182485Y-140138722D01*
X189793643Y-141102265D01*
X189791871Y-141106433D01*
X189368121Y-142055081D01*
X189366199Y-142059182D01*
X188908061Y-142991770D01*
X188905989Y-142995799D01*
X188414123Y-143910982D01*
X188411907Y-143914932D01*
X187886912Y-144811599D01*
X187884552Y-144815465D01*
X187327191Y-145692309D01*
X187324692Y-145696087D01*
X186735644Y-146552040D01*
X186733008Y-146555723D01*
X186113130Y-147389540D01*
X186110362Y-147393125D01*
X185460433Y-148203763D01*
X185457536Y-148207245D01*
X184778408Y-148993635D01*
X184775385Y-148997008D01*
X184068021Y-149758036D01*
X184064877Y-149761297D01*
X183330179Y-150495995D01*
X183326918Y-150499139D01*
X182565890Y-151206503D01*
X182562517Y-151209526D01*
X181776127Y-151888654D01*
X181772645Y-151891551D01*
X180962008Y-152541480D01*
X180958423Y-152544248D01*
X180124605Y-153164126D01*
X180120922Y-153166762D01*
X179264969Y-153755810D01*
X179261191Y-153758309D01*
X178384347Y-154315671D01*
X178380481Y-154318031D01*
X177483814Y-154843026D01*
X177479864Y-154845242D01*
X176564682Y-155337108D01*
X176560653Y-155339180D01*
X175628064Y-155797318D01*
X175623963Y-155799240D01*
X174675316Y-156222990D01*
X174671148Y-156224762D01*
X173707605Y-156613604D01*
X173703374Y-156615222D01*
X172726289Y-156968608D01*
X172722002Y-156970070D01*
X171732687Y-157287527D01*
X171728350Y-157288832D01*
X170728082Y-157569951D01*
X170723699Y-157571097D01*
X169713835Y-157815495D01*
X169709414Y-157816480D01*
X168691272Y-158023838D01*
X168686818Y-158024660D01*
X167661838Y-158194686D01*
X167657357Y-158195346D01*
X166626795Y-158327833D01*
X166622293Y-158328328D01*
X165587622Y-158423083D01*
X165583104Y-158423414D01*
X164545625Y-158480320D01*
X164541099Y-158480485D01*
X163501314Y-158499479D01*
X163499049Y-158499500D01*
X108451022Y-158499500D01*
X108448972Y-158499483D01*
X107261772Y-158479851D01*
X107257674Y-158479715D01*
X106072821Y-158420893D01*
X106068729Y-158420622D01*
X104886456Y-158322656D01*
X104882376Y-158322250D01*
X103704010Y-158185250D01*
X103699945Y-158184710D01*
X102526699Y-158008817D01*
X102522655Y-158008142D01*
X101355881Y-157793555D01*
X101351861Y-157792746D01*
X100192878Y-157539712D01*
X100188887Y-157538772D01*
X99038819Y-157247535D01*
X99034861Y-157246462D01*
X97895126Y-156917381D01*
X97891206Y-156916179D01*
X96762939Y-156549584D01*
X96759061Y-156548253D01*
X95643523Y-156144549D01*
X95639691Y-156143090D01*
X94538124Y-155702730D01*
X94534342Y-155701145D01*
X94373436Y-155630565D01*
X93447937Y-155224604D01*
X93444218Y-155222899D01*
X92374152Y-154710692D01*
X92370484Y-154708861D01*
X91317938Y-154161554D01*
X91314332Y-154159602D01*
X90280478Y-153577806D01*
X90276938Y-153575736D01*
X89262900Y-152960084D01*
X89259430Y-152957899D01*
X88266234Y-152309012D01*
X88262839Y-152306712D01*
X87291702Y-151625383D01*
X87288385Y-151622973D01*
X86500727Y-151030565D01*
X86340289Y-150909898D01*
X86337064Y-150907388D01*
X86238953Y-150828386D01*
X86086461Y-150705594D01*
X85413056Y-150163346D01*
X85409905Y-150160722D01*
X84510995Y-149386532D01*
X84507933Y-149383805D01*
X84206456Y-149106276D01*
X83635092Y-148580299D01*
X83632172Y-148577519D01*
X82786401Y-147745619D01*
X82783532Y-147742703D01*
X82727290Y-147683600D01*
X82376184Y-147314630D01*
X81965715Y-146883277D01*
X81962938Y-146880260D01*
X81174008Y-145994293D01*
X81171332Y-145991186D01*
X80989361Y-145772696D01*
X80412092Y-145079578D01*
X80409534Y-145076400D01*
X80216840Y-144828827D01*
X79680895Y-144140244D01*
X79678431Y-144136968D01*
X78981128Y-143177213D01*
X78978773Y-143173857D01*
X78439148Y-142376992D01*
X78313570Y-142191551D01*
X78311333Y-142188127D01*
X78227515Y-142055081D01*
X77678982Y-141184378D01*
X77676855Y-141180875D01*
X77460434Y-140810750D01*
X77078022Y-140156744D01*
X77076023Y-140153191D01*
X77067059Y-140136627D01*
X76511374Y-139109811D01*
X76509511Y-139106226D01*
X75979682Y-138044775D01*
X75977922Y-138041099D01*
X75926984Y-137930003D01*
X75483464Y-136962681D01*
X75481824Y-136958940D01*
X75440873Y-136861220D01*
X75023297Y-135864772D01*
X75021796Y-135861018D01*
X74599694Y-134752281D01*
X74598305Y-134748442D01*
X74568552Y-134661775D01*
X74213105Y-133626391D01*
X74211838Y-133622491D01*
X74101701Y-133263429D01*
X73863942Y-132488303D01*
X73862816Y-132484404D01*
X73861606Y-132479938D01*
X73615642Y-131572000D01*
X73552614Y-131339344D01*
X73551607Y-131335370D01*
X73507746Y-131149289D01*
X73279426Y-130180644D01*
X73278555Y-130176652D01*
X73044705Y-129013583D01*
X73043980Y-129009638D01*
X72848701Y-127839396D01*
X72848106Y-127835431D01*
X72691629Y-126659390D01*
X72691158Y-126655332D01*
X72689936Y-126643059D01*
X72573660Y-125474862D01*
X72573322Y-125470778D01*
X72572730Y-125461834D01*
X72494911Y-124286974D01*
X72494713Y-124282984D01*
X72455489Y-123097269D01*
X72455421Y-123093169D01*
X72455421Y-121906830D01*
X72455489Y-121902730D01*
X72457557Y-121840205D01*
X72494713Y-120717012D01*
X72494911Y-120713028D01*
X72573322Y-119529212D01*
X72573661Y-119525134D01*
X72691160Y-118344645D01*
X72691631Y-118340594D01*
X72695430Y-118312043D01*
X72848107Y-117164559D01*
X72848699Y-117160611D01*
X73043981Y-115990351D01*
X73044703Y-115986427D01*
X73278560Y-114823320D01*
X73279429Y-114819341D01*
X73289979Y-114774586D01*
X73551612Y-113664609D01*
X73552614Y-113660655D01*
X73554107Y-113655145D01*
X73862828Y-112515552D01*
X73863937Y-112511712D01*
X73876732Y-112469999D01*
X80594341Y-112469999D01*
X80594341Y-112470000D01*
X80614936Y-112705403D01*
X80614938Y-112705413D01*
X80676094Y-112933655D01*
X80676096Y-112933659D01*
X80676097Y-112933663D01*
X80715806Y-113018818D01*
X80775965Y-113147830D01*
X80775967Y-113147834D01*
X80911501Y-113341395D01*
X80911506Y-113341402D01*
X81078597Y-113508493D01*
X81078603Y-113508498D01*
X81264158Y-113638425D01*
X81307783Y-113693002D01*
X81314977Y-113762500D01*
X81283454Y-113824855D01*
X81264158Y-113841575D01*
X81078597Y-113971505D01*
X80911505Y-114138597D01*
X80775965Y-114332169D01*
X80775964Y-114332171D01*
X80676098Y-114546335D01*
X80676094Y-114546344D01*
X80614938Y-114774586D01*
X80614936Y-114774596D01*
X80594341Y-115009999D01*
X80594341Y-115010000D01*
X80614936Y-115245403D01*
X80614938Y-115245413D01*
X80676094Y-115473655D01*
X80676096Y-115473659D01*
X80676097Y-115473663D01*
X80731014Y-115591433D01*
X80775965Y-115687830D01*
X80775967Y-115687834D01*
X80876855Y-115831916D01*
X80899468Y-115864211D01*
X80911501Y-115881395D01*
X80911506Y-115881402D01*
X81078597Y-116048493D01*
X81078603Y-116048498D01*
X81264158Y-116178425D01*
X81307783Y-116233002D01*
X81314977Y-116302500D01*
X81283454Y-116364855D01*
X81264158Y-116381575D01*
X81078597Y-116511505D01*
X80911505Y-116678597D01*
X80775965Y-116872169D01*
X80775964Y-116872171D01*
X80676098Y-117086335D01*
X80676094Y-117086344D01*
X80614938Y-117314586D01*
X80614936Y-117314596D01*
X80594341Y-117549999D01*
X80594341Y-117550000D01*
X80614936Y-117785403D01*
X80614938Y-117785413D01*
X80676094Y-118013655D01*
X80676096Y-118013659D01*
X80676097Y-118013663D01*
X80698546Y-118061805D01*
X80775965Y-118227830D01*
X80775967Y-118227834D01*
X80857775Y-118344667D01*
X80899064Y-118403634D01*
X80911501Y-118421395D01*
X80911506Y-118421402D01*
X81078597Y-118588493D01*
X81078603Y-118588498D01*
X81264158Y-118718425D01*
X81307783Y-118773002D01*
X81314977Y-118842500D01*
X81283454Y-118904855D01*
X81264158Y-118921575D01*
X81078597Y-119051505D01*
X80911505Y-119218597D01*
X80775965Y-119412169D01*
X80775964Y-119412171D01*
X80676098Y-119626335D01*
X80676094Y-119626344D01*
X80614938Y-119854586D01*
X80614936Y-119854596D01*
X80594341Y-120089999D01*
X80594341Y-120090000D01*
X80614936Y-120325403D01*
X80614938Y-120325413D01*
X80676094Y-120553655D01*
X80676096Y-120553659D01*
X80676097Y-120553663D01*
X80752687Y-120717911D01*
X80775965Y-120767830D01*
X80775967Y-120767834D01*
X80818354Y-120828368D01*
X80910523Y-120959999D01*
X80911501Y-120961395D01*
X80911506Y-120961402D01*
X81078597Y-121128493D01*
X81078603Y-121128498D01*
X81264158Y-121258425D01*
X81307783Y-121313002D01*
X81314977Y-121382500D01*
X81283454Y-121444855D01*
X81264158Y-121461575D01*
X81078597Y-121591505D01*
X80911505Y-121758597D01*
X80775965Y-121952169D01*
X80775964Y-121952171D01*
X80676098Y-122166335D01*
X80676094Y-122166344D01*
X80614938Y-122394586D01*
X80614936Y-122394596D01*
X80594341Y-122629999D01*
X80594341Y-122630000D01*
X80614936Y-122865403D01*
X80614938Y-122865413D01*
X80676094Y-123093655D01*
X80676096Y-123093659D01*
X80676097Y-123093663D01*
X80742227Y-123235478D01*
X80775965Y-123307830D01*
X80775967Y-123307834D01*
X80832979Y-123389255D01*
X80910523Y-123499999D01*
X80911501Y-123501395D01*
X80911506Y-123501402D01*
X81078597Y-123668493D01*
X81078603Y-123668498D01*
X81264158Y-123798425D01*
X81307783Y-123853002D01*
X81314977Y-123922500D01*
X81283454Y-123984855D01*
X81264158Y-124001575D01*
X81078597Y-124131505D01*
X80911505Y-124298597D01*
X80775965Y-124492169D01*
X80775964Y-124492171D01*
X80676098Y-124706335D01*
X80676094Y-124706344D01*
X80614938Y-124934586D01*
X80614936Y-124934596D01*
X80594341Y-125169999D01*
X80594341Y-125170000D01*
X80614936Y-125405403D01*
X80614938Y-125405413D01*
X80676094Y-125633655D01*
X80676096Y-125633659D01*
X80676097Y-125633663D01*
X80726662Y-125742099D01*
X80775965Y-125847830D01*
X80775967Y-125847834D01*
X80884281Y-126002521D01*
X80910523Y-126039999D01*
X80911501Y-126041395D01*
X80911506Y-126041402D01*
X81078597Y-126208493D01*
X81078603Y-126208498D01*
X81264158Y-126338425D01*
X81307783Y-126393002D01*
X81314977Y-126462500D01*
X81283454Y-126524855D01*
X81264158Y-126541575D01*
X81078597Y-126671505D01*
X80911505Y-126838597D01*
X80775965Y-127032169D01*
X80775964Y-127032171D01*
X80676098Y-127246335D01*
X80676094Y-127246344D01*
X80614938Y-127474586D01*
X80614936Y-127474596D01*
X80594341Y-127709999D01*
X80594341Y-127710000D01*
X80614936Y-127945403D01*
X80614938Y-127945413D01*
X80676094Y-128173655D01*
X80676096Y-128173659D01*
X80676097Y-128173663D01*
X80723615Y-128275565D01*
X80775965Y-128387830D01*
X80775967Y-128387834D01*
X80854842Y-128500478D01*
X80910934Y-128580586D01*
X80911501Y-128581395D01*
X80911506Y-128581402D01*
X81078597Y-128748493D01*
X81078603Y-128748498D01*
X81264158Y-128878425D01*
X81307783Y-128933002D01*
X81314977Y-129002500D01*
X81283454Y-129064855D01*
X81264158Y-129081575D01*
X81078597Y-129211505D01*
X80911505Y-129378597D01*
X80775965Y-129572169D01*
X80775964Y-129572171D01*
X80676098Y-129786335D01*
X80676094Y-129786344D01*
X80614938Y-130014586D01*
X80614936Y-130014596D01*
X80594341Y-130249999D01*
X80594341Y-130250000D01*
X80614936Y-130485403D01*
X80614938Y-130485413D01*
X80676094Y-130713655D01*
X80676096Y-130713659D01*
X80676097Y-130713663D01*
X80751697Y-130875788D01*
X80775965Y-130927830D01*
X80775967Y-130927834D01*
X80911501Y-131121395D01*
X80911506Y-131121402D01*
X81078597Y-131288493D01*
X81078603Y-131288498D01*
X81264158Y-131418425D01*
X81307783Y-131473002D01*
X81314977Y-131542500D01*
X81283454Y-131604855D01*
X81264158Y-131621575D01*
X81078597Y-131751505D01*
X80911505Y-131918597D01*
X80775965Y-132112169D01*
X80775964Y-132112171D01*
X80676098Y-132326335D01*
X80676094Y-132326344D01*
X80614938Y-132554586D01*
X80614938Y-132554588D01*
X80614937Y-132554592D01*
X80596784Y-132762072D01*
X80594341Y-132789999D01*
X80594341Y-132790000D01*
X80614936Y-133025403D01*
X80614938Y-133025413D01*
X80676094Y-133253655D01*
X80676096Y-133253659D01*
X80676097Y-133253663D01*
X80747519Y-133406828D01*
X80775965Y-133467830D01*
X80775967Y-133467834D01*
X80876209Y-133610993D01*
X80911505Y-133661401D01*
X81078599Y-133828495D01*
X81175384Y-133896265D01*
X81272165Y-133964032D01*
X81272167Y-133964033D01*
X81272170Y-133964035D01*
X81486337Y-134063903D01*
X81714592Y-134125063D01*
X81902918Y-134141539D01*
X81949999Y-134145659D01*
X81950000Y-134145659D01*
X81950001Y-134145659D01*
X81989234Y-134142226D01*
X82185408Y-134125063D01*
X82413663Y-134063903D01*
X82627830Y-133964035D01*
X82821401Y-133828495D01*
X82988495Y-133661401D01*
X83124035Y-133467830D01*
X83223903Y-133253663D01*
X83285063Y-133025408D01*
X83305659Y-132790000D01*
X83285063Y-132554592D01*
X83223903Y-132326337D01*
X83124035Y-132112171D01*
X83121706Y-132108844D01*
X82988494Y-131918597D01*
X82821402Y-131751506D01*
X82821396Y-131751501D01*
X82635842Y-131621575D01*
X82592217Y-131566998D01*
X82585023Y-131497500D01*
X82616546Y-131435145D01*
X82635842Y-131418425D01*
X82729228Y-131353035D01*
X82821401Y-131288495D01*
X82988495Y-131121401D01*
X83124035Y-130927830D01*
X83223903Y-130713663D01*
X83285063Y-130485408D01*
X83305659Y-130250000D01*
X83285063Y-130014592D01*
X83227692Y-129800478D01*
X83223905Y-129786344D01*
X83223904Y-129786343D01*
X83223903Y-129786337D01*
X83124035Y-129572171D01*
X83121706Y-129568844D01*
X82988494Y-129378597D01*
X82821402Y-129211506D01*
X82821396Y-129211501D01*
X82635842Y-129081575D01*
X82592217Y-129026998D01*
X82585023Y-128957500D01*
X82616546Y-128895145D01*
X82635842Y-128878425D01*
X82679669Y-128847737D01*
X82821401Y-128748495D01*
X82988495Y-128581401D01*
X83124035Y-128387830D01*
X83223903Y-128173663D01*
X83285063Y-127945408D01*
X83305659Y-127710000D01*
X83285063Y-127474592D01*
X83226785Y-127257092D01*
X83223905Y-127246344D01*
X83223904Y-127246343D01*
X83223903Y-127246337D01*
X83124035Y-127032171D01*
X83121994Y-127029255D01*
X82988494Y-126838597D01*
X82821402Y-126671506D01*
X82821396Y-126671501D01*
X82635842Y-126541575D01*
X82592217Y-126486998D01*
X82585023Y-126417500D01*
X82616546Y-126355145D01*
X82635842Y-126338425D01*
X82725839Y-126275408D01*
X82821401Y-126208495D01*
X82988495Y-126041401D01*
X83124035Y-125847830D01*
X83223903Y-125633663D01*
X83285063Y-125405408D01*
X83305659Y-125170000D01*
X83305536Y-125168599D01*
X83285063Y-124934596D01*
X83285063Y-124934592D01*
X83223903Y-124706337D01*
X83124035Y-124492171D01*
X83039472Y-124371401D01*
X82988494Y-124298597D01*
X82821402Y-124131506D01*
X82821396Y-124131501D01*
X82635842Y-124001575D01*
X82592217Y-123946998D01*
X82585023Y-123877500D01*
X82616546Y-123815145D01*
X82635842Y-123798425D01*
X82725839Y-123735408D01*
X82821401Y-123668495D01*
X82988495Y-123501401D01*
X83124035Y-123307830D01*
X83223903Y-123093663D01*
X83285063Y-122865408D01*
X83305659Y-122630000D01*
X83305536Y-122628599D01*
X83297407Y-122535687D01*
X83285063Y-122394592D01*
X83223903Y-122166337D01*
X83124035Y-121952171D01*
X83121706Y-121948844D01*
X82988494Y-121758597D01*
X82821402Y-121591506D01*
X82821396Y-121591501D01*
X82635842Y-121461575D01*
X82592217Y-121406998D01*
X82585023Y-121337500D01*
X82616546Y-121275145D01*
X82635842Y-121258425D01*
X82725839Y-121195408D01*
X82821401Y-121128495D01*
X82988495Y-120961401D01*
X83124035Y-120767830D01*
X83223903Y-120553663D01*
X83285063Y-120325408D01*
X83305659Y-120090000D01*
X83305536Y-120088599D01*
X83301546Y-120042996D01*
X98224435Y-120042996D01*
X98224435Y-120043003D01*
X98244630Y-120222249D01*
X98244631Y-120222254D01*
X98304211Y-120392523D01*
X98376539Y-120507632D01*
X98400184Y-120545262D01*
X98527738Y-120672816D01*
X98594889Y-120715010D01*
X98678951Y-120767830D01*
X98680478Y-120768789D01*
X98850745Y-120828368D01*
X98894635Y-120833313D01*
X98959048Y-120860378D01*
X98968433Y-120868852D01*
X99736988Y-121637408D01*
X99736992Y-121637411D01*
X99839760Y-121706079D01*
X99839773Y-121706086D01*
X99953960Y-121753383D01*
X99953965Y-121753385D01*
X99953969Y-121753385D01*
X99953970Y-121753386D01*
X100075193Y-121777500D01*
X100075196Y-121777500D01*
X100075197Y-121777500D01*
X105223868Y-121777500D01*
X105290907Y-121797185D01*
X105336662Y-121849989D01*
X105346606Y-121919147D01*
X105340389Y-121943913D01*
X105338596Y-121948837D01*
X105277438Y-122177086D01*
X105277436Y-122177096D01*
X105256841Y-122412499D01*
X105256841Y-122412500D01*
X105277436Y-122647903D01*
X105277438Y-122647913D01*
X105338594Y-122876155D01*
X105338596Y-122876159D01*
X105338597Y-122876163D01*
X105410680Y-123030745D01*
X105438465Y-123090330D01*
X105438467Y-123090334D01*
X105577110Y-123288336D01*
X105575390Y-123289540D01*
X105599763Y-123345198D01*
X105588739Y-123414193D01*
X105564445Y-123448604D01*
X104344626Y-124668425D01*
X103959992Y-125053059D01*
X103933236Y-125079815D01*
X103872586Y-125140464D01*
X103872585Y-125140466D01*
X103803923Y-125243226D01*
X103803917Y-125243237D01*
X103801192Y-125249816D01*
X103756614Y-125357435D01*
X103735848Y-125461835D01*
X103735848Y-125461837D01*
X103732500Y-125478667D01*
X103732500Y-126928328D01*
X103713494Y-126994300D01*
X103634211Y-127120476D01*
X103574631Y-127290745D01*
X103574630Y-127290750D01*
X103554435Y-127469996D01*
X103554435Y-127470003D01*
X103574630Y-127649249D01*
X103574631Y-127649254D01*
X103634211Y-127819523D01*
X103662113Y-127863928D01*
X103730184Y-127972262D01*
X103857738Y-128099816D01*
X103948080Y-128156582D01*
X104002025Y-128190478D01*
X104010478Y-128195789D01*
X104180739Y-128255366D01*
X104180745Y-128255368D01*
X104180750Y-128255369D01*
X104359996Y-128275565D01*
X104360000Y-128275565D01*
X104360004Y-128275565D01*
X104539249Y-128255369D01*
X104539251Y-128255368D01*
X104539255Y-128255368D01*
X104539258Y-128255366D01*
X104539262Y-128255366D01*
X104677080Y-128207141D01*
X104746859Y-128203578D01*
X104807486Y-128238307D01*
X104839714Y-128300300D01*
X104833309Y-128369876D01*
X104805716Y-128411863D01*
X104055702Y-129161877D01*
X103994379Y-129195362D01*
X103924687Y-129190378D01*
X103868754Y-129148506D01*
X103863027Y-129140168D01*
X103857511Y-129131389D01*
X103779816Y-129007738D01*
X103652262Y-128880184D01*
X103626625Y-128864075D01*
X103499523Y-128784211D01*
X103329254Y-128724631D01*
X103329249Y-128724630D01*
X103150004Y-128704435D01*
X103149996Y-128704435D01*
X102970750Y-128724630D01*
X102970745Y-128724631D01*
X102800476Y-128784211D01*
X102647737Y-128880184D01*
X102520184Y-129007737D01*
X102424211Y-129160476D01*
X102364631Y-129330745D01*
X102364630Y-129330750D01*
X102344435Y-129509996D01*
X102344435Y-129510003D01*
X102364630Y-129689249D01*
X102364631Y-129689254D01*
X102424211Y-129859523D01*
X102458299Y-129913773D01*
X102482483Y-129952262D01*
X102503493Y-129985698D01*
X102522500Y-130051671D01*
X102522500Y-132358707D01*
X102546612Y-132479928D01*
X102546613Y-132479934D01*
X102546614Y-132479935D01*
X102577539Y-132554592D01*
X102584956Y-132572499D01*
X102593916Y-132594131D01*
X102593923Y-132594143D01*
X102645305Y-132671042D01*
X102662585Y-132696903D01*
X102662591Y-132696911D01*
X106463088Y-136497408D01*
X106463092Y-136497411D01*
X106565860Y-136566079D01*
X106565873Y-136566086D01*
X106680060Y-136613383D01*
X106680065Y-136613385D01*
X106680069Y-136613385D01*
X106680070Y-136613386D01*
X106801293Y-136637500D01*
X106801296Y-136637500D01*
X106801297Y-136637500D01*
X107508328Y-136637500D01*
X107574299Y-136656505D01*
X107700478Y-136735789D01*
X107870739Y-136795366D01*
X107870745Y-136795368D01*
X107870750Y-136795369D01*
X108049996Y-136815565D01*
X108050000Y-136815565D01*
X108050004Y-136815565D01*
X108229249Y-136795369D01*
X108229251Y-136795368D01*
X108229255Y-136795368D01*
X108229258Y-136795366D01*
X108229262Y-136795366D01*
X108375545Y-136744179D01*
X108445324Y-136740617D01*
X108505951Y-136775345D01*
X108538179Y-136837338D01*
X108540500Y-136861220D01*
X108540500Y-147238667D01*
X108520815Y-147305706D01*
X108468011Y-147351461D01*
X108398853Y-147361405D01*
X108375546Y-147355709D01*
X108308538Y-147332262D01*
X108258155Y-147314632D01*
X108258154Y-147314631D01*
X108258149Y-147314630D01*
X108214261Y-147309685D01*
X108149847Y-147282617D01*
X108140465Y-147274146D01*
X101368911Y-140502591D01*
X101368910Y-140502590D01*
X101346683Y-140487739D01*
X101346682Y-140487738D01*
X101266139Y-140433920D01*
X101266126Y-140433913D01*
X101232685Y-140420062D01*
X101151935Y-140386614D01*
X101151927Y-140386612D01*
X101046168Y-140365575D01*
X101004387Y-140348952D01*
X100869523Y-140264211D01*
X100699254Y-140204631D01*
X100699249Y-140204630D01*
X100520004Y-140184435D01*
X100519996Y-140184435D01*
X100340750Y-140204630D01*
X100340745Y-140204631D01*
X100170476Y-140264211D01*
X100017737Y-140360184D01*
X99890184Y-140487737D01*
X99794211Y-140640476D01*
X99734631Y-140810745D01*
X99734630Y-140810750D01*
X99714435Y-140989996D01*
X99714435Y-140990003D01*
X99734630Y-141169249D01*
X99734631Y-141169254D01*
X99794211Y-141339523D01*
X99890184Y-141492262D01*
X100017738Y-141619816D01*
X100170478Y-141715789D01*
X100290133Y-141757658D01*
X100340745Y-141775368D01*
X100340750Y-141775369D01*
X100519996Y-141795565D01*
X100520000Y-141795565D01*
X100520004Y-141795565D01*
X100699248Y-141775369D01*
X100699248Y-141775368D01*
X100699255Y-141775368D01*
X100749867Y-141757657D01*
X100819639Y-141754095D01*
X100878499Y-141787018D01*
X107253046Y-148161565D01*
X107286531Y-148222888D01*
X107288585Y-148235361D01*
X107293530Y-148279249D01*
X107353110Y-148449521D01*
X107433522Y-148577495D01*
X107449084Y-148602262D01*
X107576638Y-148729816D01*
X107729378Y-148825789D01*
X107899639Y-148885366D01*
X107899645Y-148885368D01*
X107899650Y-148885369D01*
X108078896Y-148905565D01*
X108078900Y-148905565D01*
X108078904Y-148905565D01*
X108258149Y-148885369D01*
X108258151Y-148885368D01*
X108258155Y-148885368D01*
X108258158Y-148885366D01*
X108258162Y-148885366D01*
X108337524Y-148857596D01*
X108407302Y-148854033D01*
X108467930Y-148888762D01*
X108500158Y-148950755D01*
X108493753Y-149020331D01*
X108483473Y-149040609D01*
X108442211Y-149106276D01*
X108382631Y-149276545D01*
X108382630Y-149276550D01*
X108362435Y-149455796D01*
X108362435Y-149455803D01*
X108382630Y-149635049D01*
X108382631Y-149635054D01*
X108442211Y-149805323D01*
X108486293Y-149875478D01*
X108538184Y-149958062D01*
X108665738Y-150085616D01*
X108818478Y-150181589D01*
X108942528Y-150224996D01*
X108988745Y-150241168D01*
X108988750Y-150241169D01*
X109167996Y-150261365D01*
X109168000Y-150261365D01*
X109168004Y-150261365D01*
X109347249Y-150241169D01*
X109347252Y-150241168D01*
X109347255Y-150241168D01*
X109517522Y-150181589D01*
X109670262Y-150085616D01*
X109797816Y-149958062D01*
X109893789Y-149805322D01*
X109953368Y-149635055D01*
X109953369Y-149635049D01*
X109973565Y-149455803D01*
X109973565Y-149455796D01*
X109953369Y-149276550D01*
X109953368Y-149276545D01*
X109906220Y-149141804D01*
X109893789Y-149106278D01*
X109814505Y-148980099D01*
X109795500Y-148914128D01*
X109795500Y-147479996D01*
X127484435Y-147479996D01*
X127484435Y-147480003D01*
X127504630Y-147659249D01*
X127504631Y-147659254D01*
X127564211Y-147829524D01*
X127643493Y-147955698D01*
X127662500Y-148021671D01*
X127662500Y-150391807D01*
X127686612Y-150513028D01*
X127686613Y-150513032D01*
X127686614Y-150513035D01*
X127698875Y-150542634D01*
X127714356Y-150580008D01*
X127733915Y-150627229D01*
X127733920Y-150627238D01*
X127760763Y-150667411D01*
X127760763Y-150667412D01*
X127802585Y-150730003D01*
X127802591Y-150730011D01*
X129572589Y-152500008D01*
X129616829Y-152544248D01*
X129659994Y-152587413D01*
X129659997Y-152587414D01*
X129762767Y-152656083D01*
X129796215Y-152669937D01*
X129876965Y-152703386D01*
X129998192Y-152727499D01*
X129998196Y-152727500D01*
X129998197Y-152727500D01*
X136021804Y-152727500D01*
X136021805Y-152727499D01*
X136143035Y-152703386D01*
X136223784Y-152669937D01*
X136257233Y-152656083D01*
X136360008Y-152587411D01*
X136447411Y-152500008D01*
X138367411Y-150580008D01*
X138380454Y-150560487D01*
X138406015Y-150522234D01*
X138406015Y-150522233D01*
X138436083Y-150477233D01*
X138464746Y-150408035D01*
X138466083Y-150404809D01*
X138483384Y-150363039D01*
X138483386Y-150363035D01*
X138507500Y-150241803D01*
X138507500Y-150118197D01*
X138507500Y-147398197D01*
X138507500Y-147398194D01*
X138483386Y-147276970D01*
X138483385Y-147276969D01*
X138483385Y-147276965D01*
X138467522Y-147238667D01*
X138436086Y-147162773D01*
X138436079Y-147162760D01*
X138367412Y-147059993D01*
X138367411Y-147059992D01*
X138280008Y-146972589D01*
X138258864Y-146951445D01*
X138225379Y-146890122D01*
X138223325Y-146849879D01*
X138225565Y-146830000D01*
X138225565Y-146829996D01*
X138205369Y-146650750D01*
X138205368Y-146650745D01*
X138171476Y-146553887D01*
X138145789Y-146480478D01*
X138049816Y-146327738D01*
X137922262Y-146200184D01*
X137769523Y-146104211D01*
X137599254Y-146044631D01*
X137599249Y-146044630D01*
X137420004Y-146024435D01*
X137419996Y-146024435D01*
X137240750Y-146044630D01*
X137240745Y-146044631D01*
X137070476Y-146104211D01*
X136917737Y-146200184D01*
X136790184Y-146327737D01*
X136694211Y-146480476D01*
X136634631Y-146650745D01*
X136634630Y-146650750D01*
X136614435Y-146829996D01*
X136614435Y-146830003D01*
X136634630Y-147009249D01*
X136634631Y-147009254D01*
X136694211Y-147179523D01*
X136770384Y-147300750D01*
X136790184Y-147332262D01*
X136917738Y-147459816D01*
X137070478Y-147555789D01*
X137071276Y-147556068D01*
X137071997Y-147556521D01*
X137076754Y-147558812D01*
X137076496Y-147559347D01*
X137118013Y-147585432D01*
X137216181Y-147683600D01*
X137249666Y-147744923D01*
X137252500Y-147771281D01*
X137252500Y-149868719D01*
X137232815Y-149935758D01*
X137216181Y-149956400D01*
X135736400Y-151436181D01*
X135675077Y-151469666D01*
X135648719Y-151472500D01*
X130371281Y-151472500D01*
X130304242Y-151452815D01*
X130283600Y-151436181D01*
X130068626Y-151221207D01*
X130035141Y-151159884D01*
X130040125Y-151090192D01*
X130081997Y-151034259D01*
X130147461Y-151009842D01*
X130170190Y-151010306D01*
X130349996Y-151030565D01*
X130350000Y-151030565D01*
X130350004Y-151030565D01*
X130529249Y-151010369D01*
X130529252Y-151010368D01*
X130529255Y-151010368D01*
X130699522Y-150950789D01*
X130825700Y-150871505D01*
X130891672Y-150852500D01*
X133396804Y-150852500D01*
X133396805Y-150852499D01*
X133518035Y-150828386D01*
X133594855Y-150796565D01*
X133626676Y-150783385D01*
X133626678Y-150783383D01*
X133632233Y-150781083D01*
X133735008Y-150712411D01*
X133822411Y-150625008D01*
X134967411Y-149480008D01*
X134994389Y-149439632D01*
X135036083Y-149377233D01*
X135061475Y-149315932D01*
X135083386Y-149263034D01*
X135107500Y-149141803D01*
X135107500Y-149018196D01*
X135107500Y-143781281D01*
X135127185Y-143714242D01*
X135143819Y-143693600D01*
X141333600Y-137503819D01*
X141394923Y-137470334D01*
X141421281Y-137467500D01*
X142768328Y-137467500D01*
X142834299Y-137486505D01*
X142960478Y-137565789D01*
X143002457Y-137580478D01*
X143130745Y-137625368D01*
X143130750Y-137625369D01*
X143309996Y-137645565D01*
X143310000Y-137645565D01*
X143310004Y-137645565D01*
X143489249Y-137625369D01*
X143489252Y-137625368D01*
X143489255Y-137625368D01*
X143659522Y-137565789D01*
X143812262Y-137469816D01*
X143939816Y-137342262D01*
X144035789Y-137189522D01*
X144095368Y-137019255D01*
X144101741Y-136962695D01*
X144115565Y-136840003D01*
X144115565Y-136839996D01*
X144095369Y-136660750D01*
X144095368Y-136660745D01*
X144035788Y-136490476D01*
X143939815Y-136337737D01*
X143812262Y-136210184D01*
X143659523Y-136114211D01*
X143489254Y-136054631D01*
X143489249Y-136054630D01*
X143310004Y-136034435D01*
X143309996Y-136034435D01*
X143130750Y-136054630D01*
X143130745Y-136054631D01*
X142960476Y-136114211D01*
X142834300Y-136193494D01*
X142768328Y-136212500D01*
X141514281Y-136212500D01*
X141447242Y-136192815D01*
X141401487Y-136140011D01*
X141391543Y-136070853D01*
X141420568Y-136007297D01*
X141426600Y-136000819D01*
X142765644Y-134661775D01*
X147743060Y-129684357D01*
X147804381Y-129650874D01*
X147816834Y-129648822D01*
X147936255Y-129635368D01*
X148106522Y-129575789D01*
X148259262Y-129479816D01*
X148386816Y-129352262D01*
X148482789Y-129199522D01*
X148542368Y-129029255D01*
X148542369Y-129029249D01*
X148562565Y-128850003D01*
X148562565Y-128849996D01*
X148542369Y-128670750D01*
X148542368Y-128670745D01*
X148512312Y-128584849D01*
X148482789Y-128500478D01*
X148468845Y-128478287D01*
X148423173Y-128405600D01*
X148386816Y-128347738D01*
X148259262Y-128220184D01*
X148220436Y-128195788D01*
X148106523Y-128124211D01*
X147936254Y-128064631D01*
X147936249Y-128064630D01*
X147757004Y-128044435D01*
X147756996Y-128044435D01*
X147577750Y-128064630D01*
X147577745Y-128064631D01*
X147407476Y-128124211D01*
X147254737Y-128220184D01*
X147127184Y-128347737D01*
X147031209Y-128500480D01*
X146975486Y-128659727D01*
X146946126Y-128706453D01*
X133422781Y-142229799D01*
X133361458Y-142263284D01*
X133291766Y-142258300D01*
X133235833Y-142216428D01*
X133211416Y-142150964D01*
X133211100Y-142142118D01*
X133211100Y-138511797D01*
X133205985Y-138486085D01*
X133205985Y-138486083D01*
X133186986Y-138390566D01*
X133159276Y-138323670D01*
X133139683Y-138276367D01*
X133071014Y-138173596D01*
X133071013Y-138173594D01*
X133056886Y-138159467D01*
X132983608Y-138086189D01*
X132915100Y-138017681D01*
X132881615Y-137956358D01*
X132886599Y-137886666D01*
X132915100Y-137842319D01*
X133269808Y-137487611D01*
X133269811Y-137487608D01*
X133283247Y-137467500D01*
X133299360Y-137443386D01*
X133338476Y-137384843D01*
X133338483Y-137384833D01*
X133372586Y-137302500D01*
X133385786Y-137270634D01*
X133409900Y-137149403D01*
X133409900Y-137025796D01*
X133409900Y-128003040D01*
X133429585Y-127936001D01*
X133446219Y-127915359D01*
X133460556Y-127901022D01*
X133483116Y-127878462D01*
X133579089Y-127725722D01*
X133638668Y-127555455D01*
X133638669Y-127555449D01*
X133658865Y-127376203D01*
X133658865Y-127376196D01*
X133638669Y-127196950D01*
X133638668Y-127196945D01*
X133602873Y-127094649D01*
X133579089Y-127026678D01*
X133499805Y-126900499D01*
X133480800Y-126834528D01*
X133480800Y-126199996D01*
X137334435Y-126199996D01*
X137334435Y-126200003D01*
X137354630Y-126379249D01*
X137354631Y-126379254D01*
X137405580Y-126524855D01*
X137414211Y-126549522D01*
X137510184Y-126702262D01*
X137510185Y-126702263D01*
X137510794Y-126703232D01*
X137529800Y-126769204D01*
X137529800Y-130547628D01*
X137510794Y-130613600D01*
X137431511Y-130739776D01*
X137371931Y-130910045D01*
X137371930Y-130910050D01*
X137351735Y-131089296D01*
X137351735Y-131089303D01*
X137371930Y-131268549D01*
X137371931Y-131268554D01*
X137431511Y-131438823D01*
X137491319Y-131534006D01*
X137527484Y-131591562D01*
X137655038Y-131719116D01*
X137807778Y-131815089D01*
X137978045Y-131874668D01*
X137978050Y-131874669D01*
X138157296Y-131894865D01*
X138157300Y-131894865D01*
X138157304Y-131894865D01*
X138336549Y-131874669D01*
X138336552Y-131874668D01*
X138336555Y-131874668D01*
X138506822Y-131815089D01*
X138659562Y-131719116D01*
X138787116Y-131591562D01*
X138883089Y-131438822D01*
X138942668Y-131268555D01*
X138953772Y-131170003D01*
X138962865Y-131089303D01*
X138962865Y-131089296D01*
X138942669Y-130910050D01*
X138942668Y-130910045D01*
X138897099Y-130779816D01*
X138883089Y-130739778D01*
X138866680Y-130713664D01*
X138803806Y-130613600D01*
X138784800Y-130547628D01*
X138784800Y-126714139D01*
X138803806Y-126648167D01*
X138820495Y-126621607D01*
X138865789Y-126549522D01*
X138925368Y-126379255D01*
X138925369Y-126379249D01*
X138945565Y-126200003D01*
X138945565Y-126199996D01*
X138925369Y-126020750D01*
X138925368Y-126020745D01*
X138865788Y-125850476D01*
X138797690Y-125742099D01*
X138769816Y-125697738D01*
X138642262Y-125570184D01*
X138581117Y-125531764D01*
X138489523Y-125474211D01*
X138319254Y-125414631D01*
X138319249Y-125414630D01*
X138140004Y-125394435D01*
X138139996Y-125394435D01*
X137960750Y-125414630D01*
X137960745Y-125414631D01*
X137790476Y-125474211D01*
X137637737Y-125570184D01*
X137510184Y-125697737D01*
X137414211Y-125850476D01*
X137354631Y-126020745D01*
X137354630Y-126020750D01*
X137334435Y-126199996D01*
X133480800Y-126199996D01*
X133480800Y-117907471D01*
X133499807Y-117841498D01*
X133579088Y-117715324D01*
X133579089Y-117715322D01*
X133638668Y-117545055D01*
X133645019Y-117488688D01*
X133658865Y-117365803D01*
X133658865Y-117365796D01*
X133638669Y-117186550D01*
X133638668Y-117186545D01*
X133579088Y-117016276D01*
X133483115Y-116863537D01*
X133355562Y-116735984D01*
X133202821Y-116640010D01*
X133032549Y-116580430D01*
X132988661Y-116575485D01*
X132924247Y-116548417D01*
X132914865Y-116539946D01*
X131743819Y-115368900D01*
X131710334Y-115307577D01*
X131707500Y-115281219D01*
X131707500Y-114061196D01*
X132538635Y-114061196D01*
X132538635Y-114061203D01*
X132558830Y-114240449D01*
X132558831Y-114240454D01*
X132618411Y-114410724D01*
X132697693Y-114536898D01*
X132716700Y-114602871D01*
X132716700Y-115356007D01*
X132740812Y-115477228D01*
X132740813Y-115477232D01*
X132740814Y-115477235D01*
X132762959Y-115530697D01*
X132771627Y-115551622D01*
X132788115Y-115591429D01*
X132788120Y-115591438D01*
X132836068Y-115663197D01*
X132836069Y-115663198D01*
X132856790Y-115694210D01*
X132856791Y-115694211D01*
X134152589Y-116990008D01*
X134207673Y-117045092D01*
X134239994Y-117077413D01*
X134239996Y-117077414D01*
X134253361Y-117086344D01*
X134342767Y-117146083D01*
X134376215Y-117159937D01*
X134456965Y-117193386D01*
X134578192Y-117217499D01*
X134578196Y-117217500D01*
X134578197Y-117217500D01*
X136598328Y-117217500D01*
X136664299Y-117236505D01*
X136790478Y-117315789D01*
X136933390Y-117365796D01*
X136960745Y-117375368D01*
X136960750Y-117375369D01*
X137139996Y-117395565D01*
X137140000Y-117395565D01*
X137140004Y-117395565D01*
X137319249Y-117375369D01*
X137319252Y-117375368D01*
X137319255Y-117375368D01*
X137489522Y-117315789D01*
X137642262Y-117219816D01*
X137769816Y-117092262D01*
X137865789Y-116939522D01*
X137925368Y-116769255D01*
X137933225Y-116699522D01*
X137945565Y-116590003D01*
X137945565Y-116589997D01*
X137936099Y-116505984D01*
X137948153Y-116437162D01*
X137995502Y-116385782D01*
X138063113Y-116368158D01*
X138129519Y-116389884D01*
X138147000Y-116404419D01*
X138566181Y-116823600D01*
X138599666Y-116884923D01*
X138602500Y-116911281D01*
X138602500Y-118298718D01*
X138582815Y-118365757D01*
X138566181Y-118386399D01*
X138358432Y-118594147D01*
X138297109Y-118627632D01*
X138284637Y-118629686D01*
X138240745Y-118634632D01*
X138070478Y-118694210D01*
X137917737Y-118790184D01*
X137790184Y-118917737D01*
X137694211Y-119070476D01*
X137634631Y-119240745D01*
X137634630Y-119240750D01*
X137614435Y-119419996D01*
X137614435Y-119420003D01*
X137634630Y-119599249D01*
X137634631Y-119599254D01*
X137694211Y-119769523D01*
X137753415Y-119863745D01*
X137790184Y-119922262D01*
X137917738Y-120049816D01*
X138070478Y-120145789D01*
X138149726Y-120173519D01*
X138240745Y-120205368D01*
X138240750Y-120205369D01*
X138419996Y-120225565D01*
X138420000Y-120225565D01*
X138420004Y-120225565D01*
X138599249Y-120205369D01*
X138599252Y-120205368D01*
X138599255Y-120205368D01*
X138769522Y-120145789D01*
X138922262Y-120049816D01*
X139049816Y-119922262D01*
X139145789Y-119769522D01*
X139205368Y-119599255D01*
X139210313Y-119555361D01*
X139237378Y-119490951D01*
X139245832Y-119481585D01*
X139717411Y-119010008D01*
X139733807Y-118985470D01*
X139786083Y-118907233D01*
X139786738Y-118905653D01*
X139812896Y-118842500D01*
X139816415Y-118834005D01*
X139833386Y-118793035D01*
X139857500Y-118671803D01*
X139857500Y-118548197D01*
X139857500Y-116538197D01*
X139857500Y-116538194D01*
X139833386Y-116416970D01*
X139833385Y-116416969D01*
X139833385Y-116416965D01*
X139818726Y-116381575D01*
X139786086Y-116302773D01*
X139786079Y-116302760D01*
X139717412Y-116199993D01*
X139688164Y-116170745D01*
X139630008Y-116112589D01*
X138939919Y-115422500D01*
X138232113Y-114714693D01*
X138232109Y-114714690D01*
X138232108Y-114714689D01*
X138201083Y-114693959D01*
X138201081Y-114693957D01*
X138129339Y-114646020D01*
X138129326Y-114646013D01*
X138095885Y-114632162D01*
X138015135Y-114598714D01*
X138015127Y-114598712D01*
X137893907Y-114574600D01*
X137893903Y-114574600D01*
X135877572Y-114574600D01*
X135811600Y-114555594D01*
X135685423Y-114476311D01*
X135515154Y-114416731D01*
X135515149Y-114416730D01*
X135335904Y-114396535D01*
X135335896Y-114396535D01*
X135156650Y-114416730D01*
X135156645Y-114416731D01*
X134986376Y-114476311D01*
X134833637Y-114572284D01*
X134706084Y-114699837D01*
X134610111Y-114852576D01*
X134550531Y-115022845D01*
X134550530Y-115022850D01*
X134530335Y-115202096D01*
X134530335Y-115202104D01*
X134540283Y-115290399D01*
X134528228Y-115359221D01*
X134480879Y-115410600D01*
X134413269Y-115428224D01*
X134346863Y-115406497D01*
X134329382Y-115391963D01*
X134008019Y-115070600D01*
X133974534Y-115009277D01*
X133971700Y-114982919D01*
X133971700Y-114602871D01*
X133990707Y-114536898D01*
X134004939Y-114514249D01*
X134066213Y-114416732D01*
X134069988Y-114410724D01*
X134096485Y-114335000D01*
X134129568Y-114240455D01*
X134139112Y-114155750D01*
X134149765Y-114061203D01*
X134149765Y-114061196D01*
X134129569Y-113881950D01*
X134129568Y-113881945D01*
X134102728Y-113805241D01*
X134069989Y-113711678D01*
X134039179Y-113662645D01*
X133974015Y-113558937D01*
X133846462Y-113431384D01*
X133693723Y-113335411D01*
X133523454Y-113275831D01*
X133523449Y-113275830D01*
X133344204Y-113255635D01*
X133344196Y-113255635D01*
X133164950Y-113275830D01*
X133164945Y-113275831D01*
X132994676Y-113335411D01*
X132841937Y-113431384D01*
X132714384Y-113558937D01*
X132618411Y-113711676D01*
X132558831Y-113881945D01*
X132558830Y-113881950D01*
X132538635Y-114061196D01*
X131707500Y-114061196D01*
X131707500Y-109354280D01*
X131727185Y-109287241D01*
X131743815Y-109266603D01*
X131930422Y-109079996D01*
X134024435Y-109079996D01*
X134024435Y-109080003D01*
X134044630Y-109259249D01*
X134044631Y-109259254D01*
X134104211Y-109429523D01*
X134181585Y-109552662D01*
X134200184Y-109582262D01*
X134327738Y-109709816D01*
X134480478Y-109805789D01*
X134650745Y-109865368D01*
X134694635Y-109870313D01*
X134759048Y-109897378D01*
X134768433Y-109905852D01*
X144062081Y-119199500D01*
X144095566Y-119260823D01*
X144098400Y-119287181D01*
X144098400Y-120032818D01*
X144078715Y-120099857D01*
X144062081Y-120120499D01*
X143708432Y-120474147D01*
X143647109Y-120507632D01*
X143634637Y-120509686D01*
X143590745Y-120514632D01*
X143420478Y-120574210D01*
X143267737Y-120670184D01*
X143140184Y-120797737D01*
X143044211Y-120950476D01*
X142984631Y-121120745D01*
X142984630Y-121120750D01*
X142964435Y-121299996D01*
X142964435Y-121300003D01*
X142984630Y-121479249D01*
X142984631Y-121479254D01*
X143044211Y-121649523D01*
X143109473Y-121753386D01*
X143140184Y-121802262D01*
X143267738Y-121929816D01*
X143420478Y-122025789D01*
X143590745Y-122085368D01*
X143590750Y-122085369D01*
X143769996Y-122105565D01*
X143770000Y-122105565D01*
X143770004Y-122105565D01*
X143949249Y-122085369D01*
X143949252Y-122085368D01*
X143949255Y-122085368D01*
X144119522Y-122025789D01*
X144272262Y-121929816D01*
X144399816Y-121802262D01*
X144495789Y-121649522D01*
X144555368Y-121479255D01*
X144560313Y-121435361D01*
X144587378Y-121370951D01*
X144595842Y-121361575D01*
X145213311Y-120744108D01*
X145230815Y-120717911D01*
X145281983Y-120641333D01*
X145314051Y-120563914D01*
X145329286Y-120527134D01*
X145353400Y-120405903D01*
X145353400Y-120282297D01*
X145353400Y-118914097D01*
X145351722Y-118905659D01*
X145329286Y-118792865D01*
X145295837Y-118712115D01*
X145281983Y-118678667D01*
X145277397Y-118671803D01*
X145213314Y-118575896D01*
X145213313Y-118575894D01*
X145183271Y-118545852D01*
X145125908Y-118488489D01*
X135655852Y-109018433D01*
X135622367Y-108957110D01*
X135620314Y-108944648D01*
X135615368Y-108900745D01*
X135555789Y-108730478D01*
X135459816Y-108577738D01*
X135332262Y-108450184D01*
X135305605Y-108433434D01*
X135179523Y-108354211D01*
X135009254Y-108294631D01*
X135009249Y-108294630D01*
X134830004Y-108274435D01*
X134829996Y-108274435D01*
X134650750Y-108294630D01*
X134650745Y-108294631D01*
X134480476Y-108354211D01*
X134327737Y-108450184D01*
X134200184Y-108577737D01*
X134104211Y-108730476D01*
X134044631Y-108900745D01*
X134044630Y-108900750D01*
X134024435Y-109079996D01*
X131930422Y-109079996D01*
X132561567Y-108448850D01*
X132622888Y-108415367D01*
X132635345Y-108413315D01*
X132679255Y-108408368D01*
X132849522Y-108348789D01*
X133002262Y-108252816D01*
X133129816Y-108125262D01*
X133225789Y-107972522D01*
X133285368Y-107802255D01*
X133293880Y-107726707D01*
X133305565Y-107623003D01*
X133305565Y-107622996D01*
X133285369Y-107443750D01*
X133285368Y-107443745D01*
X133225788Y-107273476D01*
X133129815Y-107120737D01*
X133002262Y-106993184D01*
X132849523Y-106897211D01*
X132679254Y-106837631D01*
X132679249Y-106837630D01*
X132500004Y-106817435D01*
X132499996Y-106817435D01*
X132320750Y-106837630D01*
X132320745Y-106837631D01*
X132150476Y-106897211D01*
X131997737Y-106993184D01*
X131870184Y-107120737D01*
X131774210Y-107273478D01*
X131714632Y-107443745D01*
X131709686Y-107487637D01*
X131682618Y-107552051D01*
X131674147Y-107561432D01*
X130923378Y-108312203D01*
X130679992Y-108555589D01*
X130657844Y-108577737D01*
X130592589Y-108642991D01*
X130523915Y-108745770D01*
X130520088Y-108755012D01*
X130520086Y-108755016D01*
X130476614Y-108859964D01*
X130476612Y-108859972D01*
X130455134Y-108967945D01*
X130455135Y-108967946D01*
X130452500Y-108981193D01*
X130452500Y-115654307D01*
X130476612Y-115775527D01*
X130476614Y-115775535D01*
X130506522Y-115847738D01*
X130523915Y-115889730D01*
X130523920Y-115889739D01*
X130589834Y-115988386D01*
X130592585Y-115992502D01*
X130592591Y-115992510D01*
X132027446Y-117427365D01*
X132060931Y-117488688D01*
X132062985Y-117501161D01*
X132067930Y-117545049D01*
X132127511Y-117715323D01*
X132206793Y-117841498D01*
X132225800Y-117907471D01*
X132225800Y-126834528D01*
X132206794Y-126900500D01*
X132127511Y-127026676D01*
X132067931Y-127196945D01*
X132067930Y-127196950D01*
X132047735Y-127376196D01*
X132047735Y-127376203D01*
X132067930Y-127555449D01*
X132067931Y-127555454D01*
X132127512Y-127725725D01*
X132135892Y-127739061D01*
X132154900Y-127805035D01*
X132154900Y-136776318D01*
X132135215Y-136843357D01*
X132118581Y-136863999D01*
X131878432Y-137104147D01*
X131817109Y-137137632D01*
X131804637Y-137139686D01*
X131760745Y-137144632D01*
X131590478Y-137204210D01*
X131437737Y-137300184D01*
X131310184Y-137427737D01*
X131214211Y-137580476D01*
X131154631Y-137750745D01*
X131154630Y-137750750D01*
X131134435Y-137929996D01*
X131134435Y-137930003D01*
X131154630Y-138109249D01*
X131154631Y-138109254D01*
X131214211Y-138279523D01*
X131307576Y-138428111D01*
X131310184Y-138432262D01*
X131437738Y-138559816D01*
X131528080Y-138616582D01*
X131583871Y-138651638D01*
X131590478Y-138655789D01*
X131760745Y-138715368D01*
X131804635Y-138720313D01*
X131869048Y-138747378D01*
X131878433Y-138755852D01*
X131919781Y-138797200D01*
X131953266Y-138858523D01*
X131956100Y-138884881D01*
X131956100Y-139493218D01*
X131936415Y-139560257D01*
X131883611Y-139606012D01*
X131814453Y-139615956D01*
X131750897Y-139586931D01*
X131744422Y-139580902D01*
X131730011Y-139566492D01*
X131255852Y-139092333D01*
X131222367Y-139031010D01*
X131220314Y-139018548D01*
X131215368Y-138974645D01*
X131155789Y-138804378D01*
X131119973Y-138747378D01*
X131062424Y-138655789D01*
X131059816Y-138651638D01*
X130932262Y-138524084D01*
X130871781Y-138486081D01*
X130779523Y-138428111D01*
X130609254Y-138368531D01*
X130609249Y-138368530D01*
X130430004Y-138348335D01*
X130429996Y-138348335D01*
X130250750Y-138368530D01*
X130250745Y-138368531D01*
X130080476Y-138428111D01*
X129927737Y-138524084D01*
X129800184Y-138651637D01*
X129704211Y-138804376D01*
X129644631Y-138974645D01*
X129644630Y-138974650D01*
X129624435Y-139153896D01*
X129624435Y-139153903D01*
X129644630Y-139333149D01*
X129644631Y-139333154D01*
X129704211Y-139503423D01*
X129774921Y-139615956D01*
X129800184Y-139656162D01*
X129927738Y-139783716D01*
X130018080Y-139840482D01*
X130066434Y-139870865D01*
X130080478Y-139879689D01*
X130250745Y-139939268D01*
X130294635Y-139944213D01*
X130359048Y-139971278D01*
X130368433Y-139979752D01*
X130666181Y-140277500D01*
X130699666Y-140338823D01*
X130702500Y-140365181D01*
X130702500Y-148111807D01*
X130726612Y-148233028D01*
X130726615Y-148233039D01*
X130747324Y-148283031D01*
X130747325Y-148283035D01*
X130773913Y-148347226D01*
X130773917Y-148347233D01*
X130812197Y-148404523D01*
X130812198Y-148404524D01*
X130842590Y-148450010D01*
X130842591Y-148450011D01*
X131778400Y-149385819D01*
X131811885Y-149447142D01*
X131806901Y-149516833D01*
X131765029Y-149572767D01*
X131699565Y-149597184D01*
X131690719Y-149597500D01*
X130891672Y-149597500D01*
X130825700Y-149578494D01*
X130699523Y-149499211D01*
X130529254Y-149439631D01*
X130529249Y-149439630D01*
X130350004Y-149419435D01*
X130349996Y-149419435D01*
X130170750Y-149439630D01*
X130170745Y-149439631D01*
X130000476Y-149499211D01*
X129847737Y-149595184D01*
X129720184Y-149722737D01*
X129624211Y-149875476D01*
X129564631Y-150045745D01*
X129564630Y-150045750D01*
X129544435Y-150224996D01*
X129544435Y-150225004D01*
X129564693Y-150404809D01*
X129552638Y-150473631D01*
X129505289Y-150525010D01*
X129437678Y-150542634D01*
X129371273Y-150520907D01*
X129353792Y-150506373D01*
X128953819Y-150106400D01*
X128920334Y-150045077D01*
X128917500Y-150018719D01*
X128917500Y-148021671D01*
X128936507Y-147955698D01*
X129015788Y-147829524D01*
X129045391Y-147744923D01*
X129075368Y-147659255D01*
X129086685Y-147558812D01*
X129095565Y-147480003D01*
X129095565Y-147479996D01*
X129075369Y-147300750D01*
X129075368Y-147300745D01*
X129053646Y-147238667D01*
X129015789Y-147130478D01*
X128919816Y-146977738D01*
X128792262Y-146850184D01*
X128760144Y-146830003D01*
X128639523Y-146754211D01*
X128469254Y-146694631D01*
X128469249Y-146694630D01*
X128290004Y-146674435D01*
X128289996Y-146674435D01*
X128110750Y-146694630D01*
X128110745Y-146694631D01*
X127940476Y-146754211D01*
X127787737Y-146850184D01*
X127660184Y-146977737D01*
X127564211Y-147130476D01*
X127504631Y-147300745D01*
X127504630Y-147300750D01*
X127484435Y-147479996D01*
X109795500Y-147479996D01*
X109795500Y-131746142D01*
X109815185Y-131679103D01*
X109817865Y-131675365D01*
X109819812Y-131672265D01*
X109819816Y-131672262D01*
X109915789Y-131519522D01*
X109975368Y-131349255D01*
X109976471Y-131339467D01*
X109995565Y-131170003D01*
X109995565Y-131169996D01*
X109975369Y-130990750D01*
X109975368Y-130990745D01*
X109953353Y-130927830D01*
X109915789Y-130820478D01*
X109914172Y-130817905D01*
X109820406Y-130668677D01*
X109801400Y-130602705D01*
X109801400Y-123257282D01*
X109820406Y-123191310D01*
X109882072Y-123093169D01*
X109893789Y-123074522D01*
X109953368Y-122904255D01*
X109956533Y-122876164D01*
X109973565Y-122725003D01*
X109973565Y-122724996D01*
X109953369Y-122545750D01*
X109953368Y-122545745D01*
X109923890Y-122461501D01*
X109893789Y-122375478D01*
X109814505Y-122249299D01*
X109795500Y-122183328D01*
X109795500Y-116266671D01*
X109814507Y-116200698D01*
X109893788Y-116074524D01*
X109919698Y-116000478D01*
X109953368Y-115904255D01*
X109955004Y-115889739D01*
X109973565Y-115725003D01*
X109973565Y-115724996D01*
X109953369Y-115545750D01*
X109953368Y-115545745D01*
X109928145Y-115473663D01*
X109893789Y-115375478D01*
X109797816Y-115222738D01*
X109670262Y-115095184D01*
X109563185Y-115027903D01*
X109517521Y-114999210D01*
X109347249Y-114939630D01*
X109303361Y-114934685D01*
X109238947Y-114907617D01*
X109229565Y-114899146D01*
X108843219Y-114512800D01*
X108809734Y-114451477D01*
X108806900Y-114425119D01*
X108806900Y-108243021D01*
X108826585Y-108175982D01*
X108879389Y-108130227D01*
X108917012Y-108119801D01*
X108985655Y-108112068D01*
X109155922Y-108052489D01*
X109282100Y-107973205D01*
X109348072Y-107954200D01*
X110036805Y-107954200D01*
X110118361Y-107937976D01*
X110158035Y-107930085D01*
X110272233Y-107882783D01*
X110375008Y-107814111D01*
X110462411Y-107726708D01*
X110531083Y-107623933D01*
X110531470Y-107623000D01*
X110541802Y-107598054D01*
X110578385Y-107509735D01*
X110586276Y-107470061D01*
X110602500Y-107388505D01*
X110602500Y-99738194D01*
X110590829Y-99679524D01*
X110590829Y-99679519D01*
X110578387Y-99616973D01*
X110578386Y-99616966D01*
X110533407Y-99508379D01*
X110531763Y-99503784D01*
X110462414Y-99399996D01*
X110462413Y-99399994D01*
X110462411Y-99399992D01*
X110375850Y-99313431D01*
X110342367Y-99252111D01*
X110340314Y-99239648D01*
X110335368Y-99195745D01*
X110275789Y-99025478D01*
X110263365Y-99005706D01*
X110179815Y-98872737D01*
X110052262Y-98745184D01*
X109899523Y-98649211D01*
X109729254Y-98589631D01*
X109729249Y-98589630D01*
X109550004Y-98569435D01*
X109549996Y-98569435D01*
X109370750Y-98589630D01*
X109370745Y-98589631D01*
X109200476Y-98649211D01*
X109047737Y-98745184D01*
X109024481Y-98768441D01*
X108963158Y-98801926D01*
X108893466Y-98796942D01*
X108837533Y-98755070D01*
X108813116Y-98689606D01*
X108812800Y-98680760D01*
X108812800Y-97424996D01*
X109719435Y-97424996D01*
X109719435Y-97425003D01*
X109739630Y-97604249D01*
X109739631Y-97604254D01*
X109799211Y-97774523D01*
X109895184Y-97927262D01*
X110022738Y-98054816D01*
X110175478Y-98150789D01*
X110345745Y-98210368D01*
X110389635Y-98215313D01*
X110454048Y-98242378D01*
X110463433Y-98250852D01*
X110960581Y-98748000D01*
X110994066Y-98809323D01*
X110996900Y-98835681D01*
X110996900Y-105836207D01*
X111021012Y-105957428D01*
X111021013Y-105957432D01*
X111021014Y-105957435D01*
X111033665Y-105987976D01*
X111033666Y-105987979D01*
X111068315Y-106071630D01*
X111068316Y-106071632D01*
X111068317Y-106071633D01*
X111123664Y-106154466D01*
X111136989Y-106174408D01*
X111136992Y-106174411D01*
X111136995Y-106174415D01*
X111361646Y-106399066D01*
X111395131Y-106460389D01*
X111397185Y-106472861D01*
X111402130Y-106516749D01*
X111461710Y-106687021D01*
X111469363Y-106699200D01*
X111557684Y-106839762D01*
X111685238Y-106967316D01*
X111837978Y-107063289D01*
X112002155Y-107120737D01*
X112008245Y-107122868D01*
X112008250Y-107122869D01*
X112187496Y-107143065D01*
X112187500Y-107143065D01*
X112187504Y-107143065D01*
X112366749Y-107122869D01*
X112366752Y-107122868D01*
X112366755Y-107122868D01*
X112537022Y-107063289D01*
X112689762Y-106967316D01*
X112817316Y-106839762D01*
X112913289Y-106687022D01*
X112972868Y-106516755D01*
X112974020Y-106506530D01*
X112993065Y-106337503D01*
X112993065Y-106337496D01*
X112972869Y-106158250D01*
X112972868Y-106158245D01*
X112913288Y-105987976D01*
X112851827Y-105890162D01*
X112817316Y-105835238D01*
X112689762Y-105707684D01*
X112537021Y-105611710D01*
X112366750Y-105552130D01*
X112362013Y-105551597D01*
X112297600Y-105524528D01*
X112258046Y-105466932D01*
X112251900Y-105428377D01*
X112251900Y-98462594D01*
X112227786Y-98341370D01*
X112227785Y-98341369D01*
X112227785Y-98341365D01*
X112186784Y-98242378D01*
X112180486Y-98227173D01*
X112180479Y-98227160D01*
X112111812Y-98124393D01*
X112104141Y-98116722D01*
X112024408Y-98036989D01*
X111350852Y-97363433D01*
X111317367Y-97302110D01*
X111315314Y-97289648D01*
X111310368Y-97245745D01*
X111250789Y-97075478D01*
X111154816Y-96922738D01*
X111027262Y-96795184D01*
X111023401Y-96792758D01*
X110874523Y-96699211D01*
X110704254Y-96639631D01*
X110704249Y-96639630D01*
X110525004Y-96619435D01*
X110524996Y-96619435D01*
X110345750Y-96639630D01*
X110345745Y-96639631D01*
X110175476Y-96699211D01*
X110022737Y-96795184D01*
X109895184Y-96922737D01*
X109799211Y-97075476D01*
X109739631Y-97245745D01*
X109739630Y-97245750D01*
X109719435Y-97424996D01*
X108812800Y-97424996D01*
X108812800Y-95857240D01*
X108832485Y-95790201D01*
X108849119Y-95769559D01*
X108869116Y-95749562D01*
X108965089Y-95596822D01*
X109024668Y-95426555D01*
X109024669Y-95426549D01*
X109044865Y-95247303D01*
X109044865Y-95247296D01*
X109024669Y-95068050D01*
X109024668Y-95068045D01*
X108965088Y-94897776D01*
X108869115Y-94745037D01*
X108741562Y-94617484D01*
X108588823Y-94521511D01*
X108418554Y-94461931D01*
X108418549Y-94461930D01*
X108239304Y-94441735D01*
X108239296Y-94441735D01*
X108060050Y-94461930D01*
X108060045Y-94461931D01*
X107889776Y-94521511D01*
X107737037Y-94617484D01*
X107609484Y-94745037D01*
X107513511Y-94897776D01*
X107481042Y-94990569D01*
X107440320Y-95047345D01*
X107375367Y-95073092D01*
X107306805Y-95059636D01*
X107256403Y-95011248D01*
X107240000Y-94949614D01*
X107240000Y-94375671D01*
X107259007Y-94309698D01*
X107338288Y-94183524D01*
X107338289Y-94183522D01*
X107397868Y-94013255D01*
X107411229Y-93894671D01*
X107418065Y-93834003D01*
X107418065Y-93833996D01*
X107397869Y-93654750D01*
X107397868Y-93654745D01*
X107369474Y-93573600D01*
X107338289Y-93484478D01*
X107331708Y-93474005D01*
X107284243Y-93398465D01*
X107242316Y-93331738D01*
X107114762Y-93204184D01*
X107055540Y-93166972D01*
X106962023Y-93108211D01*
X106791754Y-93048631D01*
X106791749Y-93048630D01*
X106612504Y-93028435D01*
X106612496Y-93028435D01*
X106433250Y-93048630D01*
X106433245Y-93048631D01*
X106262976Y-93108211D01*
X106110237Y-93204184D01*
X105982684Y-93331737D01*
X105886711Y-93484476D01*
X105827131Y-93654745D01*
X105827130Y-93654750D01*
X105806935Y-93833996D01*
X105806935Y-93834003D01*
X105827130Y-94013249D01*
X105827131Y-94013254D01*
X105886711Y-94183524D01*
X105965993Y-94309698D01*
X105985000Y-94375671D01*
X105985000Y-108238000D01*
X105965315Y-108305039D01*
X105912511Y-108350794D01*
X105861001Y-108362000D01*
X105714630Y-108362000D01*
X105714623Y-108362001D01*
X105655016Y-108368408D01*
X105520171Y-108418702D01*
X105520164Y-108418706D01*
X105404955Y-108504952D01*
X105404952Y-108504955D01*
X105318706Y-108620164D01*
X105318704Y-108620169D01*
X105268409Y-108755016D01*
X105268408Y-108755016D01*
X105262001Y-108814616D01*
X105262000Y-108814635D01*
X105262000Y-110610370D01*
X105262001Y-110610376D01*
X105268408Y-110669983D01*
X105318702Y-110804828D01*
X105318706Y-110804835D01*
X105404952Y-110920044D01*
X105404955Y-110920047D01*
X105520164Y-111006293D01*
X105520171Y-111006297D01*
X105651581Y-111055310D01*
X105707515Y-111097181D01*
X105731932Y-111162645D01*
X105717080Y-111230918D01*
X105695930Y-111259173D01*
X105574003Y-111381100D01*
X105438465Y-111574669D01*
X105438464Y-111574671D01*
X105338598Y-111788835D01*
X105338594Y-111788844D01*
X105277438Y-112017086D01*
X105277436Y-112017096D01*
X105256841Y-112252499D01*
X105256841Y-112252500D01*
X105277436Y-112487903D01*
X105277438Y-112487913D01*
X105338594Y-112716155D01*
X105338596Y-112716159D01*
X105338597Y-112716163D01*
X105438465Y-112930330D01*
X105438467Y-112930334D01*
X105574001Y-113123895D01*
X105574006Y-113123902D01*
X105741097Y-113290993D01*
X105741103Y-113290998D01*
X105926658Y-113420925D01*
X105970283Y-113475502D01*
X105977477Y-113545000D01*
X105945954Y-113607355D01*
X105926658Y-113624075D01*
X105741097Y-113754005D01*
X105574005Y-113921097D01*
X105438465Y-114114669D01*
X105438464Y-114114671D01*
X105338598Y-114328835D01*
X105338594Y-114328844D01*
X105277438Y-114557086D01*
X105277436Y-114557096D01*
X105256841Y-114792499D01*
X105256841Y-114792500D01*
X105277436Y-115027903D01*
X105277438Y-115027913D01*
X105338594Y-115256155D01*
X105340447Y-115261244D01*
X105339378Y-115261632D01*
X105349017Y-115325084D01*
X105320499Y-115388868D01*
X105262023Y-115427109D01*
X105250336Y-115430030D01*
X105166969Y-115446613D01*
X105166960Y-115446616D01*
X105052773Y-115493913D01*
X105052761Y-115493920D01*
X104975201Y-115545745D01*
X104975200Y-115545746D01*
X104949989Y-115562590D01*
X104949988Y-115562591D01*
X102962582Y-117549999D01*
X102300892Y-118211689D01*
X102275534Y-118237047D01*
X102213486Y-118299094D01*
X102213485Y-118299096D01*
X102144133Y-118402889D01*
X102142486Y-118407493D01*
X102097514Y-118516064D01*
X102097512Y-118516072D01*
X102075891Y-118624764D01*
X102075892Y-118624765D01*
X102073400Y-118637293D01*
X102073400Y-119879328D01*
X102054394Y-119945300D01*
X101975111Y-120071476D01*
X101915531Y-120241745D01*
X101915530Y-120241749D01*
X101896305Y-120412384D01*
X101869238Y-120476798D01*
X101811644Y-120516353D01*
X101773085Y-120522500D01*
X100448281Y-120522500D01*
X100381242Y-120502815D01*
X100360600Y-120486181D01*
X99855852Y-119981433D01*
X99822367Y-119920110D01*
X99820314Y-119907648D01*
X99815368Y-119863745D01*
X99755789Y-119693478D01*
X99751149Y-119686094D01*
X99696581Y-119599249D01*
X99659816Y-119540738D01*
X99532262Y-119413184D01*
X99525341Y-119408835D01*
X99379523Y-119317211D01*
X99209254Y-119257631D01*
X99209249Y-119257630D01*
X99030004Y-119237435D01*
X99029996Y-119237435D01*
X98850750Y-119257630D01*
X98850745Y-119257631D01*
X98680476Y-119317211D01*
X98527737Y-119413184D01*
X98400184Y-119540737D01*
X98304211Y-119693476D01*
X98244631Y-119863745D01*
X98244630Y-119863750D01*
X98224435Y-120042996D01*
X83301546Y-120042996D01*
X83300656Y-120032818D01*
X83285063Y-119854592D01*
X83223903Y-119626337D01*
X83124035Y-119412171D01*
X83121704Y-119408841D01*
X82988494Y-119218597D01*
X82821402Y-119051506D01*
X82821396Y-119051501D01*
X82635842Y-118921575D01*
X82592217Y-118866998D01*
X82585023Y-118797500D01*
X82616546Y-118735145D01*
X82635842Y-118718425D01*
X82702419Y-118671807D01*
X82821401Y-118588495D01*
X82988495Y-118421401D01*
X83124035Y-118227830D01*
X83223903Y-118013663D01*
X83285063Y-117785408D01*
X83305659Y-117550000D01*
X83285063Y-117314592D01*
X83223903Y-117086337D01*
X83124035Y-116872171D01*
X83117991Y-116863538D01*
X82988494Y-116678597D01*
X82821402Y-116511506D01*
X82821396Y-116511501D01*
X82635842Y-116381575D01*
X82592217Y-116326998D01*
X82585023Y-116257500D01*
X82616546Y-116195145D01*
X82635842Y-116178425D01*
X82765356Y-116087738D01*
X82821401Y-116048495D01*
X82988495Y-115881401D01*
X83124035Y-115687830D01*
X83223903Y-115473663D01*
X83285063Y-115245408D01*
X83305659Y-115010000D01*
X83285063Y-114774592D01*
X83223903Y-114546337D01*
X83124035Y-114332171D01*
X83122403Y-114329839D01*
X82988494Y-114138597D01*
X82821402Y-113971506D01*
X82821396Y-113971501D01*
X82635842Y-113841575D01*
X82592217Y-113786998D01*
X82585023Y-113717500D01*
X82616546Y-113655145D01*
X82635842Y-113638425D01*
X82749362Y-113558937D01*
X82821401Y-113508495D01*
X82988495Y-113341401D01*
X83124035Y-113147830D01*
X83223903Y-112933663D01*
X83285063Y-112705408D01*
X83305659Y-112470000D01*
X83285063Y-112234592D01*
X83223903Y-112006337D01*
X83124035Y-111792171D01*
X83121705Y-111788844D01*
X82988496Y-111598600D01*
X82964565Y-111574669D01*
X82866567Y-111476671D01*
X82833084Y-111415351D01*
X82838068Y-111345659D01*
X82879939Y-111289725D01*
X82910915Y-111272810D01*
X83042331Y-111223796D01*
X83157546Y-111137546D01*
X83243796Y-111022331D01*
X83294091Y-110887483D01*
X83300500Y-110827873D01*
X83300499Y-109032128D01*
X83294091Y-108972517D01*
X83292387Y-108967949D01*
X83243797Y-108837671D01*
X83243793Y-108837664D01*
X83157547Y-108722455D01*
X83157544Y-108722452D01*
X83042335Y-108636206D01*
X83042328Y-108636202D01*
X82907482Y-108585908D01*
X82907483Y-108585908D01*
X82847883Y-108579501D01*
X82847881Y-108579500D01*
X82847873Y-108579500D01*
X82847864Y-108579500D01*
X81052129Y-108579500D01*
X81052123Y-108579501D01*
X80992516Y-108585908D01*
X80857671Y-108636202D01*
X80857664Y-108636206D01*
X80742455Y-108722452D01*
X80742452Y-108722455D01*
X80656206Y-108837664D01*
X80656202Y-108837671D01*
X80605908Y-108972517D01*
X80602194Y-109007067D01*
X80599501Y-109032123D01*
X80599500Y-109032135D01*
X80599500Y-110827870D01*
X80599501Y-110827876D01*
X80605908Y-110887483D01*
X80656202Y-111022328D01*
X80656206Y-111022335D01*
X80742452Y-111137544D01*
X80742455Y-111137547D01*
X80857664Y-111223793D01*
X80857671Y-111223797D01*
X80989081Y-111272810D01*
X81045015Y-111314681D01*
X81069432Y-111380145D01*
X81054580Y-111448418D01*
X81033430Y-111476673D01*
X80911503Y-111598600D01*
X80775965Y-111792169D01*
X80775964Y-111792171D01*
X80676098Y-112006335D01*
X80676094Y-112006344D01*
X80614938Y-112234586D01*
X80614936Y-112234596D01*
X80594341Y-112469999D01*
X73876732Y-112469999D01*
X74211842Y-111377493D01*
X74213105Y-111373608D01*
X74245069Y-111280500D01*
X74598317Y-110251521D01*
X74599687Y-110247737D01*
X75021805Y-109138960D01*
X75023288Y-109135248D01*
X75481839Y-108041022D01*
X75483454Y-108037340D01*
X75977943Y-106958856D01*
X75979670Y-106955247D01*
X76509523Y-105893748D01*
X76511361Y-105890212D01*
X77076049Y-104846760D01*
X77078007Y-104843280D01*
X77676871Y-103819096D01*
X77678965Y-103815647D01*
X78311356Y-102811835D01*
X78313551Y-102808476D01*
X78978789Y-101826117D01*
X78981111Y-101822810D01*
X79678453Y-100863001D01*
X79680873Y-100859784D01*
X80409570Y-99923553D01*
X80412068Y-99920450D01*
X81171364Y-99008774D01*
X81173975Y-99005743D01*
X81962948Y-98119727D01*
X81965715Y-98116722D01*
X82041588Y-98036989D01*
X82783567Y-97257259D01*
X82786371Y-97254410D01*
X83632203Y-96422449D01*
X83635060Y-96419730D01*
X84507954Y-95616174D01*
X84510973Y-95613486D01*
X85409912Y-94839270D01*
X85413056Y-94836653D01*
X85472933Y-94788438D01*
X86337111Y-94092573D01*
X86340251Y-94090130D01*
X87288403Y-93377012D01*
X87291683Y-93374629D01*
X88262879Y-92693259D01*
X88266194Y-92691013D01*
X89259461Y-92042080D01*
X89262867Y-92039935D01*
X90276960Y-91424249D01*
X90280455Y-91422206D01*
X91314375Y-90840373D01*
X91317895Y-90838468D01*
X92370503Y-90291128D01*
X92374133Y-90289316D01*
X93444276Y-89777073D01*
X93447887Y-89775417D01*
X94534397Y-89298830D01*
X94538069Y-89297291D01*
X95639729Y-88856894D01*
X95643484Y-88855464D01*
X96759105Y-88451730D01*
X96762894Y-88450430D01*
X97891207Y-88083819D01*
X97895126Y-88082618D01*
X98791160Y-87823902D01*
X99034870Y-87753534D01*
X99038811Y-87752466D01*
X100188893Y-87461225D01*
X100192871Y-87460288D01*
X101351867Y-87207251D01*
X101355881Y-87206444D01*
X101377326Y-87202500D01*
X102522706Y-86991848D01*
X102526648Y-86991190D01*
X103699962Y-86815286D01*
X103703993Y-86814751D01*
X104882404Y-86677746D01*
X104886428Y-86677345D01*
X106068746Y-86579375D01*
X106072804Y-86579107D01*
X107257693Y-86520283D01*
X107261752Y-86520148D01*
X108448972Y-86500517D01*
X108451022Y-86500500D01*
X130565890Y-86500500D01*
X130565892Y-86500500D01*
X130693186Y-86466392D01*
X130807314Y-86400500D01*
X130900500Y-86307314D01*
X130966392Y-86193186D01*
X131000500Y-86065892D01*
X131000500Y-61802499D01*
X141331841Y-61802499D01*
X141331841Y-61802500D01*
X141352436Y-62037903D01*
X141352438Y-62037913D01*
X141413594Y-62266155D01*
X141413596Y-62266159D01*
X141413597Y-62266163D01*
X141459173Y-62363901D01*
X141513465Y-62480330D01*
X141513467Y-62480334D01*
X141649001Y-62673895D01*
X141649006Y-62673902D01*
X141816097Y-62840993D01*
X141816103Y-62840998D01*
X142001658Y-62970925D01*
X142045283Y-63025502D01*
X142052477Y-63095000D01*
X142020954Y-63157355D01*
X142001658Y-63174075D01*
X141816097Y-63304005D01*
X141649005Y-63471097D01*
X141513465Y-63664669D01*
X141513464Y-63664671D01*
X141413598Y-63878835D01*
X141413594Y-63878844D01*
X141352438Y-64107086D01*
X141352436Y-64107096D01*
X141331841Y-64342499D01*
X141331841Y-64342500D01*
X141352436Y-64577903D01*
X141352438Y-64577913D01*
X141413594Y-64806155D01*
X141413596Y-64806159D01*
X141413597Y-64806163D01*
X141459173Y-64903901D01*
X141513465Y-65020330D01*
X141513467Y-65020334D01*
X141649001Y-65213895D01*
X141649006Y-65213902D01*
X141816097Y-65380993D01*
X141816103Y-65380998D01*
X142001658Y-65510925D01*
X142045283Y-65565502D01*
X142052477Y-65635000D01*
X142020954Y-65697355D01*
X142001658Y-65714075D01*
X141816097Y-65844005D01*
X141649005Y-66011097D01*
X141513465Y-66204669D01*
X141513464Y-66204671D01*
X141413598Y-66418835D01*
X141413594Y-66418844D01*
X141352438Y-66647086D01*
X141352436Y-66647096D01*
X141331841Y-66882499D01*
X141331841Y-66882500D01*
X141352436Y-67117903D01*
X141352438Y-67117913D01*
X141413594Y-67346155D01*
X141413596Y-67346159D01*
X141413597Y-67346163D01*
X141459173Y-67443901D01*
X141513465Y-67560330D01*
X141513467Y-67560334D01*
X141649001Y-67753895D01*
X141649006Y-67753902D01*
X141816097Y-67920993D01*
X141816103Y-67920998D01*
X142001658Y-68050925D01*
X142045283Y-68105502D01*
X142052477Y-68175000D01*
X142020954Y-68237355D01*
X142001658Y-68254075D01*
X141816097Y-68384005D01*
X141649005Y-68551097D01*
X141513465Y-68744669D01*
X141513464Y-68744671D01*
X141413598Y-68958835D01*
X141413594Y-68958844D01*
X141352438Y-69187086D01*
X141352436Y-69187096D01*
X141331841Y-69422499D01*
X141331841Y-69422500D01*
X141352436Y-69657903D01*
X141352438Y-69657913D01*
X141413594Y-69886155D01*
X141413596Y-69886159D01*
X141413597Y-69886163D01*
X141459173Y-69983901D01*
X141513465Y-70100330D01*
X141513467Y-70100334D01*
X141649001Y-70293895D01*
X141649006Y-70293902D01*
X141816097Y-70460993D01*
X141816103Y-70460998D01*
X142001658Y-70590925D01*
X142045283Y-70645502D01*
X142052477Y-70715000D01*
X142020954Y-70777355D01*
X142001658Y-70794075D01*
X141816097Y-70924005D01*
X141649005Y-71091097D01*
X141513465Y-71284669D01*
X141513464Y-71284671D01*
X141413598Y-71498835D01*
X141413594Y-71498844D01*
X141352438Y-71727086D01*
X141352436Y-71727096D01*
X141331841Y-71962499D01*
X141331841Y-71962500D01*
X141352436Y-72197903D01*
X141352438Y-72197913D01*
X141413594Y-72426155D01*
X141413596Y-72426159D01*
X141413597Y-72426163D01*
X141459173Y-72523901D01*
X141513465Y-72640330D01*
X141513467Y-72640334D01*
X141649001Y-72833895D01*
X141649006Y-72833902D01*
X141816097Y-73000993D01*
X141816103Y-73000998D01*
X142001658Y-73130925D01*
X142045283Y-73185502D01*
X142052477Y-73255000D01*
X142020954Y-73317355D01*
X142001658Y-73334075D01*
X141816097Y-73464005D01*
X141649005Y-73631097D01*
X141513465Y-73824669D01*
X141513464Y-73824671D01*
X141413598Y-74038835D01*
X141413594Y-74038844D01*
X141352438Y-74267086D01*
X141352436Y-74267096D01*
X141331841Y-74502499D01*
X141331841Y-74502500D01*
X141352436Y-74737903D01*
X141352438Y-74737913D01*
X141413594Y-74966155D01*
X141413596Y-74966159D01*
X141413597Y-74966163D01*
X141459173Y-75063901D01*
X141513465Y-75180330D01*
X141513467Y-75180334D01*
X141649001Y-75373895D01*
X141649006Y-75373902D01*
X141816097Y-75540993D01*
X141816103Y-75540998D01*
X142001658Y-75670925D01*
X142045283Y-75725502D01*
X142052477Y-75795000D01*
X142020954Y-75857355D01*
X142001658Y-75874075D01*
X141816097Y-76004005D01*
X141649005Y-76171097D01*
X141513465Y-76364669D01*
X141513464Y-76364671D01*
X141413598Y-76578835D01*
X141413594Y-76578844D01*
X141352438Y-76807086D01*
X141352436Y-76807096D01*
X141331841Y-77042499D01*
X141331841Y-77042500D01*
X141352436Y-77277903D01*
X141352438Y-77277913D01*
X141413594Y-77506155D01*
X141413596Y-77506159D01*
X141413597Y-77506163D01*
X141459173Y-77603901D01*
X141513465Y-77720330D01*
X141513467Y-77720334D01*
X141649001Y-77913895D01*
X141649006Y-77913902D01*
X141816097Y-78080993D01*
X141816103Y-78080998D01*
X142001658Y-78210925D01*
X142045283Y-78265502D01*
X142052477Y-78335000D01*
X142020954Y-78397355D01*
X142001658Y-78414075D01*
X141816097Y-78544005D01*
X141649005Y-78711097D01*
X141513465Y-78904669D01*
X141513464Y-78904671D01*
X141413598Y-79118835D01*
X141413594Y-79118844D01*
X141352438Y-79347086D01*
X141352436Y-79347096D01*
X141331841Y-79582499D01*
X141331841Y-79582500D01*
X141352436Y-79817903D01*
X141352438Y-79817913D01*
X141413594Y-80046155D01*
X141413596Y-80046159D01*
X141413597Y-80046163D01*
X141459173Y-80143901D01*
X141513465Y-80260330D01*
X141513467Y-80260334D01*
X141649001Y-80453895D01*
X141649006Y-80453902D01*
X141816097Y-80620993D01*
X141816103Y-80620998D01*
X142001658Y-80750925D01*
X142045283Y-80805502D01*
X142052477Y-80875000D01*
X142020954Y-80937355D01*
X142001658Y-80954075D01*
X141816097Y-81084005D01*
X141649005Y-81251097D01*
X141513465Y-81444669D01*
X141513464Y-81444671D01*
X141413598Y-81658835D01*
X141413594Y-81658844D01*
X141352438Y-81887086D01*
X141352436Y-81887096D01*
X141331841Y-82122499D01*
X141331841Y-82122500D01*
X141352436Y-82357903D01*
X141352438Y-82357913D01*
X141413594Y-82586155D01*
X141413596Y-82586159D01*
X141413597Y-82586163D01*
X141459173Y-82683901D01*
X141513465Y-82800330D01*
X141513467Y-82800334D01*
X141649001Y-82993895D01*
X141649006Y-82993902D01*
X141816097Y-83160993D01*
X141816103Y-83160998D01*
X142001658Y-83290925D01*
X142045283Y-83345502D01*
X142052477Y-83415000D01*
X142020954Y-83477355D01*
X142001658Y-83494075D01*
X141816097Y-83624005D01*
X141649005Y-83791097D01*
X141513465Y-83984669D01*
X141513464Y-83984671D01*
X141413598Y-84198835D01*
X141413594Y-84198844D01*
X141352438Y-84427086D01*
X141352436Y-84427096D01*
X141331841Y-84662499D01*
X141331841Y-84662500D01*
X141352436Y-84897903D01*
X141352438Y-84897913D01*
X141413594Y-85126155D01*
X141413596Y-85126159D01*
X141413597Y-85126163D01*
X141459173Y-85223901D01*
X141513465Y-85340330D01*
X141513467Y-85340334D01*
X141649001Y-85533895D01*
X141649006Y-85533902D01*
X141816097Y-85700993D01*
X141816103Y-85700998D01*
X142001658Y-85830925D01*
X142045283Y-85885502D01*
X142052477Y-85955000D01*
X142020954Y-86017355D01*
X142001658Y-86034075D01*
X141816097Y-86164005D01*
X141649005Y-86331097D01*
X141513465Y-86524669D01*
X141513464Y-86524671D01*
X141413598Y-86738835D01*
X141413594Y-86738844D01*
X141352438Y-86967086D01*
X141352436Y-86967096D01*
X141331841Y-87202499D01*
X141331841Y-87202500D01*
X141352436Y-87437903D01*
X141352438Y-87437913D01*
X141413594Y-87666155D01*
X141413596Y-87666159D01*
X141413597Y-87666163D01*
X141459173Y-87763901D01*
X141513465Y-87880330D01*
X141513467Y-87880334D01*
X141649001Y-88073895D01*
X141649006Y-88073902D01*
X141816097Y-88240993D01*
X141816103Y-88240998D01*
X142001658Y-88370925D01*
X142045283Y-88425502D01*
X142052477Y-88495000D01*
X142020954Y-88557355D01*
X142001658Y-88574075D01*
X141816097Y-88704005D01*
X141649005Y-88871097D01*
X141513465Y-89064669D01*
X141513464Y-89064671D01*
X141413598Y-89278835D01*
X141413594Y-89278844D01*
X141352438Y-89507086D01*
X141352436Y-89507096D01*
X141331841Y-89742499D01*
X141331841Y-89742500D01*
X141352436Y-89977903D01*
X141352438Y-89977913D01*
X141413594Y-90206155D01*
X141413596Y-90206159D01*
X141413597Y-90206163D01*
X141459173Y-90303901D01*
X141513465Y-90420330D01*
X141513467Y-90420334D01*
X141621781Y-90575021D01*
X141649005Y-90613901D01*
X141816099Y-90780995D01*
X141900934Y-90840397D01*
X142009665Y-90916532D01*
X142009667Y-90916533D01*
X142009670Y-90916535D01*
X142223837Y-91016403D01*
X142452092Y-91077563D01*
X142640418Y-91094039D01*
X142687499Y-91098159D01*
X142687500Y-91098159D01*
X142687501Y-91098159D01*
X142726734Y-91094726D01*
X142922908Y-91077563D01*
X143151163Y-91016403D01*
X143365330Y-90916535D01*
X143558901Y-90780995D01*
X143725995Y-90613901D01*
X143861535Y-90420330D01*
X143961403Y-90206163D01*
X144022563Y-89977908D01*
X144043159Y-89742500D01*
X144022563Y-89507092D01*
X143975406Y-89331099D01*
X143961405Y-89278844D01*
X143961404Y-89278843D01*
X143961403Y-89278837D01*
X143861535Y-89064671D01*
X143849289Y-89047181D01*
X143725994Y-88871097D01*
X143558902Y-88704006D01*
X143558896Y-88704001D01*
X143373342Y-88574075D01*
X143329717Y-88519498D01*
X143322523Y-88450000D01*
X143354046Y-88387645D01*
X143373342Y-88370925D01*
X143395526Y-88355391D01*
X143558901Y-88240995D01*
X143725995Y-88073901D01*
X143861535Y-87880330D01*
X143961403Y-87666163D01*
X144022563Y-87437908D01*
X144043159Y-87202500D01*
X144022563Y-86967092D01*
X143976126Y-86793785D01*
X143961405Y-86738844D01*
X143961404Y-86738843D01*
X143961403Y-86738837D01*
X143861535Y-86524671D01*
X143858464Y-86520284D01*
X143725994Y-86331097D01*
X143558902Y-86164006D01*
X143558896Y-86164001D01*
X143373342Y-86034075D01*
X143329717Y-85979498D01*
X143322523Y-85910000D01*
X143354046Y-85847645D01*
X143373342Y-85830925D01*
X143395526Y-85815391D01*
X143558901Y-85700995D01*
X143725995Y-85533901D01*
X143861535Y-85340330D01*
X143961403Y-85126163D01*
X144022563Y-84897908D01*
X144043159Y-84662500D01*
X144022563Y-84427092D01*
X143961403Y-84198837D01*
X143861535Y-83984671D01*
X143836443Y-83948835D01*
X143725994Y-83791097D01*
X143558902Y-83624006D01*
X143558896Y-83624001D01*
X143373342Y-83494075D01*
X143329717Y-83439498D01*
X143322523Y-83370000D01*
X143354046Y-83307645D01*
X143373342Y-83290925D01*
X143395526Y-83275391D01*
X143558901Y-83160995D01*
X143725995Y-82993901D01*
X143861535Y-82800330D01*
X143961403Y-82586163D01*
X144022563Y-82357908D01*
X144043159Y-82122500D01*
X144022563Y-81887092D01*
X143961403Y-81658837D01*
X143861535Y-81444671D01*
X143836443Y-81408835D01*
X143725994Y-81251097D01*
X143558902Y-81084006D01*
X143558896Y-81084001D01*
X143373342Y-80954075D01*
X143329717Y-80899498D01*
X143322523Y-80830000D01*
X143354046Y-80767645D01*
X143373342Y-80750925D01*
X143395526Y-80735391D01*
X143558901Y-80620995D01*
X143725995Y-80453901D01*
X143861535Y-80260330D01*
X143961403Y-80046163D01*
X144022563Y-79817908D01*
X144043159Y-79582500D01*
X144022563Y-79347092D01*
X143963266Y-79125789D01*
X143961405Y-79118844D01*
X143961404Y-79118843D01*
X143961403Y-79118837D01*
X143861535Y-78904671D01*
X143859849Y-78902262D01*
X143725994Y-78711097D01*
X143558902Y-78544006D01*
X143558896Y-78544001D01*
X143373342Y-78414075D01*
X143329717Y-78359498D01*
X143322523Y-78290000D01*
X143354046Y-78227645D01*
X143373342Y-78210925D01*
X143395526Y-78195391D01*
X143558901Y-78080995D01*
X143725995Y-77913901D01*
X143861535Y-77720330D01*
X143961403Y-77506163D01*
X144022563Y-77277908D01*
X144043159Y-77042500D01*
X144022563Y-76807092D01*
X143961403Y-76578837D01*
X143861535Y-76364671D01*
X143836443Y-76328835D01*
X143725994Y-76171097D01*
X143558902Y-76004006D01*
X143558896Y-76004001D01*
X143373342Y-75874075D01*
X143329717Y-75819498D01*
X143322523Y-75750000D01*
X143354046Y-75687645D01*
X143373342Y-75670925D01*
X143395526Y-75655391D01*
X143558901Y-75540995D01*
X143725995Y-75373901D01*
X143861535Y-75180330D01*
X143961403Y-74966163D01*
X144022563Y-74737908D01*
X144043159Y-74502500D01*
X144022563Y-74267092D01*
X143961403Y-74038837D01*
X143861535Y-73824671D01*
X143836443Y-73788835D01*
X143725994Y-73631097D01*
X143558902Y-73464006D01*
X143558896Y-73464001D01*
X143373342Y-73334075D01*
X143329717Y-73279498D01*
X143322523Y-73210000D01*
X143354046Y-73147645D01*
X143373342Y-73130925D01*
X143395526Y-73115391D01*
X143558901Y-73000995D01*
X143725995Y-72833901D01*
X143861535Y-72640330D01*
X143961403Y-72426163D01*
X144022563Y-72197908D01*
X144043159Y-71962500D01*
X144022563Y-71727092D01*
X143961403Y-71498837D01*
X143861535Y-71284671D01*
X143836443Y-71248835D01*
X143725994Y-71091097D01*
X143558902Y-70924006D01*
X143558896Y-70924001D01*
X143373342Y-70794075D01*
X143329717Y-70739498D01*
X143322523Y-70670000D01*
X143354046Y-70607645D01*
X143373342Y-70590925D01*
X143395526Y-70575391D01*
X143558901Y-70460995D01*
X143725995Y-70293901D01*
X143861535Y-70100330D01*
X143961403Y-69886163D01*
X144022563Y-69657908D01*
X144043159Y-69422500D01*
X144022563Y-69187092D01*
X143961403Y-68958837D01*
X143861535Y-68744671D01*
X143836443Y-68708835D01*
X143725994Y-68551097D01*
X143558902Y-68384006D01*
X143558896Y-68384001D01*
X143373342Y-68254075D01*
X143329717Y-68199498D01*
X143322523Y-68130000D01*
X143354046Y-68067645D01*
X143373342Y-68050925D01*
X143428218Y-68012500D01*
X143558901Y-67920995D01*
X143725995Y-67753901D01*
X143861535Y-67560330D01*
X143961403Y-67346163D01*
X144022563Y-67117908D01*
X144043159Y-66882500D01*
X144022563Y-66647092D01*
X143961403Y-66418837D01*
X143861535Y-66204671D01*
X143836443Y-66168835D01*
X143725994Y-66011097D01*
X143558902Y-65844006D01*
X143558896Y-65844001D01*
X143373342Y-65714075D01*
X143329717Y-65659498D01*
X143322523Y-65590000D01*
X143354046Y-65527645D01*
X143373342Y-65510925D01*
X143428218Y-65472500D01*
X143558901Y-65380995D01*
X143725995Y-65213901D01*
X143861535Y-65020330D01*
X143961403Y-64806163D01*
X144022563Y-64577908D01*
X144043159Y-64342500D01*
X144022563Y-64107092D01*
X143961403Y-63878837D01*
X143861535Y-63664671D01*
X143836443Y-63628835D01*
X143725994Y-63471097D01*
X143558902Y-63304006D01*
X143558896Y-63304001D01*
X143373342Y-63174075D01*
X143329717Y-63119498D01*
X143322523Y-63050000D01*
X143354046Y-62987645D01*
X143373342Y-62970925D01*
X143395526Y-62955391D01*
X143558901Y-62840995D01*
X143725995Y-62673901D01*
X143861535Y-62480330D01*
X143961403Y-62266163D01*
X144022563Y-62037908D01*
X144043159Y-61802500D01*
X144022563Y-61567092D01*
X144002576Y-61492499D01*
X148106341Y-61492499D01*
X148106341Y-61492500D01*
X148126936Y-61727903D01*
X148126938Y-61727913D01*
X148188094Y-61956155D01*
X148188096Y-61956159D01*
X148188097Y-61956163D01*
X148226218Y-62037913D01*
X148287965Y-62170330D01*
X148287967Y-62170334D01*
X148423501Y-62363895D01*
X148423506Y-62363902D01*
X148590597Y-62530993D01*
X148590603Y-62530998D01*
X148776158Y-62660925D01*
X148819783Y-62715502D01*
X148826977Y-62785000D01*
X148795454Y-62847355D01*
X148776158Y-62864075D01*
X148590597Y-62994005D01*
X148423505Y-63161097D01*
X148287965Y-63354669D01*
X148287964Y-63354671D01*
X148188098Y-63568835D01*
X148188094Y-63568844D01*
X148126938Y-63797086D01*
X148126936Y-63797096D01*
X148106341Y-64032499D01*
X148106341Y-64032500D01*
X148126936Y-64267903D01*
X148126938Y-64267913D01*
X148188094Y-64496155D01*
X148188096Y-64496159D01*
X148188097Y-64496163D01*
X148226218Y-64577913D01*
X148287965Y-64710330D01*
X148287967Y-64710334D01*
X148423501Y-64903895D01*
X148423506Y-64903902D01*
X148590597Y-65070993D01*
X148590603Y-65070998D01*
X148776158Y-65200925D01*
X148819783Y-65255502D01*
X148826977Y-65325000D01*
X148795454Y-65387355D01*
X148776158Y-65404075D01*
X148590597Y-65534005D01*
X148423505Y-65701097D01*
X148287965Y-65894669D01*
X148287964Y-65894671D01*
X148188098Y-66108835D01*
X148188094Y-66108844D01*
X148126938Y-66337086D01*
X148126936Y-66337096D01*
X148106341Y-66572499D01*
X148106341Y-66572500D01*
X148126936Y-66807903D01*
X148126938Y-66807913D01*
X148188094Y-67036155D01*
X148188096Y-67036159D01*
X148188097Y-67036163D01*
X148226218Y-67117913D01*
X148287965Y-67250330D01*
X148287967Y-67250334D01*
X148423501Y-67443895D01*
X148423506Y-67443902D01*
X148590597Y-67610993D01*
X148590603Y-67610998D01*
X148776158Y-67740925D01*
X148819783Y-67795502D01*
X148826977Y-67865000D01*
X148795454Y-67927355D01*
X148776158Y-67944075D01*
X148590597Y-68074005D01*
X148423505Y-68241097D01*
X148287965Y-68434669D01*
X148287964Y-68434671D01*
X148188098Y-68648835D01*
X148188094Y-68648844D01*
X148126938Y-68877086D01*
X148126936Y-68877096D01*
X148106341Y-69112499D01*
X148106341Y-69112500D01*
X148126936Y-69347903D01*
X148126938Y-69347913D01*
X148188094Y-69576155D01*
X148188096Y-69576159D01*
X148188097Y-69576163D01*
X148226218Y-69657913D01*
X148287965Y-69790330D01*
X148287967Y-69790334D01*
X148423501Y-69983895D01*
X148423506Y-69983902D01*
X148590597Y-70150993D01*
X148590603Y-70150998D01*
X148776158Y-70280925D01*
X148819783Y-70335502D01*
X148826977Y-70405000D01*
X148795454Y-70467355D01*
X148776158Y-70484075D01*
X148590597Y-70614005D01*
X148423505Y-70781097D01*
X148287965Y-70974669D01*
X148287964Y-70974671D01*
X148188098Y-71188835D01*
X148188094Y-71188844D01*
X148126938Y-71417086D01*
X148126936Y-71417096D01*
X148106341Y-71652499D01*
X148106341Y-71652500D01*
X148126936Y-71887903D01*
X148126938Y-71887913D01*
X148188094Y-72116155D01*
X148188096Y-72116159D01*
X148188097Y-72116163D01*
X148226218Y-72197913D01*
X148287965Y-72330330D01*
X148287967Y-72330334D01*
X148423501Y-72523895D01*
X148423506Y-72523902D01*
X148590597Y-72690993D01*
X148590603Y-72690998D01*
X148776158Y-72820925D01*
X148819783Y-72875502D01*
X148826977Y-72945000D01*
X148795454Y-73007355D01*
X148776158Y-73024075D01*
X148590597Y-73154005D01*
X148423505Y-73321097D01*
X148287965Y-73514669D01*
X148287964Y-73514671D01*
X148188098Y-73728835D01*
X148188094Y-73728844D01*
X148126938Y-73957086D01*
X148126936Y-73957096D01*
X148106341Y-74192499D01*
X148106341Y-74192500D01*
X148126936Y-74427903D01*
X148126938Y-74427913D01*
X148188094Y-74656155D01*
X148188096Y-74656159D01*
X148188097Y-74656163D01*
X148226218Y-74737913D01*
X148287965Y-74870330D01*
X148287967Y-74870334D01*
X148423501Y-75063895D01*
X148423506Y-75063902D01*
X148590597Y-75230993D01*
X148590603Y-75230998D01*
X148776158Y-75360925D01*
X148819783Y-75415502D01*
X148826977Y-75485000D01*
X148795454Y-75547355D01*
X148776158Y-75564075D01*
X148590597Y-75694005D01*
X148423505Y-75861097D01*
X148287965Y-76054669D01*
X148287964Y-76054671D01*
X148188098Y-76268835D01*
X148188094Y-76268844D01*
X148126938Y-76497086D01*
X148126936Y-76497096D01*
X148106341Y-76732499D01*
X148106341Y-76732500D01*
X148126936Y-76967903D01*
X148126938Y-76967913D01*
X148188094Y-77196155D01*
X148188096Y-77196159D01*
X148188097Y-77196163D01*
X148244429Y-77316966D01*
X148287965Y-77410329D01*
X148287966Y-77410332D01*
X148423501Y-77603895D01*
X148423506Y-77603902D01*
X148590597Y-77770993D01*
X148590603Y-77770998D01*
X148776158Y-77900925D01*
X148819783Y-77955502D01*
X148826977Y-78025000D01*
X148795454Y-78087355D01*
X148776158Y-78104075D01*
X148590597Y-78234005D01*
X148423505Y-78401097D01*
X148287965Y-78594669D01*
X148287964Y-78594671D01*
X148188098Y-78808835D01*
X148188094Y-78808844D01*
X148126938Y-79037086D01*
X148126936Y-79037096D01*
X148106341Y-79272499D01*
X148106341Y-79272500D01*
X148126936Y-79507903D01*
X148126938Y-79507913D01*
X148188094Y-79736155D01*
X148188096Y-79736159D01*
X148188097Y-79736163D01*
X148226218Y-79817913D01*
X148287965Y-79950330D01*
X148287967Y-79950334D01*
X148423501Y-80143895D01*
X148423506Y-80143902D01*
X148590597Y-80310993D01*
X148590603Y-80310998D01*
X148776158Y-80440925D01*
X148819783Y-80495502D01*
X148826977Y-80565000D01*
X148795454Y-80627355D01*
X148776158Y-80644075D01*
X148590597Y-80774005D01*
X148423505Y-80941097D01*
X148287965Y-81134669D01*
X148287964Y-81134671D01*
X148188098Y-81348835D01*
X148188094Y-81348844D01*
X148126938Y-81577086D01*
X148126936Y-81577096D01*
X148106341Y-81812499D01*
X148106341Y-81812500D01*
X148126936Y-82047903D01*
X148126938Y-82047913D01*
X148188094Y-82276155D01*
X148188096Y-82276159D01*
X148188097Y-82276163D01*
X148287965Y-82490330D01*
X148287967Y-82490334D01*
X148396281Y-82645021D01*
X148411085Y-82666164D01*
X148423501Y-82683895D01*
X148423506Y-82683902D01*
X148590597Y-82850993D01*
X148590603Y-82850998D01*
X148776158Y-82980925D01*
X148819783Y-83035502D01*
X148826977Y-83105000D01*
X148795454Y-83167355D01*
X148776158Y-83184075D01*
X148590597Y-83314005D01*
X148423505Y-83481097D01*
X148287965Y-83674669D01*
X148287964Y-83674671D01*
X148188098Y-83888835D01*
X148188094Y-83888844D01*
X148126938Y-84117086D01*
X148126936Y-84117096D01*
X148106341Y-84352499D01*
X148106341Y-84352500D01*
X148126936Y-84587903D01*
X148126938Y-84587913D01*
X148188094Y-84816155D01*
X148188096Y-84816159D01*
X148188097Y-84816163D01*
X148226218Y-84897913D01*
X148287965Y-85030330D01*
X148287967Y-85030334D01*
X148423501Y-85223895D01*
X148423506Y-85223902D01*
X148590597Y-85390993D01*
X148590603Y-85390998D01*
X148776158Y-85520925D01*
X148819783Y-85575502D01*
X148826977Y-85645000D01*
X148795454Y-85707355D01*
X148776158Y-85724075D01*
X148590597Y-85854005D01*
X148423505Y-86021097D01*
X148287965Y-86214669D01*
X148287964Y-86214671D01*
X148188098Y-86428835D01*
X148188094Y-86428844D01*
X148126938Y-86657086D01*
X148126936Y-86657096D01*
X148106341Y-86892499D01*
X148106341Y-86892500D01*
X148126936Y-87127903D01*
X148126938Y-87127913D01*
X148188094Y-87356155D01*
X148188096Y-87356159D01*
X148188097Y-87356163D01*
X148287965Y-87570330D01*
X148287967Y-87570334D01*
X148396281Y-87725021D01*
X148415845Y-87752962D01*
X148423501Y-87763895D01*
X148423506Y-87763902D01*
X148590597Y-87930993D01*
X148590603Y-87930998D01*
X148776158Y-88060925D01*
X148819783Y-88115502D01*
X148826977Y-88185000D01*
X148795454Y-88247355D01*
X148776158Y-88264075D01*
X148590597Y-88394005D01*
X148423505Y-88561097D01*
X148287965Y-88754669D01*
X148287964Y-88754671D01*
X148188098Y-88968835D01*
X148188094Y-88968844D01*
X148126938Y-89197086D01*
X148126936Y-89197096D01*
X148106341Y-89432499D01*
X148106341Y-89432500D01*
X148126936Y-89667903D01*
X148126938Y-89667913D01*
X148188094Y-89896155D01*
X148188096Y-89896159D01*
X148188097Y-89896163D01*
X148287965Y-90110330D01*
X148287967Y-90110334D01*
X148423501Y-90303895D01*
X148423506Y-90303902D01*
X148590597Y-90470993D01*
X148590603Y-90470998D01*
X148776158Y-90600925D01*
X148819783Y-90655502D01*
X148826977Y-90725000D01*
X148795454Y-90787355D01*
X148776158Y-90804075D01*
X148590597Y-90934005D01*
X148423505Y-91101097D01*
X148287965Y-91294669D01*
X148287964Y-91294671D01*
X148188098Y-91508835D01*
X148188094Y-91508844D01*
X148126938Y-91737086D01*
X148126936Y-91737096D01*
X148106341Y-91972499D01*
X148106341Y-91972500D01*
X148126936Y-92207903D01*
X148126938Y-92207913D01*
X148188094Y-92436155D01*
X148188096Y-92436159D01*
X148188097Y-92436163D01*
X148216072Y-92496155D01*
X148287965Y-92650330D01*
X148287967Y-92650334D01*
X148329977Y-92710330D01*
X148423501Y-92843896D01*
X148423506Y-92843902D01*
X148590597Y-93010993D01*
X148590603Y-93010998D01*
X148776158Y-93140925D01*
X148819783Y-93195502D01*
X148826977Y-93265000D01*
X148795454Y-93327355D01*
X148776158Y-93344075D01*
X148590597Y-93474005D01*
X148423505Y-93641097D01*
X148287965Y-93834669D01*
X148287964Y-93834671D01*
X148188098Y-94048835D01*
X148188094Y-94048844D01*
X148126938Y-94277086D01*
X148126936Y-94277096D01*
X148106341Y-94512499D01*
X148106341Y-94512500D01*
X148126936Y-94747903D01*
X148126938Y-94747913D01*
X148188094Y-94976155D01*
X148188096Y-94976159D01*
X148188097Y-94976163D01*
X148230945Y-95068050D01*
X148287965Y-95190330D01*
X148287967Y-95190334D01*
X148329977Y-95250330D01*
X148423505Y-95383901D01*
X148590599Y-95550995D01*
X148656047Y-95596822D01*
X148784165Y-95686532D01*
X148784167Y-95686533D01*
X148784170Y-95686535D01*
X148998337Y-95786403D01*
X148998343Y-95786404D01*
X148998344Y-95786405D01*
X149053285Y-95801126D01*
X149226592Y-95847563D01*
X149462000Y-95868159D01*
X149462000Y-95868158D01*
X149465808Y-95868492D01*
X149530876Y-95893945D01*
X149571855Y-95950535D01*
X149579000Y-95992020D01*
X149579000Y-113717560D01*
X149559315Y-113784599D01*
X149542681Y-113805241D01*
X149515184Y-113832737D01*
X149419211Y-113985476D01*
X149359631Y-114155745D01*
X149359630Y-114155750D01*
X149339435Y-114334996D01*
X149339435Y-114335003D01*
X149359630Y-114514249D01*
X149359631Y-114514254D01*
X149419211Y-114684523D01*
X149487058Y-114792500D01*
X149515184Y-114837262D01*
X149642738Y-114964816D01*
X149795478Y-115060789D01*
X149965745Y-115120368D01*
X149965750Y-115120369D01*
X150144996Y-115140565D01*
X150145000Y-115140565D01*
X150145004Y-115140565D01*
X150324249Y-115120369D01*
X150324252Y-115120368D01*
X150324255Y-115120368D01*
X150494522Y-115060789D01*
X150647262Y-114964816D01*
X150774816Y-114837262D01*
X150870789Y-114684522D01*
X150930368Y-114514255D01*
X150934624Y-114476481D01*
X150951147Y-114329839D01*
X150952750Y-114319528D01*
X150961000Y-114278057D01*
X150961000Y-94921939D01*
X150934446Y-94788448D01*
X150934445Y-94788447D01*
X150934445Y-94788443D01*
X150882356Y-94662689D01*
X150863590Y-94634604D01*
X150837755Y-94595940D01*
X150816879Y-94529266D01*
X150817332Y-94516235D01*
X150817659Y-94512500D01*
X150817659Y-94512499D01*
X150802240Y-94336262D01*
X150797063Y-94277092D01*
X150735903Y-94048837D01*
X150636035Y-93834671D01*
X150635568Y-93834003D01*
X150500494Y-93641097D01*
X150333402Y-93474006D01*
X150333396Y-93474001D01*
X150147842Y-93344075D01*
X150104217Y-93289498D01*
X150097023Y-93220000D01*
X150128546Y-93157645D01*
X150147842Y-93140925D01*
X150273754Y-93052760D01*
X150333401Y-93010995D01*
X150500495Y-92843901D01*
X150624118Y-92667349D01*
X150678694Y-92623725D01*
X150748192Y-92616531D01*
X150810547Y-92648054D01*
X150813373Y-92650792D01*
X156116181Y-97953600D01*
X156149666Y-98014923D01*
X156152500Y-98041281D01*
X156152500Y-119919219D01*
X156132815Y-119986258D01*
X156116181Y-120006900D01*
X154912792Y-121210289D01*
X154888300Y-121234781D01*
X154825386Y-121297694D01*
X154825385Y-121297696D01*
X154756033Y-121401489D01*
X154754386Y-121406093D01*
X154709415Y-121514662D01*
X154709412Y-121514672D01*
X154691540Y-121604524D01*
X154691540Y-121604525D01*
X154685300Y-121635894D01*
X154685300Y-122647957D01*
X154666294Y-122713929D01*
X154574211Y-122860476D01*
X154514631Y-123030745D01*
X154514630Y-123030750D01*
X154494435Y-123209996D01*
X154494435Y-123210003D01*
X154514630Y-123389249D01*
X154514631Y-123389254D01*
X154574211Y-123559524D01*
X154624203Y-123639084D01*
X154659699Y-123695576D01*
X154666293Y-123706069D01*
X154685300Y-123772042D01*
X154685300Y-129099607D01*
X154709412Y-129220828D01*
X154709414Y-129220834D01*
X154739382Y-129293182D01*
X154756715Y-129335029D01*
X154756720Y-129335038D01*
X154804191Y-129406083D01*
X154804192Y-129406084D01*
X154825390Y-129437810D01*
X154899146Y-129511566D01*
X154932631Y-129572889D01*
X154934685Y-129585361D01*
X154939630Y-129629249D01*
X154999210Y-129799521D01*
X155045880Y-129873796D01*
X155095184Y-129952262D01*
X155222738Y-130079816D01*
X155375478Y-130175789D01*
X155477723Y-130211566D01*
X155545745Y-130235368D01*
X155545750Y-130235369D01*
X155724996Y-130255565D01*
X155725000Y-130255565D01*
X155725004Y-130255565D01*
X155904249Y-130235369D01*
X155904252Y-130235368D01*
X155904255Y-130235368D01*
X156074522Y-130175789D01*
X156227262Y-130079816D01*
X156354816Y-129952262D01*
X156450789Y-129799522D01*
X156510368Y-129629255D01*
X156516392Y-129575789D01*
X156530565Y-129450003D01*
X156530565Y-129449996D01*
X156510369Y-129270750D01*
X156510368Y-129270745D01*
X156472001Y-129161099D01*
X156450789Y-129100478D01*
X156438911Y-129081575D01*
X156393683Y-129009594D01*
X156354816Y-128947738D01*
X156227262Y-128820184D01*
X156210255Y-128809498D01*
X156074524Y-128724212D01*
X156074520Y-128724210D01*
X156023345Y-128706303D01*
X155966569Y-128665581D01*
X155940822Y-128600628D01*
X155940300Y-128589262D01*
X155940300Y-127398440D01*
X155959985Y-127331401D01*
X156012789Y-127285646D01*
X156078184Y-127275220D01*
X156169997Y-127285565D01*
X156170000Y-127285565D01*
X156170004Y-127285565D01*
X156349249Y-127265369D01*
X156349252Y-127265368D01*
X156349255Y-127265368D01*
X156519522Y-127205789D01*
X156672262Y-127109816D01*
X156799816Y-126982262D01*
X156895789Y-126829522D01*
X156955368Y-126659255D01*
X156960313Y-126615361D01*
X156987378Y-126550951D01*
X156995842Y-126541575D01*
X157795320Y-125742098D01*
X157856642Y-125708614D01*
X157926334Y-125713598D01*
X157982267Y-125755470D01*
X158006684Y-125820934D01*
X158007000Y-125829780D01*
X158007000Y-128978107D01*
X158031112Y-129099327D01*
X158031114Y-129099335D01*
X158060309Y-129169817D01*
X158078413Y-129213526D01*
X158078417Y-129213533D01*
X158114120Y-129266966D01*
X158121493Y-129278000D01*
X158147087Y-129316306D01*
X158147091Y-129316311D01*
X158242346Y-129411566D01*
X158275831Y-129472889D01*
X158277885Y-129485361D01*
X158282830Y-129529249D01*
X158342410Y-129699521D01*
X158405245Y-129799522D01*
X158438384Y-129852262D01*
X158565938Y-129979816D01*
X158718678Y-130075789D01*
X158730184Y-130079815D01*
X158888945Y-130135368D01*
X158888950Y-130135369D01*
X159068196Y-130155565D01*
X159068200Y-130155565D01*
X159068204Y-130155565D01*
X159247449Y-130135369D01*
X159247452Y-130135368D01*
X159247455Y-130135368D01*
X159417722Y-130075789D01*
X159570462Y-129979816D01*
X159698016Y-129852262D01*
X159793989Y-129699522D01*
X159853568Y-129529255D01*
X159855737Y-129510003D01*
X159873765Y-129350003D01*
X159873765Y-129349996D01*
X159853569Y-129170750D01*
X159853568Y-129170745D01*
X159839796Y-129131388D01*
X159793989Y-129000478D01*
X159789922Y-128994006D01*
X159724271Y-128889523D01*
X159698016Y-128847738D01*
X159570462Y-128720184D01*
X159502762Y-128677645D01*
X159417724Y-128624212D01*
X159417723Y-128624211D01*
X159345044Y-128598779D01*
X159288268Y-128558057D01*
X159262522Y-128493103D01*
X159262000Y-128481738D01*
X159262000Y-127767257D01*
X159281685Y-127700218D01*
X159334489Y-127654463D01*
X159372117Y-127644037D01*
X159449049Y-127635369D01*
X159449052Y-127635368D01*
X159449055Y-127635368D01*
X159619322Y-127575789D01*
X159772062Y-127479816D01*
X159899616Y-127352262D01*
X159995589Y-127199522D01*
X160055168Y-127029255D01*
X160062778Y-126961704D01*
X160082895Y-126906702D01*
X160116083Y-126857033D01*
X160144596Y-126788197D01*
X160163386Y-126742834D01*
X160187500Y-126621603D01*
X160187500Y-126497997D01*
X160187500Y-124337496D01*
X165081935Y-124337496D01*
X165081935Y-124337501D01*
X165102130Y-124516749D01*
X165102131Y-124516754D01*
X165161711Y-124687024D01*
X165230093Y-124795851D01*
X165249100Y-124861824D01*
X165249100Y-129563407D01*
X165273212Y-129684627D01*
X165273214Y-129684635D01*
X165300293Y-129750009D01*
X165320515Y-129798829D01*
X165320520Y-129798838D01*
X165361068Y-129859522D01*
X165361069Y-129859523D01*
X165389190Y-129901610D01*
X165699146Y-130211566D01*
X165732631Y-130272889D01*
X165734685Y-130285361D01*
X165739630Y-130329249D01*
X165799210Y-130499521D01*
X165829438Y-130547628D01*
X165895184Y-130652262D01*
X166022738Y-130779816D01*
X166175478Y-130875789D01*
X166324203Y-130927830D01*
X166345745Y-130935368D01*
X166345750Y-130935369D01*
X166524996Y-130955565D01*
X166525000Y-130955565D01*
X166525004Y-130955565D01*
X166704249Y-130935369D01*
X166704252Y-130935368D01*
X166704255Y-130935368D01*
X166874522Y-130875789D01*
X167027262Y-130779816D01*
X167154816Y-130652262D01*
X167250789Y-130499522D01*
X167310368Y-130329255D01*
X167319298Y-130249999D01*
X167330565Y-130150003D01*
X167330565Y-130149996D01*
X167310369Y-129970750D01*
X167310368Y-129970745D01*
X167306828Y-129960629D01*
X167250789Y-129800478D01*
X167250188Y-129799522D01*
X167177995Y-129684627D01*
X167154816Y-129647738D01*
X167027262Y-129520184D01*
X166963015Y-129479815D01*
X166874521Y-129424210D01*
X166704249Y-129364630D01*
X166660361Y-129359685D01*
X166595947Y-129332617D01*
X166586565Y-129324146D01*
X166540419Y-129278000D01*
X166506934Y-129216677D01*
X166504100Y-129190319D01*
X166504100Y-124896518D01*
X166523107Y-124830545D01*
X166531620Y-124816998D01*
X166613289Y-124687022D01*
X166672868Y-124516755D01*
X166680390Y-124450000D01*
X166693065Y-124337501D01*
X166693065Y-124337496D01*
X166672869Y-124158250D01*
X166672868Y-124158245D01*
X166618047Y-124001575D01*
X166613289Y-123987978D01*
X166598011Y-123963664D01*
X166517315Y-123835237D01*
X166389762Y-123707684D01*
X166237023Y-123611711D01*
X166066754Y-123552131D01*
X166066749Y-123552130D01*
X165887504Y-123531935D01*
X165887496Y-123531935D01*
X165708250Y-123552130D01*
X165708245Y-123552131D01*
X165537976Y-123611711D01*
X165385237Y-123707684D01*
X165257684Y-123835237D01*
X165161711Y-123987976D01*
X165102131Y-124158245D01*
X165102130Y-124158250D01*
X165081935Y-124337496D01*
X160187500Y-124337496D01*
X160187500Y-90776281D01*
X160207185Y-90709242D01*
X160223819Y-90688600D01*
X173456100Y-77456319D01*
X173517423Y-77422834D01*
X173543781Y-77420000D01*
X173676173Y-77420000D01*
X173743212Y-77439685D01*
X173777747Y-77472875D01*
X173911501Y-77663895D01*
X173911505Y-77663901D01*
X174078597Y-77830993D01*
X174078603Y-77830998D01*
X174264158Y-77960925D01*
X174307783Y-78015502D01*
X174314977Y-78085000D01*
X174283454Y-78147355D01*
X174264158Y-78164075D01*
X174078597Y-78294005D01*
X173911505Y-78461097D01*
X173775965Y-78654669D01*
X173775964Y-78654671D01*
X173676098Y-78868835D01*
X173676094Y-78868844D01*
X173614938Y-79097086D01*
X173614936Y-79097096D01*
X173594341Y-79332499D01*
X173594341Y-79332500D01*
X173614936Y-79567903D01*
X173614938Y-79567913D01*
X173676094Y-79796155D01*
X173676096Y-79796159D01*
X173676097Y-79796163D01*
X173747988Y-79950334D01*
X173775965Y-80010330D01*
X173775967Y-80010334D01*
X173911501Y-80203895D01*
X173911506Y-80203902D01*
X174078597Y-80370993D01*
X174078603Y-80370998D01*
X174264158Y-80500925D01*
X174307783Y-80555502D01*
X174314977Y-80625000D01*
X174283454Y-80687355D01*
X174264158Y-80704075D01*
X174078597Y-80834005D01*
X173911505Y-81001097D01*
X173775965Y-81194669D01*
X173775964Y-81194671D01*
X173676098Y-81408835D01*
X173676094Y-81408844D01*
X173614938Y-81637086D01*
X173614936Y-81637096D01*
X173594341Y-81872499D01*
X173594341Y-81872500D01*
X173614936Y-82107903D01*
X173614938Y-82107913D01*
X173676094Y-82336155D01*
X173676096Y-82336159D01*
X173676097Y-82336163D01*
X173747988Y-82490334D01*
X173775965Y-82550330D01*
X173775967Y-82550334D01*
X173911501Y-82743895D01*
X173911506Y-82743902D01*
X174078597Y-82910993D01*
X174078603Y-82910998D01*
X174264158Y-83040925D01*
X174307783Y-83095502D01*
X174314977Y-83165000D01*
X174283454Y-83227355D01*
X174264158Y-83244075D01*
X174078597Y-83374005D01*
X173911505Y-83541097D01*
X173777749Y-83732123D01*
X173723172Y-83775748D01*
X173676174Y-83785000D01*
X171545692Y-83785000D01*
X171424473Y-83809111D01*
X171424473Y-83809112D01*
X171424470Y-83809113D01*
X171424466Y-83809114D01*
X171357570Y-83836823D01*
X171357568Y-83836823D01*
X171310270Y-83856415D01*
X171207489Y-83925090D01*
X171207488Y-83925091D01*
X166085400Y-89047181D01*
X164398592Y-90733989D01*
X164370081Y-90762500D01*
X164311186Y-90821394D01*
X164311185Y-90821396D01*
X164241833Y-90925189D01*
X164240186Y-90929793D01*
X164195215Y-91038362D01*
X164195212Y-91038372D01*
X164183320Y-91098160D01*
X164171100Y-91159592D01*
X164171100Y-115808328D01*
X164152094Y-115874300D01*
X164072811Y-116000476D01*
X164013231Y-116170745D01*
X164013230Y-116170750D01*
X163993035Y-116349996D01*
X163993035Y-116350003D01*
X164013230Y-116529249D01*
X164013231Y-116529254D01*
X164072811Y-116699523D01*
X164116627Y-116769255D01*
X164168784Y-116852262D01*
X164296338Y-116979816D01*
X164449078Y-117075789D01*
X164619345Y-117135368D01*
X164619350Y-117135369D01*
X164798596Y-117155565D01*
X164798600Y-117155565D01*
X164798604Y-117155565D01*
X164977849Y-117135369D01*
X164977852Y-117135368D01*
X164977855Y-117135368D01*
X165148122Y-117075789D01*
X165300862Y-116979816D01*
X165428416Y-116852262D01*
X165524389Y-116699522D01*
X165583968Y-116529255D01*
X165585968Y-116511505D01*
X165604165Y-116350003D01*
X165604165Y-116349996D01*
X165583969Y-116170750D01*
X165583968Y-116170745D01*
X165563618Y-116112589D01*
X165524389Y-116000478D01*
X165519382Y-115992510D01*
X165445106Y-115874300D01*
X165426100Y-115808328D01*
X165426100Y-91532681D01*
X165445785Y-91465642D01*
X165462419Y-91445000D01*
X171831100Y-85076319D01*
X171892423Y-85042834D01*
X171918781Y-85040000D01*
X173676173Y-85040000D01*
X173743212Y-85059685D01*
X173777748Y-85092876D01*
X173911505Y-85283901D01*
X174078597Y-85450993D01*
X174078603Y-85450998D01*
X174264158Y-85580925D01*
X174307783Y-85635502D01*
X174314977Y-85705000D01*
X174283454Y-85767355D01*
X174264158Y-85784075D01*
X174078597Y-85914005D01*
X173911505Y-86081097D01*
X173775965Y-86274669D01*
X173775964Y-86274671D01*
X173676098Y-86488835D01*
X173676094Y-86488844D01*
X173614938Y-86717086D01*
X173614936Y-86717096D01*
X173594341Y-86952499D01*
X173594341Y-86952500D01*
X173614936Y-87187903D01*
X173614938Y-87187913D01*
X173676094Y-87416155D01*
X173676096Y-87416159D01*
X173676097Y-87416163D01*
X173775965Y-87630330D01*
X173775967Y-87630334D01*
X173911501Y-87823895D01*
X173911506Y-87823902D01*
X174078597Y-87990993D01*
X174078603Y-87990998D01*
X174264158Y-88120925D01*
X174307783Y-88175502D01*
X174314977Y-88245000D01*
X174283454Y-88307355D01*
X174264158Y-88324075D01*
X174078597Y-88454005D01*
X173911505Y-88621097D01*
X173775965Y-88814669D01*
X173775964Y-88814671D01*
X173704072Y-88968844D01*
X173676271Y-89028465D01*
X173676098Y-89028835D01*
X173676094Y-89028844D01*
X173614938Y-89257086D01*
X173614936Y-89257096D01*
X173594341Y-89492499D01*
X173594341Y-89492500D01*
X173614936Y-89727903D01*
X173614938Y-89727913D01*
X173676094Y-89956155D01*
X173676096Y-89956159D01*
X173676097Y-89956163D01*
X173747988Y-90110334D01*
X173775965Y-90170330D01*
X173775967Y-90170334D01*
X173911501Y-90363895D01*
X173911506Y-90363902D01*
X174078597Y-90530993D01*
X174078603Y-90530998D01*
X174264158Y-90660925D01*
X174307783Y-90715502D01*
X174314977Y-90785000D01*
X174283454Y-90847355D01*
X174264158Y-90864075D01*
X174078597Y-90994005D01*
X173911505Y-91161097D01*
X173775965Y-91354669D01*
X173775964Y-91354671D01*
X173676098Y-91568835D01*
X173676094Y-91568844D01*
X173614938Y-91797086D01*
X173614936Y-91797096D01*
X173594341Y-92032499D01*
X173594341Y-92032500D01*
X173614936Y-92267903D01*
X173614938Y-92267913D01*
X173676094Y-92496155D01*
X173676096Y-92496159D01*
X173676097Y-92496163D01*
X173747988Y-92650334D01*
X173775965Y-92710330D01*
X173775967Y-92710334D01*
X173911501Y-92903895D01*
X173911506Y-92903902D01*
X174078597Y-93070993D01*
X174078603Y-93070998D01*
X174264158Y-93200925D01*
X174307783Y-93255502D01*
X174314977Y-93325000D01*
X174283454Y-93387355D01*
X174264158Y-93404075D01*
X174078597Y-93534005D01*
X173911505Y-93701097D01*
X173775965Y-93894669D01*
X173775964Y-93894671D01*
X173676098Y-94108835D01*
X173676094Y-94108844D01*
X173614938Y-94337086D01*
X173614936Y-94337096D01*
X173594341Y-94572499D01*
X173594341Y-94572500D01*
X173614936Y-94807903D01*
X173614938Y-94807913D01*
X173676094Y-95036155D01*
X173676096Y-95036159D01*
X173676097Y-95036163D01*
X173747988Y-95190334D01*
X173775965Y-95250330D01*
X173775967Y-95250334D01*
X173869493Y-95383902D01*
X173911505Y-95443901D01*
X174078599Y-95610995D01*
X174115821Y-95637058D01*
X174272165Y-95746532D01*
X174272167Y-95746533D01*
X174272170Y-95746535D01*
X174486337Y-95846403D01*
X174486343Y-95846404D01*
X174486344Y-95846405D01*
X174490666Y-95847563D01*
X174714592Y-95907563D01*
X174902918Y-95924039D01*
X174949999Y-95928159D01*
X174950000Y-95928159D01*
X174950001Y-95928159D01*
X174989234Y-95924726D01*
X175185408Y-95907563D01*
X175413663Y-95846403D01*
X175627830Y-95746535D01*
X175821401Y-95610995D01*
X175988495Y-95443901D01*
X176124035Y-95250330D01*
X176223903Y-95036163D01*
X176285063Y-94807908D01*
X176305659Y-94572500D01*
X176285063Y-94337092D01*
X176223903Y-94108837D01*
X176124035Y-93894671D01*
X176082022Y-93834669D01*
X175988494Y-93701097D01*
X175821402Y-93534006D01*
X175821396Y-93534001D01*
X175635842Y-93404075D01*
X175592217Y-93349498D01*
X175585023Y-93280000D01*
X175616546Y-93217645D01*
X175635842Y-93200925D01*
X175713519Y-93146535D01*
X175821401Y-93070995D01*
X175988495Y-92903901D01*
X176018219Y-92861450D01*
X176072793Y-92817826D01*
X176142291Y-92810632D01*
X176204647Y-92842153D01*
X176207474Y-92844893D01*
X176936181Y-93573600D01*
X176969666Y-93634923D01*
X176972500Y-93661281D01*
X176972500Y-107939118D01*
X176952815Y-108006157D01*
X176936181Y-108026799D01*
X176738432Y-108224547D01*
X176677109Y-108258032D01*
X176664637Y-108260086D01*
X176620745Y-108265032D01*
X176450478Y-108324610D01*
X176297737Y-108420584D01*
X176170184Y-108548137D01*
X176074211Y-108700876D01*
X176014631Y-108871145D01*
X176014630Y-108871150D01*
X175994435Y-109050396D01*
X175994435Y-109050403D01*
X176014630Y-109229649D01*
X176014631Y-109229654D01*
X176074211Y-109399923D01*
X176170184Y-109552662D01*
X176297738Y-109680216D01*
X176450478Y-109776189D01*
X176620745Y-109835768D01*
X176636282Y-109837518D01*
X176700696Y-109864584D01*
X176740252Y-109922178D01*
X176746400Y-109960739D01*
X176746400Y-118380328D01*
X176727394Y-118446300D01*
X176648111Y-118572476D01*
X176588531Y-118742745D01*
X176588530Y-118742750D01*
X176568335Y-118921996D01*
X176568335Y-118922003D01*
X176588530Y-119101249D01*
X176588531Y-119101254D01*
X176648111Y-119271523D01*
X176657950Y-119287181D01*
X176744084Y-119424262D01*
X176871638Y-119551816D01*
X176947127Y-119599249D01*
X177016743Y-119642992D01*
X177024378Y-119647789D01*
X177194645Y-119707368D01*
X177238535Y-119712313D01*
X177302948Y-119739378D01*
X177312333Y-119747852D01*
X178846081Y-121281600D01*
X178879566Y-121342923D01*
X178882400Y-121369281D01*
X178882400Y-127863928D01*
X178863394Y-127929900D01*
X178784111Y-128056076D01*
X178724531Y-128226345D01*
X178724530Y-128226350D01*
X178704335Y-128405596D01*
X178704335Y-128405603D01*
X178724530Y-128584849D01*
X178724531Y-128584854D01*
X178784111Y-128755123D01*
X178849046Y-128858465D01*
X178880084Y-128907862D01*
X179007638Y-129035416D01*
X179160378Y-129131389D01*
X179328790Y-129190319D01*
X179330645Y-129190968D01*
X179330650Y-129190969D01*
X179509896Y-129211165D01*
X179509900Y-129211165D01*
X179509904Y-129211165D01*
X179689149Y-129190969D01*
X179689152Y-129190968D01*
X179689155Y-129190968D01*
X179859422Y-129131389D01*
X180012162Y-129035416D01*
X180139716Y-128907862D01*
X180235689Y-128755122D01*
X180295268Y-128584855D01*
X180295749Y-128580586D01*
X180315465Y-128405603D01*
X180315465Y-128405596D01*
X180295269Y-128226350D01*
X180295268Y-128226345D01*
X180276831Y-128173655D01*
X180235689Y-128056078D01*
X180156405Y-127929899D01*
X180137400Y-127863928D01*
X180137400Y-120996194D01*
X180113286Y-120874970D01*
X180113285Y-120874969D01*
X180113285Y-120874965D01*
X180081297Y-120797738D01*
X180065986Y-120760773D01*
X180065979Y-120760760D01*
X179997312Y-120657993D01*
X179980649Y-120641330D01*
X179909908Y-120570589D01*
X178199752Y-118860433D01*
X178166267Y-118799110D01*
X178164214Y-118786648D01*
X178159268Y-118742745D01*
X178099689Y-118572478D01*
X178020405Y-118446299D01*
X178001400Y-118380328D01*
X178001400Y-109562494D01*
X177977286Y-109441270D01*
X177977285Y-109441269D01*
X177977285Y-109441265D01*
X177960161Y-109399923D01*
X177929986Y-109327073D01*
X177929979Y-109327060D01*
X177861312Y-109224293D01*
X177861311Y-109224292D01*
X177775098Y-109138079D01*
X177741615Y-109076759D01*
X177746599Y-109007067D01*
X177775100Y-108962719D01*
X178087409Y-108650410D01*
X178087411Y-108650408D01*
X178107616Y-108620169D01*
X178156083Y-108547633D01*
X178195488Y-108452500D01*
X178203386Y-108433434D01*
X178227500Y-108312203D01*
X178227500Y-108188597D01*
X178227500Y-93288197D01*
X178225869Y-93280000D01*
X178219186Y-93246404D01*
X178219186Y-93246401D01*
X178203387Y-93166972D01*
X178203384Y-93166963D01*
X178199524Y-93157645D01*
X178192599Y-93140925D01*
X178156086Y-93052772D01*
X178156079Y-93052760D01*
X178087411Y-92949992D01*
X178087408Y-92949988D01*
X176682511Y-91545091D01*
X176682507Y-91545088D01*
X176579739Y-91476420D01*
X176579726Y-91476413D01*
X176546285Y-91462562D01*
X176465535Y-91429114D01*
X176465527Y-91429112D01*
X176344307Y-91405000D01*
X176344303Y-91405000D01*
X176223826Y-91405000D01*
X176156787Y-91385315D01*
X176122251Y-91352123D01*
X175988494Y-91161097D01*
X175821402Y-90994006D01*
X175821396Y-90994001D01*
X175635842Y-90864075D01*
X175592217Y-90809498D01*
X175585023Y-90740000D01*
X175616546Y-90677645D01*
X175635842Y-90660925D01*
X175697652Y-90617645D01*
X175821401Y-90530995D01*
X175988495Y-90363901D01*
X176101510Y-90202499D01*
X179331841Y-90202499D01*
X179331841Y-90202500D01*
X179352436Y-90437903D01*
X179352438Y-90437913D01*
X179413594Y-90666155D01*
X179413596Y-90666159D01*
X179413597Y-90666163D01*
X179503269Y-90858465D01*
X179513465Y-90880330D01*
X179513467Y-90880334D01*
X179551049Y-90934006D01*
X179649005Y-91073901D01*
X179816099Y-91240995D01*
X179873321Y-91281062D01*
X180009665Y-91376532D01*
X180009667Y-91376533D01*
X180009670Y-91376535D01*
X180223837Y-91476403D01*
X180223843Y-91476404D01*
X180223844Y-91476405D01*
X180223874Y-91476413D01*
X180452092Y-91537563D01*
X180640418Y-91554039D01*
X180687499Y-91558159D01*
X180687500Y-91558159D01*
X180687501Y-91558159D01*
X180726734Y-91554726D01*
X180922908Y-91537563D01*
X181151163Y-91476403D01*
X181365330Y-91376535D01*
X181558901Y-91240995D01*
X181725995Y-91073901D01*
X181861535Y-90880330D01*
X181961403Y-90666163D01*
X182022563Y-90437908D01*
X182043159Y-90202500D01*
X182022563Y-89967092D01*
X181971419Y-89776219D01*
X181961405Y-89738844D01*
X181961404Y-89738843D01*
X181961403Y-89738837D01*
X181861535Y-89524671D01*
X181796996Y-89432500D01*
X181725996Y-89331100D01*
X181673731Y-89278835D01*
X181604067Y-89209171D01*
X181570584Y-89147851D01*
X181575568Y-89078159D01*
X181617439Y-89022225D01*
X181648415Y-89005310D01*
X181779831Y-88956296D01*
X181895046Y-88870046D01*
X181981296Y-88754831D01*
X182031591Y-88619983D01*
X182038000Y-88560373D01*
X182037999Y-86764628D01*
X182031591Y-86705017D01*
X182021269Y-86677343D01*
X181981297Y-86570171D01*
X181981293Y-86570164D01*
X181895047Y-86454955D01*
X181895044Y-86454952D01*
X181779835Y-86368706D01*
X181779828Y-86368702D01*
X181644982Y-86318408D01*
X181644983Y-86318408D01*
X181585383Y-86312001D01*
X181585381Y-86312000D01*
X181585373Y-86312000D01*
X181585364Y-86312000D01*
X179789629Y-86312000D01*
X179789623Y-86312001D01*
X179730016Y-86318408D01*
X179595171Y-86368702D01*
X179595164Y-86368706D01*
X179479955Y-86454952D01*
X179479952Y-86454955D01*
X179393706Y-86570164D01*
X179393702Y-86570171D01*
X179343408Y-86705017D01*
X179339772Y-86738844D01*
X179337001Y-86764623D01*
X179337000Y-86764635D01*
X179337000Y-88560370D01*
X179337001Y-88560376D01*
X179343408Y-88619983D01*
X179393702Y-88754828D01*
X179393706Y-88754835D01*
X179479952Y-88870044D01*
X179479955Y-88870047D01*
X179595164Y-88956293D01*
X179595171Y-88956297D01*
X179726581Y-89005310D01*
X179782515Y-89047181D01*
X179806932Y-89112645D01*
X179792080Y-89180918D01*
X179770930Y-89209173D01*
X179649003Y-89331100D01*
X179513465Y-89524669D01*
X179513464Y-89524671D01*
X179413598Y-89738835D01*
X179413594Y-89738844D01*
X179352438Y-89967086D01*
X179352436Y-89967096D01*
X179331841Y-90202499D01*
X176101510Y-90202499D01*
X176124035Y-90170330D01*
X176223903Y-89956163D01*
X176285063Y-89727908D01*
X176305659Y-89492500D01*
X176285063Y-89257092D01*
X176223903Y-89028837D01*
X176124035Y-88814671D01*
X176082022Y-88754669D01*
X175988494Y-88621097D01*
X175821402Y-88454006D01*
X175821396Y-88454001D01*
X175635842Y-88324075D01*
X175592217Y-88269498D01*
X175585023Y-88200000D01*
X175616546Y-88137645D01*
X175635842Y-88120925D01*
X175697652Y-88077645D01*
X175821401Y-87990995D01*
X175988495Y-87823901D01*
X176124035Y-87630330D01*
X176223903Y-87416163D01*
X176285063Y-87187908D01*
X176305659Y-86952500D01*
X176285063Y-86717092D01*
X176223903Y-86488837D01*
X176124035Y-86274671D01*
X176082022Y-86214669D01*
X175988494Y-86081097D01*
X175821402Y-85914006D01*
X175821396Y-85914001D01*
X175635842Y-85784075D01*
X175592217Y-85729498D01*
X175585023Y-85660000D01*
X175616546Y-85597645D01*
X175635842Y-85580925D01*
X175697652Y-85537645D01*
X175821401Y-85450995D01*
X175988495Y-85283901D01*
X176124035Y-85090330D01*
X176223903Y-84876163D01*
X176285063Y-84647908D01*
X176305659Y-84412500D01*
X176285063Y-84177092D01*
X176223903Y-83948837D01*
X176124035Y-83734671D01*
X176082022Y-83674669D01*
X175988494Y-83541097D01*
X175821402Y-83374006D01*
X175821396Y-83374001D01*
X175635842Y-83244075D01*
X175592217Y-83189498D01*
X175585023Y-83120000D01*
X175616546Y-83057645D01*
X175635842Y-83040925D01*
X175697652Y-82997645D01*
X175821401Y-82910995D01*
X175988495Y-82743901D01*
X176124035Y-82550330D01*
X176223903Y-82336163D01*
X176259718Y-82202499D01*
X179331841Y-82202499D01*
X179331841Y-82202500D01*
X179352436Y-82437903D01*
X179352438Y-82437913D01*
X179413594Y-82666155D01*
X179413596Y-82666159D01*
X179413597Y-82666163D01*
X179476160Y-82800330D01*
X179513465Y-82880330D01*
X179513467Y-82880334D01*
X179592984Y-82993895D01*
X179649005Y-83073901D01*
X179816099Y-83240995D01*
X179895418Y-83296535D01*
X180009665Y-83376532D01*
X180009667Y-83376533D01*
X180009670Y-83376535D01*
X180223837Y-83476403D01*
X180223843Y-83476404D01*
X180223844Y-83476405D01*
X180278785Y-83491126D01*
X180452092Y-83537563D01*
X180640418Y-83554039D01*
X180687499Y-83558159D01*
X180687500Y-83558159D01*
X180687501Y-83558159D01*
X180726734Y-83554726D01*
X180922908Y-83537563D01*
X181151163Y-83476403D01*
X181365330Y-83376535D01*
X181558901Y-83240995D01*
X181725995Y-83073901D01*
X181861535Y-82880330D01*
X181961403Y-82666163D01*
X182022563Y-82437908D01*
X182043159Y-82202500D01*
X182022563Y-81967092D01*
X181961403Y-81738837D01*
X181861535Y-81524671D01*
X181805517Y-81444669D01*
X181725996Y-81331100D01*
X181725995Y-81331099D01*
X181604067Y-81209171D01*
X181570584Y-81147851D01*
X181575568Y-81078159D01*
X181617439Y-81022225D01*
X181648415Y-81005310D01*
X181779831Y-80956296D01*
X181895046Y-80870046D01*
X181981296Y-80754831D01*
X182031591Y-80619983D01*
X182038000Y-80560373D01*
X182037999Y-78764628D01*
X182031591Y-78705017D01*
X182012813Y-78654671D01*
X181981297Y-78570171D01*
X181981293Y-78570164D01*
X181895047Y-78454955D01*
X181895044Y-78454952D01*
X181779835Y-78368706D01*
X181779828Y-78368702D01*
X181644982Y-78318408D01*
X181644983Y-78318408D01*
X181585383Y-78312001D01*
X181585381Y-78312000D01*
X181585373Y-78312000D01*
X181585364Y-78312000D01*
X179789629Y-78312000D01*
X179789623Y-78312001D01*
X179730016Y-78318408D01*
X179595171Y-78368702D01*
X179595164Y-78368706D01*
X179479955Y-78454952D01*
X179479952Y-78454955D01*
X179393706Y-78570164D01*
X179393702Y-78570171D01*
X179343408Y-78705017D01*
X179338624Y-78749522D01*
X179337001Y-78764623D01*
X179337000Y-78764635D01*
X179337000Y-80560370D01*
X179337001Y-80560376D01*
X179343408Y-80619983D01*
X179393702Y-80754828D01*
X179393706Y-80754835D01*
X179479952Y-80870044D01*
X179479955Y-80870047D01*
X179595164Y-80956293D01*
X179595171Y-80956297D01*
X179726581Y-81005310D01*
X179782515Y-81047181D01*
X179806932Y-81112645D01*
X179792080Y-81180918D01*
X179770930Y-81209173D01*
X179649003Y-81331100D01*
X179513465Y-81524669D01*
X179513464Y-81524671D01*
X179413598Y-81738835D01*
X179413594Y-81738844D01*
X179352438Y-81967086D01*
X179352436Y-81967096D01*
X179331841Y-82202499D01*
X176259718Y-82202499D01*
X176285063Y-82107908D01*
X176305659Y-81872500D01*
X176285063Y-81637092D01*
X176223903Y-81408837D01*
X176124035Y-81194671D01*
X176091252Y-81147851D01*
X175988494Y-81001097D01*
X175821402Y-80834006D01*
X175821396Y-80834001D01*
X175635842Y-80704075D01*
X175592217Y-80649498D01*
X175585023Y-80580000D01*
X175616546Y-80517645D01*
X175635842Y-80500925D01*
X175697652Y-80457645D01*
X175821401Y-80370995D01*
X175988495Y-80203901D01*
X176124035Y-80010330D01*
X176223903Y-79796163D01*
X176285063Y-79567908D01*
X176305659Y-79332500D01*
X176285063Y-79097092D01*
X176223903Y-78868837D01*
X176124035Y-78654671D01*
X176082022Y-78594669D01*
X175988494Y-78461097D01*
X175821402Y-78294006D01*
X175821396Y-78294001D01*
X175635842Y-78164075D01*
X175592217Y-78109498D01*
X175585023Y-78040000D01*
X175616546Y-77977645D01*
X175635842Y-77960925D01*
X175697652Y-77917645D01*
X175821401Y-77830995D01*
X175988495Y-77663901D01*
X176124035Y-77470330D01*
X176223903Y-77256163D01*
X176285063Y-77027908D01*
X176305659Y-76792500D01*
X176285063Y-76557092D01*
X176223903Y-76328837D01*
X176124035Y-76114671D01*
X176082022Y-76054669D01*
X175988494Y-75921097D01*
X175821402Y-75754006D01*
X175821396Y-75754001D01*
X175635842Y-75624075D01*
X175592217Y-75569498D01*
X175585023Y-75500000D01*
X175616546Y-75437645D01*
X175635842Y-75420925D01*
X175697652Y-75377645D01*
X175821401Y-75290995D01*
X175988495Y-75123901D01*
X176124035Y-74930330D01*
X176223903Y-74716163D01*
X176285063Y-74487908D01*
X176305659Y-74252500D01*
X176285063Y-74017092D01*
X176223903Y-73788837D01*
X176124035Y-73574671D01*
X176082022Y-73514669D01*
X175988494Y-73381097D01*
X175821402Y-73214006D01*
X175821396Y-73214001D01*
X175635842Y-73084075D01*
X175592217Y-73029498D01*
X175585023Y-72960000D01*
X175616546Y-72897645D01*
X175635842Y-72880925D01*
X175697652Y-72837645D01*
X175821401Y-72750995D01*
X175988495Y-72583901D01*
X176124035Y-72390330D01*
X176124037Y-72390324D01*
X176124511Y-72389506D01*
X176124815Y-72389215D01*
X176127140Y-72385896D01*
X176127806Y-72386362D01*
X176175075Y-72341287D01*
X176231901Y-72327500D01*
X177688719Y-72327500D01*
X177755758Y-72347185D01*
X177776400Y-72363819D01*
X183136181Y-77723600D01*
X183169666Y-77784923D01*
X183172500Y-77811281D01*
X183172500Y-117688719D01*
X183152815Y-117755758D01*
X183136181Y-117776400D01*
X181486392Y-119426189D01*
X181449392Y-119463189D01*
X181398986Y-119513594D01*
X181398985Y-119513596D01*
X181330323Y-119616356D01*
X181330315Y-119616371D01*
X181319289Y-119642991D01*
X181283014Y-119730564D01*
X181283012Y-119730572D01*
X181269567Y-119798164D01*
X181269568Y-119798165D01*
X181258900Y-119851798D01*
X181258900Y-123572045D01*
X181239215Y-123639084D01*
X181186411Y-123684839D01*
X181175855Y-123689086D01*
X181075480Y-123724209D01*
X180922737Y-123820184D01*
X180795184Y-123947737D01*
X180699211Y-124100476D01*
X180639631Y-124270745D01*
X180639630Y-124270750D01*
X180619435Y-124449996D01*
X180619435Y-124450003D01*
X180639630Y-124629249D01*
X180639631Y-124629254D01*
X180699211Y-124799523D01*
X180784077Y-124934586D01*
X180795184Y-124952262D01*
X180922738Y-125079816D01*
X181075478Y-125175789D01*
X181245745Y-125235368D01*
X181245750Y-125235369D01*
X181424996Y-125255565D01*
X181425000Y-125255565D01*
X181425004Y-125255565D01*
X181604249Y-125235369D01*
X181604252Y-125235368D01*
X181604255Y-125235368D01*
X181774522Y-125175789D01*
X181927262Y-125079816D01*
X182054816Y-124952262D01*
X182150789Y-124799522D01*
X182210368Y-124629255D01*
X182215313Y-124585363D01*
X182242378Y-124520951D01*
X182250840Y-124511577D01*
X182373811Y-124388608D01*
X182407960Y-124337500D01*
X182442483Y-124285833D01*
X182442484Y-124285828D01*
X182443881Y-124283739D01*
X182497493Y-124238934D01*
X182566818Y-124230226D01*
X182629846Y-124260380D01*
X182648559Y-124281505D01*
X182711505Y-124371401D01*
X182711506Y-124371402D01*
X182878597Y-124538493D01*
X182878603Y-124538498D01*
X183064158Y-124668425D01*
X183107783Y-124723002D01*
X183114977Y-124792500D01*
X183083454Y-124854855D01*
X183064158Y-124871575D01*
X182878597Y-125001505D01*
X182711505Y-125168597D01*
X182575965Y-125362169D01*
X182575964Y-125362171D01*
X182476098Y-125576335D01*
X182476094Y-125576344D01*
X182414938Y-125804586D01*
X182414936Y-125804596D01*
X182394341Y-126039999D01*
X182394341Y-126040000D01*
X182414936Y-126275403D01*
X182414938Y-126275413D01*
X182476094Y-126503655D01*
X182476096Y-126503659D01*
X182476097Y-126503663D01*
X182561780Y-126687411D01*
X182575965Y-126717830D01*
X182575967Y-126717834D01*
X182654173Y-126829523D01*
X182711501Y-126911396D01*
X182711506Y-126911402D01*
X182833430Y-127033326D01*
X182866915Y-127094649D01*
X182861931Y-127164341D01*
X182820059Y-127220274D01*
X182789083Y-127237189D01*
X182657669Y-127286203D01*
X182657664Y-127286206D01*
X182542455Y-127372452D01*
X182542452Y-127372455D01*
X182456206Y-127487664D01*
X182456202Y-127487671D01*
X182405908Y-127622517D01*
X182399501Y-127682116D01*
X182399501Y-127682123D01*
X182399500Y-127682135D01*
X182399500Y-129477870D01*
X182399501Y-129477876D01*
X182405908Y-129537483D01*
X182456202Y-129672328D01*
X182456206Y-129672335D01*
X182542452Y-129787544D01*
X182542455Y-129787547D01*
X182657664Y-129873793D01*
X182657671Y-129873797D01*
X182792517Y-129924091D01*
X182792516Y-129924091D01*
X182799444Y-129924835D01*
X182852127Y-129930500D01*
X184647872Y-129930499D01*
X184707483Y-129924091D01*
X184842331Y-129873796D01*
X184957546Y-129787546D01*
X185043796Y-129672331D01*
X185094091Y-129537483D01*
X185100500Y-129477873D01*
X185100499Y-127682128D01*
X185094091Y-127622517D01*
X185076662Y-127575788D01*
X185043797Y-127487671D01*
X185043793Y-127487664D01*
X184957547Y-127372455D01*
X184957544Y-127372452D01*
X184842335Y-127286206D01*
X184842328Y-127286202D01*
X184710917Y-127237189D01*
X184654983Y-127195318D01*
X184630566Y-127129853D01*
X184645418Y-127061580D01*
X184666563Y-127033332D01*
X184788495Y-126911401D01*
X184924035Y-126717830D01*
X185023903Y-126503663D01*
X185085063Y-126275408D01*
X185105659Y-126040000D01*
X185085063Y-125804592D01*
X185023903Y-125576337D01*
X184924035Y-125362171D01*
X184920719Y-125357434D01*
X184788494Y-125168597D01*
X184621402Y-125001506D01*
X184621396Y-125001501D01*
X184435842Y-124871575D01*
X184392217Y-124816998D01*
X184385023Y-124747500D01*
X184416546Y-124685145D01*
X184435842Y-124668425D01*
X184554462Y-124585366D01*
X184621401Y-124538495D01*
X184788495Y-124371401D01*
X184924035Y-124177830D01*
X185023903Y-123963663D01*
X185085063Y-123735408D01*
X185105659Y-123500000D01*
X185085063Y-123264592D01*
X185023903Y-123036337D01*
X184924035Y-122822171D01*
X184876771Y-122754670D01*
X184788494Y-122628597D01*
X184621402Y-122461506D01*
X184621396Y-122461501D01*
X184435842Y-122331575D01*
X184392217Y-122276998D01*
X184385023Y-122207500D01*
X184416546Y-122145145D01*
X184435842Y-122128425D01*
X184497332Y-122085369D01*
X184621401Y-121998495D01*
X184788495Y-121831401D01*
X184924035Y-121637830D01*
X185023903Y-121423663D01*
X185085063Y-121195408D01*
X185105659Y-120960000D01*
X185085063Y-120724592D01*
X185027480Y-120509686D01*
X185023905Y-120496344D01*
X185023904Y-120496343D01*
X185023903Y-120496337D01*
X184924035Y-120282171D01*
X184895732Y-120241749D01*
X184788494Y-120088597D01*
X184621402Y-119921506D01*
X184621395Y-119921501D01*
X184619408Y-119920110D01*
X184551413Y-119872499D01*
X184427834Y-119785967D01*
X184427830Y-119785965D01*
X184392568Y-119769522D01*
X184213663Y-119686097D01*
X184213659Y-119686096D01*
X184213655Y-119686094D01*
X183985413Y-119624938D01*
X183985403Y-119624936D01*
X183750001Y-119604341D01*
X183749999Y-119604341D01*
X183514596Y-119624936D01*
X183514586Y-119624938D01*
X183344004Y-119670645D01*
X183274154Y-119668982D01*
X183216292Y-119629819D01*
X183188788Y-119565590D01*
X183200375Y-119496688D01*
X183224230Y-119463189D01*
X184287406Y-118400013D01*
X184287411Y-118400008D01*
X184305781Y-118372515D01*
X184356083Y-118297233D01*
X184403385Y-118183035D01*
X184427500Y-118061803D01*
X184427500Y-77438197D01*
X184421957Y-77410330D01*
X184403386Y-77316966D01*
X184375676Y-77250070D01*
X184356083Y-77202767D01*
X184351670Y-77196163D01*
X184287414Y-77099996D01*
X184287413Y-77099994D01*
X184287411Y-77099992D01*
X184200008Y-77012589D01*
X181379918Y-74192499D01*
X178400011Y-71212591D01*
X178400009Y-71212589D01*
X178386993Y-71203893D01*
X178378575Y-71198268D01*
X178364458Y-71188835D01*
X178297238Y-71143920D01*
X178297226Y-71143913D01*
X178263785Y-71130062D01*
X178183035Y-71096614D01*
X178183027Y-71096612D01*
X178061807Y-71072500D01*
X178061803Y-71072500D01*
X176215073Y-71072500D01*
X176148034Y-71052815D01*
X176113498Y-71019623D01*
X175988494Y-70841097D01*
X175821402Y-70674006D01*
X175821396Y-70674001D01*
X175635842Y-70544075D01*
X175592217Y-70489498D01*
X175585023Y-70420000D01*
X175616546Y-70357645D01*
X175635842Y-70340925D01*
X175697652Y-70297645D01*
X175821401Y-70210995D01*
X175988495Y-70043901D01*
X176124035Y-69850330D01*
X176223903Y-69636163D01*
X176285063Y-69407908D01*
X176305659Y-69172500D01*
X176285063Y-68937092D01*
X176223903Y-68708837D01*
X176124035Y-68494671D01*
X176082022Y-68434669D01*
X175988494Y-68301097D01*
X175821402Y-68134006D01*
X175821396Y-68134001D01*
X175635842Y-68004075D01*
X175592217Y-67949498D01*
X175585023Y-67880000D01*
X175616546Y-67817645D01*
X175635842Y-67800925D01*
X175697652Y-67757645D01*
X175821401Y-67670995D01*
X175988495Y-67503901D01*
X176124035Y-67310330D01*
X176223903Y-67096163D01*
X176285063Y-66867908D01*
X176305659Y-66632500D01*
X176285063Y-66397092D01*
X176223903Y-66168837D01*
X176124035Y-65954671D01*
X176082022Y-65894669D01*
X175988494Y-65761097D01*
X175821402Y-65594006D01*
X175821396Y-65594001D01*
X175635842Y-65464075D01*
X175592217Y-65409498D01*
X175585023Y-65340000D01*
X175616546Y-65277645D01*
X175635842Y-65260925D01*
X175697652Y-65217645D01*
X175821401Y-65130995D01*
X175988495Y-64963901D01*
X176124035Y-64770330D01*
X176223903Y-64556163D01*
X176285063Y-64327908D01*
X176296035Y-64202499D01*
X179331841Y-64202499D01*
X179331841Y-64202500D01*
X179352436Y-64437903D01*
X179352438Y-64437913D01*
X179413594Y-64666155D01*
X179413596Y-64666159D01*
X179413597Y-64666163D01*
X179462171Y-64770330D01*
X179513465Y-64880330D01*
X179513467Y-64880334D01*
X179649001Y-65073895D01*
X179649006Y-65073902D01*
X179816097Y-65240993D01*
X179816103Y-65240998D01*
X180001658Y-65370925D01*
X180045283Y-65425502D01*
X180052477Y-65495000D01*
X180020954Y-65557355D01*
X180001658Y-65574075D01*
X179816097Y-65704005D01*
X179649005Y-65871097D01*
X179513465Y-66064669D01*
X179513464Y-66064671D01*
X179413598Y-66278835D01*
X179413594Y-66278844D01*
X179352438Y-66507086D01*
X179352436Y-66507096D01*
X179331841Y-66742499D01*
X179331841Y-66742500D01*
X179352436Y-66977903D01*
X179352438Y-66977913D01*
X179413594Y-67206155D01*
X179413596Y-67206159D01*
X179413597Y-67206163D01*
X179462171Y-67310330D01*
X179513465Y-67420330D01*
X179513467Y-67420334D01*
X179649001Y-67613895D01*
X179649006Y-67613902D01*
X179816097Y-67780993D01*
X179816103Y-67780998D01*
X180001658Y-67910925D01*
X180045283Y-67965502D01*
X180052477Y-68035000D01*
X180020954Y-68097355D01*
X180001658Y-68114075D01*
X179816097Y-68244005D01*
X179649005Y-68411097D01*
X179513465Y-68604669D01*
X179513464Y-68604671D01*
X179413598Y-68818835D01*
X179413594Y-68818844D01*
X179352438Y-69047086D01*
X179352436Y-69047096D01*
X179331841Y-69282499D01*
X179331841Y-69282500D01*
X179352436Y-69517903D01*
X179352438Y-69517913D01*
X179413594Y-69746155D01*
X179413596Y-69746159D01*
X179413597Y-69746163D01*
X179462171Y-69850330D01*
X179513465Y-69960330D01*
X179513467Y-69960334D01*
X179611494Y-70100330D01*
X179649005Y-70153901D01*
X179816099Y-70320995D01*
X179844562Y-70340925D01*
X180009665Y-70456532D01*
X180009667Y-70456533D01*
X180009670Y-70456535D01*
X180223837Y-70556403D01*
X180452092Y-70617563D01*
X180640418Y-70634039D01*
X180687499Y-70638159D01*
X180687500Y-70638159D01*
X180687501Y-70638159D01*
X180726734Y-70634726D01*
X180922908Y-70617563D01*
X181151163Y-70556403D01*
X181365330Y-70456535D01*
X181558901Y-70320995D01*
X181725995Y-70153901D01*
X181861535Y-69960330D01*
X181961403Y-69746163D01*
X182022563Y-69517908D01*
X182043159Y-69282500D01*
X182022563Y-69047092D01*
X181961403Y-68818837D01*
X181861535Y-68604671D01*
X181824023Y-68551097D01*
X181725994Y-68411097D01*
X181558902Y-68244006D01*
X181558896Y-68244001D01*
X181373342Y-68114075D01*
X181329717Y-68059498D01*
X181322523Y-67990000D01*
X181354046Y-67927645D01*
X181373342Y-67910925D01*
X181417507Y-67880000D01*
X181558901Y-67780995D01*
X181725995Y-67613901D01*
X181861535Y-67420330D01*
X181961403Y-67206163D01*
X182022563Y-66977908D01*
X182043159Y-66742500D01*
X182022563Y-66507092D01*
X181961403Y-66278837D01*
X181861535Y-66064671D01*
X181824023Y-66011097D01*
X181725994Y-65871097D01*
X181558902Y-65704006D01*
X181558896Y-65704001D01*
X181373342Y-65574075D01*
X181329717Y-65519498D01*
X181322523Y-65450000D01*
X181354046Y-65387645D01*
X181373342Y-65370925D01*
X181417507Y-65340000D01*
X181558901Y-65240995D01*
X181725995Y-65073901D01*
X181861535Y-64880330D01*
X181961403Y-64666163D01*
X182022563Y-64437908D01*
X182043159Y-64202500D01*
X182022563Y-63967092D01*
X181961403Y-63738837D01*
X181861535Y-63524671D01*
X181824022Y-63471097D01*
X181725996Y-63331100D01*
X181698897Y-63304001D01*
X181604067Y-63209171D01*
X181570584Y-63147851D01*
X181575568Y-63078159D01*
X181617439Y-63022225D01*
X181648415Y-63005310D01*
X181779831Y-62956296D01*
X181895046Y-62870046D01*
X181981296Y-62754831D01*
X182031591Y-62619983D01*
X182038000Y-62560373D01*
X182037999Y-60764628D01*
X182031591Y-60705017D01*
X182022670Y-60681099D01*
X181981297Y-60570171D01*
X181981293Y-60570164D01*
X181895047Y-60454955D01*
X181895044Y-60454952D01*
X181779835Y-60368706D01*
X181779828Y-60368702D01*
X181644982Y-60318408D01*
X181644983Y-60318408D01*
X181585383Y-60312001D01*
X181585381Y-60312000D01*
X181585373Y-60312000D01*
X181585364Y-60312000D01*
X179789629Y-60312000D01*
X179789623Y-60312001D01*
X179730016Y-60318408D01*
X179595171Y-60368702D01*
X179595164Y-60368706D01*
X179479955Y-60454952D01*
X179479952Y-60454955D01*
X179393706Y-60570164D01*
X179393702Y-60570171D01*
X179343408Y-60705017D01*
X179337067Y-60764005D01*
X179337001Y-60764623D01*
X179337000Y-60764635D01*
X179337000Y-62560370D01*
X179337001Y-62560376D01*
X179343408Y-62619983D01*
X179393702Y-62754828D01*
X179393706Y-62754835D01*
X179479952Y-62870044D01*
X179479955Y-62870047D01*
X179595164Y-62956293D01*
X179595171Y-62956297D01*
X179726581Y-63005310D01*
X179782515Y-63047181D01*
X179806932Y-63112645D01*
X179792080Y-63180918D01*
X179770930Y-63209173D01*
X179649003Y-63331100D01*
X179513465Y-63524669D01*
X179513464Y-63524671D01*
X179413598Y-63738835D01*
X179413594Y-63738844D01*
X179352438Y-63967086D01*
X179352436Y-63967096D01*
X179331841Y-64202499D01*
X176296035Y-64202499D01*
X176305659Y-64092500D01*
X176285063Y-63857092D01*
X176223903Y-63628837D01*
X176124035Y-63414671D01*
X176082022Y-63354669D01*
X175988494Y-63221097D01*
X175821402Y-63054006D01*
X175821396Y-63054001D01*
X175635842Y-62924075D01*
X175592217Y-62869498D01*
X175585023Y-62800000D01*
X175616546Y-62737645D01*
X175635842Y-62720925D01*
X175697652Y-62677645D01*
X175821401Y-62590995D01*
X175988495Y-62423901D01*
X176124035Y-62230330D01*
X176223903Y-62016163D01*
X176285063Y-61787908D01*
X176305659Y-61552500D01*
X176285063Y-61317092D01*
X176223903Y-61088837D01*
X176124035Y-60874671D01*
X176082021Y-60814669D01*
X175988496Y-60681100D01*
X175928495Y-60621099D01*
X175866567Y-60559171D01*
X175833084Y-60497851D01*
X175838068Y-60428159D01*
X175879939Y-60372225D01*
X175910915Y-60355310D01*
X176042331Y-60306296D01*
X176157546Y-60220046D01*
X176243796Y-60104831D01*
X176294091Y-59969983D01*
X176300500Y-59910373D01*
X176300499Y-58114628D01*
X176294091Y-58055017D01*
X176293946Y-58054629D01*
X176243797Y-57920171D01*
X176243793Y-57920164D01*
X176157547Y-57804955D01*
X176157544Y-57804952D01*
X176042335Y-57718706D01*
X176042328Y-57718702D01*
X175907482Y-57668408D01*
X175907483Y-57668408D01*
X175847883Y-57662001D01*
X175847881Y-57662000D01*
X175847873Y-57662000D01*
X175847864Y-57662000D01*
X174052129Y-57662000D01*
X174052123Y-57662001D01*
X173992516Y-57668408D01*
X173857671Y-57718702D01*
X173857664Y-57718706D01*
X173742455Y-57804952D01*
X173742452Y-57804955D01*
X173656206Y-57920164D01*
X173656202Y-57920171D01*
X173605908Y-58055017D01*
X173602744Y-58084450D01*
X173599501Y-58114623D01*
X173599500Y-58114635D01*
X173599500Y-58261000D01*
X173579815Y-58328039D01*
X173527011Y-58373794D01*
X173475500Y-58385000D01*
X171055692Y-58385000D01*
X170934472Y-58409112D01*
X170934464Y-58409114D01*
X170853715Y-58442562D01*
X170820266Y-58456417D01*
X170820263Y-58456418D01*
X170727361Y-58518494D01*
X170727361Y-58518495D01*
X170717489Y-58525090D01*
X170717488Y-58525091D01*
X161353083Y-67889498D01*
X158234492Y-71008089D01*
X158207912Y-71034669D01*
X158147086Y-71095494D01*
X158147085Y-71095496D01*
X158077733Y-71199289D01*
X158076086Y-71203893D01*
X158031115Y-71312462D01*
X158031112Y-71312472D01*
X158021526Y-71360666D01*
X158007000Y-71433692D01*
X158007000Y-79007119D01*
X157987315Y-79074158D01*
X157934511Y-79119913D01*
X157865353Y-79129857D01*
X157801797Y-79100832D01*
X157795319Y-79094800D01*
X157038952Y-78338433D01*
X157005467Y-78277110D01*
X157003414Y-78264648D01*
X156998468Y-78220745D01*
X156938889Y-78050478D01*
X156842916Y-77897738D01*
X156715362Y-77770184D01*
X156699025Y-77759919D01*
X156562623Y-77674211D01*
X156392354Y-77614631D01*
X156392349Y-77614630D01*
X156213104Y-77594435D01*
X156213096Y-77594435D01*
X156033850Y-77614630D01*
X156033845Y-77614631D01*
X155863576Y-77674211D01*
X155710837Y-77770184D01*
X155583284Y-77897737D01*
X155487311Y-78050476D01*
X155427731Y-78220745D01*
X155427730Y-78220750D01*
X155407535Y-78399996D01*
X155407535Y-78400003D01*
X155427730Y-78579249D01*
X155427731Y-78579254D01*
X155487311Y-78749523D01*
X155562280Y-78868835D01*
X155583284Y-78902262D01*
X155710838Y-79029816D01*
X155781408Y-79074158D01*
X155852510Y-79118835D01*
X155863578Y-79125789D01*
X156033845Y-79185368D01*
X156077735Y-79190313D01*
X156142148Y-79217378D01*
X156151533Y-79225852D01*
X156926181Y-80000500D01*
X156959666Y-80061823D01*
X156962500Y-80088181D01*
X156962500Y-96725719D01*
X156942815Y-96792758D01*
X156890011Y-96838513D01*
X156820853Y-96848457D01*
X156757297Y-96819432D01*
X156750819Y-96813400D01*
X151422508Y-91485089D01*
X151409512Y-91476405D01*
X151409508Y-91476401D01*
X151409508Y-91476403D01*
X151319738Y-91416420D01*
X151319726Y-91416413D01*
X151267348Y-91394718D01*
X151205535Y-91369114D01*
X151205527Y-91369112D01*
X151084307Y-91345000D01*
X151084303Y-91345000D01*
X150735826Y-91345000D01*
X150668787Y-91325315D01*
X150634251Y-91292123D01*
X150500494Y-91101097D01*
X150333402Y-90934006D01*
X150333396Y-90934001D01*
X150147842Y-90804075D01*
X150104217Y-90749498D01*
X150097023Y-90680000D01*
X150128546Y-90617645D01*
X150147842Y-90600925D01*
X150247715Y-90530993D01*
X150333401Y-90470995D01*
X150500495Y-90303901D01*
X150636035Y-90110330D01*
X150735903Y-89896163D01*
X150797063Y-89667908D01*
X150817659Y-89432500D01*
X150797063Y-89197092D01*
X150735903Y-88968837D01*
X150636035Y-88754671D01*
X150600560Y-88704006D01*
X150500494Y-88561097D01*
X150333402Y-88394006D01*
X150333396Y-88394001D01*
X150147842Y-88264075D01*
X150104217Y-88209498D01*
X150097023Y-88140000D01*
X150128546Y-88077645D01*
X150147842Y-88060925D01*
X150247715Y-87990993D01*
X150333401Y-87930995D01*
X150500495Y-87763901D01*
X150636035Y-87570330D01*
X150735903Y-87356163D01*
X150797063Y-87127908D01*
X150817659Y-86892500D01*
X150797063Y-86657092D01*
X150735903Y-86428837D01*
X150636035Y-86214671D01*
X150620992Y-86193186D01*
X150500494Y-86021097D01*
X150333402Y-85854006D01*
X150333396Y-85854001D01*
X150147842Y-85724075D01*
X150104217Y-85669498D01*
X150097023Y-85600000D01*
X150128546Y-85537645D01*
X150147842Y-85520925D01*
X150247715Y-85450993D01*
X150333401Y-85390995D01*
X150500495Y-85223901D01*
X150636035Y-85030330D01*
X150735903Y-84816163D01*
X150797063Y-84587908D01*
X150817659Y-84352500D01*
X150797063Y-84117092D01*
X150735903Y-83888837D01*
X150636035Y-83674671D01*
X150600560Y-83624006D01*
X150500494Y-83481097D01*
X150333402Y-83314006D01*
X150333396Y-83314001D01*
X150147842Y-83184075D01*
X150104217Y-83129498D01*
X150097023Y-83060000D01*
X150128546Y-82997645D01*
X150147842Y-82980925D01*
X150247715Y-82910993D01*
X150333401Y-82850995D01*
X150500495Y-82683901D01*
X150636035Y-82490330D01*
X150735903Y-82276163D01*
X150797063Y-82047908D01*
X150817659Y-81812500D01*
X150797063Y-81577092D01*
X150735903Y-81348837D01*
X150636035Y-81134671D01*
X150620613Y-81112645D01*
X150500494Y-80941097D01*
X150333402Y-80774006D01*
X150333396Y-80774001D01*
X150147842Y-80644075D01*
X150104217Y-80589498D01*
X150097023Y-80520000D01*
X150128546Y-80457645D01*
X150147842Y-80440925D01*
X150247715Y-80370993D01*
X150333401Y-80310995D01*
X150500495Y-80143901D01*
X150636035Y-79950330D01*
X150735903Y-79736163D01*
X150797063Y-79507908D01*
X150817659Y-79272500D01*
X150797063Y-79037092D01*
X150735903Y-78808837D01*
X150636035Y-78594671D01*
X150625237Y-78579249D01*
X150500494Y-78401097D01*
X150333402Y-78234006D01*
X150333396Y-78234001D01*
X150147842Y-78104075D01*
X150104217Y-78049498D01*
X150097023Y-77980000D01*
X150128546Y-77917645D01*
X150147842Y-77900925D01*
X150247715Y-77830993D01*
X150333401Y-77770995D01*
X150500495Y-77603901D01*
X150603833Y-77456319D01*
X150636034Y-77410332D01*
X150636035Y-77410329D01*
X150679571Y-77316966D01*
X150735903Y-77196163D01*
X150797063Y-76967908D01*
X150817659Y-76732500D01*
X150797063Y-76497092D01*
X150735903Y-76268837D01*
X150636035Y-76054671D01*
X150600560Y-76004006D01*
X150500494Y-75861097D01*
X150333402Y-75694006D01*
X150333396Y-75694001D01*
X150147842Y-75564075D01*
X150104217Y-75509498D01*
X150097023Y-75440000D01*
X150128546Y-75377645D01*
X150147842Y-75360925D01*
X150247715Y-75290993D01*
X150333401Y-75230995D01*
X150500495Y-75063901D01*
X150636035Y-74870330D01*
X150735903Y-74656163D01*
X150797063Y-74427908D01*
X150817659Y-74192500D01*
X150797063Y-73957092D01*
X150735903Y-73728837D01*
X150636035Y-73514671D01*
X150600560Y-73464006D01*
X150500494Y-73321097D01*
X150333402Y-73154006D01*
X150333396Y-73154001D01*
X150147842Y-73024075D01*
X150104217Y-72969498D01*
X150097023Y-72900000D01*
X150128546Y-72837645D01*
X150147842Y-72820925D01*
X150247715Y-72750993D01*
X150333401Y-72690995D01*
X150500495Y-72523901D01*
X150636035Y-72330330D01*
X150735903Y-72116163D01*
X150797063Y-71887908D01*
X150817659Y-71652500D01*
X150797063Y-71417092D01*
X150735903Y-71188837D01*
X150636035Y-70974671D01*
X150600560Y-70924006D01*
X150500494Y-70781097D01*
X150333402Y-70614006D01*
X150333396Y-70614001D01*
X150147842Y-70484075D01*
X150104217Y-70429498D01*
X150097023Y-70360000D01*
X150128546Y-70297645D01*
X150147842Y-70280925D01*
X150329249Y-70153902D01*
X150333401Y-70150995D01*
X150500495Y-69983901D01*
X150636035Y-69790330D01*
X150735903Y-69576163D01*
X150797063Y-69347908D01*
X150817659Y-69112500D01*
X150797063Y-68877092D01*
X150735903Y-68648837D01*
X150636035Y-68434671D01*
X150619529Y-68411097D01*
X150500494Y-68241097D01*
X150333402Y-68074006D01*
X150333396Y-68074001D01*
X150147842Y-67944075D01*
X150104217Y-67889498D01*
X150097023Y-67820000D01*
X150128546Y-67757645D01*
X150147842Y-67740925D01*
X150329249Y-67613902D01*
X150333401Y-67610995D01*
X150500495Y-67443901D01*
X150636035Y-67250330D01*
X150735903Y-67036163D01*
X150797063Y-66807908D01*
X150817659Y-66572500D01*
X150797063Y-66337092D01*
X150735903Y-66108837D01*
X150636035Y-65894671D01*
X150619529Y-65871097D01*
X150500494Y-65701097D01*
X150333402Y-65534006D01*
X150333396Y-65534001D01*
X150147842Y-65404075D01*
X150104217Y-65349498D01*
X150097023Y-65280000D01*
X150128546Y-65217645D01*
X150147842Y-65200925D01*
X150329249Y-65073902D01*
X150333401Y-65070995D01*
X150500495Y-64903901D01*
X150636035Y-64710330D01*
X150735903Y-64496163D01*
X150797063Y-64267908D01*
X150817659Y-64032500D01*
X150797063Y-63797092D01*
X150735903Y-63568837D01*
X150636035Y-63354671D01*
X150619531Y-63331100D01*
X150500494Y-63161097D01*
X150333402Y-62994006D01*
X150333396Y-62994001D01*
X150147842Y-62864075D01*
X150104217Y-62809498D01*
X150097023Y-62740000D01*
X150128546Y-62677645D01*
X150147842Y-62660925D01*
X150206313Y-62619983D01*
X150333401Y-62530995D01*
X150500495Y-62363901D01*
X150636035Y-62170330D01*
X150735903Y-61956163D01*
X150797063Y-61727908D01*
X150817659Y-61492500D01*
X150797063Y-61257092D01*
X150735903Y-61028837D01*
X150636035Y-60814671D01*
X150632185Y-60809173D01*
X150500496Y-60621100D01*
X150449560Y-60570164D01*
X150378567Y-60499171D01*
X150345084Y-60437851D01*
X150350068Y-60368159D01*
X150391939Y-60312225D01*
X150422915Y-60295310D01*
X150554331Y-60246296D01*
X150669546Y-60160046D01*
X150755796Y-60044831D01*
X150806091Y-59909983D01*
X150812500Y-59850373D01*
X150812499Y-58054628D01*
X150806091Y-57995017D01*
X150778175Y-57920171D01*
X150755797Y-57860171D01*
X150755793Y-57860164D01*
X150669547Y-57744955D01*
X150669544Y-57744952D01*
X150554335Y-57658706D01*
X150554328Y-57658702D01*
X150419482Y-57608408D01*
X150419483Y-57608408D01*
X150359883Y-57602001D01*
X150359881Y-57602000D01*
X150359873Y-57602000D01*
X150359864Y-57602000D01*
X148564129Y-57602000D01*
X148564123Y-57602001D01*
X148504516Y-57608408D01*
X148369671Y-57658702D01*
X148369664Y-57658706D01*
X148254455Y-57744952D01*
X148254452Y-57744955D01*
X148168206Y-57860164D01*
X148168202Y-57860171D01*
X148117908Y-57995017D01*
X148111501Y-58054616D01*
X148111501Y-58054623D01*
X148111500Y-58054635D01*
X148111500Y-59850370D01*
X148111501Y-59850376D01*
X148117908Y-59909983D01*
X148168202Y-60044828D01*
X148168206Y-60044835D01*
X148254452Y-60160044D01*
X148254455Y-60160047D01*
X148369664Y-60246293D01*
X148369671Y-60246297D01*
X148501081Y-60295310D01*
X148557015Y-60337181D01*
X148581432Y-60402645D01*
X148566580Y-60470918D01*
X148545430Y-60499173D01*
X148423503Y-60621100D01*
X148287965Y-60814669D01*
X148287964Y-60814671D01*
X148188098Y-61028835D01*
X148188094Y-61028844D01*
X148126938Y-61257086D01*
X148126936Y-61257096D01*
X148106341Y-61492499D01*
X144002576Y-61492499D01*
X143961403Y-61338837D01*
X143861535Y-61124671D01*
X143836442Y-61088835D01*
X143725996Y-60931100D01*
X143669565Y-60874669D01*
X143604067Y-60809171D01*
X143570584Y-60747851D01*
X143575568Y-60678159D01*
X143617439Y-60622225D01*
X143648415Y-60605310D01*
X143779831Y-60556296D01*
X143895046Y-60470046D01*
X143981296Y-60354831D01*
X144031591Y-60219983D01*
X144038000Y-60160373D01*
X144037999Y-58364628D01*
X144031591Y-58305017D01*
X143981296Y-58170169D01*
X143981295Y-58170168D01*
X143981293Y-58170164D01*
X143895047Y-58054955D01*
X143895044Y-58054952D01*
X143779835Y-57968706D01*
X143779828Y-57968702D01*
X143644982Y-57918408D01*
X143644983Y-57918408D01*
X143585383Y-57912001D01*
X143585381Y-57912000D01*
X143585373Y-57912000D01*
X143585364Y-57912000D01*
X141789629Y-57912000D01*
X141789623Y-57912001D01*
X141730016Y-57918408D01*
X141595171Y-57968702D01*
X141595164Y-57968706D01*
X141479955Y-58054952D01*
X141479952Y-58054955D01*
X141393706Y-58170164D01*
X141393702Y-58170171D01*
X141343408Y-58305017D01*
X141337001Y-58364616D01*
X141337001Y-58364623D01*
X141337000Y-58364635D01*
X141337000Y-60160370D01*
X141337001Y-60160376D01*
X141343408Y-60219983D01*
X141393702Y-60354828D01*
X141393706Y-60354835D01*
X141479952Y-60470044D01*
X141479955Y-60470047D01*
X141595164Y-60556293D01*
X141595171Y-60556297D01*
X141726581Y-60605310D01*
X141782515Y-60647181D01*
X141806932Y-60712645D01*
X141792080Y-60780918D01*
X141770930Y-60809173D01*
X141649003Y-60931100D01*
X141513465Y-61124669D01*
X141513464Y-61124671D01*
X141413598Y-61338835D01*
X141413594Y-61338844D01*
X141352438Y-61567086D01*
X141352436Y-61567096D01*
X141331841Y-61802499D01*
X131000500Y-61802499D01*
X131000500Y-59974412D01*
X131000540Y-59971271D01*
X131002093Y-59909982D01*
X131018528Y-59261430D01*
X131018846Y-59255166D01*
X131074710Y-58521618D01*
X131075346Y-58515368D01*
X131094544Y-58364635D01*
X131168291Y-57785595D01*
X131169233Y-57779442D01*
X131299034Y-57055252D01*
X131300288Y-57049152D01*
X131466598Y-56332489D01*
X131468162Y-56326450D01*
X131670548Y-55619164D01*
X131672424Y-55613185D01*
X131850804Y-55091335D01*
X131910383Y-54917034D01*
X131912549Y-54911186D01*
X132185474Y-54227950D01*
X132187918Y-54222256D01*
X132495105Y-53553714D01*
X132497843Y-53548133D01*
X132838484Y-52896033D01*
X132841508Y-52890584D01*
X133214736Y-52256582D01*
X133218054Y-52251261D01*
X133622480Y-51637638D01*
X133622894Y-51637009D01*
X133626459Y-51631886D01*
X134061921Y-51038890D01*
X134065743Y-51033952D01*
X134530663Y-50463797D01*
X134534734Y-50459055D01*
X135027965Y-49913147D01*
X135032251Y-49908639D01*
X135552479Y-49388434D01*
X135556997Y-49384139D01*
X136102919Y-48890941D01*
X136107648Y-48886882D01*
X136677833Y-48421980D01*
X136682766Y-48418161D01*
X137275804Y-47982711D01*
X137280914Y-47979156D01*
X137895191Y-47574338D01*
X137900495Y-47571031D01*
X138534530Y-47197822D01*
X138539983Y-47194796D01*
X139192083Y-46854193D01*
X139197678Y-46851449D01*
X139866190Y-46544313D01*
X139871927Y-46541851D01*
X140555172Y-46268956D01*
X140561032Y-46266787D01*
X141257156Y-46028872D01*
X141263130Y-46026997D01*
X141970478Y-45824628D01*
X141976498Y-45823070D01*
X142693156Y-45656796D01*
X142699254Y-45655542D01*
X143423459Y-45525772D01*
X143429589Y-45524834D01*
X144159408Y-45431916D01*
X144165643Y-45431282D01*
X144899204Y-45375450D01*
X144905433Y-45375135D01*
X145615084Y-45357184D01*
X145618220Y-45357144D01*
X177359634Y-45357144D01*
X177423963Y-45357144D01*
X177427104Y-45357184D01*
G37*
%TD.AperFunction*%
%TA.AperFunction,NonConductor*%
G36*
X173542540Y-59659685D02*
G01*
X173588295Y-59712489D01*
X173599501Y-59764000D01*
X173599501Y-59910376D01*
X173605908Y-59969983D01*
X173656202Y-60104828D01*
X173656206Y-60104835D01*
X173742452Y-60220044D01*
X173742455Y-60220047D01*
X173857664Y-60306293D01*
X173857671Y-60306297D01*
X173989081Y-60355310D01*
X174045015Y-60397181D01*
X174069432Y-60462645D01*
X174054580Y-60530918D01*
X174033430Y-60559173D01*
X173911503Y-60681100D01*
X173775965Y-60874669D01*
X173775964Y-60874671D01*
X173676098Y-61088835D01*
X173676094Y-61088844D01*
X173614938Y-61317086D01*
X173614936Y-61317096D01*
X173594341Y-61552499D01*
X173594341Y-61552500D01*
X173614936Y-61787903D01*
X173614938Y-61787913D01*
X173676094Y-62016155D01*
X173676096Y-62016159D01*
X173676097Y-62016163D01*
X173747988Y-62170334D01*
X173775965Y-62230330D01*
X173775967Y-62230334D01*
X173911501Y-62423895D01*
X173911506Y-62423902D01*
X174078597Y-62590993D01*
X174078603Y-62590998D01*
X174264158Y-62720925D01*
X174307783Y-62775502D01*
X174314977Y-62845000D01*
X174283454Y-62907355D01*
X174264158Y-62924075D01*
X174078597Y-63054005D01*
X173911505Y-63221097D01*
X173775965Y-63414669D01*
X173775964Y-63414671D01*
X173676098Y-63628835D01*
X173676094Y-63628844D01*
X173614938Y-63857086D01*
X173614936Y-63857096D01*
X173594341Y-64092499D01*
X173594341Y-64092500D01*
X173614936Y-64327903D01*
X173614938Y-64327913D01*
X173676094Y-64556155D01*
X173676096Y-64556159D01*
X173676097Y-64556163D01*
X173747988Y-64710334D01*
X173775965Y-64770330D01*
X173775967Y-64770334D01*
X173911501Y-64963895D01*
X173911506Y-64963902D01*
X174078597Y-65130993D01*
X174078603Y-65130998D01*
X174264158Y-65260925D01*
X174307783Y-65315502D01*
X174314977Y-65385000D01*
X174283454Y-65447355D01*
X174264158Y-65464075D01*
X174078597Y-65594005D01*
X173911505Y-65761097D01*
X173775965Y-65954669D01*
X173775964Y-65954671D01*
X173676098Y-66168835D01*
X173676094Y-66168844D01*
X173614938Y-66397086D01*
X173614936Y-66397096D01*
X173594341Y-66632499D01*
X173594341Y-66632500D01*
X173614936Y-66867903D01*
X173614938Y-66867913D01*
X173676094Y-67096155D01*
X173676096Y-67096159D01*
X173676097Y-67096163D01*
X173747988Y-67250334D01*
X173775965Y-67310330D01*
X173775967Y-67310334D01*
X173911501Y-67503895D01*
X173911506Y-67503902D01*
X174078597Y-67670993D01*
X174078603Y-67670998D01*
X174264158Y-67800925D01*
X174307783Y-67855502D01*
X174314977Y-67925000D01*
X174283454Y-67987355D01*
X174264158Y-68004075D01*
X174078597Y-68134005D01*
X173911505Y-68301097D01*
X173775965Y-68494669D01*
X173775964Y-68494671D01*
X173676098Y-68708835D01*
X173676094Y-68708844D01*
X173614938Y-68937086D01*
X173614936Y-68937096D01*
X173594341Y-69172499D01*
X173594341Y-69172500D01*
X173614936Y-69407903D01*
X173614938Y-69407913D01*
X173676094Y-69636155D01*
X173676096Y-69636159D01*
X173676097Y-69636163D01*
X173747988Y-69790334D01*
X173775965Y-69850330D01*
X173775967Y-69850334D01*
X173911501Y-70043895D01*
X173911506Y-70043902D01*
X174078597Y-70210993D01*
X174078603Y-70210998D01*
X174264158Y-70340925D01*
X174307783Y-70395502D01*
X174314977Y-70465000D01*
X174283454Y-70527355D01*
X174264158Y-70544075D01*
X174078597Y-70674005D01*
X173911505Y-70841097D01*
X173775965Y-71034669D01*
X173775964Y-71034671D01*
X173676098Y-71248835D01*
X173676094Y-71248844D01*
X173614938Y-71477086D01*
X173614936Y-71477096D01*
X173594341Y-71712499D01*
X173594341Y-71712500D01*
X173614936Y-71947903D01*
X173614938Y-71947913D01*
X173676094Y-72176155D01*
X173676096Y-72176159D01*
X173676097Y-72176163D01*
X173747988Y-72330334D01*
X173775965Y-72390330D01*
X173775967Y-72390334D01*
X173911501Y-72583895D01*
X173911506Y-72583902D01*
X174078597Y-72750993D01*
X174078603Y-72750998D01*
X174264158Y-72880925D01*
X174307783Y-72935502D01*
X174314977Y-73005000D01*
X174283454Y-73067355D01*
X174264158Y-73084075D01*
X174078597Y-73214005D01*
X173911505Y-73381097D01*
X173775965Y-73574669D01*
X173775964Y-73574671D01*
X173676098Y-73788835D01*
X173676094Y-73788844D01*
X173614938Y-74017086D01*
X173614936Y-74017096D01*
X173594341Y-74252499D01*
X173594341Y-74252500D01*
X173614936Y-74487903D01*
X173614938Y-74487913D01*
X173676094Y-74716155D01*
X173676096Y-74716159D01*
X173676097Y-74716163D01*
X173747988Y-74870334D01*
X173775965Y-74930330D01*
X173775967Y-74930334D01*
X173911501Y-75123895D01*
X173911506Y-75123902D01*
X174078597Y-75290993D01*
X174078603Y-75290998D01*
X174264158Y-75420925D01*
X174307783Y-75475502D01*
X174314977Y-75545000D01*
X174283454Y-75607355D01*
X174264158Y-75624075D01*
X174078597Y-75754005D01*
X173911505Y-75921097D01*
X173777749Y-76112123D01*
X173723172Y-76155748D01*
X173676174Y-76165000D01*
X173170692Y-76165000D01*
X173049472Y-76189112D01*
X173049464Y-76189114D01*
X172968715Y-76222562D01*
X172935267Y-76236417D01*
X172909487Y-76253642D01*
X172832489Y-76305090D01*
X172832488Y-76305091D01*
X159473681Y-89663899D01*
X159412358Y-89697384D01*
X159342666Y-89692400D01*
X159286733Y-89650528D01*
X159262316Y-89585064D01*
X159262000Y-89576218D01*
X159262000Y-71806781D01*
X159281685Y-71739742D01*
X159298319Y-71719100D01*
X171341100Y-59676319D01*
X171402423Y-59642834D01*
X171428781Y-59640000D01*
X173475501Y-59640000D01*
X173542540Y-59659685D01*
G37*
%TD.AperFunction*%
%TA.AperFunction,NonConductor*%
G36*
X182719103Y-121839445D02*
G01*
X182725581Y-121845477D01*
X182878597Y-121998493D01*
X182878603Y-121998498D01*
X183064158Y-122128425D01*
X183107783Y-122183002D01*
X183114977Y-122252500D01*
X183083454Y-122314855D01*
X183064158Y-122331575D01*
X182878597Y-122461505D01*
X182725581Y-122614522D01*
X182664258Y-122648007D01*
X182594566Y-122643023D01*
X182538633Y-122601151D01*
X182514216Y-122535687D01*
X182513900Y-122526841D01*
X182513900Y-121933158D01*
X182533585Y-121866119D01*
X182586389Y-121820364D01*
X182655547Y-121810420D01*
X182719103Y-121839445D01*
G37*
%TD.AperFunction*%
%TA.AperFunction,NonConductor*%
G36*
X156881834Y-121118599D02*
G01*
X156937767Y-121160471D01*
X156962184Y-121225935D01*
X156962500Y-121234781D01*
X156962500Y-124748718D01*
X156942815Y-124815757D01*
X156926181Y-124836399D01*
X156151981Y-125610599D01*
X156090658Y-125644084D01*
X156020966Y-125639100D01*
X155965033Y-125597228D01*
X155940616Y-125531764D01*
X155940300Y-125522918D01*
X155940300Y-123731300D01*
X155959307Y-123665327D01*
X156025788Y-123559524D01*
X156028375Y-123552131D01*
X156085368Y-123389255D01*
X156085369Y-123389249D01*
X156105565Y-123210003D01*
X156105565Y-123209996D01*
X156085369Y-123030750D01*
X156085368Y-123030745D01*
X156041105Y-122904249D01*
X156025789Y-122860478D01*
X156001718Y-122822169D01*
X155959306Y-122754670D01*
X155940300Y-122688698D01*
X155940300Y-122008981D01*
X155959985Y-121941942D01*
X155976619Y-121921300D01*
X156750819Y-121147100D01*
X156812142Y-121113615D01*
X156881834Y-121118599D01*
G37*
%TD.AperFunction*%
%TA.AperFunction,NonConductor*%
G36*
X107445203Y-95451272D02*
G01*
X107481042Y-95504031D01*
X107513511Y-95596822D01*
X107538793Y-95637058D01*
X107557800Y-95703031D01*
X107557800Y-103946509D01*
X107538794Y-104012481D01*
X107499211Y-104075477D01*
X107499209Y-104075481D01*
X107481041Y-104127402D01*
X107440319Y-104184178D01*
X107375367Y-104209925D01*
X107306805Y-104196468D01*
X107256402Y-104148081D01*
X107240000Y-104086447D01*
X107240000Y-95544985D01*
X107259685Y-95477946D01*
X107312489Y-95432191D01*
X107381647Y-95422247D01*
X107445203Y-95451272D01*
G37*
%TD.AperFunction*%
%TA.AperFunction,NonConductor*%
G36*
X109018003Y-99975527D02*
G01*
X109024481Y-99981559D01*
X109047738Y-100004816D01*
X109200478Y-100100789D01*
X109264454Y-100123175D01*
X109321230Y-100163897D01*
X109346978Y-100228850D01*
X109347500Y-100240217D01*
X109347500Y-106496925D01*
X109327815Y-106563964D01*
X109275011Y-106609719D01*
X109205853Y-106619663D01*
X109162316Y-106603679D01*
X109162195Y-106603931D01*
X109159604Y-106602683D01*
X109157536Y-106601924D01*
X109155924Y-106600911D01*
X108985649Y-106541330D01*
X108917016Y-106533597D01*
X108852602Y-106506530D01*
X108813047Y-106448935D01*
X108806900Y-106410377D01*
X108806900Y-105026540D01*
X108826585Y-104959501D01*
X108843219Y-104938859D01*
X108854816Y-104927262D01*
X108950789Y-104774522D01*
X109010368Y-104604255D01*
X109030565Y-104425000D01*
X109010368Y-104245745D01*
X108950789Y-104075478D01*
X108854816Y-103922738D01*
X108849119Y-103917041D01*
X108815634Y-103855718D01*
X108812800Y-103829360D01*
X108812800Y-100069240D01*
X108832485Y-100002201D01*
X108885289Y-99956446D01*
X108954447Y-99946502D01*
X109018003Y-99975527D01*
G37*
%TD.AperFunction*%
%TA.AperFunction,NonConductor*%
G36*
X107445203Y-104669839D02*
G01*
X107481042Y-104722598D01*
X107499209Y-104774519D01*
X107499211Y-104774522D01*
X107532893Y-104828126D01*
X107551900Y-104894098D01*
X107551900Y-108238000D01*
X107532215Y-108305039D01*
X107479411Y-108350794D01*
X107427900Y-108362000D01*
X107364000Y-108362000D01*
X107296961Y-108342315D01*
X107251206Y-108289511D01*
X107240000Y-108238000D01*
X107240000Y-104763552D01*
X107259685Y-104696513D01*
X107312489Y-104650758D01*
X107381647Y-104640814D01*
X107445203Y-104669839D01*
G37*
%TD.AperFunction*%
%TA.AperFunction,NonConductor*%
G36*
X108471439Y-118520424D02*
G01*
X108522818Y-118567773D01*
X108540500Y-118631589D01*
X108540500Y-118992986D01*
X108520815Y-119060025D01*
X108468011Y-119105780D01*
X108402617Y-119116206D01*
X108265304Y-119100735D01*
X108265296Y-119100735D01*
X108086050Y-119120930D01*
X108086038Y-119120933D01*
X108061124Y-119129651D01*
X107991345Y-119133212D01*
X107930718Y-119098482D01*
X107898492Y-119036488D01*
X107904898Y-118966913D01*
X107932488Y-118924930D01*
X108311567Y-118545850D01*
X108372888Y-118512367D01*
X108385358Y-118510313D01*
X108402617Y-118508369D01*
X108471439Y-118520424D01*
G37*
%TD.AperFunction*%
%TA.AperFunction,NonConductor*%
G36*
X104181384Y-118208546D02*
G01*
X104204023Y-118219735D01*
X104350929Y-118312043D01*
X104350933Y-118312044D01*
X104350934Y-118312045D01*
X104521201Y-118371624D01*
X104565091Y-118376569D01*
X104629504Y-118403634D01*
X104638889Y-118412108D01*
X105226789Y-119000008D01*
X105278282Y-119051501D01*
X105314193Y-119087412D01*
X105358628Y-119117102D01*
X105403434Y-119170714D01*
X105412143Y-119240039D01*
X105402121Y-119272610D01*
X105338598Y-119408835D01*
X105338596Y-119408841D01*
X105277438Y-119637086D01*
X105277436Y-119637096D01*
X105256841Y-119872499D01*
X105256841Y-119872500D01*
X105277436Y-120107903D01*
X105277438Y-120107913D01*
X105338594Y-120336155D01*
X105338595Y-120336158D01*
X105338597Y-120336163D01*
X105343228Y-120346095D01*
X105353721Y-120415170D01*
X105325203Y-120478954D01*
X105266728Y-120517195D01*
X105230847Y-120522500D01*
X103628715Y-120522500D01*
X103561676Y-120502815D01*
X103515921Y-120450011D01*
X103505495Y-120412384D01*
X103486269Y-120241749D01*
X103486268Y-120241745D01*
X103462395Y-120173519D01*
X103426689Y-120071478D01*
X103347405Y-119945299D01*
X103328400Y-119879328D01*
X103328400Y-119010380D01*
X103348085Y-118943341D01*
X103364715Y-118922703D01*
X104050372Y-118237045D01*
X104111693Y-118203562D01*
X104181384Y-118208546D01*
G37*
%TD.AperFunction*%
%TA.AperFunction,NonConductor*%
G36*
X108459834Y-121230099D02*
G01*
X108515767Y-121271971D01*
X108540184Y-121337435D01*
X108540500Y-121346281D01*
X108540500Y-122183328D01*
X108521494Y-122249300D01*
X108442211Y-122375476D01*
X108382631Y-122545745D01*
X108382630Y-122545750D01*
X108362435Y-122724996D01*
X108362435Y-122725003D01*
X108382630Y-122904249D01*
X108382631Y-122904254D01*
X108442212Y-123074526D01*
X108527393Y-123210089D01*
X108546400Y-123276061D01*
X108546400Y-123589618D01*
X108526715Y-123656657D01*
X108473911Y-123702412D01*
X108404753Y-123712356D01*
X108341197Y-123683331D01*
X108334719Y-123677299D01*
X107945512Y-123288092D01*
X107945508Y-123288089D01*
X107910342Y-123264592D01*
X107842733Y-123219417D01*
X107842437Y-123219219D01*
X107797633Y-123165606D01*
X107788926Y-123096281D01*
X107798947Y-123063712D01*
X107811713Y-123036335D01*
X107886403Y-122876163D01*
X107947563Y-122647908D01*
X107968159Y-122412500D01*
X107947563Y-122177092D01*
X107886403Y-121948837D01*
X107835745Y-121840202D01*
X107825254Y-121771128D01*
X107853773Y-121707344D01*
X107879233Y-121684700D01*
X107950008Y-121637411D01*
X108037411Y-121550008D01*
X108328819Y-121258600D01*
X108390142Y-121225115D01*
X108459834Y-121230099D01*
G37*
%TD.AperFunction*%
%TA.AperFunction,NonConductor*%
G36*
X108042120Y-125346364D02*
G01*
X108210737Y-125405366D01*
X108210743Y-125405367D01*
X108210745Y-125405368D01*
X108210746Y-125405368D01*
X108210750Y-125405369D01*
X108389996Y-125425565D01*
X108390000Y-125425565D01*
X108390003Y-125425565D01*
X108408516Y-125423479D01*
X108477338Y-125435533D01*
X108528718Y-125482882D01*
X108546400Y-125546699D01*
X108546400Y-126009618D01*
X108526715Y-126076657D01*
X108473911Y-126122412D01*
X108404753Y-126132356D01*
X108341197Y-126103331D01*
X108334719Y-126097299D01*
X107950013Y-125712593D01*
X107950009Y-125712590D01*
X107950008Y-125712589D01*
X107923133Y-125694632D01*
X107923131Y-125694630D01*
X107884569Y-125668863D01*
X107839765Y-125615251D01*
X107831058Y-125545925D01*
X107841076Y-125513365D01*
X107886403Y-125416163D01*
X107886403Y-125416159D01*
X107888691Y-125411255D01*
X107891105Y-125412381D01*
X107925669Y-125365037D01*
X107990836Y-125339836D01*
X108042120Y-125346364D01*
G37*
%TD.AperFunction*%
%TA.AperFunction,NonConductor*%
G36*
X105192703Y-126402669D02*
G01*
X105199181Y-126408701D01*
X105433538Y-126643059D01*
X105467023Y-126704382D01*
X105462039Y-126774074D01*
X105447434Y-126801861D01*
X105438466Y-126814669D01*
X105338597Y-127028835D01*
X105338595Y-127028842D01*
X105318938Y-127102204D01*
X105282573Y-127161864D01*
X105219726Y-127192393D01*
X105150350Y-127184098D01*
X105096472Y-127139613D01*
X105087442Y-127123910D01*
X105085789Y-127120478D01*
X105006506Y-126994300D01*
X104987500Y-126928328D01*
X104987500Y-126496382D01*
X105007185Y-126429343D01*
X105059989Y-126383588D01*
X105129147Y-126373644D01*
X105192703Y-126402669D01*
G37*
%TD.AperFunction*%
%TA.AperFunction,NonConductor*%
G36*
X105176175Y-129918757D02*
G01*
X105232108Y-129960629D01*
X105256525Y-130026093D01*
X105256693Y-130030818D01*
X105277436Y-130267903D01*
X105277438Y-130267913D01*
X105303758Y-130366141D01*
X105302095Y-130435991D01*
X105271664Y-130485915D01*
X104766836Y-130990745D01*
X104608292Y-131149289D01*
X104564589Y-131192991D01*
X104520887Y-131236693D01*
X104452219Y-131339462D01*
X104452217Y-131339467D01*
X104446597Y-131353035D01*
X104404914Y-131453665D01*
X104381376Y-131572000D01*
X104380800Y-131574897D01*
X104380800Y-131960128D01*
X104361794Y-132026100D01*
X104282511Y-132152276D01*
X104246671Y-132254703D01*
X104205949Y-132311479D01*
X104140996Y-132337226D01*
X104072435Y-132323770D01*
X104041948Y-132301429D01*
X103813819Y-132073300D01*
X103780334Y-132011977D01*
X103777500Y-131985619D01*
X103777500Y-131139093D01*
X103797185Y-131072054D01*
X103849989Y-131026299D01*
X103887616Y-131015873D01*
X103921990Y-131012000D01*
X103980849Y-131005369D01*
X103980852Y-131005368D01*
X103980855Y-131005368D01*
X104151122Y-130945789D01*
X104303862Y-130849816D01*
X104431416Y-130722262D01*
X104527389Y-130569522D01*
X104574285Y-130435498D01*
X104603643Y-130388774D01*
X105045160Y-129947258D01*
X105106483Y-129913773D01*
X105176175Y-129918757D01*
G37*
%TD.AperFunction*%
%TA.AperFunction,NonConductor*%
G36*
X107639118Y-128478287D02*
G01*
X107695053Y-128520158D01*
X107719007Y-128580586D01*
X107734630Y-128719250D01*
X107734631Y-128719254D01*
X107794211Y-128889523D01*
X107882011Y-129029255D01*
X107890184Y-129042262D01*
X108017738Y-129169816D01*
X108170478Y-129265789D01*
X108248763Y-129293182D01*
X108340745Y-129325368D01*
X108340750Y-129325369D01*
X108388512Y-129330750D01*
X108436283Y-129336132D01*
X108500696Y-129363198D01*
X108540252Y-129420792D01*
X108546400Y-129459352D01*
X108546400Y-130653950D01*
X108527394Y-130719922D01*
X108464211Y-130820476D01*
X108404631Y-130990745D01*
X108404630Y-130990750D01*
X108384435Y-131169996D01*
X108384435Y-131170003D01*
X108404630Y-131349249D01*
X108404631Y-131349254D01*
X108447933Y-131473002D01*
X108464211Y-131519522D01*
X108499005Y-131574897D01*
X108521494Y-131610687D01*
X108540500Y-131676659D01*
X108540500Y-135158779D01*
X108520815Y-135225818D01*
X108468011Y-135271573D01*
X108398853Y-135281517D01*
X108375545Y-135275821D01*
X108229254Y-135224631D01*
X108229249Y-135224630D01*
X108050004Y-135204435D01*
X108049996Y-135204435D01*
X107870750Y-135224630D01*
X107870745Y-135224631D01*
X107700476Y-135284211D01*
X107574300Y-135363494D01*
X107508328Y-135382500D01*
X107174381Y-135382500D01*
X107107342Y-135362815D01*
X107086700Y-135346181D01*
X105208670Y-133468151D01*
X105175185Y-133406828D01*
X105180169Y-133337136D01*
X105222041Y-133281203D01*
X105255393Y-133263430D01*
X105321150Y-133240420D01*
X105390927Y-133236859D01*
X105451554Y-133271587D01*
X105463678Y-133286338D01*
X105574005Y-133443901D01*
X105741099Y-133610995D01*
X105760325Y-133624457D01*
X105934665Y-133746532D01*
X105934667Y-133746533D01*
X105934670Y-133746535D01*
X106148837Y-133846403D01*
X106377092Y-133907563D01*
X106565418Y-133924039D01*
X106612499Y-133928159D01*
X106612500Y-133928159D01*
X106612501Y-133928159D01*
X106651734Y-133924726D01*
X106847908Y-133907563D01*
X107076163Y-133846403D01*
X107290330Y-133746535D01*
X107483901Y-133610995D01*
X107650995Y-133443901D01*
X107786535Y-133250330D01*
X107886403Y-133036163D01*
X107947563Y-132807908D01*
X107968159Y-132572500D01*
X107947563Y-132337092D01*
X107886403Y-132108837D01*
X107786535Y-131894671D01*
X107730812Y-131815089D01*
X107650994Y-131701097D01*
X107483902Y-131534006D01*
X107483896Y-131534001D01*
X107298342Y-131404075D01*
X107254717Y-131349498D01*
X107247523Y-131280000D01*
X107279046Y-131217645D01*
X107298342Y-131200925D01*
X107372084Y-131149290D01*
X107483901Y-131070995D01*
X107650995Y-130903901D01*
X107786535Y-130710330D01*
X107886403Y-130496163D01*
X107947563Y-130267908D01*
X107968159Y-130032500D01*
X107967598Y-130026093D01*
X107958674Y-129924091D01*
X107947563Y-129797092D01*
X107888266Y-129575789D01*
X107886405Y-129568844D01*
X107886404Y-129568843D01*
X107886403Y-129568837D01*
X107786535Y-129354671D01*
X107784849Y-129352262D01*
X107650994Y-129161097D01*
X107483902Y-128994006D01*
X107483896Y-128994001D01*
X107298342Y-128864075D01*
X107254717Y-128809498D01*
X107247523Y-128740000D01*
X107279046Y-128677645D01*
X107298342Y-128660925D01*
X107384455Y-128600628D01*
X107483901Y-128530995D01*
X107508108Y-128506787D01*
X107569427Y-128473304D01*
X107639118Y-128478287D01*
G37*
%TD.AperFunction*%
M02*
